%TF.GenerationSoftware,KiCad,Pcbnew,10.0.3*%
%TF.CreationDate,2026-06-23T15:30:29-05:00*%
%TF.ProjectId,GPS_board_v3,4750535f-626f-4617-9264-5f76332e6b69,rev?*%
%TF.SameCoordinates,Original*%
%TF.FileFunction,Legend,Bot*%
%TF.FilePolarity,Positive*%
%FSLAX46Y46*%
G04 Gerber Fmt 4.6, Leading zero omitted, Abs format (unit mm)*
G04 Created by KiCad (PCBNEW 10.0.3) date 2026-06-23 15:30:29*
%MOMM*%
%LPD*%
G01*
G04 APERTURE LIST*
%ADD10C,0.152000*%
%ADD11C,0.000000*%
G04 APERTURE END LIST*
D10*
G36*
X169870000Y-82959316D02*
G01*
X171378443Y-82959316D01*
X171378443Y-82107397D01*
X171214312Y-82107397D01*
X171214312Y-82763921D01*
X170737550Y-82763921D01*
X170737550Y-82189462D01*
X170586730Y-82189462D01*
X170586730Y-82763921D01*
X170034131Y-82763921D01*
X170034131Y-82056594D01*
X169870000Y-82056594D01*
X169870000Y-82959316D01*
G37*
G36*
X170188004Y-80917445D02*
G01*
X170188004Y-80737683D01*
X170178600Y-80737683D01*
X170092501Y-80752144D01*
X169999570Y-80798988D01*
X169944241Y-80844614D01*
X169899858Y-80899615D01*
X169865725Y-80965195D01*
X169834407Y-81075951D01*
X169823105Y-81213224D01*
X169836174Y-81352612D01*
X169873906Y-81475014D01*
X169935752Y-81583810D01*
X170023384Y-81681315D01*
X170127527Y-81756142D01*
X170258269Y-81812842D01*
X170421462Y-81849738D01*
X170624344Y-81863154D01*
X170825513Y-81849837D01*
X170988015Y-81813143D01*
X171118825Y-81756635D01*
X171223593Y-81681926D01*
X171311773Y-81584702D01*
X171374069Y-81475731D01*
X171412132Y-81352622D01*
X171425338Y-81211880D01*
X171413723Y-81075871D01*
X171381374Y-80965195D01*
X171346267Y-80899877D01*
X171300163Y-80844846D01*
X171242156Y-80798988D01*
X171145781Y-80752026D01*
X171059096Y-80737683D01*
X171059096Y-80917445D01*
X171068499Y-80917445D01*
X171120680Y-80925836D01*
X171172913Y-80952128D01*
X171216663Y-80993399D01*
X171248995Y-81050680D01*
X171267689Y-81118407D01*
X171274518Y-81204431D01*
X171262365Y-81315065D01*
X171227893Y-81406558D01*
X171171722Y-81483119D01*
X171091336Y-81547103D01*
X170964504Y-81607532D01*
X170810819Y-81646108D01*
X170624344Y-81659944D01*
X170435902Y-81645966D01*
X170281773Y-81607125D01*
X170155642Y-81546493D01*
X170075806Y-81482260D01*
X170020078Y-81405878D01*
X169985938Y-81315070D01*
X169973925Y-81205774D01*
X169982826Y-81103376D01*
X170006038Y-81031987D01*
X170040359Y-80983391D01*
X170087803Y-80945864D01*
X170136534Y-80924495D01*
X170188004Y-80917445D01*
G37*
G36*
X169870000Y-80522749D02*
G01*
X171378443Y-80522749D01*
X171378443Y-79670830D01*
X171214312Y-79670830D01*
X171214312Y-80327355D01*
X170737550Y-80327355D01*
X170737550Y-79752896D01*
X170586730Y-79752896D01*
X170586730Y-80327355D01*
X170034131Y-80327355D01*
X170034131Y-79620027D01*
X169870000Y-79620027D01*
X169870000Y-80522749D01*
G37*
G36*
X169870000Y-79199930D02*
G01*
X169870000Y-79379692D01*
X171378443Y-79379692D01*
X171378443Y-79184909D01*
X170306584Y-78496755D01*
X170186172Y-78433984D01*
X170305240Y-78433984D01*
X171378443Y-78433984D01*
X171378443Y-78254221D01*
X169870000Y-78254221D01*
X169870000Y-78446318D01*
X170947355Y-79137037D01*
X171067766Y-79199930D01*
X170947355Y-79199930D01*
X169870000Y-79199930D01*
G37*
G36*
X170409288Y-78035380D02*
G01*
X170560108Y-78035380D01*
X170560108Y-77433565D01*
X170409288Y-77433565D01*
X170409288Y-78035380D01*
G37*
G36*
X170481950Y-76353035D02*
G01*
X171378443Y-76353035D01*
X171378443Y-76532798D01*
X170481950Y-77259665D01*
X170331130Y-77259665D01*
X170331130Y-77059019D01*
X170481950Y-77059019D01*
X171139330Y-76532798D01*
X170481950Y-76532798D01*
X170481950Y-77059019D01*
X170331130Y-77059019D01*
X170331130Y-76532798D01*
X169870000Y-76532798D01*
X169870000Y-76353035D01*
X170331130Y-76353035D01*
X170331130Y-76142009D01*
X170481950Y-76142009D01*
X170481950Y-76353035D01*
G37*
G36*
X170625809Y-75654501D02*
G01*
X170776629Y-75654501D01*
X170776629Y-75540317D01*
X170788261Y-75416610D01*
X170818272Y-75333199D01*
X170866038Y-75265126D01*
X170922930Y-75214131D01*
X170989372Y-75181054D01*
X171062515Y-75170045D01*
X171124623Y-75178399D01*
X171175447Y-75202313D01*
X171217732Y-75242341D01*
X171248284Y-75293378D01*
X171267594Y-75355946D01*
X171274518Y-75432972D01*
X171269957Y-75500273D01*
X171256688Y-75561688D01*
X171232303Y-75615488D01*
X171197215Y-75653157D01*
X171153795Y-75677179D01*
X171110387Y-75684787D01*
X171099396Y-75684787D01*
X171099396Y-75856734D01*
X171110387Y-75856734D01*
X171184923Y-75846171D01*
X171256288Y-75813934D01*
X171326664Y-75756838D01*
X171377702Y-75683403D01*
X171412158Y-75576366D01*
X171425338Y-75423813D01*
X171413141Y-75279569D01*
X171380429Y-75171923D01*
X171330816Y-75092376D01*
X171261574Y-75030553D01*
X171181600Y-74993977D01*
X171087306Y-74981367D01*
X171008660Y-74989481D01*
X170935997Y-75013485D01*
X170869977Y-75052703D01*
X170810090Y-75108251D01*
X170762198Y-75180229D01*
X170720453Y-75288381D01*
X170676333Y-75170883D01*
X170623613Y-75081720D01*
X170563161Y-75015683D01*
X170489599Y-74966262D01*
X170404319Y-74936092D01*
X170304141Y-74925558D01*
X170187716Y-74939479D01*
X170078198Y-74981241D01*
X169972826Y-75053175D01*
X169909667Y-75121762D01*
X169863282Y-75206343D01*
X169833733Y-75310343D01*
X169823105Y-75438468D01*
X169836000Y-75586680D01*
X169870089Y-75693324D01*
X169921168Y-75768806D01*
X169991667Y-75827753D01*
X170064851Y-75861281D01*
X170143063Y-75872365D01*
X170143063Y-75692602D01*
X170133660Y-75692602D01*
X170084944Y-75684170D01*
X170045821Y-75659588D01*
X170013859Y-75616399D01*
X169984753Y-75533649D01*
X169973925Y-75421737D01*
X169983039Y-75333011D01*
X170008974Y-75258461D01*
X170054087Y-75196744D01*
X170121692Y-75150994D01*
X170202262Y-75123584D01*
X170291563Y-75114235D01*
X170381012Y-75126573D01*
X170459277Y-75162873D01*
X170529455Y-75225122D01*
X170579845Y-75304858D01*
X170613273Y-75414464D01*
X170625809Y-75563276D01*
X170625809Y-75654501D01*
G37*
G36*
X170643761Y-74414724D02*
G01*
X171378443Y-74414724D01*
X171378443Y-73646824D01*
X171214312Y-73646824D01*
X171214312Y-74250593D01*
X170800076Y-74250593D01*
X170800076Y-74205774D01*
X170792482Y-74050499D01*
X170772311Y-73933249D01*
X170742801Y-73846371D01*
X170698271Y-73766800D01*
X170644504Y-73702941D01*
X170581113Y-73652808D01*
X170508783Y-73616661D01*
X170425208Y-73594156D01*
X170327955Y-73586252D01*
X170201123Y-73599831D01*
X170085164Y-73639893D01*
X169977222Y-73707397D01*
X169911864Y-73773339D01*
X169864210Y-73854826D01*
X169833971Y-73955179D01*
X169823105Y-74079134D01*
X169834028Y-74208179D01*
X169864338Y-74312320D01*
X169911887Y-74396528D01*
X169977809Y-74465085D01*
X170048538Y-74503577D01*
X170126943Y-74516329D01*
X170126943Y-74336566D01*
X170117784Y-74336566D01*
X170079233Y-74329426D01*
X170045196Y-74307724D01*
X170014103Y-74268178D01*
X169985009Y-74192254D01*
X169973925Y-74082920D01*
X169986337Y-73983029D01*
X170020580Y-73907487D01*
X170075774Y-73850279D01*
X170146733Y-73808372D01*
X170222925Y-73783403D01*
X170306095Y-73774930D01*
X170397621Y-73786282D01*
X170476801Y-73819300D01*
X170546674Y-73874825D01*
X170583639Y-73926641D01*
X170614080Y-74004865D01*
X170635493Y-74118470D01*
X170643761Y-74278314D01*
X170643761Y-74414724D01*
G37*
G36*
X170203025Y-72353314D02*
G01*
X170203025Y-72157920D01*
X170193621Y-72157920D01*
X170116546Y-72147139D01*
X170061258Y-72117689D01*
X170022041Y-72069748D01*
X169996678Y-72008924D01*
X169980023Y-71931919D01*
X169973925Y-71835031D01*
X169982703Y-71752046D01*
X170007899Y-71681057D01*
X170049274Y-71619487D01*
X170104559Y-71571384D01*
X170169408Y-71542642D01*
X170246866Y-71532658D01*
X170310160Y-71541161D01*
X170363776Y-71565822D01*
X170410143Y-71607519D01*
X170467758Y-71692916D01*
X170535073Y-71833688D01*
X170566580Y-71911357D01*
X170636716Y-72058728D01*
X170697494Y-72149738D01*
X170767484Y-72219750D01*
X170841598Y-72267585D01*
X170923996Y-72296466D01*
X171017819Y-72306420D01*
X171127084Y-72292803D01*
X171222387Y-72253063D01*
X171307247Y-72186008D01*
X171355654Y-72122905D01*
X171392448Y-72042100D01*
X171416527Y-71939477D01*
X171425338Y-71809874D01*
X171413258Y-71654591D01*
X171382244Y-71548955D01*
X171337533Y-71479413D01*
X171274194Y-71425450D01*
X171206849Y-71394490D01*
X171133224Y-71384159D01*
X171122233Y-71384159D01*
X171122233Y-71579553D01*
X171133224Y-71579553D01*
X171168831Y-71586546D01*
X171205886Y-71609228D01*
X171235939Y-71644417D01*
X171258032Y-71696667D01*
X171270237Y-71756380D01*
X171274518Y-71824651D01*
X171265274Y-71916840D01*
X171240356Y-71985066D01*
X171201856Y-72035188D01*
X171150255Y-72073461D01*
X171095426Y-72095735D01*
X171035771Y-72103210D01*
X170976045Y-72095154D01*
X170919267Y-72070725D01*
X170869373Y-72032335D01*
X170828042Y-71981088D01*
X170731200Y-71788258D01*
X170691510Y-71695935D01*
X170618799Y-71552966D01*
X170551300Y-71459386D01*
X170488545Y-71402721D01*
X170415390Y-71361692D01*
X170339468Y-71337538D01*
X170259323Y-71329448D01*
X170148336Y-71344236D01*
X170039138Y-71389654D01*
X169973653Y-71435179D01*
X169920281Y-71490435D01*
X169877937Y-71556350D01*
X169849127Y-71629575D01*
X169830097Y-71722862D01*
X169823105Y-71840771D01*
X169834244Y-72001271D01*
X169864016Y-72122260D01*
X169897828Y-72193063D01*
X169942262Y-72249854D01*
X169997861Y-72294574D01*
X170095357Y-72338554D01*
X170203025Y-72353314D01*
G37*
G36*
X170556192Y-70144383D02*
G01*
X170671999Y-70174207D01*
X170766279Y-70220726D01*
X170842819Y-70283356D01*
X170906510Y-70362597D01*
X170951287Y-70448222D01*
X170978375Y-70541676D01*
X170987655Y-70644958D01*
X170978355Y-70748888D01*
X170951234Y-70842744D01*
X170906450Y-70928554D01*
X170842819Y-71007780D01*
X170766279Y-71070410D01*
X170671999Y-71116929D01*
X170556192Y-71146754D01*
X170413928Y-71157501D01*
X170270857Y-71146735D01*
X170154559Y-71116879D01*
X170060038Y-71070355D01*
X169983450Y-71007780D01*
X169919878Y-70928561D01*
X169875130Y-70842754D01*
X169848030Y-70748894D01*
X169838736Y-70644958D01*
X169838747Y-70644836D01*
X169989556Y-70644836D01*
X170002713Y-70736639D01*
X170040952Y-70813784D01*
X170106182Y-70880041D01*
X170188386Y-70927720D01*
X170289397Y-70957961D01*
X170413928Y-70968824D01*
X170537461Y-70957987D01*
X170637981Y-70927771D01*
X170720087Y-70880041D01*
X170785391Y-70813775D01*
X170823667Y-70736629D01*
X170836835Y-70644836D01*
X170823711Y-70554015D01*
X170785479Y-70477371D01*
X170720087Y-70411217D01*
X170637972Y-70363419D01*
X170537452Y-70333162D01*
X170413928Y-70322313D01*
X170289406Y-70333188D01*
X170188395Y-70363469D01*
X170106182Y-70411217D01*
X170040865Y-70477362D01*
X170002669Y-70554006D01*
X169989556Y-70644836D01*
X169838747Y-70644836D01*
X169848010Y-70541669D01*
X169875077Y-70448213D01*
X169919818Y-70362589D01*
X169983450Y-70283356D01*
X170060038Y-70220781D01*
X170154559Y-70174258D01*
X170270857Y-70144402D01*
X170413928Y-70133635D01*
X170556192Y-70144383D01*
G37*
G36*
X169870000Y-69727215D02*
G01*
X169870000Y-69906978D01*
X171440969Y-69906978D01*
X171440969Y-69727215D01*
X169870000Y-69727215D01*
G37*
G36*
X171440969Y-68689672D02*
G01*
X170768080Y-68689672D01*
X170858667Y-68748986D01*
X170908032Y-68795429D01*
X170942863Y-68846875D01*
X170967749Y-68904727D01*
X170982573Y-68966967D01*
X170987655Y-69035031D01*
X170976902Y-69137927D01*
X170946093Y-69225692D01*
X170895621Y-69301545D01*
X170823524Y-69367445D01*
X170708719Y-69432167D01*
X170572952Y-69472583D01*
X170411242Y-69486880D01*
X170300709Y-69480208D01*
X170200467Y-69460889D01*
X170109113Y-69429605D01*
X170024445Y-69384782D01*
X169957806Y-69331583D01*
X169906636Y-69269870D01*
X169868813Y-69199067D01*
X169846324Y-69124468D01*
X169838736Y-69044678D01*
X169844521Y-68996685D01*
X169979420Y-68996685D01*
X169990377Y-69081506D01*
X170021998Y-69152963D01*
X170075041Y-69214305D01*
X170144761Y-69256607D01*
X170253313Y-69286454D01*
X170415760Y-69298203D01*
X170553791Y-69286870D01*
X170656301Y-69256579D01*
X170731566Y-69210886D01*
X170790738Y-69146811D01*
X170825143Y-69075017D01*
X170836835Y-68992533D01*
X170823361Y-68903343D01*
X170784408Y-68830386D01*
X170717766Y-68769539D01*
X170634814Y-68726633D01*
X170534539Y-68699409D01*
X170412951Y-68689672D01*
X170293825Y-68699158D01*
X170187882Y-68726552D01*
X170095997Y-68773905D01*
X170032421Y-68837072D01*
X169992492Y-68914333D01*
X169979420Y-68996685D01*
X169844521Y-68996685D01*
X169854368Y-68914986D01*
X169876361Y-68852675D01*
X169910788Y-68797505D01*
X169962092Y-68748787D01*
X170056479Y-68689672D01*
X169870000Y-68689672D01*
X169870000Y-68509909D01*
X171440969Y-68509909D01*
X171440969Y-68689672D01*
G37*
G36*
X170588210Y-67352929D02*
G01*
X170690995Y-67373192D01*
X170768447Y-67403244D01*
X170838329Y-67447590D01*
X170893032Y-67500119D01*
X170934410Y-67561392D01*
X170974090Y-67666064D01*
X170987655Y-67784019D01*
X170976964Y-67892350D01*
X170946011Y-67987681D01*
X170895001Y-68072730D01*
X170822180Y-68149284D01*
X170735941Y-68210284D01*
X170639157Y-68254316D01*
X170529886Y-68281573D01*
X170405624Y-68291067D01*
X170283869Y-68282036D01*
X170177113Y-68256161D01*
X170082908Y-68214487D01*
X169999326Y-68156978D01*
X169930273Y-68084526D01*
X169880643Y-67998911D01*
X169849686Y-67897490D01*
X169838736Y-67776448D01*
X169848816Y-67659733D01*
X169877327Y-67561392D01*
X169925298Y-67475882D01*
X169989678Y-67410327D01*
X170065395Y-67366507D01*
X170135125Y-67353175D01*
X170144651Y-67353175D01*
X170144651Y-67532937D01*
X170089343Y-67545991D01*
X170037184Y-67588014D01*
X170012473Y-67627608D01*
X169995857Y-67683511D01*
X169989556Y-67761060D01*
X170002928Y-67865139D01*
X170040898Y-67949329D01*
X170103740Y-68018370D01*
X170184394Y-68068930D01*
X170279780Y-68100254D01*
X170393656Y-68111304D01*
X170393656Y-68100436D01*
X170526524Y-68100436D01*
X170620871Y-68074474D01*
X170695935Y-68036785D01*
X170755136Y-67988084D01*
X170801692Y-67927632D01*
X170828142Y-67866223D01*
X170836835Y-67802093D01*
X170827898Y-67721318D01*
X170802397Y-67653593D01*
X170759343Y-67597221D01*
X170696029Y-67553454D01*
X170622526Y-67526197D01*
X170548506Y-67517306D01*
X170526524Y-67517306D01*
X170526524Y-68100436D01*
X170393656Y-68100436D01*
X170393656Y-67345359D01*
X170453740Y-67345359D01*
X170588210Y-67352929D01*
G37*
G36*
X169870000Y-66921353D02*
G01*
X169870000Y-67101116D01*
X170956392Y-67101116D01*
X170956392Y-66921353D01*
X170766249Y-66921353D01*
X170842697Y-66872197D01*
X170894720Y-66823412D01*
X170934788Y-66768323D01*
X170963719Y-66710450D01*
X170981742Y-66649513D01*
X170987655Y-66588572D01*
X170983118Y-66534750D01*
X170970558Y-66491486D01*
X170784078Y-66491486D01*
X170807814Y-66557613D01*
X170815708Y-66627041D01*
X170806452Y-66692253D01*
X170777659Y-66757791D01*
X170725826Y-66825610D01*
X170658831Y-66874768D01*
X170557312Y-66908345D01*
X170408066Y-66921353D01*
X169870000Y-66921353D01*
G37*
G36*
X169870000Y-65401186D02*
G01*
X171382351Y-65401186D01*
X171382351Y-65205792D01*
X170034131Y-65205792D01*
X170034131Y-64412491D01*
X169870000Y-64412491D01*
X169870000Y-65401186D01*
G37*
G36*
X169967457Y-63413749D02*
G01*
X170045854Y-63421842D01*
X170192034Y-63421842D01*
X170614574Y-63421842D01*
X170730677Y-63428339D01*
X170805289Y-63444457D01*
X170850512Y-63466294D01*
X170905179Y-63521229D01*
X170950652Y-63607955D01*
X170978089Y-63708713D01*
X170987655Y-63824110D01*
X170977528Y-63939741D01*
X170948087Y-64043562D01*
X170898459Y-64135080D01*
X170831095Y-64205006D01*
X170751662Y-64251843D01*
X170679909Y-64265945D01*
X170666109Y-64265945D01*
X170666109Y-64070551D01*
X170681252Y-64070551D01*
X170722204Y-64063871D01*
X170760313Y-64043470D01*
X170797023Y-64006803D01*
X170823587Y-63961686D01*
X170840720Y-63904061D01*
X170846971Y-63830582D01*
X170836379Y-63740889D01*
X170806549Y-63668771D01*
X170774414Y-63632488D01*
X170729196Y-63609912D01*
X170666231Y-63601605D01*
X170542889Y-63601605D01*
X170525181Y-63698935D01*
X170474690Y-63913666D01*
X170424802Y-64058423D01*
X170377048Y-64150662D01*
X170329167Y-64208677D01*
X170273960Y-64248808D01*
X170210038Y-64273115D01*
X170134881Y-64281577D01*
X170047352Y-64270638D01*
X169976310Y-64239596D01*
X169917871Y-64188398D01*
X169874055Y-64122542D01*
X169847765Y-64049239D01*
X169838736Y-63966259D01*
X169844514Y-63906297D01*
X169971605Y-63906297D01*
X169976582Y-63950023D01*
X169992121Y-63995690D01*
X170017330Y-64035918D01*
X170049640Y-64063590D01*
X170088115Y-64080562D01*
X170129141Y-64086182D01*
X170181275Y-64077995D01*
X170228826Y-64053262D01*
X170273611Y-64009368D01*
X170307487Y-63952344D01*
X170349825Y-63843031D01*
X170401716Y-63656559D01*
X170414050Y-63601605D01*
X170307194Y-63601605D01*
X170213047Y-63612320D01*
X170134515Y-63642882D01*
X170068078Y-63692011D01*
X170016057Y-63757554D01*
X169982360Y-63832644D01*
X169971605Y-63906297D01*
X169844514Y-63906297D01*
X169846270Y-63888074D01*
X169869877Y-63804570D01*
X169916192Y-63720324D01*
X170016789Y-63601605D01*
X169952393Y-63595249D01*
X169868290Y-63573394D01*
X169868290Y-63386304D01*
X169967457Y-63413749D01*
G37*
G36*
X170525727Y-62172970D02*
G01*
X170625889Y-62192249D01*
X170717156Y-62223464D01*
X170801850Y-62268187D01*
X170868488Y-62321462D01*
X170919633Y-62383443D01*
X170957550Y-62454404D01*
X170980067Y-62528966D01*
X170987655Y-62608513D01*
X170982346Y-62674254D01*
X170966528Y-62737229D01*
X170940457Y-62796404D01*
X170904002Y-62850802D01*
X170854126Y-62900536D01*
X170769912Y-62961078D01*
X171440969Y-62961078D01*
X171440969Y-63141451D01*
X170190812Y-63141451D01*
X170125600Y-63143527D01*
X170000181Y-63149023D01*
X169870000Y-63156594D01*
X169870000Y-62976099D01*
X169980519Y-62966451D01*
X170058311Y-62966451D01*
X169967670Y-62907044D01*
X169918360Y-62860938D01*
X169883664Y-62809781D01*
X169858642Y-62751273D01*
X169843804Y-62688156D01*
X169841667Y-62659316D01*
X169989556Y-62659316D01*
X170003019Y-62748171D01*
X170041958Y-62820890D01*
X170108625Y-62881577D01*
X170191552Y-62924276D01*
X170291828Y-62951380D01*
X170413440Y-62961078D01*
X170532685Y-62951817D01*
X170639120Y-62925052D01*
X170731530Y-62878207D01*
X170794703Y-62815020D01*
X170834092Y-62737445D01*
X170846971Y-62655286D01*
X170836439Y-62577797D01*
X170805167Y-62508184D01*
X170751228Y-62444016D01*
X170681107Y-62398921D01*
X170572547Y-62367365D01*
X170410631Y-62354989D01*
X170272568Y-62366279D01*
X170170059Y-62396451D01*
X170094825Y-62441939D01*
X170035627Y-62505776D01*
X170001237Y-62577249D01*
X169989556Y-62659316D01*
X169841667Y-62659316D01*
X169838736Y-62619748D01*
X169849491Y-62516453D01*
X169880299Y-62428379D01*
X169930740Y-62352298D01*
X170002745Y-62286235D01*
X170117662Y-62221235D01*
X170253509Y-62180661D01*
X170415272Y-62166311D01*
X170525727Y-62172970D01*
G37*
G36*
X167772091Y-81812217D02*
G01*
X167908836Y-81839285D01*
X168024808Y-81881716D01*
X168130972Y-81942984D01*
X168214261Y-82015920D01*
X168277721Y-82101046D01*
X168319804Y-82198949D01*
X168349341Y-82341739D01*
X168360764Y-82543736D01*
X168360764Y-82959316D01*
X166850000Y-82959316D01*
X166850000Y-82533478D01*
X167014131Y-82533478D01*
X167014131Y-82763921D01*
X168209944Y-82763921D01*
X168209944Y-82538852D01*
X168200734Y-82389956D01*
X168176844Y-82284425D01*
X168142533Y-82211688D01*
X168091229Y-82150183D01*
X168022682Y-82098625D01*
X167933583Y-82056960D01*
X167837877Y-82029593D01*
X167725618Y-82012042D01*
X167594207Y-82005792D01*
X167463726Y-82012748D01*
X167355817Y-82032029D01*
X167266922Y-82061723D01*
X167185456Y-82105847D01*
X167122432Y-82159335D01*
X167075191Y-82222557D01*
X167043786Y-82295491D01*
X167022285Y-82396466D01*
X167014131Y-82533478D01*
X166850000Y-82533478D01*
X166850000Y-82516503D01*
X166862925Y-82329078D01*
X166897200Y-82190403D01*
X166947941Y-82089445D01*
X167020689Y-82001970D01*
X167108705Y-81930502D01*
X167213921Y-81874145D01*
X167328114Y-81835563D01*
X167459479Y-81811179D01*
X167610816Y-81802581D01*
X167772091Y-81812217D01*
G37*
G36*
X167568210Y-80674910D02*
G01*
X167670995Y-80695174D01*
X167748447Y-80725226D01*
X167818329Y-80769572D01*
X167873032Y-80822101D01*
X167914410Y-80883374D01*
X167954090Y-80988046D01*
X167967655Y-81106001D01*
X167956964Y-81214332D01*
X167926011Y-81309663D01*
X167875001Y-81394711D01*
X167802180Y-81471266D01*
X167715941Y-81532266D01*
X167619157Y-81576298D01*
X167509886Y-81603555D01*
X167385624Y-81613049D01*
X167263869Y-81604018D01*
X167157113Y-81578142D01*
X167062908Y-81536469D01*
X166979326Y-81478960D01*
X166910273Y-81406508D01*
X166860643Y-81320892D01*
X166829686Y-81219472D01*
X166818736Y-81098429D01*
X166828816Y-80981715D01*
X166857327Y-80883374D01*
X166905298Y-80797864D01*
X166969678Y-80732309D01*
X167045395Y-80688489D01*
X167115125Y-80675157D01*
X167124651Y-80675157D01*
X167124651Y-80854919D01*
X167069343Y-80867973D01*
X167017184Y-80909996D01*
X166992473Y-80949590D01*
X166975857Y-81005493D01*
X166969556Y-81083042D01*
X166982928Y-81187121D01*
X167020898Y-81271311D01*
X167083740Y-81340352D01*
X167164394Y-81390912D01*
X167259780Y-81422236D01*
X167373656Y-81433286D01*
X167373656Y-81422418D01*
X167506524Y-81422418D01*
X167600871Y-81396456D01*
X167675935Y-81358767D01*
X167735136Y-81310066D01*
X167781692Y-81249613D01*
X167808142Y-81188205D01*
X167816835Y-81124075D01*
X167807898Y-81043300D01*
X167782397Y-80975575D01*
X167739343Y-80919203D01*
X167676029Y-80875436D01*
X167602526Y-80848179D01*
X167528506Y-80839288D01*
X167506524Y-80839288D01*
X167506524Y-81422418D01*
X167373656Y-81422418D01*
X167373656Y-80667341D01*
X167433740Y-80667341D01*
X167568210Y-80674910D01*
G37*
G36*
X167134420Y-80485624D02*
G01*
X167134420Y-80305861D01*
X167131734Y-80305861D01*
X167067169Y-80292387D01*
X167015230Y-80252006D01*
X166991928Y-80213038D01*
X166975803Y-80155019D01*
X166969556Y-80071144D01*
X166976186Y-79999235D01*
X166994807Y-79940001D01*
X167024511Y-79890893D01*
X167064898Y-79851010D01*
X167107387Y-79828652D01*
X167153593Y-79821284D01*
X167211088Y-79834873D01*
X167257516Y-79876676D01*
X167295010Y-79957205D01*
X167323709Y-80048307D01*
X167343004Y-80109490D01*
X167381472Y-80233077D01*
X167431506Y-80332178D01*
X167490990Y-80396537D01*
X167560503Y-80433786D01*
X167643667Y-80446545D01*
X167725386Y-80435290D01*
X167800071Y-80401619D01*
X167870202Y-80343108D01*
X167921847Y-80268177D01*
X167955306Y-80168536D01*
X167967655Y-80036706D01*
X167956380Y-79904556D01*
X167927024Y-79812564D01*
X167883757Y-79750087D01*
X167823882Y-79701590D01*
X167762391Y-79674045D01*
X167697400Y-79664968D01*
X167697400Y-79844731D01*
X167701430Y-79844731D01*
X167749024Y-79857783D01*
X167786304Y-79898953D01*
X167808421Y-79958789D01*
X167816835Y-80044277D01*
X167804356Y-80143103D01*
X167771528Y-80209141D01*
X167720295Y-80252782D01*
X167660397Y-80266782D01*
X167614084Y-80257392D01*
X167577965Y-80229658D01*
X167550200Y-80185008D01*
X167520202Y-80104727D01*
X167495533Y-80019609D01*
X167477704Y-79956228D01*
X167424214Y-79794173D01*
X167384403Y-79729326D01*
X167345001Y-79690264D01*
X167299284Y-79663136D01*
X167247159Y-79647201D01*
X167183879Y-79641521D01*
X167085149Y-79653944D01*
X166999538Y-79690142D01*
X166923761Y-79751186D01*
X166867878Y-79830540D01*
X166831933Y-79934900D01*
X166818736Y-80071755D01*
X166829582Y-80198473D01*
X166858670Y-80293039D01*
X166906973Y-80372765D01*
X166969556Y-80433234D01*
X167045686Y-80472327D01*
X167134420Y-80485624D01*
G37*
G36*
X167936392Y-79410956D02*
G01*
X167936392Y-79231193D01*
X166850000Y-79231193D01*
X166850000Y-79410956D01*
X167936392Y-79410956D01*
G37*
G36*
X168178681Y-79410956D02*
G01*
X168358443Y-79410956D01*
X168358443Y-79231193D01*
X168178681Y-79231193D01*
X168178681Y-79410956D01*
G37*
G36*
X167937491Y-78193649D02*
G01*
X167763224Y-78193649D01*
X167842096Y-78253056D01*
X167894848Y-78306914D01*
X167927233Y-78356193D01*
X167957261Y-78440516D01*
X167967655Y-78537665D01*
X167959977Y-78627625D01*
X167937856Y-78706834D01*
X167901831Y-78777267D01*
X167851962Y-78838336D01*
X167786127Y-78890847D01*
X167701552Y-78934926D01*
X167561937Y-78976449D01*
X167402721Y-78990858D01*
X167278801Y-78982179D01*
X167172543Y-78957589D01*
X167081094Y-78918511D01*
X167002163Y-78865317D01*
X166934603Y-78797081D01*
X166887783Y-78722446D01*
X166859649Y-78639957D01*
X166850000Y-78547313D01*
X166853940Y-78500662D01*
X166990683Y-78500662D01*
X167002668Y-78581079D01*
X167039410Y-78658321D01*
X167098375Y-78721918D01*
X167181681Y-78767376D01*
X167279868Y-78792965D01*
X167400279Y-78802180D01*
X167529640Y-78791179D01*
X167629972Y-78761169D01*
X167707536Y-78714863D01*
X167769182Y-78650493D01*
X167804784Y-78578710D01*
X167816835Y-78496510D01*
X167805122Y-78418743D01*
X167769991Y-78348472D01*
X167708269Y-78283042D01*
X167631375Y-78234688D01*
X167538324Y-78204426D01*
X167424947Y-78193649D01*
X167300219Y-78204017D01*
X167197402Y-78233031D01*
X167112316Y-78278890D01*
X167043460Y-78343048D01*
X167004031Y-78415834D01*
X166990683Y-78500662D01*
X166853940Y-78500662D01*
X166856706Y-78467919D01*
X166875951Y-78398637D01*
X166907152Y-78337630D01*
X166976519Y-78259364D01*
X167078611Y-78193649D01*
X166948429Y-78193649D01*
X166816532Y-78199835D01*
X166730864Y-78215208D01*
X166678419Y-78235903D01*
X166613428Y-78285720D01*
X166570586Y-78347644D01*
X166546160Y-78421541D01*
X166537369Y-78513852D01*
X166548836Y-78625766D01*
X166579989Y-78709979D01*
X166613352Y-78754960D01*
X166650414Y-78779549D01*
X166692951Y-78787648D01*
X166709193Y-78787648D01*
X166709193Y-78967411D01*
X166692951Y-78967411D01*
X166620127Y-78954189D01*
X166546894Y-78912212D01*
X166485830Y-78846711D01*
X166436618Y-78750889D01*
X166407077Y-78640262D01*
X166396685Y-78511165D01*
X166410202Y-78373062D01*
X166448098Y-78260450D01*
X166488091Y-78194342D01*
X166540634Y-78135765D01*
X166607100Y-78084106D01*
X166684563Y-78050459D01*
X166822622Y-78024585D01*
X167049180Y-78013886D01*
X167937491Y-78013886D01*
X167937491Y-78193649D01*
G37*
G36*
X166850000Y-77552756D02*
G01*
X166850000Y-77732519D01*
X167936392Y-77732519D01*
X167936392Y-77552756D01*
X167751256Y-77552756D01*
X167831889Y-77492775D01*
X167881926Y-77440893D01*
X167919405Y-77384760D01*
X167945917Y-77327564D01*
X167962023Y-77266223D01*
X167967655Y-77195673D01*
X167956922Y-77098005D01*
X167925767Y-77012491D01*
X167874140Y-76940075D01*
X167802424Y-76886095D01*
X167745737Y-76863636D01*
X167662012Y-76847712D01*
X167542550Y-76841521D01*
X166850000Y-76841521D01*
X166850000Y-77021284D01*
X167465614Y-77021284D01*
X167601732Y-77027192D01*
X167672976Y-77040579D01*
X167726815Y-77068991D01*
X167768475Y-77116905D01*
X167794789Y-77176414D01*
X167803524Y-77240247D01*
X167792080Y-77317411D01*
X167756873Y-77392288D01*
X167701589Y-77456792D01*
X167625715Y-77508670D01*
X167531202Y-77540259D01*
X167385868Y-77552756D01*
X166850000Y-77552756D01*
G37*
G36*
X167568210Y-75682587D02*
G01*
X167670995Y-75702851D01*
X167748447Y-75732903D01*
X167818329Y-75777248D01*
X167873032Y-75829777D01*
X167914410Y-75891050D01*
X167954090Y-75995722D01*
X167967655Y-76113677D01*
X167956964Y-76222008D01*
X167926011Y-76317340D01*
X167875001Y-76402388D01*
X167802180Y-76478942D01*
X167715941Y-76539942D01*
X167619157Y-76583975D01*
X167509886Y-76611231D01*
X167385624Y-76620725D01*
X167263869Y-76611694D01*
X167157113Y-76585819D01*
X167062908Y-76544145D01*
X166979326Y-76486636D01*
X166910273Y-76414184D01*
X166860643Y-76328569D01*
X166829686Y-76227148D01*
X166818736Y-76106106D01*
X166828816Y-75989391D01*
X166857327Y-75891050D01*
X166905298Y-75805540D01*
X166969678Y-75739986D01*
X167045395Y-75696165D01*
X167115125Y-75682833D01*
X167124651Y-75682833D01*
X167124651Y-75862595D01*
X167069343Y-75875649D01*
X167017184Y-75917672D01*
X166992473Y-75957266D01*
X166975857Y-76013169D01*
X166969556Y-76090718D01*
X166982928Y-76194797D01*
X167020898Y-76278987D01*
X167083740Y-76348028D01*
X167164394Y-76398588D01*
X167259780Y-76429912D01*
X167373656Y-76440963D01*
X167373656Y-76430094D01*
X167506524Y-76430094D01*
X167600871Y-76404132D01*
X167675935Y-76366443D01*
X167735136Y-76317742D01*
X167781692Y-76257290D01*
X167808142Y-76195881D01*
X167816835Y-76131751D01*
X167807898Y-76050976D01*
X167782397Y-75983251D01*
X167739343Y-75926879D01*
X167676029Y-75883112D01*
X167602526Y-75855855D01*
X167528506Y-75846964D01*
X167506524Y-75846964D01*
X167506524Y-76430094D01*
X167373656Y-76430094D01*
X167373656Y-75675017D01*
X167433740Y-75675017D01*
X167568210Y-75682587D01*
G37*
G36*
X168420969Y-74680460D02*
G01*
X167748080Y-74680460D01*
X167838667Y-74739774D01*
X167888032Y-74786217D01*
X167922863Y-74837664D01*
X167947749Y-74895516D01*
X167962573Y-74957756D01*
X167967655Y-75025819D01*
X167956902Y-75128716D01*
X167926093Y-75216481D01*
X167875621Y-75292334D01*
X167803524Y-75358234D01*
X167688719Y-75422955D01*
X167552952Y-75463372D01*
X167391242Y-75477669D01*
X167280709Y-75470997D01*
X167180467Y-75451678D01*
X167089113Y-75420394D01*
X167004445Y-75375571D01*
X166937806Y-75322371D01*
X166886636Y-75260659D01*
X166848813Y-75189856D01*
X166826324Y-75115257D01*
X166818736Y-75035467D01*
X166824521Y-74987473D01*
X166959420Y-74987473D01*
X166970377Y-75072294D01*
X167001998Y-75143752D01*
X167055041Y-75205094D01*
X167124761Y-75247395D01*
X167233313Y-75277243D01*
X167395760Y-75288991D01*
X167533791Y-75277659D01*
X167636301Y-75247368D01*
X167711566Y-75201674D01*
X167770738Y-75137600D01*
X167805143Y-75065806D01*
X167816835Y-74983321D01*
X167803361Y-74894132D01*
X167764408Y-74821175D01*
X167697766Y-74760327D01*
X167614814Y-74717421D01*
X167514539Y-74690198D01*
X167392951Y-74680460D01*
X167273825Y-74689947D01*
X167167882Y-74717341D01*
X167075997Y-74764693D01*
X167012421Y-74827861D01*
X166972492Y-74905122D01*
X166959420Y-74987473D01*
X166824521Y-74987473D01*
X166834368Y-74905774D01*
X166856361Y-74843464D01*
X166890788Y-74788293D01*
X166942092Y-74739576D01*
X167036479Y-74680460D01*
X166850000Y-74680460D01*
X166850000Y-74500697D01*
X168420969Y-74500697D01*
X168420969Y-74680460D01*
G37*
G36*
X167346735Y-72295949D02*
G01*
X167424025Y-72322772D01*
X167496388Y-72368091D01*
X167555738Y-72428951D01*
X167605219Y-72513678D01*
X167643789Y-72628332D01*
X167704533Y-72527398D01*
X167765699Y-72456498D01*
X167827459Y-72409612D01*
X167932357Y-72363957D01*
X168034455Y-72349406D01*
X168123943Y-72361439D01*
X168204448Y-72397156D01*
X168271138Y-72455186D01*
X168320952Y-72538084D01*
X168339990Y-72603644D01*
X168354712Y-72718514D01*
X168360764Y-72903715D01*
X168360764Y-73302930D01*
X166850000Y-73302930D01*
X166850000Y-72850837D01*
X166850968Y-72830931D01*
X167000819Y-72830931D01*
X167000819Y-73107536D01*
X167553419Y-73107536D01*
X167553419Y-72962456D01*
X167551450Y-72919469D01*
X167704239Y-72919469D01*
X167704239Y-73107536D01*
X168209944Y-73107536D01*
X168209944Y-72854012D01*
X168201458Y-72738452D01*
X168179915Y-72661472D01*
X168149371Y-72612212D01*
X168105535Y-72574243D01*
X168057597Y-72552229D01*
X168003803Y-72544801D01*
X167928760Y-72555295D01*
X167853960Y-72587787D01*
X167789533Y-72638209D01*
X167742707Y-72702826D01*
X167715370Y-72784964D01*
X167704239Y-72919469D01*
X167551450Y-72919469D01*
X167547397Y-72830993D01*
X167531886Y-72738208D01*
X167510066Y-72674982D01*
X167458939Y-72592822D01*
X167397958Y-72536741D01*
X167325996Y-72501686D01*
X167248237Y-72490090D01*
X167184290Y-72498099D01*
X167126942Y-72521738D01*
X167074337Y-72562020D01*
X167037233Y-72615555D01*
X167011137Y-72700834D01*
X167000819Y-72830931D01*
X166850968Y-72830931D01*
X166858177Y-72682690D01*
X166878749Y-72570489D01*
X166906908Y-72499249D01*
X166973935Y-72408575D01*
X167059071Y-72342201D01*
X167157803Y-72300653D01*
X167262648Y-72286880D01*
X167346735Y-72295949D01*
G37*
G36*
X166896528Y-71686775D02*
G01*
X167936392Y-72153035D01*
X167936392Y-71953367D01*
X167129535Y-71589689D01*
X167936392Y-71250680D01*
X167936392Y-71068841D01*
X166848656Y-71525453D01*
X166649831Y-71619616D01*
X166557519Y-71680669D01*
X166494846Y-71746565D01*
X166456769Y-71811950D01*
X166436019Y-71887370D01*
X166427948Y-71997086D01*
X166427948Y-72132519D01*
X166578768Y-72132519D01*
X166578768Y-72031280D01*
X166584031Y-71958888D01*
X166598674Y-71899389D01*
X166624662Y-71847299D01*
X166662299Y-71805722D01*
X166720489Y-71768669D01*
X166855495Y-71705949D01*
X166896528Y-71686775D01*
G37*
G36*
X166850000Y-70614305D02*
G01*
X166850000Y-70872226D01*
X167107920Y-70872226D01*
X167107920Y-70614305D01*
X166850000Y-70614305D01*
G37*
G36*
X167678471Y-70614305D02*
G01*
X167678471Y-70872226D01*
X167936392Y-70872226D01*
X167936392Y-70614305D01*
X167678471Y-70614305D01*
G37*
G36*
X168064992Y-68429069D02*
G01*
X168165125Y-68465823D01*
X168223089Y-68504332D01*
X168270796Y-68553421D01*
X168309106Y-68614323D01*
X168333497Y-68683063D01*
X168351353Y-68790826D01*
X168358443Y-68951500D01*
X168358443Y-69369644D01*
X166846092Y-69369644D01*
X166846092Y-69174249D01*
X167443998Y-69174249D01*
X167443998Y-69043335D01*
X167594818Y-69043335D01*
X167594818Y-69174249D01*
X168207623Y-69174249D01*
X168207623Y-68947836D01*
X168197079Y-68818411D01*
X168170665Y-68735720D01*
X168133374Y-68685519D01*
X168080439Y-68649658D01*
X168015978Y-68627296D01*
X167936880Y-68619330D01*
X167846413Y-68628730D01*
X167766852Y-68655998D01*
X167695812Y-68701151D01*
X167656610Y-68745262D01*
X167625124Y-68811662D01*
X167603240Y-68907855D01*
X167594818Y-69043335D01*
X167443998Y-69043335D01*
X167443998Y-68988747D01*
X167454416Y-68845621D01*
X167483239Y-68729619D01*
X167527983Y-68635713D01*
X167587857Y-68559979D01*
X167664240Y-68496971D01*
X167747993Y-68452490D01*
X167840671Y-68425438D01*
X167944452Y-68416120D01*
X168064992Y-68429069D01*
G37*
G36*
X166947457Y-67382207D02*
G01*
X167025854Y-67390300D01*
X167172034Y-67390300D01*
X167594574Y-67390300D01*
X167710677Y-67396797D01*
X167785289Y-67412914D01*
X167830512Y-67434752D01*
X167885179Y-67489687D01*
X167930652Y-67576413D01*
X167958089Y-67677171D01*
X167967655Y-67792568D01*
X167957528Y-67908199D01*
X167928087Y-68012020D01*
X167878459Y-68103538D01*
X167811095Y-68173464D01*
X167731662Y-68220301D01*
X167659909Y-68234403D01*
X167646109Y-68234403D01*
X167646109Y-68039009D01*
X167661252Y-68039009D01*
X167702204Y-68032329D01*
X167740313Y-68011927D01*
X167777023Y-67975261D01*
X167803587Y-67930144D01*
X167820720Y-67872519D01*
X167826971Y-67799040D01*
X167816379Y-67709347D01*
X167786549Y-67637229D01*
X167754414Y-67600946D01*
X167709196Y-67578370D01*
X167646231Y-67570062D01*
X167522889Y-67570062D01*
X167505181Y-67667393D01*
X167454690Y-67882124D01*
X167404802Y-68026881D01*
X167357048Y-68119120D01*
X167309167Y-68177135D01*
X167253960Y-68217266D01*
X167190038Y-68241573D01*
X167114881Y-68250034D01*
X167027352Y-68239096D01*
X166956310Y-68208053D01*
X166897871Y-68156856D01*
X166854055Y-68090999D01*
X166827765Y-68017697D01*
X166818736Y-67934717D01*
X166824514Y-67874755D01*
X166951605Y-67874755D01*
X166956582Y-67918481D01*
X166972121Y-67964148D01*
X166997330Y-68004376D01*
X167029640Y-68032048D01*
X167068115Y-68049020D01*
X167109141Y-68054640D01*
X167161275Y-68046453D01*
X167208826Y-68021720D01*
X167253611Y-67977826D01*
X167287487Y-67920802D01*
X167329825Y-67811489D01*
X167381716Y-67625017D01*
X167394050Y-67570062D01*
X167287194Y-67570062D01*
X167193047Y-67580778D01*
X167114515Y-67611339D01*
X167048078Y-67660469D01*
X166996057Y-67726011D01*
X166962360Y-67801102D01*
X166951605Y-67874755D01*
X166824514Y-67874755D01*
X166826270Y-67856532D01*
X166849877Y-67773028D01*
X166896192Y-67688782D01*
X166996789Y-67570062D01*
X166932393Y-67563706D01*
X166848290Y-67541852D01*
X166848290Y-67354762D01*
X166947457Y-67382207D01*
G37*
G36*
X167936392Y-66425052D02*
G01*
X167936392Y-66245289D01*
X166850000Y-66245289D01*
X166850000Y-66425052D01*
X167036479Y-66425052D01*
X166957960Y-66483179D01*
X166907152Y-66534595D01*
X166868448Y-66589993D01*
X166841207Y-66645481D01*
X166824493Y-66704551D01*
X166818736Y-66770533D01*
X166828610Y-66867303D01*
X166857037Y-66951017D01*
X166903733Y-67024424D01*
X166949502Y-67065169D01*
X167016948Y-67097590D01*
X167113046Y-67119929D01*
X167246650Y-67128471D01*
X167936392Y-67128471D01*
X167936392Y-66948709D01*
X167322121Y-66948709D01*
X167160728Y-66938630D01*
X167073900Y-66915380D01*
X167033060Y-66886182D01*
X166995870Y-66817475D01*
X166982868Y-66731088D01*
X166994522Y-66653697D01*
X167030251Y-66579535D01*
X167086371Y-66516323D01*
X167163485Y-66466573D01*
X167258505Y-66436742D01*
X167400645Y-66425052D01*
X167936392Y-66425052D01*
G37*
G36*
X166850000Y-65774389D02*
G01*
X166850000Y-65954152D01*
X168420969Y-65954152D01*
X168420969Y-65774389D01*
X166850000Y-65774389D01*
G37*
G36*
X167183025Y-64594207D02*
G01*
X167183025Y-64398813D01*
X167173621Y-64398813D01*
X167096546Y-64388033D01*
X167041258Y-64358582D01*
X167002041Y-64310642D01*
X166976678Y-64249818D01*
X166960023Y-64172812D01*
X166953925Y-64075924D01*
X166962703Y-63992939D01*
X166987899Y-63921950D01*
X167029274Y-63860380D01*
X167084559Y-63812277D01*
X167149408Y-63783536D01*
X167226866Y-63773551D01*
X167290160Y-63782054D01*
X167343776Y-63806715D01*
X167390143Y-63848412D01*
X167447758Y-63933809D01*
X167515073Y-64074581D01*
X167546580Y-64152250D01*
X167616716Y-64299622D01*
X167677494Y-64390631D01*
X167747484Y-64460643D01*
X167821598Y-64508478D01*
X167903996Y-64537360D01*
X167997819Y-64547313D01*
X168107084Y-64533697D01*
X168202387Y-64493956D01*
X168287247Y-64426901D01*
X168335654Y-64363798D01*
X168372448Y-64282993D01*
X168396527Y-64180370D01*
X168405338Y-64050767D01*
X168393258Y-63895484D01*
X168362244Y-63789848D01*
X168317533Y-63720307D01*
X168254194Y-63666343D01*
X168186849Y-63635384D01*
X168113224Y-63625052D01*
X168102233Y-63625052D01*
X168102233Y-63820446D01*
X168113224Y-63820446D01*
X168148831Y-63827439D01*
X168185886Y-63850122D01*
X168215939Y-63885310D01*
X168238032Y-63937561D01*
X168250237Y-63997273D01*
X168254518Y-64065544D01*
X168245274Y-64157733D01*
X168220356Y-64225960D01*
X168181856Y-64276081D01*
X168130255Y-64314354D01*
X168075426Y-64336628D01*
X168015771Y-64344103D01*
X167956045Y-64336047D01*
X167899267Y-64311618D01*
X167849373Y-64273228D01*
X167808042Y-64221981D01*
X167711200Y-64029152D01*
X167671510Y-63936828D01*
X167598799Y-63793859D01*
X167531300Y-63700279D01*
X167468545Y-63643614D01*
X167395390Y-63602586D01*
X167319468Y-63578431D01*
X167239323Y-63570341D01*
X167128336Y-63585129D01*
X167019138Y-63630547D01*
X166953653Y-63676073D01*
X166900281Y-63731328D01*
X166857937Y-63797243D01*
X166829127Y-63870468D01*
X166810097Y-63963755D01*
X166803105Y-64081664D01*
X166814244Y-64242164D01*
X166844016Y-64363154D01*
X166877828Y-64433956D01*
X166922262Y-64490747D01*
X166977861Y-64535467D01*
X167075357Y-64579447D01*
X167183025Y-64594207D01*
G37*
G36*
X167123429Y-62663712D02*
G01*
X167123429Y-62483949D01*
X167113904Y-62483949D01*
X167043463Y-62497047D01*
X166969068Y-62539515D01*
X166905575Y-62602766D01*
X166857815Y-62683496D01*
X166829186Y-62777686D01*
X166818736Y-62898063D01*
X166829174Y-63016141D01*
X166858635Y-63114899D01*
X166905735Y-63198051D01*
X166971022Y-63268213D01*
X167050061Y-63322698D01*
X167144732Y-63363255D01*
X167258092Y-63389142D01*
X167393928Y-63398394D01*
X167528960Y-63389159D01*
X167641824Y-63363301D01*
X167736252Y-63322747D01*
X167815247Y-63268213D01*
X167880592Y-63198043D01*
X167927728Y-63114888D01*
X167957210Y-63016133D01*
X167967655Y-62898063D01*
X167957018Y-62777733D01*
X167927843Y-62683496D01*
X167879818Y-62602617D01*
X167817445Y-62539515D01*
X167742680Y-62497657D01*
X167661618Y-62483949D01*
X167661618Y-62663712D01*
X167671022Y-62663712D01*
X167724848Y-62676820D01*
X167773360Y-62718667D01*
X167804474Y-62783003D01*
X167816835Y-62888660D01*
X167805567Y-62974918D01*
X167772588Y-63050116D01*
X167716573Y-63117149D01*
X167643724Y-63165158D01*
X167539692Y-63197443D01*
X167393928Y-63209717D01*
X167247193Y-63197359D01*
X167142736Y-63164891D01*
X167069818Y-63116660D01*
X167013821Y-63049314D01*
X166980831Y-62973751D01*
X166969556Y-62887072D01*
X166975635Y-62810878D01*
X166991636Y-62756099D01*
X167015352Y-62717445D01*
X167066246Y-62676695D01*
X167123429Y-62663712D01*
G37*
G36*
X166947457Y-61440267D02*
G01*
X167025854Y-61448360D01*
X167172034Y-61448360D01*
X167594574Y-61448360D01*
X167710677Y-61454857D01*
X167785289Y-61470974D01*
X167830512Y-61492812D01*
X167885179Y-61547747D01*
X167930652Y-61634473D01*
X167958089Y-61735231D01*
X167967655Y-61850628D01*
X167957528Y-61966259D01*
X167928087Y-62070080D01*
X167878459Y-62161598D01*
X167811095Y-62231524D01*
X167731662Y-62278361D01*
X167659909Y-62292463D01*
X167646109Y-62292463D01*
X167646109Y-62097069D01*
X167661252Y-62097069D01*
X167702204Y-62090389D01*
X167740313Y-62069987D01*
X167777023Y-62033321D01*
X167803587Y-61988204D01*
X167820720Y-61930579D01*
X167826971Y-61857100D01*
X167816379Y-61767407D01*
X167786549Y-61695289D01*
X167754414Y-61659006D01*
X167709196Y-61636430D01*
X167646231Y-61628122D01*
X167522889Y-61628122D01*
X167505181Y-61725453D01*
X167454690Y-61940184D01*
X167404802Y-62084941D01*
X167357048Y-62177180D01*
X167309167Y-62235195D01*
X167253960Y-62275326D01*
X167190038Y-62299633D01*
X167114881Y-62308094D01*
X167027352Y-62297156D01*
X166956310Y-62266114D01*
X166897871Y-62214916D01*
X166854055Y-62149059D01*
X166827765Y-62075757D01*
X166818736Y-61992777D01*
X166824514Y-61932815D01*
X166951605Y-61932815D01*
X166956582Y-61976541D01*
X166972121Y-62022208D01*
X166997330Y-62062436D01*
X167029640Y-62090108D01*
X167068115Y-62107080D01*
X167109141Y-62112700D01*
X167161275Y-62104513D01*
X167208826Y-62079780D01*
X167253611Y-62035886D01*
X167287487Y-61978862D01*
X167329825Y-61869549D01*
X167381716Y-61683077D01*
X167394050Y-61628122D01*
X167287194Y-61628122D01*
X167193047Y-61638838D01*
X167114515Y-61669399D01*
X167048078Y-61718529D01*
X166996057Y-61784071D01*
X166962360Y-61859162D01*
X166951605Y-61932815D01*
X166824514Y-61932815D01*
X166826270Y-61914592D01*
X166849877Y-61831088D01*
X166896192Y-61746842D01*
X166996789Y-61628122D01*
X166932393Y-61621767D01*
X166848290Y-61599912D01*
X166848290Y-61412822D01*
X166947457Y-61440267D01*
G37*
G36*
X166850000Y-60991137D02*
G01*
X166850000Y-61170900D01*
X168420969Y-61170900D01*
X168420969Y-60991137D01*
X166850000Y-60991137D01*
G37*
G36*
X167936392Y-60703907D02*
G01*
X167936392Y-60524145D01*
X166850000Y-60524145D01*
X166850000Y-60703907D01*
X167936392Y-60703907D01*
G37*
G36*
X168178681Y-60703907D02*
G01*
X168358443Y-60703907D01*
X168358443Y-60524145D01*
X168178681Y-60524145D01*
X168178681Y-60703907D01*
G37*
G36*
X167134420Y-60299441D02*
G01*
X167134420Y-60119678D01*
X167131734Y-60119678D01*
X167067169Y-60106204D01*
X167015230Y-60065823D01*
X166991928Y-60026855D01*
X166975803Y-59968837D01*
X166969556Y-59884961D01*
X166976186Y-59813052D01*
X166994807Y-59753818D01*
X167024511Y-59704710D01*
X167064898Y-59664827D01*
X167107387Y-59642469D01*
X167153593Y-59635101D01*
X167211088Y-59648690D01*
X167257516Y-59690493D01*
X167295010Y-59771022D01*
X167323709Y-59862124D01*
X167343004Y-59923307D01*
X167381472Y-60046894D01*
X167431506Y-60145995D01*
X167490990Y-60210354D01*
X167560503Y-60247603D01*
X167643667Y-60260362D01*
X167725386Y-60249107D01*
X167800071Y-60215436D01*
X167870202Y-60156926D01*
X167921847Y-60081995D01*
X167955306Y-59982353D01*
X167967655Y-59850523D01*
X167956380Y-59718373D01*
X167927024Y-59626381D01*
X167883757Y-59563904D01*
X167823882Y-59515407D01*
X167762391Y-59487862D01*
X167697400Y-59478785D01*
X167697400Y-59658548D01*
X167701430Y-59658548D01*
X167749024Y-59671601D01*
X167786304Y-59712770D01*
X167808421Y-59772606D01*
X167816835Y-59858094D01*
X167804356Y-59956920D01*
X167771528Y-60022958D01*
X167720295Y-60066599D01*
X167660397Y-60080600D01*
X167614084Y-60071209D01*
X167577965Y-60043475D01*
X167550200Y-59998825D01*
X167520202Y-59918545D01*
X167495533Y-59833426D01*
X167477704Y-59770045D01*
X167424214Y-59607990D01*
X167384403Y-59543143D01*
X167345001Y-59504082D01*
X167299284Y-59476953D01*
X167247159Y-59461018D01*
X167183879Y-59455338D01*
X167085149Y-59467761D01*
X166999538Y-59503959D01*
X166923761Y-59565003D01*
X166867878Y-59644357D01*
X166831933Y-59748717D01*
X166818736Y-59885572D01*
X166829582Y-60012291D01*
X166858670Y-60106856D01*
X166906973Y-60186582D01*
X166969556Y-60247051D01*
X167045686Y-60286145D01*
X167134420Y-60299441D01*
G37*
G36*
X167568210Y-58333529D02*
G01*
X167670995Y-58353793D01*
X167748447Y-58383845D01*
X167818329Y-58428190D01*
X167873032Y-58480719D01*
X167914410Y-58541992D01*
X167954090Y-58646664D01*
X167967655Y-58764619D01*
X167956964Y-58872951D01*
X167926011Y-58968282D01*
X167875001Y-59053330D01*
X167802180Y-59129884D01*
X167715941Y-59190884D01*
X167619157Y-59234917D01*
X167509886Y-59262173D01*
X167385624Y-59271667D01*
X167263869Y-59262636D01*
X167157113Y-59236761D01*
X167062908Y-59195087D01*
X166979326Y-59137578D01*
X166910273Y-59065126D01*
X166860643Y-58979511D01*
X166829686Y-58878090D01*
X166818736Y-58757048D01*
X166828816Y-58640333D01*
X166857327Y-58541992D01*
X166905298Y-58456482D01*
X166969678Y-58390928D01*
X167045395Y-58347107D01*
X167115125Y-58333775D01*
X167124651Y-58333775D01*
X167124651Y-58513538D01*
X167069343Y-58526591D01*
X167017184Y-58568614D01*
X166992473Y-58608208D01*
X166975857Y-58664111D01*
X166969556Y-58741660D01*
X166982928Y-58845739D01*
X167020898Y-58929929D01*
X167083740Y-58998970D01*
X167164394Y-59049531D01*
X167259780Y-59080854D01*
X167373656Y-59091905D01*
X167373656Y-59081036D01*
X167506524Y-59081036D01*
X167600871Y-59055074D01*
X167675935Y-59017385D01*
X167735136Y-58968684D01*
X167781692Y-58908232D01*
X167808142Y-58846823D01*
X167816835Y-58782693D01*
X167807898Y-58701918D01*
X167782397Y-58634193D01*
X167739343Y-58577821D01*
X167676029Y-58534054D01*
X167602526Y-58506798D01*
X167528506Y-58497906D01*
X167506524Y-58497906D01*
X167506524Y-59081036D01*
X167373656Y-59081036D01*
X167373656Y-58325959D01*
X167433740Y-58325959D01*
X167568210Y-58333529D01*
G37*
G36*
X164998443Y-82982763D02*
G01*
X164998443Y-82787369D01*
X164026845Y-82787369D01*
X163884029Y-82781066D01*
X163794896Y-82765678D01*
X163743279Y-82745481D01*
X163680205Y-82693216D01*
X163632271Y-82615788D01*
X163603773Y-82524389D01*
X163593925Y-82420760D01*
X163603880Y-82320443D01*
X163632271Y-82235380D01*
X163681533Y-82164991D01*
X163752805Y-82115334D01*
X163811298Y-82096802D01*
X163918451Y-82082214D01*
X164096821Y-82076133D01*
X164998443Y-82076133D01*
X164998443Y-81896371D01*
X164046018Y-81896371D01*
X163868121Y-81905135D01*
X163749667Y-81927165D01*
X163674647Y-81957309D01*
X163608764Y-82003523D01*
X163552564Y-82061541D01*
X163505387Y-82132676D01*
X163472107Y-82211372D01*
X163450764Y-82306400D01*
X163443105Y-82421127D01*
X163455811Y-82578098D01*
X163492442Y-82717027D01*
X163532784Y-82801008D01*
X163584042Y-82866782D01*
X163646559Y-82917062D01*
X163720383Y-82949906D01*
X163833773Y-82973480D01*
X164000833Y-82982763D01*
X164998443Y-82982763D01*
G37*
G36*
X163490000Y-81454780D02*
G01*
X163490000Y-81634542D01*
X164576392Y-81634542D01*
X164576392Y-81454780D01*
X164391256Y-81454780D01*
X164471889Y-81394799D01*
X164521926Y-81342916D01*
X164559405Y-81286783D01*
X164585917Y-81229588D01*
X164602023Y-81168247D01*
X164607655Y-81097697D01*
X164596922Y-81000029D01*
X164565767Y-80914515D01*
X164514140Y-80842098D01*
X164442424Y-80788119D01*
X164385737Y-80765659D01*
X164302012Y-80749735D01*
X164182550Y-80743545D01*
X163490000Y-80743545D01*
X163490000Y-80923307D01*
X164105614Y-80923307D01*
X164241732Y-80929216D01*
X164312976Y-80942602D01*
X164366815Y-80971014D01*
X164408475Y-81018928D01*
X164434789Y-81078438D01*
X164443524Y-81142271D01*
X164432080Y-81219435D01*
X164396873Y-81294312D01*
X164341589Y-81358816D01*
X164265715Y-81410694D01*
X164171202Y-81442282D01*
X164025868Y-81454780D01*
X163490000Y-81454780D01*
G37*
G36*
X164576392Y-80475854D02*
G01*
X164576392Y-80296092D01*
X163490000Y-80296092D01*
X163490000Y-80475854D01*
X164576392Y-80475854D01*
G37*
G36*
X164818681Y-80475854D02*
G01*
X164998443Y-80475854D01*
X164998443Y-80296092D01*
X164818681Y-80296092D01*
X164818681Y-80475854D01*
G37*
G36*
X163490000Y-79686095D02*
G01*
X164576392Y-80127686D01*
X164576392Y-79933513D01*
X163724228Y-79584856D01*
X164576392Y-79230826D01*
X164576392Y-79050331D01*
X163490000Y-79505600D01*
X163490000Y-79686095D01*
G37*
G36*
X164208210Y-77996055D02*
G01*
X164310995Y-78016319D01*
X164388447Y-78046371D01*
X164458329Y-78090717D01*
X164513032Y-78143245D01*
X164554410Y-78204518D01*
X164594090Y-78309190D01*
X164607655Y-78427145D01*
X164596964Y-78535477D01*
X164566011Y-78630808D01*
X164515001Y-78715856D01*
X164442180Y-78792411D01*
X164355941Y-78853410D01*
X164259157Y-78897443D01*
X164149886Y-78924699D01*
X164025624Y-78934193D01*
X163903869Y-78925162D01*
X163797113Y-78899287D01*
X163702908Y-78857613D01*
X163619326Y-78800104D01*
X163550273Y-78727652D01*
X163500643Y-78642037D01*
X163469686Y-78540617D01*
X163458736Y-78419574D01*
X163468816Y-78302859D01*
X163497327Y-78204518D01*
X163545298Y-78119008D01*
X163609678Y-78053454D01*
X163685395Y-78009633D01*
X163755125Y-77996301D01*
X163764651Y-77996301D01*
X163764651Y-78176064D01*
X163709343Y-78189117D01*
X163657184Y-78231140D01*
X163632473Y-78270734D01*
X163615857Y-78326638D01*
X163609556Y-78404187D01*
X163622928Y-78508265D01*
X163660898Y-78592455D01*
X163723740Y-78661496D01*
X163804394Y-78712057D01*
X163899780Y-78743380D01*
X164013656Y-78754431D01*
X164013656Y-78743562D01*
X164146524Y-78743562D01*
X164240871Y-78717600D01*
X164315935Y-78679912D01*
X164375136Y-78631210D01*
X164421692Y-78570758D01*
X164448142Y-78509349D01*
X164456835Y-78445219D01*
X164447898Y-78364444D01*
X164422397Y-78296720D01*
X164379343Y-78240347D01*
X164316029Y-78196580D01*
X164242526Y-78169324D01*
X164168506Y-78160432D01*
X164146524Y-78160432D01*
X164146524Y-78743562D01*
X164013656Y-78743562D01*
X164013656Y-77988485D01*
X164073740Y-77988485D01*
X164208210Y-77996055D01*
G37*
G36*
X163490000Y-77564480D02*
G01*
X163490000Y-77744242D01*
X164576392Y-77744242D01*
X164576392Y-77564480D01*
X164386249Y-77564480D01*
X164462697Y-77515323D01*
X164514720Y-77466538D01*
X164554788Y-77411450D01*
X164583719Y-77353576D01*
X164601742Y-77292639D01*
X164607655Y-77231699D01*
X164603118Y-77177876D01*
X164590558Y-77134612D01*
X164404078Y-77134612D01*
X164427814Y-77200739D01*
X164435708Y-77270167D01*
X164426452Y-77335379D01*
X164397659Y-77400917D01*
X164345826Y-77468736D01*
X164278831Y-77517894D01*
X164177312Y-77551471D01*
X164028066Y-77564480D01*
X163490000Y-77564480D01*
G37*
G36*
X163774420Y-77038869D02*
G01*
X163774420Y-76859106D01*
X163771734Y-76859106D01*
X163707169Y-76845632D01*
X163655230Y-76805251D01*
X163631928Y-76766283D01*
X163615803Y-76708264D01*
X163609556Y-76624389D01*
X163616186Y-76552480D01*
X163634807Y-76493246D01*
X163664511Y-76444138D01*
X163704898Y-76404255D01*
X163747387Y-76381897D01*
X163793593Y-76374528D01*
X163851088Y-76388118D01*
X163897516Y-76429921D01*
X163935010Y-76510450D01*
X163963709Y-76601552D01*
X163983004Y-76662735D01*
X164021472Y-76786322D01*
X164071506Y-76885422D01*
X164130990Y-76949782D01*
X164200503Y-76987030D01*
X164283667Y-76999790D01*
X164365386Y-76988535D01*
X164440071Y-76954864D01*
X164510202Y-76896353D01*
X164561847Y-76821422D01*
X164595306Y-76721781D01*
X164607655Y-76589951D01*
X164596380Y-76457801D01*
X164567024Y-76365809D01*
X164523757Y-76303332D01*
X164463882Y-76254835D01*
X164402391Y-76227290D01*
X164337400Y-76218213D01*
X164337400Y-76397976D01*
X164341430Y-76397976D01*
X164389024Y-76411028D01*
X164426304Y-76452198D01*
X164448421Y-76512034D01*
X164456835Y-76597522D01*
X164444356Y-76696348D01*
X164411528Y-76762386D01*
X164360295Y-76806027D01*
X164300397Y-76820027D01*
X164254084Y-76810637D01*
X164217965Y-76782903D01*
X164190200Y-76738253D01*
X164160202Y-76657972D01*
X164135533Y-76572854D01*
X164117704Y-76509473D01*
X164064214Y-76347418D01*
X164024403Y-76282571D01*
X163985001Y-76243509D01*
X163939284Y-76216381D01*
X163887159Y-76200446D01*
X163823879Y-76194766D01*
X163725149Y-76207189D01*
X163639538Y-76243387D01*
X163563761Y-76304431D01*
X163507878Y-76383785D01*
X163471933Y-76488145D01*
X163458736Y-76625000D01*
X163469582Y-76751718D01*
X163498670Y-76846284D01*
X163546973Y-76926010D01*
X163609556Y-76986479D01*
X163685686Y-77025572D01*
X163774420Y-77038869D01*
G37*
G36*
X164576392Y-75964200D02*
G01*
X164576392Y-75784438D01*
X163490000Y-75784438D01*
X163490000Y-75964200D01*
X164576392Y-75964200D01*
G37*
G36*
X164818681Y-75964200D02*
G01*
X164998443Y-75964200D01*
X164998443Y-75784438D01*
X164818681Y-75784438D01*
X164818681Y-75964200D01*
G37*
G36*
X163642529Y-74828960D02*
G01*
X163490244Y-74828960D01*
X163465343Y-74953531D01*
X163458736Y-75030460D01*
X163469293Y-75128151D01*
X163499891Y-75213520D01*
X163550356Y-75285489D01*
X163618471Y-75337473D01*
X163672374Y-75358879D01*
X163752107Y-75374065D01*
X163866011Y-75379972D01*
X164425572Y-75379972D01*
X164425572Y-75567550D01*
X164576392Y-75567550D01*
X164576392Y-75379972D01*
X164834312Y-75379972D01*
X164834312Y-75200209D01*
X164576392Y-75200209D01*
X164576392Y-74879762D01*
X164425572Y-74879762D01*
X164425572Y-75200209D01*
X163918157Y-75200209D01*
X163785186Y-75193417D01*
X163717878Y-75178227D01*
X163668713Y-75149161D01*
X163635568Y-75107885D01*
X163616407Y-75056228D01*
X163609556Y-74991870D01*
X163616294Y-74931902D01*
X163642529Y-74828960D01*
G37*
G36*
X163536528Y-74264026D02*
G01*
X164576392Y-74730286D01*
X164576392Y-74530617D01*
X163769535Y-74166939D01*
X164576392Y-73827930D01*
X164576392Y-73646092D01*
X163488656Y-74102704D01*
X163289831Y-74196866D01*
X163197519Y-74257920D01*
X163134846Y-74323815D01*
X163096769Y-74389200D01*
X163076019Y-74464621D01*
X163067948Y-74574337D01*
X163067948Y-74709769D01*
X163218768Y-74709769D01*
X163218768Y-74608531D01*
X163224031Y-74536139D01*
X163238674Y-74476639D01*
X163264662Y-74424549D01*
X163302299Y-74382972D01*
X163360489Y-74345920D01*
X163495495Y-74283199D01*
X163536528Y-74264026D01*
G37*
G36*
X164176192Y-71582484D02*
G01*
X164291999Y-71612309D01*
X164386279Y-71658828D01*
X164462819Y-71721458D01*
X164526510Y-71800698D01*
X164571287Y-71886324D01*
X164598375Y-71979778D01*
X164607655Y-72083060D01*
X164598355Y-72186990D01*
X164571234Y-72280846D01*
X164526450Y-72366656D01*
X164462819Y-72445882D01*
X164386279Y-72508512D01*
X164291999Y-72555031D01*
X164176192Y-72584856D01*
X164033928Y-72595603D01*
X163890857Y-72584837D01*
X163774559Y-72554981D01*
X163680038Y-72508457D01*
X163603450Y-72445882D01*
X163539878Y-72366663D01*
X163495130Y-72280856D01*
X163468030Y-72186996D01*
X163458736Y-72083060D01*
X163458747Y-72082937D01*
X163609556Y-72082937D01*
X163622713Y-72174740D01*
X163660952Y-72251886D01*
X163726182Y-72318143D01*
X163808386Y-72365822D01*
X163909397Y-72396063D01*
X164033928Y-72406926D01*
X164157461Y-72396089D01*
X164257981Y-72365872D01*
X164340087Y-72318143D01*
X164405391Y-72251877D01*
X164443667Y-72174731D01*
X164456835Y-72082937D01*
X164443711Y-71992117D01*
X164405479Y-71915473D01*
X164340087Y-71849319D01*
X164257972Y-71801520D01*
X164157452Y-71771264D01*
X164033928Y-71760415D01*
X163909406Y-71771290D01*
X163808395Y-71801571D01*
X163726182Y-71849319D01*
X163660865Y-71915464D01*
X163622669Y-71992108D01*
X163609556Y-72082937D01*
X163458747Y-72082937D01*
X163468010Y-71979771D01*
X163495077Y-71886315D01*
X163539818Y-71800691D01*
X163603450Y-71721458D01*
X163680038Y-71658883D01*
X163774559Y-71612359D01*
X163890857Y-71582504D01*
X164033928Y-71571737D01*
X164176192Y-71582484D01*
G37*
G36*
X163491587Y-71071528D02*
G01*
X163491587Y-71251290D01*
X164427892Y-71251290D01*
X164427892Y-71407606D01*
X164578712Y-71407606D01*
X164578712Y-71251290D01*
X164629270Y-71251290D01*
X164750352Y-71243513D01*
X164842593Y-71222649D01*
X164911965Y-71191487D01*
X164963272Y-71151395D01*
X165016772Y-71079451D01*
X165049475Y-70993988D01*
X165060969Y-70891154D01*
X165047414Y-70739357D01*
X164900502Y-70739357D01*
X164910150Y-70860136D01*
X164899098Y-70942923D01*
X164867651Y-71009734D01*
X164833123Y-71040301D01*
X164770022Y-71062434D01*
X164663586Y-71071528D01*
X164578712Y-71071528D01*
X164578712Y-70751081D01*
X164427892Y-70751081D01*
X164427892Y-71071528D01*
X163491587Y-71071528D01*
G37*
G36*
X163490000Y-69459525D02*
G01*
X163490000Y-69639288D01*
X164998443Y-69639288D01*
X164998443Y-69444504D01*
X163926584Y-68756350D01*
X163806172Y-68693579D01*
X163925240Y-68693579D01*
X164998443Y-68693579D01*
X164998443Y-68513817D01*
X163490000Y-68513817D01*
X163490000Y-68705914D01*
X164567355Y-69396632D01*
X164687766Y-69459525D01*
X164567355Y-69459525D01*
X163490000Y-69459525D01*
G37*
G36*
X164208210Y-67341205D02*
G01*
X164310995Y-67361469D01*
X164388447Y-67391521D01*
X164458329Y-67435867D01*
X164513032Y-67488395D01*
X164554410Y-67549668D01*
X164594090Y-67654340D01*
X164607655Y-67772295D01*
X164596964Y-67880627D01*
X164566011Y-67975958D01*
X164515001Y-68061006D01*
X164442180Y-68137561D01*
X164355941Y-68198560D01*
X164259157Y-68242593D01*
X164149886Y-68269849D01*
X164025624Y-68279344D01*
X163903869Y-68270312D01*
X163797113Y-68244437D01*
X163702908Y-68202763D01*
X163619326Y-68145254D01*
X163550273Y-68072802D01*
X163500643Y-67987187D01*
X163469686Y-67885767D01*
X163458736Y-67764724D01*
X163468816Y-67648009D01*
X163497327Y-67549668D01*
X163545298Y-67464159D01*
X163609678Y-67398604D01*
X163685395Y-67354783D01*
X163755125Y-67341451D01*
X163764651Y-67341451D01*
X163764651Y-67521214D01*
X163709343Y-67534267D01*
X163657184Y-67576290D01*
X163632473Y-67615884D01*
X163615857Y-67671788D01*
X163609556Y-67749337D01*
X163622928Y-67853415D01*
X163660898Y-67937605D01*
X163723740Y-68006646D01*
X163804394Y-68057207D01*
X163899780Y-68088530D01*
X164013656Y-68099581D01*
X164013656Y-68088712D01*
X164146524Y-68088712D01*
X164240871Y-68062750D01*
X164315935Y-68025062D01*
X164375136Y-67976360D01*
X164421692Y-67915908D01*
X164448142Y-67854499D01*
X164456835Y-67790369D01*
X164447898Y-67709594D01*
X164422397Y-67641870D01*
X164379343Y-67585497D01*
X164316029Y-67541730D01*
X164242526Y-67514474D01*
X164168506Y-67505582D01*
X164146524Y-67505582D01*
X164146524Y-68088712D01*
X164013656Y-68088712D01*
X164013656Y-67333635D01*
X164073740Y-67333635D01*
X164208210Y-67341205D01*
G37*
G36*
X164145727Y-66117981D02*
G01*
X164245889Y-66137259D01*
X164337156Y-66168475D01*
X164421850Y-66213197D01*
X164488488Y-66266472D01*
X164539633Y-66328454D01*
X164577550Y-66399415D01*
X164600067Y-66473977D01*
X164607655Y-66553524D01*
X164602346Y-66619265D01*
X164586528Y-66682240D01*
X164560457Y-66741414D01*
X164524002Y-66795812D01*
X164474126Y-66845547D01*
X164389912Y-66906088D01*
X165060969Y-66906088D01*
X165060969Y-67086461D01*
X163810812Y-67086461D01*
X163745600Y-67088538D01*
X163620181Y-67094033D01*
X163490000Y-67101605D01*
X163490000Y-66921109D01*
X163600519Y-66911461D01*
X163678311Y-66911461D01*
X163587670Y-66852055D01*
X163538360Y-66805949D01*
X163503664Y-66754791D01*
X163478642Y-66696284D01*
X163463804Y-66633166D01*
X163461667Y-66604326D01*
X163609556Y-66604326D01*
X163623019Y-66693181D01*
X163661958Y-66765900D01*
X163728625Y-66826587D01*
X163811552Y-66869287D01*
X163911828Y-66896391D01*
X164033440Y-66906088D01*
X164152685Y-66896827D01*
X164259120Y-66870062D01*
X164351530Y-66823218D01*
X164414703Y-66760031D01*
X164454092Y-66682456D01*
X164466971Y-66600296D01*
X164456439Y-66522807D01*
X164425167Y-66453194D01*
X164371228Y-66389026D01*
X164301107Y-66343931D01*
X164192547Y-66312376D01*
X164030631Y-66300000D01*
X163892568Y-66311290D01*
X163790059Y-66341461D01*
X163714825Y-66386950D01*
X163655627Y-66450786D01*
X163621237Y-66522259D01*
X163609556Y-66604326D01*
X163461667Y-66604326D01*
X163458736Y-66564759D01*
X163469491Y-66461463D01*
X163500299Y-66373390D01*
X163550740Y-66297308D01*
X163622745Y-66231245D01*
X163737662Y-66166245D01*
X163873509Y-66125671D01*
X164035272Y-66111322D01*
X164145727Y-66117981D01*
G37*
G36*
X163490000Y-65698185D02*
G01*
X163490000Y-65877948D01*
X164576392Y-65877948D01*
X164576392Y-65698185D01*
X164386249Y-65698185D01*
X164462697Y-65649029D01*
X164514720Y-65600244D01*
X164554788Y-65545155D01*
X164583719Y-65487281D01*
X164601742Y-65426344D01*
X164607655Y-65365404D01*
X164603118Y-65311582D01*
X164590558Y-65268318D01*
X164404078Y-65268318D01*
X164427814Y-65334445D01*
X164435708Y-65403872D01*
X164426452Y-65469085D01*
X164397659Y-65534623D01*
X164345826Y-65602442D01*
X164278831Y-65651600D01*
X164177312Y-65685176D01*
X164028066Y-65698185D01*
X163490000Y-65698185D01*
G37*
G36*
X163587457Y-64281300D02*
G01*
X163665854Y-64289392D01*
X163812034Y-64289392D01*
X164234574Y-64289392D01*
X164350677Y-64295890D01*
X164425289Y-64312007D01*
X164470512Y-64333845D01*
X164525179Y-64388780D01*
X164570652Y-64475505D01*
X164598089Y-64576264D01*
X164607655Y-64691660D01*
X164597528Y-64807292D01*
X164568087Y-64911113D01*
X164518459Y-65002631D01*
X164451095Y-65072557D01*
X164371662Y-65119394D01*
X164299909Y-65133496D01*
X164286109Y-65133496D01*
X164286109Y-64938101D01*
X164301252Y-64938101D01*
X164342204Y-64931422D01*
X164380313Y-64911020D01*
X164417023Y-64874354D01*
X164443587Y-64829236D01*
X164460720Y-64771612D01*
X164466971Y-64698133D01*
X164456379Y-64608440D01*
X164426549Y-64536322D01*
X164394414Y-64500039D01*
X164349196Y-64477463D01*
X164286231Y-64469155D01*
X164162889Y-64469155D01*
X164145181Y-64566486D01*
X164094690Y-64781217D01*
X164044802Y-64925974D01*
X163997048Y-65018213D01*
X163949167Y-65076227D01*
X163893960Y-65116359D01*
X163830038Y-65140666D01*
X163754881Y-65149127D01*
X163667352Y-65138189D01*
X163596310Y-65107146D01*
X163537871Y-65055949D01*
X163494055Y-64990092D01*
X163467765Y-64916790D01*
X163458736Y-64833810D01*
X163464514Y-64773848D01*
X163591605Y-64773848D01*
X163596582Y-64817574D01*
X163612121Y-64863241D01*
X163637330Y-64903468D01*
X163669640Y-64931140D01*
X163708115Y-64948113D01*
X163749141Y-64953733D01*
X163801275Y-64945545D01*
X163848826Y-64920813D01*
X163893611Y-64876919D01*
X163927487Y-64819895D01*
X163969825Y-64710582D01*
X164021716Y-64524110D01*
X164034050Y-64469155D01*
X163927194Y-64469155D01*
X163833047Y-64479871D01*
X163754515Y-64510432D01*
X163688078Y-64559562D01*
X163636057Y-64625104D01*
X163602360Y-64700194D01*
X163591605Y-64773848D01*
X163464514Y-64773848D01*
X163466270Y-64755624D01*
X163489877Y-64672121D01*
X163536192Y-64587875D01*
X163636789Y-64469155D01*
X163572393Y-64462799D01*
X163488290Y-64440945D01*
X163488290Y-64253855D01*
X163587457Y-64281300D01*
G37*
G36*
X163774420Y-64074459D02*
G01*
X163774420Y-63894696D01*
X163771734Y-63894696D01*
X163707169Y-63881221D01*
X163655230Y-63840840D01*
X163631928Y-63801873D01*
X163615803Y-63743854D01*
X163609556Y-63659979D01*
X163616186Y-63588070D01*
X163634807Y-63528835D01*
X163664511Y-63479727D01*
X163704898Y-63439845D01*
X163747387Y-63417487D01*
X163793593Y-63410118D01*
X163851088Y-63423707D01*
X163897516Y-63465511D01*
X163935010Y-63546039D01*
X163963709Y-63637142D01*
X163983004Y-63698325D01*
X164021472Y-63821912D01*
X164071506Y-63921012D01*
X164130990Y-63985372D01*
X164200503Y-64022620D01*
X164283667Y-64035380D01*
X164365386Y-64024124D01*
X164440071Y-63990453D01*
X164510202Y-63931943D01*
X164561847Y-63857012D01*
X164595306Y-63757371D01*
X164607655Y-63625540D01*
X164596380Y-63493390D01*
X164567024Y-63401398D01*
X164523757Y-63338921D01*
X164463882Y-63290425D01*
X164402391Y-63262879D01*
X164337400Y-63253803D01*
X164337400Y-63433565D01*
X164341430Y-63433565D01*
X164389024Y-63446618D01*
X164426304Y-63487787D01*
X164448421Y-63547624D01*
X164456835Y-63633112D01*
X164444356Y-63731937D01*
X164411528Y-63797976D01*
X164360295Y-63841616D01*
X164300397Y-63855617D01*
X164254084Y-63846226D01*
X164217965Y-63818492D01*
X164190200Y-63773843D01*
X164160202Y-63693562D01*
X164135533Y-63608443D01*
X164117704Y-63545062D01*
X164064214Y-63383007D01*
X164024403Y-63318161D01*
X163985001Y-63279099D01*
X163939284Y-63251971D01*
X163887159Y-63236036D01*
X163823879Y-63230355D01*
X163725149Y-63242779D01*
X163639538Y-63278977D01*
X163563761Y-63340020D01*
X163507878Y-63419375D01*
X163471933Y-63523734D01*
X163458736Y-63660589D01*
X163469582Y-63787308D01*
X163498670Y-63881873D01*
X163546973Y-63961599D01*
X163609556Y-64022069D01*
X163685686Y-64061162D01*
X163774420Y-64074459D01*
G37*
G36*
X163490000Y-62811113D02*
G01*
X163490000Y-62999790D01*
X165060969Y-62999790D01*
X165060969Y-62811113D01*
X164058597Y-62811113D01*
X164576392Y-62329832D01*
X164576392Y-62120638D01*
X164072274Y-62590928D01*
X163490000Y-62102930D01*
X163490000Y-62329832D01*
X164058597Y-62811113D01*
X163490000Y-62811113D01*
G37*
G36*
X163587457Y-61102235D02*
G01*
X163665854Y-61110327D01*
X163812034Y-61110327D01*
X164234574Y-61110327D01*
X164350677Y-61116825D01*
X164425289Y-61132942D01*
X164470512Y-61154780D01*
X164525179Y-61209715D01*
X164570652Y-61296441D01*
X164598089Y-61397199D01*
X164607655Y-61512595D01*
X164597528Y-61628227D01*
X164568087Y-61732048D01*
X164518459Y-61823566D01*
X164451095Y-61893492D01*
X164371662Y-61940329D01*
X164299909Y-61954431D01*
X164286109Y-61954431D01*
X164286109Y-61759036D01*
X164301252Y-61759036D01*
X164342204Y-61752357D01*
X164380313Y-61731955D01*
X164417023Y-61695289D01*
X164443587Y-61650171D01*
X164460720Y-61592547D01*
X164466971Y-61519068D01*
X164456379Y-61429375D01*
X164426549Y-61357257D01*
X164394414Y-61320974D01*
X164349196Y-61298398D01*
X164286231Y-61290090D01*
X164162889Y-61290090D01*
X164145181Y-61387421D01*
X164094690Y-61602152D01*
X164044802Y-61746909D01*
X163997048Y-61839148D01*
X163949167Y-61897163D01*
X163893960Y-61937294D01*
X163830038Y-61961601D01*
X163754881Y-61970062D01*
X163667352Y-61959124D01*
X163596310Y-61928081D01*
X163537871Y-61876884D01*
X163494055Y-61811027D01*
X163467765Y-61737725D01*
X163458736Y-61654745D01*
X163464514Y-61594783D01*
X163591605Y-61594783D01*
X163596582Y-61638509D01*
X163612121Y-61684176D01*
X163637330Y-61724403D01*
X163669640Y-61752076D01*
X163708115Y-61769048D01*
X163749141Y-61774668D01*
X163801275Y-61766481D01*
X163848826Y-61741748D01*
X163893611Y-61697854D01*
X163927487Y-61640830D01*
X163969825Y-61531517D01*
X164021716Y-61345045D01*
X164034050Y-61290090D01*
X163927194Y-61290090D01*
X163833047Y-61300806D01*
X163754515Y-61331367D01*
X163688078Y-61380497D01*
X163636057Y-61446039D01*
X163602360Y-61521129D01*
X163591605Y-61594783D01*
X163464514Y-61594783D01*
X163466270Y-61576560D01*
X163489877Y-61493056D01*
X163536192Y-61408810D01*
X163636789Y-61290090D01*
X163572393Y-61283734D01*
X163488290Y-61261880D01*
X163488290Y-61074790D01*
X163587457Y-61102235D01*
G37*
G36*
X164029288Y-60895394D02*
G01*
X164180108Y-60895394D01*
X164180108Y-60293579D01*
X164029288Y-60293579D01*
X164029288Y-60895394D01*
G37*
G36*
X163490000Y-60080600D02*
G01*
X165002351Y-60080600D01*
X165002351Y-59885205D01*
X163654131Y-59885205D01*
X163654131Y-59091905D01*
X163490000Y-59091905D01*
X163490000Y-60080600D01*
G37*
G36*
X164576392Y-58921912D02*
G01*
X164576392Y-58742149D01*
X163490000Y-58742149D01*
X163490000Y-58921912D01*
X164576392Y-58921912D01*
G37*
G36*
X164818681Y-58921912D02*
G01*
X164998443Y-58921912D01*
X164998443Y-58742149D01*
X164818681Y-58742149D01*
X164818681Y-58921912D01*
G37*
G36*
X163490000Y-58275157D02*
G01*
X163490000Y-58454919D01*
X164576392Y-58454919D01*
X164576392Y-58275157D01*
X164391256Y-58275157D01*
X164471889Y-58215176D01*
X164521926Y-58163293D01*
X164559405Y-58107160D01*
X164585917Y-58049965D01*
X164602023Y-57988624D01*
X164607655Y-57918073D01*
X164596922Y-57820406D01*
X164565767Y-57734891D01*
X164514140Y-57662475D01*
X164442424Y-57608496D01*
X164385737Y-57586036D01*
X164302012Y-57570112D01*
X164182550Y-57563921D01*
X163490000Y-57563921D01*
X163490000Y-57743684D01*
X164105614Y-57743684D01*
X164241732Y-57749593D01*
X164312976Y-57762979D01*
X164366815Y-57791391D01*
X164408475Y-57839305D01*
X164434789Y-57898815D01*
X164443524Y-57962648D01*
X164432080Y-58039812D01*
X164396873Y-58114689D01*
X164341589Y-58179193D01*
X164265715Y-58231071D01*
X164171202Y-58262659D01*
X164025868Y-58275157D01*
X163490000Y-58275157D01*
G37*
G36*
X163763429Y-56608443D02*
G01*
X163763429Y-56428681D01*
X163753904Y-56428681D01*
X163683463Y-56441778D01*
X163609068Y-56484246D01*
X163545575Y-56547497D01*
X163497815Y-56628227D01*
X163469186Y-56722417D01*
X163458736Y-56842794D01*
X163469174Y-56960872D01*
X163498635Y-57059630D01*
X163545735Y-57142783D01*
X163611022Y-57212944D01*
X163690061Y-57267429D01*
X163784732Y-57307986D01*
X163898092Y-57333873D01*
X164033928Y-57343126D01*
X164168960Y-57333891D01*
X164281824Y-57308032D01*
X164376252Y-57267479D01*
X164455247Y-57212944D01*
X164520592Y-57142775D01*
X164567728Y-57059619D01*
X164597210Y-56960864D01*
X164607655Y-56842794D01*
X164597018Y-56722464D01*
X164567843Y-56628227D01*
X164519818Y-56547348D01*
X164457445Y-56484246D01*
X164382680Y-56442389D01*
X164301618Y-56428681D01*
X164301618Y-56608443D01*
X164311022Y-56608443D01*
X164364848Y-56621552D01*
X164413360Y-56663398D01*
X164444474Y-56727734D01*
X164456835Y-56833391D01*
X164445567Y-56919649D01*
X164412588Y-56994847D01*
X164356573Y-57061880D01*
X164283724Y-57109889D01*
X164179692Y-57142174D01*
X164033928Y-57154448D01*
X163887193Y-57142091D01*
X163782736Y-57109622D01*
X163709818Y-57061392D01*
X163653821Y-56994045D01*
X163620831Y-56918483D01*
X163609556Y-56831803D01*
X163615635Y-56755609D01*
X163631636Y-56700830D01*
X163655352Y-56662177D01*
X163706246Y-56621426D01*
X163763429Y-56608443D01*
G37*
G36*
X164176192Y-55247523D02*
G01*
X164291999Y-55277347D01*
X164386279Y-55323867D01*
X164462819Y-55386496D01*
X164526510Y-55465737D01*
X164571287Y-55551362D01*
X164598375Y-55644816D01*
X164607655Y-55748098D01*
X164598355Y-55852028D01*
X164571234Y-55945885D01*
X164526450Y-56031694D01*
X164462819Y-56110921D01*
X164386279Y-56173550D01*
X164291999Y-56220070D01*
X164176192Y-56249894D01*
X164033928Y-56260642D01*
X163890857Y-56249875D01*
X163774559Y-56220019D01*
X163680038Y-56173495D01*
X163603450Y-56110921D01*
X163539878Y-56031701D01*
X163495130Y-55945894D01*
X163468030Y-55852035D01*
X163458736Y-55748098D01*
X163458747Y-55747976D01*
X163609556Y-55747976D01*
X163622713Y-55839779D01*
X163660952Y-55916925D01*
X163726182Y-55983182D01*
X163808386Y-56030860D01*
X163909397Y-56061102D01*
X164033928Y-56071964D01*
X164157461Y-56061128D01*
X164257981Y-56030911D01*
X164340087Y-55983182D01*
X164405391Y-55916916D01*
X164443667Y-55839770D01*
X164456835Y-55747976D01*
X164443711Y-55657155D01*
X164405479Y-55580512D01*
X164340087Y-55514357D01*
X164257972Y-55466559D01*
X164157452Y-55436303D01*
X164033928Y-55425453D01*
X163909406Y-55436329D01*
X163808395Y-55466609D01*
X163726182Y-55514357D01*
X163660865Y-55580503D01*
X163622669Y-55657146D01*
X163609556Y-55747976D01*
X163458747Y-55747976D01*
X163468010Y-55644810D01*
X163495077Y-55551353D01*
X163539818Y-55465730D01*
X163603450Y-55386496D01*
X163680038Y-55323922D01*
X163774559Y-55277398D01*
X163890857Y-55247542D01*
X164033928Y-55236775D01*
X164176192Y-55247523D01*
G37*
G36*
X163490000Y-54830355D02*
G01*
X163490000Y-55010118D01*
X165060969Y-55010118D01*
X165060969Y-54830355D01*
X163490000Y-54830355D01*
G37*
G36*
X163490000Y-54363363D02*
G01*
X163490000Y-54543126D01*
X164576392Y-54543126D01*
X164576392Y-54363363D01*
X164391256Y-54363363D01*
X164471889Y-54303383D01*
X164521926Y-54251500D01*
X164559405Y-54195367D01*
X164585917Y-54138171D01*
X164602023Y-54076830D01*
X164607655Y-54006280D01*
X164596922Y-53908612D01*
X164565767Y-53823098D01*
X164514140Y-53750682D01*
X164442424Y-53696702D01*
X164385737Y-53674243D01*
X164302012Y-53658319D01*
X164182550Y-53652128D01*
X163490000Y-53652128D01*
X163490000Y-53831891D01*
X164105614Y-53831891D01*
X164241732Y-53837799D01*
X164312976Y-53851186D01*
X164366815Y-53879598D01*
X164408475Y-53927512D01*
X164434789Y-53987021D01*
X164443524Y-54050854D01*
X164432080Y-54128018D01*
X164396873Y-54202896D01*
X164341589Y-54267399D01*
X164265715Y-54319277D01*
X164171202Y-54350866D01*
X164025868Y-54363363D01*
X163490000Y-54363363D01*
G37*
D11*
%TO.C,G\u002A\u002A\u002A*%
G36*
X124253767Y-52838949D02*
G01*
X124266589Y-52849402D01*
X124269082Y-52855791D01*
X124268218Y-52870600D01*
X124262240Y-52894915D01*
X124250565Y-52930989D01*
X124232613Y-52981075D01*
X124195794Y-53084786D01*
X124157192Y-53205245D01*
X124127749Y-53313500D01*
X124107130Y-53410959D01*
X124095003Y-53499027D01*
X124091035Y-53579114D01*
X124091248Y-53600313D01*
X124092844Y-53635430D01*
X124095766Y-53658577D01*
X124099732Y-53666922D01*
X124100194Y-53666896D01*
X124112450Y-53658628D01*
X124131832Y-53636812D01*
X124157043Y-53603265D01*
X124186781Y-53559802D01*
X124219748Y-53508240D01*
X124254644Y-53450395D01*
X124266449Y-53430364D01*
X124292522Y-53386705D01*
X124316515Y-53347266D01*
X124336172Y-53315732D01*
X124349239Y-53295789D01*
X124366751Y-53274912D01*
X124386523Y-53262332D01*
X124402352Y-53264925D01*
X124412394Y-53283065D01*
X124414245Y-53306890D01*
X124411400Y-53347098D01*
X124403950Y-53401211D01*
X124392240Y-53467718D01*
X124376620Y-53545108D01*
X124357435Y-53631868D01*
X124335033Y-53726487D01*
X124309761Y-53827454D01*
X124281967Y-53933258D01*
X124251998Y-54042385D01*
X124220200Y-54153326D01*
X124186921Y-54264569D01*
X124179949Y-54287403D01*
X124132237Y-54445382D01*
X124090126Y-54588241D01*
X124053287Y-54717286D01*
X124021390Y-54833828D01*
X123994106Y-54939174D01*
X123971105Y-55034634D01*
X123952060Y-55121515D01*
X123936639Y-55201128D01*
X123924514Y-55274780D01*
X123915355Y-55343781D01*
X123909778Y-55395711D01*
X123904990Y-55450033D01*
X123902025Y-55496470D01*
X123900995Y-55532617D01*
X123902010Y-55556068D01*
X123905181Y-55564420D01*
X123906240Y-55563956D01*
X123915802Y-55553684D01*
X123932424Y-55531981D01*
X123954096Y-55501560D01*
X123978806Y-55465132D01*
X124024597Y-55393959D01*
X124078462Y-55306181D01*
X124137790Y-55206026D01*
X124201560Y-55095333D01*
X124268746Y-54975941D01*
X124338326Y-54849689D01*
X124409274Y-54718418D01*
X124480569Y-54583966D01*
X124551185Y-54448173D01*
X124620099Y-54312879D01*
X124641616Y-54270391D01*
X124664621Y-54225980D01*
X124682076Y-54194127D01*
X124695191Y-54172917D01*
X124705178Y-54160439D01*
X124713246Y-54154777D01*
X124720607Y-54154019D01*
X124723269Y-54154449D01*
X124733729Y-54159220D01*
X124737879Y-54171568D01*
X124737719Y-54196456D01*
X124736596Y-54207290D01*
X124729379Y-54243101D01*
X124715816Y-54294475D01*
X124696097Y-54360860D01*
X124670415Y-54441706D01*
X124638964Y-54536462D01*
X124601935Y-54644576D01*
X124559520Y-54765497D01*
X124511912Y-54898674D01*
X124459303Y-55043557D01*
X124401887Y-55199594D01*
X124339854Y-55366233D01*
X124273397Y-55542925D01*
X124202710Y-55729117D01*
X124174562Y-55803061D01*
X124122615Y-55940380D01*
X124076665Y-56063258D01*
X124036298Y-56172981D01*
X124001100Y-56270834D01*
X123970657Y-56358101D01*
X123944557Y-56436070D01*
X123922386Y-56506025D01*
X123903729Y-56569251D01*
X123888174Y-56627034D01*
X123875307Y-56680659D01*
X123864714Y-56731413D01*
X123855982Y-56780579D01*
X123848698Y-56829445D01*
X123846056Y-56849526D01*
X123839177Y-56911320D01*
X123834825Y-56966920D01*
X123833046Y-57014078D01*
X123833884Y-57050546D01*
X123837386Y-57074076D01*
X123843596Y-57082419D01*
X123843821Y-57082409D01*
X123854999Y-57075105D01*
X123874858Y-57055557D01*
X123901769Y-57025728D01*
X123934103Y-56987585D01*
X123970229Y-56943093D01*
X124008519Y-56894217D01*
X124047343Y-56842922D01*
X124085071Y-56791175D01*
X124127653Y-56731214D01*
X124246926Y-56559520D01*
X124359978Y-56390690D01*
X124468269Y-56222268D01*
X124573258Y-56051797D01*
X124676404Y-55876822D01*
X124779165Y-55694885D01*
X124883001Y-55503529D01*
X124989371Y-55300298D01*
X125099733Y-55082736D01*
X125132278Y-55017972D01*
X125186310Y-54911683D01*
X125238886Y-54809748D01*
X125289309Y-54713447D01*
X125336882Y-54624060D01*
X125380909Y-54542865D01*
X125404166Y-54500938D01*
X125458999Y-54500938D01*
X125463412Y-54505351D01*
X125467825Y-54500938D01*
X125463412Y-54496526D01*
X125458999Y-54500938D01*
X125404166Y-54500938D01*
X125420693Y-54471143D01*
X125455538Y-54410173D01*
X125484746Y-54361234D01*
X125507620Y-54325606D01*
X125523465Y-54304569D01*
X125527557Y-54300353D01*
X125548528Y-54286931D01*
X125566616Y-54287494D01*
X125578093Y-54302203D01*
X125579174Y-54310001D01*
X125575515Y-54337768D01*
X125563993Y-54379298D01*
X125545097Y-54433453D01*
X125519320Y-54499090D01*
X125487152Y-54575070D01*
X125463412Y-54628190D01*
X125449083Y-54660252D01*
X125405605Y-54753495D01*
X125357207Y-54853659D01*
X125304382Y-54959604D01*
X125247620Y-55070188D01*
X125224317Y-55114956D01*
X125186044Y-55188481D01*
X125143004Y-55271153D01*
X125097177Y-55359176D01*
X125050539Y-55448752D01*
X125005066Y-55536084D01*
X124962737Y-55617373D01*
X124923710Y-55692438D01*
X124875675Y-55785059D01*
X124823768Y-55885341D01*
X124770154Y-55989095D01*
X124716998Y-56092131D01*
X124666465Y-56190260D01*
X124620720Y-56279291D01*
X124556835Y-56403383D01*
X124414705Y-56676391D01*
X124276066Y-56938411D01*
X124141886Y-57187622D01*
X124013133Y-57422203D01*
X123984485Y-57474027D01*
X123911023Y-57608835D01*
X123846456Y-57730525D01*
X123790216Y-57840313D01*
X123741737Y-57939417D01*
X123700453Y-58029050D01*
X123665796Y-58110429D01*
X123637199Y-58184771D01*
X123614096Y-58253291D01*
X123595920Y-58317204D01*
X123591146Y-58336910D01*
X123583124Y-58378398D01*
X123579564Y-58411578D01*
X123580678Y-58433585D01*
X123586680Y-58441557D01*
X123587250Y-58441420D01*
X123597457Y-58433732D01*
X123616878Y-58415983D01*
X123642966Y-58390578D01*
X123673174Y-58359920D01*
X123696290Y-58335432D01*
X123724838Y-58303753D01*
X123757233Y-58266333D01*
X123794450Y-58221983D01*
X123837462Y-58169514D01*
X123887242Y-58107736D01*
X123944766Y-58035459D01*
X124011005Y-57951496D01*
X124086936Y-57854656D01*
X124125270Y-57805834D01*
X124162498Y-57759101D01*
X124191570Y-57723756D01*
X124213852Y-57698336D01*
X124230705Y-57681381D01*
X124243496Y-57671428D01*
X124253587Y-57667017D01*
X124262342Y-57666684D01*
X124270965Y-57669521D01*
X124278359Y-57677889D01*
X124281389Y-57692583D01*
X124279722Y-57714682D01*
X124273028Y-57745268D01*
X124260975Y-57785420D01*
X124243232Y-57836220D01*
X124219467Y-57898747D01*
X124189349Y-57974083D01*
X124152546Y-58063306D01*
X124108727Y-58167499D01*
X124071532Y-58257231D01*
X124032409Y-58357678D01*
X124000873Y-58447186D01*
X123976205Y-58528156D01*
X123957686Y-58602987D01*
X123944599Y-58674079D01*
X123936225Y-58743833D01*
X123933952Y-58778033D01*
X123934722Y-58803691D01*
X123939344Y-58812231D01*
X123945513Y-58808347D01*
X123960877Y-58792178D01*
X123982551Y-58765856D01*
X124008575Y-58732009D01*
X124036990Y-58693264D01*
X124065839Y-58652249D01*
X124093162Y-58611591D01*
X124117000Y-58573919D01*
X124120313Y-58568474D01*
X124143392Y-58531601D01*
X124160231Y-58507703D01*
X124172893Y-58494580D01*
X124183440Y-58490031D01*
X124193935Y-58491858D01*
X124200824Y-58496282D01*
X124203913Y-58504584D01*
X124202098Y-58518580D01*
X124194697Y-58540247D01*
X124181029Y-58571558D01*
X124160414Y-58614492D01*
X124132169Y-58671022D01*
X124114889Y-58705822D01*
X124087617Y-58762690D01*
X124061686Y-58818886D01*
X124039379Y-58869422D01*
X124022982Y-58909312D01*
X124019859Y-58917521D01*
X124004687Y-58960055D01*
X123989843Y-59005489D01*
X123976238Y-59050559D01*
X123964783Y-59092004D01*
X123956388Y-59126563D01*
X123951965Y-59150972D01*
X123952425Y-59161970D01*
X123955935Y-59159382D01*
X123968377Y-59145158D01*
X123987949Y-59120780D01*
X124012810Y-59088685D01*
X124041121Y-59051306D01*
X124071042Y-59011081D01*
X124100732Y-58970445D01*
X124128353Y-58931834D01*
X124152064Y-58897683D01*
X124170414Y-58872784D01*
X124190186Y-58853609D01*
X124206025Y-58849514D01*
X124219323Y-58859713D01*
X124222603Y-58866246D01*
X124224524Y-58878945D01*
X124223333Y-58897651D01*
X124218653Y-58923890D01*
X124210105Y-58959187D01*
X124197312Y-59005069D01*
X124179896Y-59063059D01*
X124157478Y-59134685D01*
X124129681Y-59221470D01*
X124111289Y-59278889D01*
X124086470Y-59358432D01*
X124066859Y-59424643D01*
X124051960Y-59479532D01*
X124041275Y-59525107D01*
X124034307Y-59563374D01*
X124030560Y-59596342D01*
X124029536Y-59626018D01*
X124029815Y-59672724D01*
X124049393Y-59647289D01*
X124057869Y-59635264D01*
X124075029Y-59609847D01*
X124099400Y-59573213D01*
X124129755Y-59527220D01*
X124164872Y-59473722D01*
X124203525Y-59414574D01*
X124244491Y-59351632D01*
X124245229Y-59350496D01*
X124335611Y-59211021D01*
X124417393Y-59084039D01*
X124491845Y-58967433D01*
X124560238Y-58859089D01*
X124623845Y-58756891D01*
X124683937Y-58658723D01*
X124741785Y-58562470D01*
X124798662Y-58466015D01*
X124855840Y-58367243D01*
X124914588Y-58264038D01*
X124976180Y-58154285D01*
X125041887Y-58035868D01*
X125112980Y-57906670D01*
X125132187Y-57871716D01*
X125200786Y-57748051D01*
X125262517Y-57638886D01*
X125318071Y-57543144D01*
X125368139Y-57459742D01*
X125413412Y-57387603D01*
X125454580Y-57325647D01*
X125492336Y-57272792D01*
X125527369Y-57227961D01*
X125560370Y-57190074D01*
X125592031Y-57158049D01*
X125594215Y-57155996D01*
X125645558Y-57112506D01*
X125692431Y-57083332D01*
X125737899Y-57066948D01*
X125785023Y-57061826D01*
X125816196Y-57063667D01*
X125852045Y-57073763D01*
X125876943Y-57094010D01*
X125891887Y-57125925D01*
X125897869Y-57171024D01*
X125895885Y-57230822D01*
X125894711Y-57243627D01*
X125879975Y-57340611D01*
X125854340Y-57448565D01*
X125818472Y-57565488D01*
X125773038Y-57689383D01*
X125718704Y-57818251D01*
X125656135Y-57950094D01*
X125654328Y-57953694D01*
X125619616Y-58020019D01*
X125579853Y-58090900D01*
X125534517Y-58167087D01*
X125483089Y-58249330D01*
X125425048Y-58338381D01*
X125359873Y-58434988D01*
X125287044Y-58539904D01*
X125206039Y-58653879D01*
X125116339Y-58777662D01*
X125017423Y-58912004D01*
X124908770Y-59057657D01*
X124789860Y-59215370D01*
X124660172Y-59385893D01*
X124555748Y-59522690D01*
X124679278Y-59398076D01*
X124697930Y-59379355D01*
X124753981Y-59324625D01*
X124800198Y-59282417D01*
X124837734Y-59251946D01*
X124867741Y-59232430D01*
X124891372Y-59223085D01*
X124909782Y-59223128D01*
X124924122Y-59231777D01*
X124931683Y-59242720D01*
X124937168Y-59265970D01*
X124935692Y-59298389D01*
X124926993Y-59340724D01*
X124910808Y-59393724D01*
X124886874Y-59458133D01*
X124854928Y-59534701D01*
X124814708Y-59624174D01*
X124765949Y-59727299D01*
X124708390Y-59844823D01*
X124674098Y-59913533D01*
X124638344Y-59984169D01*
X124603636Y-60051453D01*
X124568542Y-60118034D01*
X124531634Y-60186565D01*
X124491482Y-60259698D01*
X124446658Y-60340083D01*
X124395731Y-60430373D01*
X124337272Y-60533218D01*
X124295156Y-60606710D01*
X124254600Y-60676360D01*
X124221021Y-60732512D01*
X124193708Y-60776263D01*
X124171949Y-60808715D01*
X124155033Y-60830967D01*
X124142248Y-60844119D01*
X124132884Y-60849272D01*
X124125764Y-60850105D01*
X124116760Y-60847362D01*
X124114142Y-60837824D01*
X124118444Y-60820152D01*
X124130195Y-60793008D01*
X124149929Y-60755052D01*
X124178176Y-60704947D01*
X124215469Y-60641353D01*
X124252482Y-60578553D01*
X124320711Y-60460681D01*
X124387548Y-60342574D01*
X124452452Y-60225335D01*
X124514879Y-60110065D01*
X124574286Y-59997866D01*
X124630130Y-59889839D01*
X124681868Y-59787087D01*
X124728959Y-59690711D01*
X124770857Y-59601812D01*
X124807022Y-59521492D01*
X124836909Y-59450853D01*
X124859976Y-59390997D01*
X124875680Y-59343024D01*
X124883479Y-59308038D01*
X124882828Y-59287139D01*
X124881078Y-59286848D01*
X124869101Y-59294806D01*
X124847218Y-59313458D01*
X124816932Y-59341296D01*
X124779748Y-59376815D01*
X124737168Y-59418506D01*
X124690697Y-59464862D01*
X124641839Y-59514378D01*
X124592098Y-59565545D01*
X124542976Y-59616857D01*
X124495979Y-59666807D01*
X124452610Y-59713887D01*
X124414372Y-59756591D01*
X124404934Y-59767374D01*
X124350158Y-59831367D01*
X124285684Y-59908761D01*
X124212098Y-59998835D01*
X124129987Y-60100866D01*
X124039937Y-60214133D01*
X123942534Y-60337913D01*
X123921108Y-60364915D01*
X123890418Y-60402377D01*
X123863468Y-60433877D01*
X123842580Y-60456727D01*
X123830076Y-60468234D01*
X123827348Y-60469935D01*
X123805257Y-60477429D01*
X123788676Y-60472948D01*
X123782140Y-60457506D01*
X123783590Y-60446718D01*
X123793233Y-60420921D01*
X123812240Y-60385828D01*
X123840984Y-60340916D01*
X123879839Y-60285661D01*
X123929179Y-60219538D01*
X123989379Y-60142025D01*
X124060811Y-60052597D01*
X124143850Y-59950730D01*
X124194327Y-59889078D01*
X124300253Y-59758301D01*
X124407563Y-59624037D01*
X124515276Y-59487592D01*
X124622410Y-59350274D01*
X124727984Y-59213388D01*
X124831018Y-59078242D01*
X124930529Y-58946143D01*
X125025537Y-58818396D01*
X125115061Y-58696309D01*
X125198119Y-58581189D01*
X125273730Y-58474341D01*
X125340913Y-58377074D01*
X125398687Y-58290693D01*
X125446070Y-58216505D01*
X125460056Y-58193746D01*
X125550003Y-58039124D01*
X125629514Y-57887407D01*
X125697894Y-57740184D01*
X125754445Y-57599046D01*
X125798472Y-57465583D01*
X125829278Y-57341387D01*
X125831302Y-57331028D01*
X125839970Y-57276967D01*
X125845234Y-57226023D01*
X125846933Y-57181713D01*
X125844908Y-57147551D01*
X125839000Y-57127056D01*
X125829403Y-57119987D01*
X125805654Y-57115070D01*
X125774461Y-57115396D01*
X125741190Y-57120795D01*
X125711208Y-57131098D01*
X125692941Y-57140920D01*
X125657812Y-57165647D01*
X125620461Y-57199556D01*
X125580345Y-57243422D01*
X125536920Y-57298019D01*
X125489645Y-57364124D01*
X125437975Y-57442510D01*
X125381369Y-57533953D01*
X125319283Y-57639227D01*
X125251174Y-57759109D01*
X125176500Y-57894371D01*
X125126746Y-57985328D01*
X125052919Y-58119227D01*
X124983527Y-58243520D01*
X124917129Y-58360621D01*
X124852281Y-58472949D01*
X124787543Y-58582918D01*
X124721473Y-58692946D01*
X124652628Y-58805448D01*
X124579566Y-58922840D01*
X124500847Y-59047540D01*
X124415026Y-59181964D01*
X124320664Y-59328527D01*
X124319828Y-59329821D01*
X124262808Y-59417943D01*
X124214410Y-59492343D01*
X124173808Y-59554181D01*
X124140172Y-59604621D01*
X124112675Y-59644824D01*
X124090489Y-59675953D01*
X124072786Y-59699169D01*
X124058738Y-59715635D01*
X124047517Y-59726512D01*
X124038295Y-59732964D01*
X124030245Y-59736151D01*
X124025062Y-59737154D01*
X124003030Y-59732561D01*
X123987493Y-59712776D01*
X123978621Y-59678883D01*
X123976585Y-59631963D01*
X123981553Y-59573101D01*
X123993697Y-59503380D01*
X123996866Y-59489554D01*
X124007053Y-59450580D01*
X124021323Y-59400291D01*
X124038605Y-59342315D01*
X124057830Y-59280278D01*
X124077927Y-59217810D01*
X124091590Y-59175862D01*
X124108463Y-59123063D01*
X124122579Y-59077714D01*
X124133232Y-59042139D01*
X124139713Y-59018662D01*
X124141316Y-59009605D01*
X124137609Y-59011990D01*
X124125314Y-59025713D01*
X124106804Y-59048974D01*
X124084399Y-59078949D01*
X124041288Y-59136502D01*
X124003841Y-59182295D01*
X123973401Y-59213939D01*
X123949115Y-59232063D01*
X123930135Y-59237294D01*
X123915610Y-59230260D01*
X123904689Y-59211588D01*
X123902199Y-59199308D01*
X123902799Y-59167692D01*
X123908625Y-59124757D01*
X123918923Y-59073694D01*
X123932940Y-59017692D01*
X123949920Y-58959940D01*
X123969109Y-58903628D01*
X123989753Y-58851946D01*
X123990164Y-58850994D01*
X123992332Y-58842562D01*
X123985834Y-58844866D01*
X123968558Y-58858565D01*
X123954887Y-58869425D01*
X123934147Y-58880726D01*
X123917707Y-58879055D01*
X123900973Y-58864839D01*
X123898878Y-58862400D01*
X123891752Y-58850150D01*
X123887643Y-58832477D01*
X123885947Y-58805317D01*
X123886059Y-58764610D01*
X123889707Y-58703080D01*
X123904301Y-58608311D01*
X123930264Y-58504045D01*
X123967959Y-58388603D01*
X123981391Y-58351466D01*
X123994382Y-58316280D01*
X124007507Y-58281727D01*
X124021738Y-58245398D01*
X124038045Y-58204883D01*
X124057397Y-58157772D01*
X124080766Y-58101656D01*
X124109121Y-58034124D01*
X124143433Y-57952766D01*
X124162591Y-57906786D01*
X124179513Y-57864935D01*
X124192502Y-57831447D01*
X124200543Y-57808939D01*
X124202622Y-57800028D01*
X124202512Y-57799944D01*
X124194801Y-57805436D01*
X124176881Y-57824968D01*
X124148716Y-57858586D01*
X124110269Y-57906335D01*
X124061501Y-57968260D01*
X124002378Y-58044406D01*
X123991931Y-58057886D01*
X123950382Y-58110839D01*
X123905078Y-58167759D01*
X123860823Y-58222636D01*
X123822426Y-58269458D01*
X123809459Y-58285013D01*
X123749755Y-58354607D01*
X123698826Y-58410041D01*
X123655946Y-58451836D01*
X123620389Y-58480514D01*
X123591429Y-58496594D01*
X123568342Y-58500597D01*
X123550402Y-58493045D01*
X123536883Y-58474459D01*
X123535028Y-58470239D01*
X123527977Y-58433149D01*
X123530683Y-58382087D01*
X123543040Y-58317628D01*
X123564942Y-58240346D01*
X123596286Y-58150814D01*
X123606477Y-58124166D01*
X123629327Y-58066974D01*
X123654117Y-58008598D01*
X123681624Y-57947477D01*
X123712628Y-57882054D01*
X123747910Y-57810770D01*
X123788247Y-57732066D01*
X123834419Y-57644384D01*
X123887206Y-57546166D01*
X123947386Y-57435852D01*
X124015739Y-57311884D01*
X124069143Y-57215127D01*
X124123489Y-57115938D01*
X124176343Y-57018621D01*
X124228875Y-56920966D01*
X124282256Y-56820766D01*
X124337656Y-56715811D01*
X124396248Y-56603893D01*
X124459200Y-56482803D01*
X124527685Y-56350333D01*
X124602873Y-56204274D01*
X124645253Y-56121919D01*
X124702166Y-56011592D01*
X124762977Y-55893963D01*
X124825697Y-55772867D01*
X124888336Y-55652140D01*
X124948905Y-55535620D01*
X125005416Y-55427141D01*
X125055879Y-55330542D01*
X125063598Y-55315783D01*
X125116123Y-55214828D01*
X125167056Y-55116061D01*
X125215793Y-55020704D01*
X125261735Y-54929977D01*
X125304278Y-54845102D01*
X125342821Y-54767301D01*
X125376763Y-54697795D01*
X125405502Y-54637806D01*
X125428435Y-54588556D01*
X125444962Y-54551266D01*
X125454481Y-54527157D01*
X125456389Y-54517451D01*
X125451654Y-54522089D01*
X125439484Y-54541270D01*
X125420620Y-54574126D01*
X125395661Y-54619529D01*
X125365205Y-54676350D01*
X125329850Y-54743462D01*
X125290196Y-54819736D01*
X125246841Y-54904045D01*
X125200384Y-54995259D01*
X125151422Y-55092252D01*
X125065579Y-55261714D01*
X124981015Y-55425533D01*
X124900779Y-55577343D01*
X124823618Y-55719340D01*
X124748280Y-55853720D01*
X124673511Y-55982678D01*
X124598060Y-56108411D01*
X124520673Y-56233115D01*
X124440099Y-56358984D01*
X124355084Y-56488216D01*
X124333019Y-56521257D01*
X124251211Y-56641919D01*
X124175556Y-56750492D01*
X124106375Y-56846567D01*
X124043987Y-56929737D01*
X123988713Y-56999594D01*
X123940873Y-57055731D01*
X123900786Y-57097740D01*
X123868773Y-57125214D01*
X123845153Y-57137745D01*
X123824793Y-57137153D01*
X123803231Y-57121963D01*
X123794983Y-57112828D01*
X123788089Y-57100501D01*
X123784217Y-57083232D01*
X123782518Y-57056787D01*
X123782140Y-57016931D01*
X123784037Y-56955990D01*
X123793607Y-56855306D01*
X123810674Y-56747019D01*
X123834594Y-56635812D01*
X123845304Y-56593157D01*
X123856893Y-56549773D01*
X123869660Y-56505024D01*
X123884081Y-56457540D01*
X123900634Y-56405950D01*
X123919795Y-56348884D01*
X123942043Y-56284971D01*
X123967854Y-56212841D01*
X123997705Y-56131123D01*
X124032074Y-56038448D01*
X124071437Y-55933444D01*
X124116272Y-55814741D01*
X124167057Y-55680968D01*
X124196437Y-55603562D01*
X124241462Y-55484345D01*
X124285859Y-55366106D01*
X124329193Y-55250040D01*
X124371032Y-55137341D01*
X124410940Y-55029203D01*
X124448483Y-54926819D01*
X124483229Y-54831384D01*
X124514741Y-54744091D01*
X124542587Y-54666135D01*
X124566333Y-54598709D01*
X124585544Y-54543007D01*
X124599786Y-54500223D01*
X124608625Y-54471551D01*
X124611627Y-54458184D01*
X124611203Y-54456683D01*
X124608524Y-54458569D01*
X124602745Y-54466918D01*
X124593136Y-54483037D01*
X124578964Y-54508235D01*
X124559499Y-54543821D01*
X124534011Y-54591103D01*
X124501768Y-54651390D01*
X124462040Y-54725991D01*
X124442399Y-54762810D01*
X124379584Y-54879107D01*
X124317992Y-54990999D01*
X124258301Y-55097352D01*
X124201188Y-55197035D01*
X124147333Y-55288916D01*
X124097415Y-55371860D01*
X124052111Y-55444738D01*
X124012101Y-55506414D01*
X123978063Y-55555759D01*
X123950675Y-55591637D01*
X123930616Y-55612918D01*
X123917722Y-55623337D01*
X123900383Y-55633113D01*
X123886533Y-55630983D01*
X123870396Y-55617373D01*
X123864425Y-55610462D01*
X123858378Y-55598189D01*
X123854838Y-55579789D01*
X123853181Y-55551426D01*
X123852781Y-55509260D01*
X123853889Y-55458685D01*
X123858665Y-55388746D01*
X123867441Y-55312445D01*
X123880465Y-55228653D01*
X123897987Y-55136243D01*
X123920255Y-55034088D01*
X123947519Y-54921060D01*
X123980028Y-54796032D01*
X124018031Y-54657875D01*
X124061777Y-54505462D01*
X124111514Y-54337665D01*
X124117121Y-54318961D01*
X124142792Y-54232485D01*
X124168515Y-54144584D01*
X124193419Y-54058309D01*
X124216635Y-53976711D01*
X124237294Y-53902839D01*
X124254527Y-53839746D01*
X124267463Y-53790480D01*
X124276305Y-53755230D01*
X124291617Y-53692237D01*
X124306291Y-53629604D01*
X124319812Y-53569726D01*
X124331667Y-53515001D01*
X124341342Y-53467825D01*
X124348323Y-53430595D01*
X124352097Y-53405707D01*
X124352148Y-53395558D01*
X124347587Y-53400596D01*
X124335824Y-53418078D01*
X124318795Y-53445229D01*
X124298375Y-53479138D01*
X124275178Y-53517505D01*
X124231477Y-53585057D01*
X124190922Y-53641473D01*
X124154509Y-53685501D01*
X124123231Y-53715887D01*
X124098086Y-53731377D01*
X124082558Y-53730653D01*
X124062783Y-53720174D01*
X124060227Y-53718058D01*
X124053008Y-53710667D01*
X124048097Y-53700921D01*
X124045074Y-53685760D01*
X124043517Y-53662126D01*
X124043008Y-53626959D01*
X124043124Y-53577201D01*
X124043651Y-53534075D01*
X124045739Y-53483471D01*
X124050028Y-53439393D01*
X124057213Y-53395335D01*
X124067992Y-53344788D01*
X124076864Y-53308105D01*
X124092635Y-53249309D01*
X124110862Y-53187063D01*
X124130737Y-53123635D01*
X124151453Y-53061298D01*
X124172205Y-53002321D01*
X124192186Y-52948975D01*
X124210588Y-52903531D01*
X124226606Y-52868260D01*
X124239433Y-52845432D01*
X124248261Y-52837318D01*
X124253767Y-52838949D01*
G37*
%TD*%
M02*
