M48
; DRILL file {KiCad 8.0.1} date 2025-08-18T13:03:45-0500
; FORMAT={-:-/ absolute / inch / decimal}
; #@! TF.CreationDate,2025-08-18T13:03:45-05:00
; #@! TF.GenerationSoftware,Kicad,Pcbnew,8.0.1
; #@! TF.FileFunction,Plated,1,2,PTH
FMAT,2
INCH
; #@! TA.AperFunction,Plated,PTH,ViaDrill
T1C0.0118
; #@! TA.AperFunction,Plated,PTH,ComponentDrill
T2C0.0276
; #@! TA.AperFunction,Plated,PTH,ComponentDrill
T3C0.0394
%
G90
G05
T1
X4.8701Y-4.1142
X4.8701Y-4.311
X4.8701Y-4.5079
X4.8701Y-4.6811
X4.8701Y-4.8425
X4.8701Y-5.0394
X5.0866Y-4.7992
X5.1417Y-4.1142
X5.1417Y-4.311
X5.3858Y-4.8346
X5.5079Y-4.8337
X5.5787Y-4.685
X5.6102Y-4.6457
X5.62Y-4.34
X5.6299Y-4.7087
X5.66Y-4.35
X5.7244Y-4.5709
X5.7795Y-4.6457
X5.811Y-4.0197
X5.815Y-4.8071
X5.8661Y-4.6929
X5.874Y-4.8071
X5.9685Y-4.6299
X6.0079Y-4.752
X6.0866Y-4.6969
X6.16Y-4.71
X6.21Y-4.54
X6.41Y-4.44
X6.43Y-4.38
X6.47Y-4.38
X6.7559Y-4.1142
X6.7559Y-4.311
X6.7559Y-4.5079
X6.7559Y-4.6811
X6.7559Y-4.8425
X6.7559Y-5.0394
T2
X5.563Y-2.752
X5.563Y-3.0
X5.563Y-3.248
X5.811Y-2.752
X5.811Y-3.0
X5.811Y-3.4311
X6.0591Y-2.752
X6.0591Y-3.0
X6.0591Y-3.248
T3
X4.9906Y-4.3925
X5.0425Y-4.9494
X5.1425Y-4.9494
X5.2425Y-4.9494
X5.3327Y-4.3866
X5.3425Y-4.9494
X5.4425Y-4.9494
X5.62Y-4.95
X5.72Y-4.95
X5.82Y-4.95
X5.92Y-4.95
X6.2648Y-4.9494
X6.3648Y-4.9494
X6.61Y-4.35
X6.61Y-4.51
M30
