M48
; DRILL file KiCad 10.0.3 date 2026-06-23T15:30:26
; FORMAT={-:-/ absolute / metric / decimal}
; #@! TF.CreationDate,2026-06-23T15:30:26-05:00
; #@! TF.GenerationSoftware,Kicad,Pcbnew,10.0.3
; #@! TF.FileFunction,Plated,1,2,PTH
FMAT,2
METRIC
; #@! TA.AperFunction,Plated,PTH,ViaDrill
T1C0.300
; #@! TA.AperFunction,Plated,PTH,ComponentDrill
T2C0.700
; #@! TA.AperFunction,Plated,PTH,ComponentDrill
T3C1.000
%
G90
G05
T1
X123.7Y-104.5
X123.7Y-109.5
X123.7Y-114.5
X123.7Y-118.9
X123.7Y-123.0
X123.7Y-128.0
X129.2Y-121.9
X130.6Y-104.5
X130.6Y-109.5
X131.6Y-112.5
X136.8Y-122.8
X139.9Y-122.775
X141.7Y-119.0
X142.5Y-118.0
X142.748Y-110.236
X143.0Y-119.6
X143.764Y-110.49
X145.4Y-116.1
X146.8Y-118.0
X147.6Y-102.1
X147.7Y-122.1
X149.0Y-119.2
X149.2Y-122.1
X151.6Y-117.6
X152.6Y-120.7
X154.6Y-119.3
X156.464Y-119.634
X157.734Y-115.316
X162.814Y-112.776
X163.322Y-111.252
X164.338Y-111.252
X171.6Y-104.5
X171.6Y-109.5
X171.6Y-114.5
X171.6Y-118.9
X171.6Y-123.0
X171.6Y-128.0
T2
X141.3Y-69.9
X141.3Y-76.2
X141.3Y-82.5
X147.6Y-69.9
X147.6Y-76.2
X147.6Y-87.15
X153.9Y-69.9
X153.9Y-76.2
X153.9Y-82.5
T3
X127.1Y-106.225
X127.1Y-108.765
X128.08Y-125.715
X130.62Y-125.715
X133.16Y-125.715
X135.7Y-125.715
X138.24Y-125.715
X142.748Y-125.73
X145.288Y-125.73
X147.828Y-125.73
X150.368Y-125.73
X159.125Y-125.715
X161.665Y-125.715
X168.6Y-111.225
X168.6Y-113.765
M30
