%TF.GenerationSoftware,KiCad,Pcbnew,10.0.3*%
%TF.CreationDate,2026-06-23T15:30:29-05:00*%
%TF.ProjectId,GPS_board_v3,4750535f-626f-4617-9264-5f76332e6b69,rev?*%
%TF.SameCoordinates,Original*%
%TF.FileFunction,Legend,Top*%
%TF.FilePolarity,Positive*%
%FSLAX46Y46*%
G04 Gerber Fmt 4.6, Leading zero omitted, Abs format (unit mm)*
G04 Created by KiCad (PCBNEW 10.0.3) date 2026-06-23 15:30:29*
%MOMM*%
%LPD*%
G01*
G04 APERTURE LIST*
%ADD10C,0.150000*%
%ADD11C,0.254000*%
%ADD12C,0.200000*%
%ADD13C,0.120000*%
G04 APERTURE END LIST*
D10*
X127746303Y-123592295D02*
X127479636Y-123211342D01*
X127289160Y-123592295D02*
X127289160Y-122792295D01*
X127289160Y-122792295D02*
X127593922Y-122792295D01*
X127593922Y-122792295D02*
X127670112Y-122830390D01*
X127670112Y-122830390D02*
X127708207Y-122868485D01*
X127708207Y-122868485D02*
X127746303Y-122944676D01*
X127746303Y-122944676D02*
X127746303Y-123058961D01*
X127746303Y-123058961D02*
X127708207Y-123135152D01*
X127708207Y-123135152D02*
X127670112Y-123173247D01*
X127670112Y-123173247D02*
X127593922Y-123211342D01*
X127593922Y-123211342D02*
X127289160Y-123211342D01*
X128051064Y-123554200D02*
X128165350Y-123592295D01*
X128165350Y-123592295D02*
X128355826Y-123592295D01*
X128355826Y-123592295D02*
X128432017Y-123554200D01*
X128432017Y-123554200D02*
X128470112Y-123516104D01*
X128470112Y-123516104D02*
X128508207Y-123439914D01*
X128508207Y-123439914D02*
X128508207Y-123363723D01*
X128508207Y-123363723D02*
X128470112Y-123287533D01*
X128470112Y-123287533D02*
X128432017Y-123249438D01*
X128432017Y-123249438D02*
X128355826Y-123211342D01*
X128355826Y-123211342D02*
X128203445Y-123173247D01*
X128203445Y-123173247D02*
X128127255Y-123135152D01*
X128127255Y-123135152D02*
X128089160Y-123097057D01*
X128089160Y-123097057D02*
X128051064Y-123020866D01*
X128051064Y-123020866D02*
X128051064Y-122944676D01*
X128051064Y-122944676D02*
X128089160Y-122868485D01*
X128089160Y-122868485D02*
X128127255Y-122830390D01*
X128127255Y-122830390D02*
X128203445Y-122792295D01*
X128203445Y-122792295D02*
X128393922Y-122792295D01*
X128393922Y-122792295D02*
X128508207Y-122830390D01*
X128736779Y-122792295D02*
X129193922Y-122792295D01*
X128965350Y-123592295D02*
X128965350Y-122792295D01*
X129246303Y-106418104D02*
X129208207Y-106456200D01*
X129208207Y-106456200D02*
X129093922Y-106494295D01*
X129093922Y-106494295D02*
X129017731Y-106494295D01*
X129017731Y-106494295D02*
X128903445Y-106456200D01*
X128903445Y-106456200D02*
X128827255Y-106380009D01*
X128827255Y-106380009D02*
X128789160Y-106303819D01*
X128789160Y-106303819D02*
X128751064Y-106151438D01*
X128751064Y-106151438D02*
X128751064Y-106037152D01*
X128751064Y-106037152D02*
X128789160Y-105884771D01*
X128789160Y-105884771D02*
X128827255Y-105808580D01*
X128827255Y-105808580D02*
X128903445Y-105732390D01*
X128903445Y-105732390D02*
X129017731Y-105694295D01*
X129017731Y-105694295D02*
X129093922Y-105694295D01*
X129093922Y-105694295D02*
X129208207Y-105732390D01*
X129208207Y-105732390D02*
X129246303Y-105770485D01*
X129551064Y-106265723D02*
X129932017Y-106265723D01*
X129474874Y-106494295D02*
X129741541Y-105694295D01*
X129741541Y-105694295D02*
X130008207Y-106494295D01*
X130274874Y-106494295D02*
X130274874Y-105694295D01*
X130274874Y-105694295D02*
X130732017Y-106494295D01*
X130732017Y-106494295D02*
X130732017Y-105694295D01*
X130998683Y-105694295D02*
X131455826Y-105694295D01*
X131227254Y-106494295D02*
X131227254Y-105694295D01*
X131646302Y-105694295D02*
X132179636Y-106494295D01*
X132179636Y-105694295D02*
X131646302Y-106494295D01*
X129246303Y-108918104D02*
X129208207Y-108956200D01*
X129208207Y-108956200D02*
X129093922Y-108994295D01*
X129093922Y-108994295D02*
X129017731Y-108994295D01*
X129017731Y-108994295D02*
X128903445Y-108956200D01*
X128903445Y-108956200D02*
X128827255Y-108880009D01*
X128827255Y-108880009D02*
X128789160Y-108803819D01*
X128789160Y-108803819D02*
X128751064Y-108651438D01*
X128751064Y-108651438D02*
X128751064Y-108537152D01*
X128751064Y-108537152D02*
X128789160Y-108384771D01*
X128789160Y-108384771D02*
X128827255Y-108308580D01*
X128827255Y-108308580D02*
X128903445Y-108232390D01*
X128903445Y-108232390D02*
X129017731Y-108194295D01*
X129017731Y-108194295D02*
X129093922Y-108194295D01*
X129093922Y-108194295D02*
X129208207Y-108232390D01*
X129208207Y-108232390D02*
X129246303Y-108270485D01*
X129551064Y-108765723D02*
X129932017Y-108765723D01*
X129474874Y-108994295D02*
X129741541Y-108194295D01*
X129741541Y-108194295D02*
X130008207Y-108994295D01*
X130274874Y-108994295D02*
X130274874Y-108194295D01*
X130274874Y-108194295D02*
X130732017Y-108994295D01*
X130732017Y-108994295D02*
X130732017Y-108194295D01*
X131570112Y-108994295D02*
X131303445Y-108613342D01*
X131112969Y-108994295D02*
X131112969Y-108194295D01*
X131112969Y-108194295D02*
X131417731Y-108194295D01*
X131417731Y-108194295D02*
X131493921Y-108232390D01*
X131493921Y-108232390D02*
X131532016Y-108270485D01*
X131532016Y-108270485D02*
X131570112Y-108346676D01*
X131570112Y-108346676D02*
X131570112Y-108460961D01*
X131570112Y-108460961D02*
X131532016Y-108537152D01*
X131532016Y-108537152D02*
X131493921Y-108575247D01*
X131493921Y-108575247D02*
X131417731Y-108613342D01*
X131417731Y-108613342D02*
X131112969Y-108613342D01*
X131836778Y-108194295D02*
X132370112Y-108994295D01*
X132370112Y-108194295D02*
X131836778Y-108994295D01*
X129752969Y-122792295D02*
X130248207Y-122792295D01*
X130248207Y-122792295D02*
X129981541Y-123097057D01*
X129981541Y-123097057D02*
X130095826Y-123097057D01*
X130095826Y-123097057D02*
X130172017Y-123135152D01*
X130172017Y-123135152D02*
X130210112Y-123173247D01*
X130210112Y-123173247D02*
X130248207Y-123249438D01*
X130248207Y-123249438D02*
X130248207Y-123439914D01*
X130248207Y-123439914D02*
X130210112Y-123516104D01*
X130210112Y-123516104D02*
X130172017Y-123554200D01*
X130172017Y-123554200D02*
X130095826Y-123592295D01*
X130095826Y-123592295D02*
X129867255Y-123592295D01*
X129867255Y-123592295D02*
X129791064Y-123554200D01*
X129791064Y-123554200D02*
X129752969Y-123516104D01*
X130476779Y-122792295D02*
X130743446Y-123592295D01*
X130743446Y-123592295D02*
X131010112Y-122792295D01*
X131200588Y-122792295D02*
X131695826Y-122792295D01*
X131695826Y-122792295D02*
X131429160Y-123097057D01*
X131429160Y-123097057D02*
X131543445Y-123097057D01*
X131543445Y-123097057D02*
X131619636Y-123135152D01*
X131619636Y-123135152D02*
X131657731Y-123173247D01*
X131657731Y-123173247D02*
X131695826Y-123249438D01*
X131695826Y-123249438D02*
X131695826Y-123439914D01*
X131695826Y-123439914D02*
X131657731Y-123516104D01*
X131657731Y-123516104D02*
X131619636Y-123554200D01*
X131619636Y-123554200D02*
X131543445Y-123592295D01*
X131543445Y-123592295D02*
X131314874Y-123592295D01*
X131314874Y-123592295D02*
X131238683Y-123554200D01*
X131238683Y-123554200D02*
X131200588Y-123516104D01*
X132826303Y-123516104D02*
X132788207Y-123554200D01*
X132788207Y-123554200D02*
X132673922Y-123592295D01*
X132673922Y-123592295D02*
X132597731Y-123592295D01*
X132597731Y-123592295D02*
X132483445Y-123554200D01*
X132483445Y-123554200D02*
X132407255Y-123478009D01*
X132407255Y-123478009D02*
X132369160Y-123401819D01*
X132369160Y-123401819D02*
X132331064Y-123249438D01*
X132331064Y-123249438D02*
X132331064Y-123135152D01*
X132331064Y-123135152D02*
X132369160Y-122982771D01*
X132369160Y-122982771D02*
X132407255Y-122906580D01*
X132407255Y-122906580D02*
X132483445Y-122830390D01*
X132483445Y-122830390D02*
X132597731Y-122792295D01*
X132597731Y-122792295D02*
X132673922Y-122792295D01*
X132673922Y-122792295D02*
X132788207Y-122830390D01*
X132788207Y-122830390D02*
X132826303Y-122868485D01*
X133550112Y-123592295D02*
X133169160Y-123592295D01*
X133169160Y-123592295D02*
X133169160Y-122792295D01*
X133816779Y-123592295D02*
X133816779Y-122792295D01*
X134273922Y-123592295D02*
X133931064Y-123135152D01*
X134273922Y-122792295D02*
X133816779Y-123249438D01*
X135328207Y-122830390D02*
X135252017Y-122792295D01*
X135252017Y-122792295D02*
X135137731Y-122792295D01*
X135137731Y-122792295D02*
X135023445Y-122830390D01*
X135023445Y-122830390D02*
X134947255Y-122906580D01*
X134947255Y-122906580D02*
X134909160Y-122982771D01*
X134909160Y-122982771D02*
X134871064Y-123135152D01*
X134871064Y-123135152D02*
X134871064Y-123249438D01*
X134871064Y-123249438D02*
X134909160Y-123401819D01*
X134909160Y-123401819D02*
X134947255Y-123478009D01*
X134947255Y-123478009D02*
X135023445Y-123554200D01*
X135023445Y-123554200D02*
X135137731Y-123592295D01*
X135137731Y-123592295D02*
X135213922Y-123592295D01*
X135213922Y-123592295D02*
X135328207Y-123554200D01*
X135328207Y-123554200D02*
X135366303Y-123516104D01*
X135366303Y-123516104D02*
X135366303Y-123249438D01*
X135366303Y-123249438D02*
X135213922Y-123249438D01*
X135709160Y-123592295D02*
X135709160Y-122792295D01*
X135709160Y-122792295D02*
X136166303Y-123592295D01*
X136166303Y-123592295D02*
X136166303Y-122792295D01*
X136547255Y-123592295D02*
X136547255Y-122792295D01*
X136547255Y-122792295D02*
X136737731Y-122792295D01*
X136737731Y-122792295D02*
X136852017Y-122830390D01*
X136852017Y-122830390D02*
X136928207Y-122906580D01*
X136928207Y-122906580D02*
X136966302Y-122982771D01*
X136966302Y-122982771D02*
X137004398Y-123135152D01*
X137004398Y-123135152D02*
X137004398Y-123249438D01*
X137004398Y-123249438D02*
X136966302Y-123401819D01*
X136966302Y-123401819D02*
X136928207Y-123478009D01*
X136928207Y-123478009D02*
X136852017Y-123554200D01*
X136852017Y-123554200D02*
X136737731Y-123592295D01*
X136737731Y-123592295D02*
X136547255Y-123592295D01*
X137703160Y-123592295D02*
X137703160Y-122792295D01*
X138236493Y-122792295D02*
X138388874Y-122792295D01*
X138388874Y-122792295D02*
X138465064Y-122830390D01*
X138465064Y-122830390D02*
X138541255Y-122906580D01*
X138541255Y-122906580D02*
X138579350Y-123058961D01*
X138579350Y-123058961D02*
X138579350Y-123325628D01*
X138579350Y-123325628D02*
X138541255Y-123478009D01*
X138541255Y-123478009D02*
X138465064Y-123554200D01*
X138465064Y-123554200D02*
X138388874Y-123592295D01*
X138388874Y-123592295D02*
X138236493Y-123592295D01*
X138236493Y-123592295D02*
X138160302Y-123554200D01*
X138160302Y-123554200D02*
X138084112Y-123478009D01*
X138084112Y-123478009D02*
X138046016Y-123325628D01*
X138046016Y-123325628D02*
X138046016Y-123058961D01*
X138046016Y-123058961D02*
X138084112Y-122906580D01*
X138084112Y-122906580D02*
X138160302Y-122830390D01*
X138160302Y-122830390D02*
X138236493Y-122792295D01*
X141690969Y-122792295D02*
X142186207Y-122792295D01*
X142186207Y-122792295D02*
X141919541Y-123097057D01*
X141919541Y-123097057D02*
X142033826Y-123097057D01*
X142033826Y-123097057D02*
X142110017Y-123135152D01*
X142110017Y-123135152D02*
X142148112Y-123173247D01*
X142148112Y-123173247D02*
X142186207Y-123249438D01*
X142186207Y-123249438D02*
X142186207Y-123439914D01*
X142186207Y-123439914D02*
X142148112Y-123516104D01*
X142148112Y-123516104D02*
X142110017Y-123554200D01*
X142110017Y-123554200D02*
X142033826Y-123592295D01*
X142033826Y-123592295D02*
X141805255Y-123592295D01*
X141805255Y-123592295D02*
X141729064Y-123554200D01*
X141729064Y-123554200D02*
X141690969Y-123516104D01*
X142414779Y-122792295D02*
X142681446Y-123592295D01*
X142681446Y-123592295D02*
X142948112Y-122792295D01*
X143138588Y-122792295D02*
X143633826Y-122792295D01*
X143633826Y-122792295D02*
X143367160Y-123097057D01*
X143367160Y-123097057D02*
X143481445Y-123097057D01*
X143481445Y-123097057D02*
X143557636Y-123135152D01*
X143557636Y-123135152D02*
X143595731Y-123173247D01*
X143595731Y-123173247D02*
X143633826Y-123249438D01*
X143633826Y-123249438D02*
X143633826Y-123439914D01*
X143633826Y-123439914D02*
X143595731Y-123516104D01*
X143595731Y-123516104D02*
X143557636Y-123554200D01*
X143557636Y-123554200D02*
X143481445Y-123592295D01*
X143481445Y-123592295D02*
X143252874Y-123592295D01*
X143252874Y-123592295D02*
X143176683Y-123554200D01*
X143176683Y-123554200D02*
X143138588Y-123516104D01*
X144726207Y-122830390D02*
X144650017Y-122792295D01*
X144650017Y-122792295D02*
X144535731Y-122792295D01*
X144535731Y-122792295D02*
X144421445Y-122830390D01*
X144421445Y-122830390D02*
X144345255Y-122906580D01*
X144345255Y-122906580D02*
X144307160Y-122982771D01*
X144307160Y-122982771D02*
X144269064Y-123135152D01*
X144269064Y-123135152D02*
X144269064Y-123249438D01*
X144269064Y-123249438D02*
X144307160Y-123401819D01*
X144307160Y-123401819D02*
X144345255Y-123478009D01*
X144345255Y-123478009D02*
X144421445Y-123554200D01*
X144421445Y-123554200D02*
X144535731Y-123592295D01*
X144535731Y-123592295D02*
X144611922Y-123592295D01*
X144611922Y-123592295D02*
X144726207Y-123554200D01*
X144726207Y-123554200D02*
X144764303Y-123516104D01*
X144764303Y-123516104D02*
X144764303Y-123249438D01*
X144764303Y-123249438D02*
X144611922Y-123249438D01*
X145107160Y-123592295D02*
X145107160Y-122792295D01*
X145107160Y-122792295D02*
X145564303Y-123592295D01*
X145564303Y-123592295D02*
X145564303Y-122792295D01*
X145945255Y-123592295D02*
X145945255Y-122792295D01*
X145945255Y-122792295D02*
X146135731Y-122792295D01*
X146135731Y-122792295D02*
X146250017Y-122830390D01*
X146250017Y-122830390D02*
X146326207Y-122906580D01*
X146326207Y-122906580D02*
X146364302Y-122982771D01*
X146364302Y-122982771D02*
X146402398Y-123135152D01*
X146402398Y-123135152D02*
X146402398Y-123249438D01*
X146402398Y-123249438D02*
X146364302Y-123401819D01*
X146364302Y-123401819D02*
X146326207Y-123478009D01*
X146326207Y-123478009D02*
X146250017Y-123554200D01*
X146250017Y-123554200D02*
X146135731Y-123592295D01*
X146135731Y-123592295D02*
X145945255Y-123592295D01*
X147812303Y-123516104D02*
X147774207Y-123554200D01*
X147774207Y-123554200D02*
X147659922Y-123592295D01*
X147659922Y-123592295D02*
X147583731Y-123592295D01*
X147583731Y-123592295D02*
X147469445Y-123554200D01*
X147469445Y-123554200D02*
X147393255Y-123478009D01*
X147393255Y-123478009D02*
X147355160Y-123401819D01*
X147355160Y-123401819D02*
X147317064Y-123249438D01*
X147317064Y-123249438D02*
X147317064Y-123135152D01*
X147317064Y-123135152D02*
X147355160Y-122982771D01*
X147355160Y-122982771D02*
X147393255Y-122906580D01*
X147393255Y-122906580D02*
X147469445Y-122830390D01*
X147469445Y-122830390D02*
X147583731Y-122792295D01*
X147583731Y-122792295D02*
X147659922Y-122792295D01*
X147659922Y-122792295D02*
X147774207Y-122830390D01*
X147774207Y-122830390D02*
X147812303Y-122868485D01*
X148536112Y-123592295D02*
X148155160Y-123592295D01*
X148155160Y-123592295D02*
X148155160Y-122792295D01*
X150352303Y-123516104D02*
X150314207Y-123554200D01*
X150314207Y-123554200D02*
X150199922Y-123592295D01*
X150199922Y-123592295D02*
X150123731Y-123592295D01*
X150123731Y-123592295D02*
X150009445Y-123554200D01*
X150009445Y-123554200D02*
X149933255Y-123478009D01*
X149933255Y-123478009D02*
X149895160Y-123401819D01*
X149895160Y-123401819D02*
X149857064Y-123249438D01*
X149857064Y-123249438D02*
X149857064Y-123135152D01*
X149857064Y-123135152D02*
X149895160Y-122982771D01*
X149895160Y-122982771D02*
X149933255Y-122906580D01*
X149933255Y-122906580D02*
X150009445Y-122830390D01*
X150009445Y-122830390D02*
X150123731Y-122792295D01*
X150123731Y-122792295D02*
X150199922Y-122792295D01*
X150199922Y-122792295D02*
X150314207Y-122830390D01*
X150314207Y-122830390D02*
X150352303Y-122868485D01*
X150695160Y-123592295D02*
X150695160Y-122792295D01*
X150695160Y-123173247D02*
X151152303Y-123173247D01*
X151152303Y-123592295D02*
X151152303Y-122792295D01*
X157896303Y-128218104D02*
X157858207Y-128256200D01*
X157858207Y-128256200D02*
X157743922Y-128294295D01*
X157743922Y-128294295D02*
X157667731Y-128294295D01*
X157667731Y-128294295D02*
X157553445Y-128256200D01*
X157553445Y-128256200D02*
X157477255Y-128180009D01*
X157477255Y-128180009D02*
X157439160Y-128103819D01*
X157439160Y-128103819D02*
X157401064Y-127951438D01*
X157401064Y-127951438D02*
X157401064Y-127837152D01*
X157401064Y-127837152D02*
X157439160Y-127684771D01*
X157439160Y-127684771D02*
X157477255Y-127608580D01*
X157477255Y-127608580D02*
X157553445Y-127532390D01*
X157553445Y-127532390D02*
X157667731Y-127494295D01*
X157667731Y-127494295D02*
X157743922Y-127494295D01*
X157743922Y-127494295D02*
X157858207Y-127532390D01*
X157858207Y-127532390D02*
X157896303Y-127570485D01*
X158201064Y-128065723D02*
X158582017Y-128065723D01*
X158124874Y-128294295D02*
X158391541Y-127494295D01*
X158391541Y-127494295D02*
X158658207Y-128294295D01*
X158924874Y-128294295D02*
X158924874Y-127494295D01*
X158924874Y-127494295D02*
X159382017Y-128294295D01*
X159382017Y-128294295D02*
X159382017Y-127494295D01*
X160829636Y-128294295D02*
X160562969Y-127913342D01*
X160372493Y-128294295D02*
X160372493Y-127494295D01*
X160372493Y-127494295D02*
X160677255Y-127494295D01*
X160677255Y-127494295D02*
X160753445Y-127532390D01*
X160753445Y-127532390D02*
X160791540Y-127570485D01*
X160791540Y-127570485D02*
X160829636Y-127646676D01*
X160829636Y-127646676D02*
X160829636Y-127760961D01*
X160829636Y-127760961D02*
X160791540Y-127837152D01*
X160791540Y-127837152D02*
X160753445Y-127875247D01*
X160753445Y-127875247D02*
X160677255Y-127913342D01*
X160677255Y-127913342D02*
X160372493Y-127913342D01*
X162010588Y-128599057D02*
X161972493Y-128560961D01*
X161972493Y-128560961D02*
X161896302Y-128446676D01*
X161896302Y-128446676D02*
X161858207Y-128370485D01*
X161858207Y-128370485D02*
X161820112Y-128256200D01*
X161820112Y-128256200D02*
X161782017Y-128065723D01*
X161782017Y-128065723D02*
X161782017Y-127913342D01*
X161782017Y-127913342D02*
X161820112Y-127722866D01*
X161820112Y-127722866D02*
X161858207Y-127608580D01*
X161858207Y-127608580D02*
X161896302Y-127532390D01*
X161896302Y-127532390D02*
X161972493Y-127418104D01*
X161972493Y-127418104D02*
X162010588Y-127380009D01*
X162277254Y-128256200D02*
X162391540Y-128294295D01*
X162391540Y-128294295D02*
X162582016Y-128294295D01*
X162582016Y-128294295D02*
X162658207Y-128256200D01*
X162658207Y-128256200D02*
X162696302Y-128218104D01*
X162696302Y-128218104D02*
X162734397Y-128141914D01*
X162734397Y-128141914D02*
X162734397Y-128065723D01*
X162734397Y-128065723D02*
X162696302Y-127989533D01*
X162696302Y-127989533D02*
X162658207Y-127951438D01*
X162658207Y-127951438D02*
X162582016Y-127913342D01*
X162582016Y-127913342D02*
X162429635Y-127875247D01*
X162429635Y-127875247D02*
X162353445Y-127837152D01*
X162353445Y-127837152D02*
X162315350Y-127799057D01*
X162315350Y-127799057D02*
X162277254Y-127722866D01*
X162277254Y-127722866D02*
X162277254Y-127646676D01*
X162277254Y-127646676D02*
X162315350Y-127570485D01*
X162315350Y-127570485D02*
X162353445Y-127532390D01*
X162353445Y-127532390D02*
X162429635Y-127494295D01*
X162429635Y-127494295D02*
X162620112Y-127494295D01*
X162620112Y-127494295D02*
X162734397Y-127532390D01*
X163077255Y-128294295D02*
X163077255Y-127494295D01*
X163077255Y-127875247D02*
X163534398Y-127875247D01*
X163534398Y-128294295D02*
X163534398Y-127494295D01*
X164067731Y-127494295D02*
X164220112Y-127494295D01*
X164220112Y-127494295D02*
X164296302Y-127532390D01*
X164296302Y-127532390D02*
X164372493Y-127608580D01*
X164372493Y-127608580D02*
X164410588Y-127760961D01*
X164410588Y-127760961D02*
X164410588Y-128027628D01*
X164410588Y-128027628D02*
X164372493Y-128180009D01*
X164372493Y-128180009D02*
X164296302Y-128256200D01*
X164296302Y-128256200D02*
X164220112Y-128294295D01*
X164220112Y-128294295D02*
X164067731Y-128294295D01*
X164067731Y-128294295D02*
X163991540Y-128256200D01*
X163991540Y-128256200D02*
X163915350Y-128180009D01*
X163915350Y-128180009D02*
X163877254Y-128027628D01*
X163877254Y-128027628D02*
X163877254Y-127760961D01*
X163877254Y-127760961D02*
X163915350Y-127608580D01*
X163915350Y-127608580D02*
X163991540Y-127532390D01*
X163991540Y-127532390D02*
X164067731Y-127494295D01*
X165210588Y-128294295D02*
X164943921Y-127913342D01*
X164753445Y-128294295D02*
X164753445Y-127494295D01*
X164753445Y-127494295D02*
X165058207Y-127494295D01*
X165058207Y-127494295D02*
X165134397Y-127532390D01*
X165134397Y-127532390D02*
X165172492Y-127570485D01*
X165172492Y-127570485D02*
X165210588Y-127646676D01*
X165210588Y-127646676D02*
X165210588Y-127760961D01*
X165210588Y-127760961D02*
X165172492Y-127837152D01*
X165172492Y-127837152D02*
X165134397Y-127875247D01*
X165134397Y-127875247D02*
X165058207Y-127913342D01*
X165058207Y-127913342D02*
X164753445Y-127913342D01*
X165439159Y-127494295D02*
X165896302Y-127494295D01*
X165667730Y-128294295D02*
X165667730Y-127494295D01*
X166086778Y-128599057D02*
X166124873Y-128560961D01*
X166124873Y-128560961D02*
X166201064Y-128446676D01*
X166201064Y-128446676D02*
X166239159Y-128370485D01*
X166239159Y-128370485D02*
X166277254Y-128256200D01*
X166277254Y-128256200D02*
X166315350Y-128065723D01*
X166315350Y-128065723D02*
X166315350Y-127913342D01*
X166315350Y-127913342D02*
X166277254Y-127722866D01*
X166277254Y-127722866D02*
X166239159Y-127608580D01*
X166239159Y-127608580D02*
X166201064Y-127532390D01*
X166201064Y-127532390D02*
X166124873Y-127418104D01*
X166124873Y-127418104D02*
X166086778Y-127380009D01*
X167051064Y-109356200D02*
X167165350Y-109394295D01*
X167165350Y-109394295D02*
X167355826Y-109394295D01*
X167355826Y-109394295D02*
X167432017Y-109356200D01*
X167432017Y-109356200D02*
X167470112Y-109318104D01*
X167470112Y-109318104D02*
X167508207Y-109241914D01*
X167508207Y-109241914D02*
X167508207Y-109165723D01*
X167508207Y-109165723D02*
X167470112Y-109089533D01*
X167470112Y-109089533D02*
X167432017Y-109051438D01*
X167432017Y-109051438D02*
X167355826Y-109013342D01*
X167355826Y-109013342D02*
X167203445Y-108975247D01*
X167203445Y-108975247D02*
X167127255Y-108937152D01*
X167127255Y-108937152D02*
X167089160Y-108899057D01*
X167089160Y-108899057D02*
X167051064Y-108822866D01*
X167051064Y-108822866D02*
X167051064Y-108746676D01*
X167051064Y-108746676D02*
X167089160Y-108670485D01*
X167089160Y-108670485D02*
X167127255Y-108632390D01*
X167127255Y-108632390D02*
X167203445Y-108594295D01*
X167203445Y-108594295D02*
X167393922Y-108594295D01*
X167393922Y-108594295D02*
X167508207Y-108632390D01*
X167736779Y-108594295D02*
X168193922Y-108594295D01*
X167965350Y-109394295D02*
X167965350Y-108594295D01*
X168270113Y-109470485D02*
X168879636Y-109470485D01*
X168955827Y-108594295D02*
X169412970Y-108594295D01*
X169184398Y-109394295D02*
X169184398Y-108594295D01*
X169603446Y-108594295D02*
X170136780Y-109394295D01*
X170136780Y-108594295D02*
X169603446Y-109394295D01*
X167051064Y-116256200D02*
X167165350Y-116294295D01*
X167165350Y-116294295D02*
X167355826Y-116294295D01*
X167355826Y-116294295D02*
X167432017Y-116256200D01*
X167432017Y-116256200D02*
X167470112Y-116218104D01*
X167470112Y-116218104D02*
X167508207Y-116141914D01*
X167508207Y-116141914D02*
X167508207Y-116065723D01*
X167508207Y-116065723D02*
X167470112Y-115989533D01*
X167470112Y-115989533D02*
X167432017Y-115951438D01*
X167432017Y-115951438D02*
X167355826Y-115913342D01*
X167355826Y-115913342D02*
X167203445Y-115875247D01*
X167203445Y-115875247D02*
X167127255Y-115837152D01*
X167127255Y-115837152D02*
X167089160Y-115799057D01*
X167089160Y-115799057D02*
X167051064Y-115722866D01*
X167051064Y-115722866D02*
X167051064Y-115646676D01*
X167051064Y-115646676D02*
X167089160Y-115570485D01*
X167089160Y-115570485D02*
X167127255Y-115532390D01*
X167127255Y-115532390D02*
X167203445Y-115494295D01*
X167203445Y-115494295D02*
X167393922Y-115494295D01*
X167393922Y-115494295D02*
X167508207Y-115532390D01*
X167736779Y-115494295D02*
X168193922Y-115494295D01*
X167965350Y-116294295D02*
X167965350Y-115494295D01*
X168270113Y-116370485D02*
X168879636Y-116370485D01*
X169527256Y-116294295D02*
X169260589Y-115913342D01*
X169070113Y-116294295D02*
X169070113Y-115494295D01*
X169070113Y-115494295D02*
X169374875Y-115494295D01*
X169374875Y-115494295D02*
X169451065Y-115532390D01*
X169451065Y-115532390D02*
X169489160Y-115570485D01*
X169489160Y-115570485D02*
X169527256Y-115646676D01*
X169527256Y-115646676D02*
X169527256Y-115760961D01*
X169527256Y-115760961D02*
X169489160Y-115837152D01*
X169489160Y-115837152D02*
X169451065Y-115875247D01*
X169451065Y-115875247D02*
X169374875Y-115913342D01*
X169374875Y-115913342D02*
X169070113Y-115913342D01*
X169793922Y-115494295D02*
X170327256Y-116294295D01*
X170327256Y-115494295D02*
X169793922Y-116294295D01*
D11*
X129860237Y-117974318D02*
X129860237Y-116704318D01*
X131190714Y-117853365D02*
X131130238Y-117913842D01*
X131130238Y-117913842D02*
X130948809Y-117974318D01*
X130948809Y-117974318D02*
X130827857Y-117974318D01*
X130827857Y-117974318D02*
X130646428Y-117913842D01*
X130646428Y-117913842D02*
X130525476Y-117792889D01*
X130525476Y-117792889D02*
X130464999Y-117671937D01*
X130464999Y-117671937D02*
X130404523Y-117430032D01*
X130404523Y-117430032D02*
X130404523Y-117248603D01*
X130404523Y-117248603D02*
X130464999Y-117006699D01*
X130464999Y-117006699D02*
X130525476Y-116885746D01*
X130525476Y-116885746D02*
X130646428Y-116764794D01*
X130646428Y-116764794D02*
X130827857Y-116704318D01*
X130827857Y-116704318D02*
X130948809Y-116704318D01*
X130948809Y-116704318D02*
X131130238Y-116764794D01*
X131130238Y-116764794D02*
X131190714Y-116825270D01*
X131674523Y-116825270D02*
X131734999Y-116764794D01*
X131734999Y-116764794D02*
X131855952Y-116704318D01*
X131855952Y-116704318D02*
X132158333Y-116704318D01*
X132158333Y-116704318D02*
X132279285Y-116764794D01*
X132279285Y-116764794D02*
X132339761Y-116825270D01*
X132339761Y-116825270D02*
X132400238Y-116946222D01*
X132400238Y-116946222D02*
X132400238Y-117067175D01*
X132400238Y-117067175D02*
X132339761Y-117248603D01*
X132339761Y-117248603D02*
X131614047Y-117974318D01*
X131614047Y-117974318D02*
X132400238Y-117974318D01*
D10*
X143538095Y-108754819D02*
X143538095Y-109564342D01*
X143538095Y-109564342D02*
X143585714Y-109659580D01*
X143585714Y-109659580D02*
X143633333Y-109707200D01*
X143633333Y-109707200D02*
X143728571Y-109754819D01*
X143728571Y-109754819D02*
X143919047Y-109754819D01*
X143919047Y-109754819D02*
X144014285Y-109707200D01*
X144014285Y-109707200D02*
X144061904Y-109659580D01*
X144061904Y-109659580D02*
X144109523Y-109564342D01*
X144109523Y-109564342D02*
X144109523Y-108754819D01*
X145061904Y-108754819D02*
X144585714Y-108754819D01*
X144585714Y-108754819D02*
X144538095Y-109231009D01*
X144538095Y-109231009D02*
X144585714Y-109183390D01*
X144585714Y-109183390D02*
X144680952Y-109135771D01*
X144680952Y-109135771D02*
X144919047Y-109135771D01*
X144919047Y-109135771D02*
X145014285Y-109183390D01*
X145014285Y-109183390D02*
X145061904Y-109231009D01*
X145061904Y-109231009D02*
X145109523Y-109326247D01*
X145109523Y-109326247D02*
X145109523Y-109564342D01*
X145109523Y-109564342D02*
X145061904Y-109659580D01*
X145061904Y-109659580D02*
X145014285Y-109707200D01*
X145014285Y-109707200D02*
X144919047Y-109754819D01*
X144919047Y-109754819D02*
X144680952Y-109754819D01*
X144680952Y-109754819D02*
X144585714Y-109707200D01*
X144585714Y-109707200D02*
X144538095Y-109659580D01*
X159874819Y-113211904D02*
X160684342Y-113211904D01*
X160684342Y-113211904D02*
X160779580Y-113164285D01*
X160779580Y-113164285D02*
X160827200Y-113116666D01*
X160827200Y-113116666D02*
X160874819Y-113021428D01*
X160874819Y-113021428D02*
X160874819Y-112830952D01*
X160874819Y-112830952D02*
X160827200Y-112735714D01*
X160827200Y-112735714D02*
X160779580Y-112688095D01*
X160779580Y-112688095D02*
X160684342Y-112640476D01*
X160684342Y-112640476D02*
X159874819Y-112640476D01*
X160874819Y-111640476D02*
X160874819Y-112211904D01*
X160874819Y-111926190D02*
X159874819Y-111926190D01*
X159874819Y-111926190D02*
X160017676Y-112021428D01*
X160017676Y-112021428D02*
X160112914Y-112116666D01*
X160112914Y-112116666D02*
X160160533Y-112211904D01*
X151433333Y-117804819D02*
X151100000Y-117328628D01*
X150861905Y-117804819D02*
X150861905Y-116804819D01*
X150861905Y-116804819D02*
X151242857Y-116804819D01*
X151242857Y-116804819D02*
X151338095Y-116852438D01*
X151338095Y-116852438D02*
X151385714Y-116900057D01*
X151385714Y-116900057D02*
X151433333Y-116995295D01*
X151433333Y-116995295D02*
X151433333Y-117138152D01*
X151433333Y-117138152D02*
X151385714Y-117233390D01*
X151385714Y-117233390D02*
X151338095Y-117281009D01*
X151338095Y-117281009D02*
X151242857Y-117328628D01*
X151242857Y-117328628D02*
X150861905Y-117328628D01*
X151766667Y-116804819D02*
X152385714Y-116804819D01*
X152385714Y-116804819D02*
X152052381Y-117185771D01*
X152052381Y-117185771D02*
X152195238Y-117185771D01*
X152195238Y-117185771D02*
X152290476Y-117233390D01*
X152290476Y-117233390D02*
X152338095Y-117281009D01*
X152338095Y-117281009D02*
X152385714Y-117376247D01*
X152385714Y-117376247D02*
X152385714Y-117614342D01*
X152385714Y-117614342D02*
X152338095Y-117709580D01*
X152338095Y-117709580D02*
X152290476Y-117757200D01*
X152290476Y-117757200D02*
X152195238Y-117804819D01*
X152195238Y-117804819D02*
X151909524Y-117804819D01*
X151909524Y-117804819D02*
X151814286Y-117757200D01*
X151814286Y-117757200D02*
X151766667Y-117709580D01*
X135433333Y-120654819D02*
X135100000Y-120178628D01*
X134861905Y-120654819D02*
X134861905Y-119654819D01*
X134861905Y-119654819D02*
X135242857Y-119654819D01*
X135242857Y-119654819D02*
X135338095Y-119702438D01*
X135338095Y-119702438D02*
X135385714Y-119750057D01*
X135385714Y-119750057D02*
X135433333Y-119845295D01*
X135433333Y-119845295D02*
X135433333Y-119988152D01*
X135433333Y-119988152D02*
X135385714Y-120083390D01*
X135385714Y-120083390D02*
X135338095Y-120131009D01*
X135338095Y-120131009D02*
X135242857Y-120178628D01*
X135242857Y-120178628D02*
X134861905Y-120178628D01*
X135814286Y-119750057D02*
X135861905Y-119702438D01*
X135861905Y-119702438D02*
X135957143Y-119654819D01*
X135957143Y-119654819D02*
X136195238Y-119654819D01*
X136195238Y-119654819D02*
X136290476Y-119702438D01*
X136290476Y-119702438D02*
X136338095Y-119750057D01*
X136338095Y-119750057D02*
X136385714Y-119845295D01*
X136385714Y-119845295D02*
X136385714Y-119940533D01*
X136385714Y-119940533D02*
X136338095Y-120083390D01*
X136338095Y-120083390D02*
X135766667Y-120654819D01*
X135766667Y-120654819D02*
X136385714Y-120654819D01*
X158837333Y-117676819D02*
X158504000Y-117200628D01*
X158265905Y-117676819D02*
X158265905Y-116676819D01*
X158265905Y-116676819D02*
X158646857Y-116676819D01*
X158646857Y-116676819D02*
X158742095Y-116724438D01*
X158742095Y-116724438D02*
X158789714Y-116772057D01*
X158789714Y-116772057D02*
X158837333Y-116867295D01*
X158837333Y-116867295D02*
X158837333Y-117010152D01*
X158837333Y-117010152D02*
X158789714Y-117105390D01*
X158789714Y-117105390D02*
X158742095Y-117153009D01*
X158742095Y-117153009D02*
X158646857Y-117200628D01*
X158646857Y-117200628D02*
X158265905Y-117200628D01*
X159789714Y-117676819D02*
X159218286Y-117676819D01*
X159504000Y-117676819D02*
X159504000Y-116676819D01*
X159504000Y-116676819D02*
X159408762Y-116819676D01*
X159408762Y-116819676D02*
X159313524Y-116914914D01*
X159313524Y-116914914D02*
X159218286Y-116962533D01*
X147005714Y-80709104D02*
X147481904Y-80709104D01*
X146910476Y-80994819D02*
X147243809Y-79994819D01*
X147243809Y-79994819D02*
X147577142Y-80994819D01*
X148434285Y-80994819D02*
X147862857Y-80994819D01*
X148148571Y-80994819D02*
X148148571Y-79994819D01*
X148148571Y-79994819D02*
X148053333Y-80137676D01*
X148053333Y-80137676D02*
X147958095Y-80232914D01*
X147958095Y-80232914D02*
X147862857Y-80280533D01*
X154203333Y-122604819D02*
X153870000Y-122128628D01*
X153631905Y-122604819D02*
X153631905Y-121604819D01*
X153631905Y-121604819D02*
X154012857Y-121604819D01*
X154012857Y-121604819D02*
X154108095Y-121652438D01*
X154108095Y-121652438D02*
X154155714Y-121700057D01*
X154155714Y-121700057D02*
X154203333Y-121795295D01*
X154203333Y-121795295D02*
X154203333Y-121938152D01*
X154203333Y-121938152D02*
X154155714Y-122033390D01*
X154155714Y-122033390D02*
X154108095Y-122081009D01*
X154108095Y-122081009D02*
X154012857Y-122128628D01*
X154012857Y-122128628D02*
X153631905Y-122128628D01*
X155060476Y-121938152D02*
X155060476Y-122604819D01*
X154822381Y-121557200D02*
X154584286Y-122271485D01*
X154584286Y-122271485D02*
X155203333Y-122271485D01*
X164491333Y-117551580D02*
X164443714Y-117599200D01*
X164443714Y-117599200D02*
X164300857Y-117646819D01*
X164300857Y-117646819D02*
X164205619Y-117646819D01*
X164205619Y-117646819D02*
X164062762Y-117599200D01*
X164062762Y-117599200D02*
X163967524Y-117503961D01*
X163967524Y-117503961D02*
X163919905Y-117408723D01*
X163919905Y-117408723D02*
X163872286Y-117218247D01*
X163872286Y-117218247D02*
X163872286Y-117075390D01*
X163872286Y-117075390D02*
X163919905Y-116884914D01*
X163919905Y-116884914D02*
X163967524Y-116789676D01*
X163967524Y-116789676D02*
X164062762Y-116694438D01*
X164062762Y-116694438D02*
X164205619Y-116646819D01*
X164205619Y-116646819D02*
X164300857Y-116646819D01*
X164300857Y-116646819D02*
X164443714Y-116694438D01*
X164443714Y-116694438D02*
X164491333Y-116742057D01*
X164872286Y-116742057D02*
X164919905Y-116694438D01*
X164919905Y-116694438D02*
X165015143Y-116646819D01*
X165015143Y-116646819D02*
X165253238Y-116646819D01*
X165253238Y-116646819D02*
X165348476Y-116694438D01*
X165348476Y-116694438D02*
X165396095Y-116742057D01*
X165396095Y-116742057D02*
X165443714Y-116837295D01*
X165443714Y-116837295D02*
X165443714Y-116932533D01*
X165443714Y-116932533D02*
X165396095Y-117075390D01*
X165396095Y-117075390D02*
X164824667Y-117646819D01*
X164824667Y-117646819D02*
X165443714Y-117646819D01*
X160361333Y-121517580D02*
X160313714Y-121565200D01*
X160313714Y-121565200D02*
X160170857Y-121612819D01*
X160170857Y-121612819D02*
X160075619Y-121612819D01*
X160075619Y-121612819D02*
X159932762Y-121565200D01*
X159932762Y-121565200D02*
X159837524Y-121469961D01*
X159837524Y-121469961D02*
X159789905Y-121374723D01*
X159789905Y-121374723D02*
X159742286Y-121184247D01*
X159742286Y-121184247D02*
X159742286Y-121041390D01*
X159742286Y-121041390D02*
X159789905Y-120850914D01*
X159789905Y-120850914D02*
X159837524Y-120755676D01*
X159837524Y-120755676D02*
X159932762Y-120660438D01*
X159932762Y-120660438D02*
X160075619Y-120612819D01*
X160075619Y-120612819D02*
X160170857Y-120612819D01*
X160170857Y-120612819D02*
X160313714Y-120660438D01*
X160313714Y-120660438D02*
X160361333Y-120708057D01*
X161313714Y-121612819D02*
X160742286Y-121612819D01*
X161028000Y-121612819D02*
X161028000Y-120612819D01*
X161028000Y-120612819D02*
X160932762Y-120755676D01*
X160932762Y-120755676D02*
X160837524Y-120850914D01*
X160837524Y-120850914D02*
X160742286Y-120898533D01*
X153761905Y-126019819D02*
X153761905Y-125019819D01*
X153761905Y-125019819D02*
X154000000Y-125019819D01*
X154000000Y-125019819D02*
X154142857Y-125067438D01*
X154142857Y-125067438D02*
X154238095Y-125162676D01*
X154238095Y-125162676D02*
X154285714Y-125257914D01*
X154285714Y-125257914D02*
X154333333Y-125448390D01*
X154333333Y-125448390D02*
X154333333Y-125591247D01*
X154333333Y-125591247D02*
X154285714Y-125781723D01*
X154285714Y-125781723D02*
X154238095Y-125876961D01*
X154238095Y-125876961D02*
X154142857Y-125972200D01*
X154142857Y-125972200D02*
X154000000Y-126019819D01*
X154000000Y-126019819D02*
X153761905Y-126019819D01*
X155285714Y-126019819D02*
X154714286Y-126019819D01*
X155000000Y-126019819D02*
X155000000Y-125019819D01*
X155000000Y-125019819D02*
X154904762Y-125162676D01*
X154904762Y-125162676D02*
X154809524Y-125257914D01*
X154809524Y-125257914D02*
X154714286Y-125305533D01*
%TO.C,IC2*%
D12*
X128648000Y-115802000D02*
X133552000Y-115802000D01*
X128648000Y-118998000D02*
X128648000Y-115802000D01*
X133552000Y-115802000D02*
X133552000Y-118998000D01*
X133552000Y-118998000D02*
X128648000Y-118998000D01*
X133680000Y-113925000D02*
X133680000Y-115452000D01*
%TO.C,J4*%
D13*
X126750000Y-127045000D02*
X126750000Y-125715000D01*
X128080000Y-127045000D02*
X126750000Y-127045000D01*
X129350000Y-124385000D02*
X139570000Y-124385000D01*
X129350000Y-127045000D02*
X129350000Y-124385000D01*
X129350000Y-127045000D02*
X139570000Y-127045000D01*
X139570000Y-127045000D02*
X139570000Y-124385000D01*
%TO.C,U5*%
X139140000Y-104340000D02*
X139290000Y-104340000D01*
X139140000Y-114260000D02*
X139140000Y-104340000D01*
X139140000Y-114260000D02*
X139290000Y-114260000D01*
X149310000Y-104340000D02*
X149460000Y-104340000D01*
X149310000Y-114260000D02*
X149460000Y-114260000D01*
X149460000Y-114260000D02*
X149460000Y-104340000D01*
X139290000Y-114730000D02*
X138960000Y-114970000D01*
X138960000Y-114490000D01*
X139290000Y-114730000D01*
G36*
X139290000Y-114730000D02*
G01*
X138960000Y-114970000D01*
X138960000Y-114490000D01*
X139290000Y-114730000D01*
G37*
%TO.C,J2*%
X157795000Y-127045000D02*
X157795000Y-125715000D01*
X159125000Y-127045000D02*
X157795000Y-127045000D01*
X160395000Y-124385000D02*
X162995000Y-124385000D01*
X160395000Y-127045000D02*
X160395000Y-124385000D01*
X160395000Y-127045000D02*
X162995000Y-127045000D01*
X162995000Y-127045000D02*
X162995000Y-124385000D01*
%TO.C,U1*%
X158921000Y-112268000D02*
X158921000Y-110068000D01*
X158921000Y-112268000D02*
X158921000Y-114468000D01*
X165691000Y-112268000D02*
X165691000Y-110068000D01*
X165691000Y-112268000D02*
X165691000Y-114468000D01*
X159381000Y-116128000D02*
X159141000Y-116458000D01*
X159621000Y-116458000D01*
X159381000Y-116128000D01*
G36*
X159621000Y-116458000D02*
G01*
X159141000Y-116458000D01*
X159381000Y-116128000D01*
X159621000Y-116458000D01*
G37*
%TO.C,R3*%
X151372936Y-118265000D02*
X151827064Y-118265000D01*
X151372936Y-119735000D02*
X151827064Y-119735000D01*
%TO.C,R2*%
X134865000Y-117827064D02*
X134865000Y-117372936D01*
X136335000Y-117827064D02*
X136335000Y-117372936D01*
%TO.C,J5*%
X125720000Y-104845000D02*
X127100000Y-104845000D01*
X125720000Y-106225000D02*
X125720000Y-104845000D01*
X125720000Y-107495000D02*
X125720000Y-110145000D01*
X125720000Y-107495000D02*
X128480000Y-107495000D01*
X125720000Y-110145000D02*
X128480000Y-110145000D01*
X128480000Y-107495000D02*
X128480000Y-110145000D01*
%TO.C,R1*%
X158776936Y-118137000D02*
X159231064Y-118137000D01*
X158776936Y-119607000D02*
X159231064Y-119607000D01*
%TO.C,A1*%
X138400000Y-67000000D02*
X156800000Y-67000000D01*
X156800000Y-85400000D01*
X138400000Y-85400000D01*
X138400000Y-67000000D01*
%TO.C,R4*%
X154172936Y-123080000D02*
X154627064Y-123080000D01*
X154172936Y-124550000D02*
X154627064Y-124550000D01*
%TO.C,C2*%
X164396748Y-118137000D02*
X164919252Y-118137000D01*
X164396748Y-119607000D02*
X164919252Y-119607000D01*
%TO.C,J3*%
X141418000Y-127060000D02*
X141418000Y-125730000D01*
X142748000Y-127060000D02*
X141418000Y-127060000D01*
X144018000Y-124400000D02*
X151698000Y-124400000D01*
X144018000Y-127060000D02*
X144018000Y-124400000D01*
X144018000Y-127060000D02*
X151698000Y-127060000D01*
X151698000Y-127060000D02*
X151698000Y-124400000D01*
%TO.C,J1*%
X167220000Y-109845000D02*
X168600000Y-109845000D01*
X167220000Y-111225000D02*
X167220000Y-109845000D01*
X167220000Y-112495000D02*
X167220000Y-115145000D01*
X167220000Y-112495000D02*
X169980000Y-112495000D01*
X167220000Y-115145000D02*
X169980000Y-115145000D01*
X169980000Y-112495000D02*
X169980000Y-115145000D01*
%TO.C,C1*%
X158183252Y-120423000D02*
X157660748Y-120423000D01*
X158183252Y-121893000D02*
X157660748Y-121893000D01*
%TO.C,D1*%
X152640000Y-126255000D02*
X152640000Y-128175000D01*
X152640000Y-128175000D02*
X155500000Y-128175000D01*
X155500000Y-126255000D02*
X152640000Y-126255000D01*
%TD*%
M02*
