%TF.GenerationSoftware,KiCad,Pcbnew,10.0.3*%
%TF.CreationDate,2026-06-23T15:30:29-05:00*%
%TF.ProjectId,GPS_board_v3,4750535f-626f-4617-9264-5f76332e6b69,rev?*%
%TF.SameCoordinates,Original*%
%TF.FileFunction,Copper,L1,Top*%
%TF.FilePolarity,Positive*%
%FSLAX46Y46*%
G04 Gerber Fmt 4.6, Leading zero omitted, Abs format (unit mm)*
G04 Created by KiCad (PCBNEW 10.0.3) date 2026-06-23 15:30:29*
%MOMM*%
%LPD*%
G01*
G04 APERTURE LIST*
G04 Aperture macros list*
%AMRoundRect*
0 Rectangle with rounded corners*
0 $1 Rounding radius*
0 $2 $3 $4 $5 $6 $7 $8 $9 X,Y pos of 4 corners*
0 Add a 4 corners polygon primitive as box body*
4,1,4,$2,$3,$4,$5,$6,$7,$8,$9,$2,$3,0*
0 Add four circle primitives for the rounded corners*
1,1,$1+$1,$2,$3*
1,1,$1+$1,$4,$5*
1,1,$1+$1,$6,$7*
1,1,$1+$1,$8,$9*
0 Add four rect primitives between the rounded corners*
20,1,$1+$1,$2,$3,$4,$5,0*
20,1,$1+$1,$4,$5,$6,$7,0*
20,1,$1+$1,$6,$7,$8,$9,0*
20,1,$1+$1,$8,$9,$2,$3,0*%
G04 Aperture macros list end*
%TA.AperFunction,SMDPad,CuDef*%
%ADD10R,0.650000X1.528000*%
%TD*%
%TA.AperFunction,ComponentPad*%
%ADD11R,1.700000X1.700000*%
%TD*%
%TA.AperFunction,ComponentPad*%
%ADD12O,1.700000X1.700000*%
%TD*%
%TA.AperFunction,SMDPad,CuDef*%
%ADD13RoundRect,0.175000X0.175000X-0.725000X0.175000X0.725000X-0.175000X0.725000X-0.175000X-0.725000X0*%
%TD*%
%TA.AperFunction,SMDPad,CuDef*%
%ADD14RoundRect,0.200000X0.200000X-0.700000X0.200000X0.700000X-0.200000X0.700000X-0.200000X-0.700000X0*%
%TD*%
%TA.AperFunction,SMDPad,CuDef*%
%ADD15RoundRect,0.100000X0.100000X-0.637500X0.100000X0.637500X-0.100000X0.637500X-0.100000X-0.637500X0*%
%TD*%
%TA.AperFunction,SMDPad,CuDef*%
%ADD16RoundRect,0.250000X-0.350000X-0.450000X0.350000X-0.450000X0.350000X0.450000X-0.350000X0.450000X0*%
%TD*%
%TA.AperFunction,SMDPad,CuDef*%
%ADD17RoundRect,0.250000X0.450000X-0.350000X0.450000X0.350000X-0.450000X0.350000X-0.450000X-0.350000X0*%
%TD*%
%TA.AperFunction,ComponentPad*%
%ADD18C,1.700000*%
%TD*%
%TA.AperFunction,ComponentPad*%
%ADD19R,5.000000X5.000000*%
%TD*%
%TA.AperFunction,SMDPad,CuDef*%
%ADD20R,2.000000X2.000000*%
%TD*%
%TA.AperFunction,ComponentPad*%
%ADD21R,1.000000X2.700000*%
%TD*%
%TA.AperFunction,SMDPad,CuDef*%
%ADD22RoundRect,0.250000X-0.250000X-0.475000X0.250000X-0.475000X0.250000X0.475000X-0.250000X0.475000X0*%
%TD*%
%TA.AperFunction,SMDPad,CuDef*%
%ADD23RoundRect,0.250000X0.250000X0.475000X-0.250000X0.475000X-0.250000X-0.475000X0.250000X-0.475000X0*%
%TD*%
%TA.AperFunction,SMDPad,CuDef*%
%ADD24RoundRect,0.250000X-0.325000X-0.450000X0.325000X-0.450000X0.325000X0.450000X-0.325000X0.450000X0*%
%TD*%
%TA.AperFunction,ViaPad*%
%ADD25C,0.600000*%
%TD*%
%TA.AperFunction,Conductor*%
%ADD26C,0.200000*%
%TD*%
%TA.AperFunction,Conductor*%
%ADD27C,0.350000*%
%TD*%
%TA.AperFunction,Conductor*%
%ADD28C,0.450000*%
%TD*%
%TA.AperFunction,Conductor*%
%ADD29C,0.500000*%
%TD*%
G04 APERTURE END LIST*
D10*
%TO.P,IC2,1,D_1*%
%TO.N,CAN_TX*%
X133005000Y-114689000D03*
%TO.P,IC2,2,GND_2*%
%TO.N,GND*%
X131735000Y-114689000D03*
%TO.P,IC2,3,VCC_3*%
%TO.N,+3V3*%
X130465000Y-114689000D03*
%TO.P,IC2,4,R_4*%
%TO.N,CAN_RX*%
X129195000Y-114689000D03*
%TO.P,IC2,5,VREF_5*%
%TO.N,+3V3*%
X129195000Y-120111000D03*
%TO.P,IC2,6,CANL_6*%
%TO.N,CANL*%
X130465000Y-120111000D03*
%TO.P,IC2,7,CANH_7*%
%TO.N,CANH*%
X131735000Y-120111000D03*
%TO.P,IC2,8,RS_8*%
%TO.N,Net-(IC2-RS)*%
X133005000Y-120111000D03*
%TD*%
D11*
%TO.P,J4,1,Pin_1_1*%
%TO.N,STM_RST*%
X128080000Y-125715000D03*
D12*
%TO.P,J4,2,Pin_2_2*%
%TO.N,+3V3*%
X130620000Y-125715000D03*
%TO.P,J4,3,Pin_3_3*%
%TO.N,SWCLK*%
X133160000Y-125715000D03*
%TO.P,J4,4,Pin_4_4*%
%TO.N,GND*%
X135700000Y-125715000D03*
%TO.P,J4,5,Pin_5_5*%
%TO.N,SWDIO*%
X138240000Y-125715000D03*
%TD*%
D13*
%TO.P,U5,1,GND_1*%
%TO.N,GND*%
X139900000Y-114050000D03*
D14*
%TO.P,U5,2,TXD_2*%
%TO.N,STM_UART_RX*%
X141000000Y-114050000D03*
%TO.P,U5,3,RXD_3*%
%TO.N,STM_UART_TX*%
X142100000Y-114050000D03*
%TO.P,U5,4,TIMEPULSE_4*%
%TO.N,unconnected-(U5-TIMEPULSE-Pad4)*%
X143200000Y-114050000D03*
%TO.P,U5,5,EXTINT_5*%
%TO.N,unconnected-(U5-EXTINT-Pad5)*%
X144300000Y-114050000D03*
%TO.P,U5,6,V_BCKP_6*%
%TO.N,+3V3*%
X145400000Y-114050000D03*
%TO.P,U5,7,VCC_IO_7*%
X146500000Y-114050000D03*
%TO.P,U5,8,VCC_8*%
X147600000Y-114050000D03*
D13*
%TO.P,U5,9,~{RESET}_9*%
%TO.N,unconnected-(U5-~{RESET}-Pad9)*%
X148700000Y-114050000D03*
%TO.P,U5,10,GND_10*%
%TO.N,GND*%
X148700000Y-104550000D03*
D14*
%TO.P,U5,11,RF_IN_11*%
%TO.N,Net-(A1-RF_OUT)*%
X147600000Y-104550000D03*
%TO.P,U5,12,GND_12*%
%TO.N,GND*%
X146500000Y-104550000D03*
%TO.P,U5,13,Reserved_13*%
%TO.N,unconnected-(U5-Reserved-Pad13)*%
X145400000Y-104550000D03*
%TO.P,U5,14,VCC_RF_14*%
%TO.N,unconnected-(U5-VCC_RF-Pad14)*%
X144300000Y-104550000D03*
%TO.P,U5,15,V_ANT_15*%
%TO.N,GND*%
X143200000Y-104550000D03*
%TO.P,U5,16,SDA_16*%
%TO.N,SDA*%
X142100000Y-104550000D03*
%TO.P,U5,17,SCL_17*%
%TO.N,SCL*%
X141000000Y-104550000D03*
D13*
%TO.P,U5,18,~{SAFEBOOT}_18*%
%TO.N,unconnected-(U5-~{SAFEBOOT}-Pad18)*%
X139900000Y-104550000D03*
%TD*%
D11*
%TO.P,J2,1,Pin_1_1*%
%TO.N,CANH*%
X159125000Y-125715000D03*
D12*
%TO.P,J2,2,Pin_2_2*%
%TO.N,Net-(J2A-Pin_2)*%
X161665000Y-125715000D03*
%TD*%
D15*
%TO.P,U1,1,PB8_1*%
%TO.N,GND*%
X159381000Y-115130500D03*
%TO.P,U1,2,PF0_2*%
%TO.N,unconnected-(U1-PF0-Pad2)*%
X160031000Y-115130500D03*
%TO.P,U1,3,PF1_3*%
%TO.N,unconnected-(U1-PF1-Pad3)*%
X160681000Y-115130500D03*
%TO.P,U1,4,NRST_4*%
%TO.N,STM_RST*%
X161331000Y-115130500D03*
%TO.P,U1,5,VDDA_5*%
%TO.N,+3V3*%
X161981000Y-115130500D03*
%TO.P,U1,6,PA0_6*%
%TO.N,unconnected-(U1-PA0-Pad6)*%
X162631000Y-115130500D03*
%TO.P,U1,7,PA1_7*%
%TO.N,unconnected-(U1-PA1-Pad7)*%
X163281000Y-115130500D03*
%TO.P,U1,8,PA2_8*%
%TO.N,STM_UART_TX*%
X163931000Y-115130500D03*
%TO.P,U1,9,PA3_9*%
%TO.N,STM_UART_RX*%
X164581000Y-115130500D03*
%TO.P,U1,10,PA4_10*%
%TO.N,unconnected-(U1-PA4-Pad10)*%
X165231000Y-115130500D03*
%TO.P,U1,11,PA5_11*%
%TO.N,unconnected-(U1-PA5-Pad11)*%
X165231000Y-109405500D03*
%TO.P,U1,12,PA6_12*%
%TO.N,unconnected-(U1-PA6-Pad12)*%
X164581000Y-109405500D03*
%TO.P,U1,13,PA7_13*%
%TO.N,unconnected-(U1-PA7-Pad13)*%
X163931000Y-109405500D03*
%TO.P,U1,14,PB1_14*%
%TO.N,unconnected-(U1-PB1-Pad14)*%
X163281000Y-109405500D03*
%TO.P,U1,15,VSSA_15*%
%TO.N,GND*%
X162631000Y-109405500D03*
%TO.P,U1,16,VDD_16*%
%TO.N,+3V3*%
X161981000Y-109405500D03*
%TO.P,U1,17,PA9/PA11_17*%
%TO.N,CAN_RX*%
X161331000Y-109405500D03*
%TO.P,U1,18,PA10/PA12_18*%
%TO.N,CAN_TX*%
X160681000Y-109405500D03*
%TO.P,U1,19,PA13_19*%
%TO.N,SWDIO*%
X160031000Y-109405500D03*
%TO.P,U1,20,PA14_20*%
%TO.N,SWCLK*%
X159381000Y-109405500D03*
%TD*%
D16*
%TO.P,R3,1*%
%TO.N,CANL*%
X150600000Y-119000000D03*
%TO.P,R3,2*%
%TO.N,Net-(J2A-Pin_2)*%
X152600000Y-119000000D03*
%TD*%
D17*
%TO.P,R2,1*%
%TO.N,Net-(IC2-RS)*%
X135600000Y-118600000D03*
%TO.P,R2,2*%
%TO.N,GND*%
X135600000Y-116600000D03*
%TD*%
D11*
%TO.P,J5,1,Pin_1_1*%
%TO.N,CAN_TX*%
X127100000Y-106225000D03*
D18*
%TO.P,J5,2,Pin_2_2*%
%TO.N,CAN_RX*%
X127100000Y-108765000D03*
%TD*%
D16*
%TO.P,R1,1*%
%TO.N,+3V3*%
X158004000Y-118872000D03*
%TO.P,R1,2*%
%TO.N,STM_RST*%
X160004000Y-118872000D03*
%TD*%
D19*
%TO.P,A1,1,GND_1*%
%TO.N,GND*%
X141300000Y-69900000D03*
X141300000Y-76200000D03*
X141300000Y-82500000D03*
X147600000Y-69900000D03*
X147600000Y-76200000D03*
X153900000Y-69900000D03*
X153900000Y-76200000D03*
X153900000Y-82500000D03*
D20*
%TO.P,A1,2,RF_OUT_2*%
%TO.N,Net-(A1-RF_OUT)*%
X147600000Y-84800000D03*
D21*
X147600000Y-87150000D03*
%TD*%
D16*
%TO.P,R4,1*%
%TO.N,Net-(D1-A)*%
X153400000Y-123815000D03*
%TO.P,R4,2*%
%TO.N,+3V3*%
X155400000Y-123815000D03*
%TD*%
D22*
%TO.P,C2,1*%
%TO.N,+3V3*%
X163708000Y-118872000D03*
%TO.P,C2,2*%
%TO.N,GND*%
X165608000Y-118872000D03*
%TD*%
D11*
%TO.P,J3,1,Pin_1_1*%
%TO.N,+3V3*%
X142748000Y-125730000D03*
D12*
%TO.P,J3,2,Pin_2_2*%
%TO.N,GND*%
X145288000Y-125730000D03*
%TO.P,J3,3,Pin_3_3*%
%TO.N,CANL*%
X147828000Y-125730000D03*
%TO.P,J3,4,Pin_4_4*%
%TO.N,CANH*%
X150368000Y-125730000D03*
%TD*%
D11*
%TO.P,J1,1,Pin_1_1*%
%TO.N,STM_UART_TX*%
X168600000Y-111225000D03*
D18*
%TO.P,J1,2,Pin_2_2*%
%TO.N,STM_UART_RX*%
X168600000Y-113765000D03*
%TD*%
D23*
%TO.P,C1,1*%
%TO.N,STM_RST*%
X158872000Y-121158000D03*
%TO.P,C1,2*%
%TO.N,GND*%
X156972000Y-121158000D03*
%TD*%
D24*
%TO.P,D1,1,K_1*%
%TO.N,GND*%
X153475000Y-127215000D03*
%TO.P,D1,2,A_2*%
%TO.N,Net-(D1-A)*%
X155525000Y-127215000D03*
%TD*%
D25*
%TO.N,STM_RST*%
X146800000Y-118000000D03*
X151600000Y-117600000D03*
X136800000Y-122800000D03*
X142500000Y-118000000D03*
%TO.N,SWDIO*%
X143000000Y-119600000D03*
%TO.N,CAN_TX*%
X131600000Y-112500000D03*
%TO.N,CANH*%
X149200000Y-122100000D03*
%TO.N,Net-(A1-RF_OUT)*%
X147600000Y-102100000D03*
%TO.N,SWCLK*%
X141700000Y-119000000D03*
X139900000Y-122775000D03*
%TO.N,+3V3*%
X129200000Y-121900000D03*
X145400000Y-116100000D03*
X154600000Y-119300000D03*
%TO.N,CANL*%
X149000000Y-119200000D03*
X147700000Y-122100000D03*
%TO.N,Net-(J2A-Pin_2)*%
X152600000Y-120700000D03*
%TO.N,STM_UART_TX*%
X163322000Y-111252000D03*
X143764000Y-110490000D03*
%TO.N,STM_UART_RX*%
X164338000Y-111252000D03*
X142748000Y-110236000D03*
%TO.N,GND*%
X171600000Y-109500000D03*
X123700000Y-114500000D03*
X123700000Y-109500000D03*
X171600000Y-114500000D03*
X156464000Y-119634000D03*
X123700000Y-104500000D03*
X123700000Y-123000000D03*
X171600000Y-123000000D03*
X123700000Y-118900000D03*
X123700000Y-128000000D03*
X130600000Y-109500000D03*
X171600000Y-104500000D03*
X157734000Y-115316000D03*
X171600000Y-118900000D03*
X130600000Y-104500000D03*
X162814000Y-112776000D03*
X171600000Y-128000000D03*
%TD*%
%TO.N,STM_RST*%
D26*
X152250000Y-116950000D02*
X151600000Y-117600000D01*
X158872000Y-121158000D02*
X158872000Y-120004000D01*
X161331000Y-116545000D02*
X160926000Y-116950000D01*
X128080000Y-125715000D02*
X130995000Y-122800000D01*
X142500000Y-118000000D02*
X146800000Y-118000000D01*
X130995000Y-122800000D02*
X136800000Y-122800000D01*
X161331000Y-115130500D02*
X161331000Y-116545000D01*
X160004000Y-117872000D02*
X160926000Y-116950000D01*
X160004000Y-118872000D02*
X160004000Y-117872000D01*
X160926000Y-116950000D02*
X152250000Y-116950000D01*
X158872000Y-120004000D02*
X160004000Y-118872000D01*
%TO.N,SWDIO*%
X150800000Y-116100000D02*
X154000000Y-116100000D01*
X154000000Y-116100000D02*
X160031000Y-110069000D01*
X147300000Y-119600000D02*
X150800000Y-116100000D01*
X160031000Y-110069000D02*
X160031000Y-109405500D01*
X143000000Y-119600000D02*
X147300000Y-119600000D01*
%TO.N,CAN_TX*%
D27*
X160094000Y-106500000D02*
X160681000Y-107087000D01*
X134300000Y-108500000D02*
X154200000Y-108500000D01*
X133005000Y-109795000D02*
X134300000Y-108500000D01*
X154200000Y-108500000D02*
X156200000Y-106500000D01*
X131900000Y-112800000D02*
X131600000Y-112500000D01*
X133005000Y-112800000D02*
X133005000Y-109795000D01*
X133005000Y-112800000D02*
X131900000Y-112800000D01*
X156200000Y-106500000D02*
X160094000Y-106500000D01*
X133005000Y-114689000D02*
X133005000Y-112800000D01*
X160681000Y-107087000D02*
X160681000Y-109405500D01*
%TO.N,CAN_RX*%
X161331000Y-106959182D02*
X161331000Y-109405500D01*
X134072182Y-107950000D02*
X153950000Y-107950000D01*
X129195000Y-114689000D02*
X129195000Y-113305000D01*
X132400000Y-109622182D02*
X134072182Y-107950000D01*
X153950000Y-107950000D02*
X155950000Y-105950000D01*
X129195000Y-110860000D02*
X127100000Y-108765000D01*
X155950000Y-105950000D02*
X160321818Y-105950000D01*
X129195000Y-113305000D02*
X129195000Y-110860000D01*
X129195000Y-113305000D02*
X132400000Y-110100000D01*
X132400000Y-110100000D02*
X132400000Y-109622182D01*
X160321818Y-105950000D02*
X161331000Y-106959182D01*
%TO.N,CANH*%
X149200000Y-124562000D02*
X150368000Y-125730000D01*
X131735000Y-120550000D02*
X132585000Y-121400000D01*
X148500000Y-121400000D02*
X149200000Y-122100000D01*
X131735000Y-120111000D02*
X131735000Y-120550000D01*
X149200000Y-122100000D02*
X149200000Y-124562000D01*
X132585000Y-121400000D02*
X148500000Y-121400000D01*
%TO.N,Net-(A1-RF_OUT)*%
D26*
X147600000Y-84900000D02*
X147600000Y-87250000D01*
D28*
X147600000Y-104550000D02*
X147600000Y-102100000D01*
%TO.N,SWCLK*%
D26*
X141900000Y-118800000D02*
X147000000Y-118800000D01*
X153686500Y-115100000D02*
X159381000Y-109405500D01*
X133858000Y-123444000D02*
X133160000Y-124142000D01*
X147000000Y-118800000D02*
X150700000Y-115100000D01*
X137971000Y-123444000D02*
X133858000Y-123444000D01*
X138640000Y-122775000D02*
X137971000Y-123444000D01*
X150700000Y-115100000D02*
X153686500Y-115100000D01*
X139900000Y-122775000D02*
X138640000Y-122775000D01*
X133160000Y-124142000D02*
X133160000Y-125715000D01*
X141700000Y-119000000D02*
X141900000Y-118800000D01*
%TO.N,+3V3*%
D29*
X161981000Y-119126000D02*
X161981000Y-115130500D01*
X161981000Y-121737000D02*
X161981000Y-119126000D01*
D28*
X129195000Y-120111000D02*
X129195000Y-118205000D01*
D29*
X155400000Y-120100000D02*
X154600000Y-119300000D01*
D28*
X145400000Y-116100000D02*
X145400000Y-114050000D01*
D26*
X162235000Y-118872000D02*
X161981000Y-119126000D01*
X158004000Y-118872000D02*
X155028000Y-118872000D01*
X161981000Y-109405500D02*
X161981000Y-115130500D01*
D29*
X155400000Y-123815000D02*
X155400000Y-120100000D01*
X155400000Y-123815000D02*
X159903000Y-123815000D01*
D28*
X146500000Y-114050000D02*
X147600000Y-114050000D01*
D26*
X163708000Y-118872000D02*
X162235000Y-118872000D01*
D28*
X129195000Y-118205000D02*
X130465000Y-116935000D01*
X129195000Y-121895000D02*
X129200000Y-121900000D01*
D26*
X155028000Y-118872000D02*
X154600000Y-119300000D01*
D28*
X129195000Y-120111000D02*
X129195000Y-121895000D01*
D29*
X159903000Y-123815000D02*
X161981000Y-121737000D01*
D28*
X145400000Y-114050000D02*
X146500000Y-114050000D01*
X130465000Y-116935000D02*
X130465000Y-114689000D01*
%TO.N,Net-(D1-A)*%
D27*
X155525000Y-125940000D02*
X153400000Y-123815000D01*
X155525000Y-127215000D02*
X155525000Y-125940000D01*
%TO.N,CANL*%
X149000000Y-119200000D02*
X150400000Y-119200000D01*
X147828000Y-122428000D02*
X147828000Y-125730000D01*
X147700000Y-122100000D02*
X131400000Y-122100000D01*
X150400000Y-119200000D02*
X150600000Y-119000000D01*
X131400000Y-122100000D02*
X130465000Y-121165000D01*
X147700000Y-122100000D02*
X147700000Y-122300000D01*
X147700000Y-122300000D02*
X147828000Y-122428000D01*
X130465000Y-121165000D02*
X130465000Y-120111000D01*
%TO.N,Net-(IC2-RS)*%
X133005000Y-120111000D02*
X134089000Y-120111000D01*
X134089000Y-120111000D02*
X135600000Y-118600000D01*
%TO.N,Net-(J2A-Pin_2)*%
X152600000Y-119000000D02*
X152600000Y-120700000D01*
%TO.N,STM_UART_TX*%
D26*
X163931000Y-111861000D02*
X163322000Y-111252000D01*
X142100000Y-114050000D02*
X142100000Y-112154000D01*
X163922000Y-110652000D02*
X168027000Y-110652000D01*
X163931000Y-115130500D02*
X163931000Y-111861000D01*
X163322000Y-111252000D02*
X163922000Y-110652000D01*
X142100000Y-112154000D02*
X143764000Y-110490000D01*
X168027000Y-110652000D02*
X168600000Y-111225000D01*
%TO.N,STM_UART_RX*%
X141000000Y-111900000D02*
X141000000Y-114050000D01*
X142664000Y-110236000D02*
X141000000Y-111900000D01*
X168600000Y-115200000D02*
X168600000Y-113765000D01*
X164913001Y-116200000D02*
X167600000Y-116200000D01*
X164581000Y-115130500D02*
X164581000Y-111495000D01*
X164581000Y-111495000D02*
X164338000Y-111252000D01*
X167600000Y-116200000D02*
X168600000Y-115200000D01*
X164581000Y-115867999D02*
X164913001Y-116200000D01*
X142748000Y-110236000D02*
X142664000Y-110236000D01*
X164581000Y-115130500D02*
X164581000Y-115867999D01*
%TO.N,GND*%
X159381000Y-115130500D02*
X157919500Y-115130500D01*
X156972000Y-120142000D02*
X156464000Y-119634000D01*
X156972000Y-121158000D02*
X156972000Y-120142000D01*
X157919500Y-115130500D02*
X157734000Y-115316000D01*
X162631000Y-112593000D02*
X162814000Y-112776000D01*
X162631000Y-109405500D02*
X162631000Y-112593000D01*
%TD*%
%TA.AperFunction,Conductor*%
%TO.N,GND*%
G36*
X161395835Y-117084019D02*
G01*
X161451768Y-117125891D01*
X161476184Y-117191356D01*
X161476500Y-117200200D01*
X161476500Y-121476667D01*
X161456815Y-121543706D01*
X161440181Y-121564348D01*
X159730348Y-123274181D01*
X159669025Y-123307666D01*
X159642667Y-123310500D01*
X156354217Y-123310500D01*
X156287178Y-123290815D01*
X156241423Y-123238011D01*
X156238036Y-123229835D01*
X156214158Y-123165819D01*
X156197342Y-123120733D01*
X156119698Y-123017011D01*
X156110404Y-123004595D01*
X156015305Y-122933407D01*
X155994267Y-122917658D01*
X155994265Y-122917657D01*
X155990154Y-122916123D01*
X155985163Y-122914262D01*
X155929231Y-122872390D01*
X155904816Y-122806926D01*
X155904500Y-122798082D01*
X155904500Y-122173301D01*
X155924185Y-122106262D01*
X155976989Y-122060507D01*
X156046147Y-122050563D01*
X156109703Y-122079588D01*
X156125767Y-122096391D01*
X156129684Y-122101345D01*
X156253654Y-122225315D01*
X156402875Y-122317356D01*
X156402880Y-122317358D01*
X156569302Y-122372505D01*
X156569309Y-122372506D01*
X156672019Y-122382999D01*
X156721999Y-122382998D01*
X156722000Y-122382998D01*
X156722000Y-119933000D01*
X156721999Y-119932999D01*
X156672029Y-119933000D01*
X156672011Y-119933001D01*
X156569302Y-119943494D01*
X156402880Y-119998641D01*
X156402875Y-119998643D01*
X156253654Y-120090684D01*
X156129682Y-120214656D01*
X156125763Y-120219613D01*
X156068740Y-120259987D01*
X155998941Y-120263123D01*
X155938526Y-120228025D01*
X155906678Y-120165836D01*
X155904500Y-120142698D01*
X155904500Y-120033583D01*
X155904500Y-120033581D01*
X155870119Y-119905270D01*
X155824641Y-119826500D01*
X155824640Y-119826498D01*
X155803703Y-119790233D01*
X155803699Y-119790228D01*
X155451652Y-119438181D01*
X155418167Y-119376858D01*
X155423151Y-119307166D01*
X155465023Y-119251233D01*
X155530487Y-119226816D01*
X155539333Y-119226500D01*
X157025501Y-119226500D01*
X157092540Y-119246185D01*
X157138295Y-119298989D01*
X157149501Y-119350500D01*
X157149501Y-119370257D01*
X157155960Y-119430344D01*
X157206655Y-119566261D01*
X157206656Y-119566264D01*
X157206658Y-119566267D01*
X157216877Y-119579918D01*
X157293595Y-119682404D01*
X157330102Y-119709732D01*
X157371974Y-119765665D01*
X157376960Y-119835357D01*
X157343475Y-119896680D01*
X157282153Y-119930166D01*
X157255793Y-119933000D01*
X157222000Y-119933000D01*
X157222000Y-122382999D01*
X157271972Y-122382999D01*
X157271986Y-122382998D01*
X157374697Y-122372505D01*
X157541119Y-122317358D01*
X157541124Y-122317356D01*
X157690345Y-122225315D01*
X157814315Y-122101345D01*
X157906356Y-121952124D01*
X157906359Y-121952117D01*
X157934922Y-121865918D01*
X157974694Y-121808473D01*
X158039209Y-121781649D01*
X158107985Y-121793963D01*
X158159186Y-121841506D01*
X158168808Y-121861583D01*
X158174658Y-121877267D01*
X158181174Y-121885971D01*
X158261595Y-121993404D01*
X158306474Y-122026999D01*
X158377733Y-122080342D01*
X158513658Y-122131040D01*
X158573745Y-122137500D01*
X159170254Y-122137499D01*
X159230342Y-122131040D01*
X159366267Y-122080342D01*
X159482404Y-121993404D01*
X159569342Y-121877267D01*
X159620040Y-121741342D01*
X159622800Y-121715664D01*
X159626499Y-121681271D01*
X159626499Y-121681264D01*
X159626500Y-121681255D01*
X159626499Y-120634746D01*
X159620040Y-120574658D01*
X159605159Y-120534761D01*
X159569344Y-120438738D01*
X159569343Y-120438737D01*
X159569342Y-120438733D01*
X159510653Y-120360333D01*
X159482404Y-120322595D01*
X159359168Y-120230344D01*
X159359954Y-120229293D01*
X159347696Y-120217035D01*
X159326543Y-120201199D01*
X159323378Y-120192713D01*
X159316975Y-120186310D01*
X159311359Y-120160490D01*
X159302126Y-120135735D01*
X159304050Y-120126886D01*
X159302126Y-120118037D01*
X159311361Y-120093280D01*
X159316978Y-120067462D01*
X159324981Y-120056770D01*
X159326547Y-120052574D01*
X159338118Y-120039220D01*
X159514532Y-119862805D01*
X159575853Y-119829322D01*
X159602424Y-119827219D01*
X159602424Y-119826500D01*
X159605744Y-119826499D01*
X159605745Y-119826500D01*
X160402254Y-119826499D01*
X160462342Y-119820040D01*
X160598267Y-119769342D01*
X160714404Y-119682404D01*
X160801342Y-119566267D01*
X160852040Y-119430342D01*
X160855812Y-119395255D01*
X160858499Y-119370271D01*
X160858499Y-119370264D01*
X160858500Y-119370255D01*
X160858499Y-118373746D01*
X160852040Y-118313658D01*
X160842715Y-118288658D01*
X160801344Y-118177738D01*
X160801343Y-118177737D01*
X160801342Y-118177733D01*
X160714404Y-118061596D01*
X160600972Y-117976683D01*
X160559102Y-117920750D01*
X160554117Y-117851059D01*
X160587598Y-117789739D01*
X161209671Y-117167668D01*
X161209671Y-117167667D01*
X161264820Y-117112518D01*
X161326144Y-117079033D01*
X161395835Y-117084019D01*
G37*
%TD.AperFunction*%
%TA.AperFunction,Conductor*%
G36*
X161024514Y-110343667D02*
G01*
X161026870Y-110343392D01*
X161060461Y-110354223D01*
X161128447Y-110387460D01*
X161128448Y-110387460D01*
X161128450Y-110387461D01*
X161197354Y-110397500D01*
X161197360Y-110397500D01*
X161464643Y-110397500D01*
X161464646Y-110397500D01*
X161484623Y-110394589D01*
X161553797Y-110404401D01*
X161606688Y-110450055D01*
X161626500Y-110517057D01*
X161626500Y-114018706D01*
X161606815Y-114085745D01*
X161554011Y-114131500D01*
X161484853Y-114141444D01*
X161464646Y-114138500D01*
X161197354Y-114138500D01*
X161145676Y-114146029D01*
X161128448Y-114148539D01*
X161060460Y-114181777D01*
X160991587Y-114193535D01*
X160951540Y-114181777D01*
X160883551Y-114148539D01*
X160873706Y-114147104D01*
X160814646Y-114138500D01*
X160547354Y-114138500D01*
X160495676Y-114146029D01*
X160478448Y-114148539D01*
X160410460Y-114181777D01*
X160341587Y-114193535D01*
X160301540Y-114181777D01*
X160233551Y-114148539D01*
X160223706Y-114147104D01*
X160164646Y-114138500D01*
X160026416Y-114138500D01*
X159959377Y-114118815D01*
X159928041Y-114089987D01*
X159908926Y-114065077D01*
X159783586Y-113968899D01*
X159637631Y-113908444D01*
X159581000Y-113900987D01*
X159581000Y-114419480D01*
X159579705Y-114437354D01*
X159576500Y-114459356D01*
X159576500Y-115006500D01*
X159556815Y-115073539D01*
X159504011Y-115119294D01*
X159452500Y-115130500D01*
X159381000Y-115130500D01*
X159381000Y-115206500D01*
X159361315Y-115273539D01*
X159308511Y-115319294D01*
X159257000Y-115330500D01*
X158681001Y-115330500D01*
X158681001Y-115807324D01*
X158696442Y-115924628D01*
X158696444Y-115924633D01*
X158756899Y-116070585D01*
X158853075Y-116195924D01*
X158978413Y-116292100D01*
X159131877Y-116355666D01*
X159131041Y-116357681D01*
X159180930Y-116388090D01*
X159211459Y-116450936D01*
X159203165Y-116520312D01*
X159158679Y-116574190D01*
X159092128Y-116595465D01*
X159089176Y-116595500D01*
X154305201Y-116595500D01*
X154238162Y-116575815D01*
X154192407Y-116523011D01*
X154182463Y-116453853D01*
X154211488Y-116390297D01*
X154217520Y-116383819D01*
X155217668Y-115383671D01*
X156147670Y-114453669D01*
X158681000Y-114453669D01*
X158681000Y-114930500D01*
X159181000Y-114930500D01*
X159181000Y-113900987D01*
X159124368Y-113908444D01*
X158978413Y-113968899D01*
X158853075Y-114065075D01*
X158756899Y-114190413D01*
X158696445Y-114336365D01*
X158696444Y-114336369D01*
X158681000Y-114453669D01*
X156147670Y-114453669D01*
X160183359Y-110417978D01*
X160187284Y-110415218D01*
X160188717Y-110412929D01*
X160197857Y-110407782D01*
X160218177Y-110393493D01*
X160229825Y-110388003D01*
X160233550Y-110387461D01*
X160302375Y-110353814D01*
X160303140Y-110353454D01*
X160336816Y-110348199D01*
X160370411Y-110342463D01*
X160371510Y-110342785D01*
X160372175Y-110342682D01*
X160374186Y-110343571D01*
X160410461Y-110354223D01*
X160478447Y-110387460D01*
X160478448Y-110387460D01*
X160478450Y-110387461D01*
X160547354Y-110397500D01*
X160547360Y-110397500D01*
X160814640Y-110397500D01*
X160814646Y-110397500D01*
X160883550Y-110387461D01*
X160951539Y-110354222D01*
X160954866Y-110353654D01*
X160957474Y-110351513D01*
X160989053Y-110347817D01*
X161020412Y-110342463D01*
X161024514Y-110343667D01*
G37*
%TD.AperFunction*%
%TA.AperFunction,Conductor*%
G36*
X172063558Y-100862870D02*
G01*
X172130586Y-100882584D01*
X172176317Y-100935409D01*
X172187500Y-100986870D01*
X172187500Y-128575500D01*
X172167815Y-128642539D01*
X172115011Y-128688294D01*
X172063500Y-128699500D01*
X123274500Y-128699500D01*
X123207461Y-128679815D01*
X123161706Y-128627011D01*
X123150500Y-128575500D01*
X123150500Y-127714986D01*
X152400001Y-127714986D01*
X152410494Y-127817697D01*
X152465641Y-127984119D01*
X152465643Y-127984124D01*
X152557684Y-128133345D01*
X152681654Y-128257315D01*
X152830875Y-128349356D01*
X152830880Y-128349358D01*
X152997302Y-128404505D01*
X152997309Y-128404506D01*
X153100019Y-128414999D01*
X153224999Y-128414999D01*
X153225000Y-128414998D01*
X153225000Y-127465000D01*
X152400001Y-127465000D01*
X152400001Y-127714986D01*
X123150500Y-127714986D01*
X123150500Y-108678074D01*
X125995500Y-108678074D01*
X125995500Y-108851925D01*
X126022697Y-109023639D01*
X126022697Y-109023642D01*
X126076418Y-109188978D01*
X126076420Y-109188981D01*
X126155347Y-109343884D01*
X126257535Y-109484533D01*
X126380467Y-109607465D01*
X126521116Y-109709653D01*
X126676019Y-109788580D01*
X126676021Y-109788581D01*
X126841358Y-109842302D01*
X126841359Y-109842302D01*
X126841362Y-109842303D01*
X127013074Y-109869500D01*
X127013075Y-109869500D01*
X127186925Y-109869500D01*
X127186926Y-109869500D01*
X127358638Y-109842303D01*
X127445822Y-109813974D01*
X127515662Y-109811980D01*
X127571820Y-109844225D01*
X128729181Y-111001585D01*
X128762666Y-111062908D01*
X128765500Y-111089266D01*
X128765500Y-113622461D01*
X128745815Y-113689500D01*
X128710394Y-113725560D01*
X128686516Y-113741516D01*
X128686515Y-113741517D01*
X128630265Y-113825699D01*
X128630264Y-113825703D01*
X128615500Y-113899928D01*
X128615500Y-115478063D01*
X128630266Y-115552301D01*
X128686515Y-115636484D01*
X128715499Y-115655850D01*
X128770699Y-115692734D01*
X128770702Y-115692734D01*
X128770703Y-115692735D01*
X128786163Y-115695810D01*
X128844933Y-115707500D01*
X129545066Y-115707499D01*
X129619301Y-115692734D01*
X129703484Y-115636484D01*
X129726898Y-115601443D01*
X129751791Y-115580639D01*
X129775769Y-115558822D01*
X129778434Y-115558372D01*
X129780510Y-115556638D01*
X129812684Y-115552596D01*
X129844666Y-115547204D01*
X129847153Y-115548267D01*
X129849835Y-115547931D01*
X129879089Y-115561927D01*
X129908906Y-115574680D01*
X129911315Y-115577345D01*
X129912862Y-115578085D01*
X129932659Y-115600785D01*
X129932905Y-115601149D01*
X129956516Y-115636484D01*
X129957115Y-115636884D01*
X129964159Y-115647281D01*
X129971348Y-115669734D01*
X129982656Y-115690425D01*
X129985030Y-115712468D01*
X129985464Y-115713823D01*
X129985258Y-115714590D01*
X129985500Y-115716830D01*
X129985500Y-116685022D01*
X129965815Y-116752061D01*
X129949181Y-116772703D01*
X128811305Y-117910578D01*
X128811303Y-117910580D01*
X128788742Y-117949659D01*
X128774309Y-117974658D01*
X128748177Y-118019920D01*
X128715558Y-118141658D01*
X128715500Y-118141873D01*
X128715500Y-118143083D01*
X128715500Y-119083170D01*
X128695815Y-119150209D01*
X128693283Y-119153350D01*
X128693301Y-119153362D01*
X128630265Y-119247699D01*
X128630264Y-119247703D01*
X128615500Y-119321928D01*
X128615500Y-120900063D01*
X128630266Y-120974301D01*
X128693301Y-121068639D01*
X128689949Y-121070878D01*
X128712656Y-121112425D01*
X128715500Y-121138830D01*
X128715500Y-121596951D01*
X128698888Y-121658949D01*
X128683290Y-121685966D01*
X128683288Y-121685971D01*
X128645500Y-121826999D01*
X128645500Y-121973001D01*
X128679890Y-122101345D01*
X128683288Y-122114028D01*
X128683289Y-122114031D01*
X128756286Y-122240467D01*
X128756288Y-122240470D01*
X128756289Y-122240471D01*
X128859529Y-122343711D01*
X128985971Y-122416712D01*
X129126999Y-122454500D01*
X129127001Y-122454500D01*
X129272999Y-122454500D01*
X129273001Y-122454500D01*
X129414029Y-122416712D01*
X129540471Y-122343711D01*
X129643711Y-122240471D01*
X129716712Y-122114029D01*
X129754500Y-121973001D01*
X129754500Y-121826999D01*
X129716712Y-121685971D01*
X129691112Y-121641630D01*
X129684876Y-121615926D01*
X129675057Y-121591371D01*
X129674500Y-121579631D01*
X129674500Y-121138830D01*
X129694185Y-121071791D01*
X129696716Y-121068650D01*
X129696699Y-121068639D01*
X129726898Y-121023443D01*
X129780510Y-120978638D01*
X129849835Y-120969931D01*
X129912862Y-121000085D01*
X129933102Y-121023443D01*
X129956516Y-121058485D01*
X129980390Y-121074437D01*
X130025196Y-121128049D01*
X130035500Y-121177539D01*
X130035500Y-121221545D01*
X130048700Y-121270806D01*
X130064771Y-121330784D01*
X130072085Y-121343452D01*
X130072089Y-121343457D01*
X130121313Y-121428717D01*
X130121315Y-121428720D01*
X130946124Y-122253529D01*
X130979609Y-122314852D01*
X130974625Y-122384544D01*
X130932753Y-122440477D01*
X130890540Y-122460983D01*
X130869477Y-122466627D01*
X130858168Y-122469658D01*
X130858162Y-122469661D01*
X130777338Y-122516324D01*
X130777330Y-122516330D01*
X128719478Y-124574181D01*
X128658155Y-124607666D01*
X128631797Y-124610500D01*
X127204936Y-124610500D01*
X127130698Y-124625266D01*
X127046515Y-124681515D01*
X126990266Y-124765699D01*
X126990264Y-124765703D01*
X126975500Y-124839928D01*
X126975500Y-126590063D01*
X126990266Y-126664301D01*
X127046515Y-126748484D01*
X127080234Y-126771014D01*
X127130699Y-126804734D01*
X127130702Y-126804734D01*
X127130703Y-126804735D01*
X127143609Y-126807302D01*
X127204933Y-126819500D01*
X128955066Y-126819499D01*
X129029301Y-126804734D01*
X129113484Y-126748484D01*
X129169734Y-126664301D01*
X129184500Y-126590067D01*
X129184499Y-125628074D01*
X129515500Y-125628074D01*
X129515500Y-125801925D01*
X129542697Y-125973639D01*
X129542697Y-125973642D01*
X129596418Y-126138978D01*
X129668304Y-126280061D01*
X129675347Y-126293884D01*
X129777535Y-126434533D01*
X129900467Y-126557465D01*
X130041116Y-126659653D01*
X130196019Y-126738580D01*
X130196021Y-126738581D01*
X130361358Y-126792302D01*
X130361359Y-126792302D01*
X130361362Y-126792303D01*
X130533074Y-126819500D01*
X130533075Y-126819500D01*
X130706925Y-126819500D01*
X130706926Y-126819500D01*
X130878638Y-126792303D01*
X130878641Y-126792302D01*
X130878642Y-126792302D01*
X131043978Y-126738581D01*
X131043978Y-126738580D01*
X131043981Y-126738580D01*
X131198884Y-126659653D01*
X131339533Y-126557465D01*
X131462465Y-126434533D01*
X131564653Y-126293884D01*
X131643580Y-126138981D01*
X131651358Y-126115044D01*
X131697302Y-125973642D01*
X131697302Y-125973641D01*
X131697303Y-125973638D01*
X131724500Y-125801926D01*
X131724500Y-125628074D01*
X131697303Y-125456362D01*
X131697302Y-125456358D01*
X131697302Y-125456357D01*
X131643581Y-125291021D01*
X131576083Y-125158549D01*
X131564653Y-125136116D01*
X131462465Y-124995467D01*
X131339533Y-124872535D01*
X131198884Y-124770347D01*
X131184535Y-124763036D01*
X131043978Y-124691418D01*
X130878641Y-124637697D01*
X130735110Y-124614964D01*
X130706926Y-124610500D01*
X130533074Y-124610500D01*
X130504890Y-124614964D01*
X130361360Y-124637697D01*
X130361357Y-124637697D01*
X130196021Y-124691418D01*
X130041115Y-124770347D01*
X129964906Y-124825717D01*
X129900467Y-124872535D01*
X129900465Y-124872537D01*
X129900464Y-124872537D01*
X129777537Y-124995464D01*
X129777537Y-124995465D01*
X129777535Y-124995467D01*
X129757935Y-125022444D01*
X129675347Y-125136115D01*
X129596418Y-125291021D01*
X129542697Y-125456357D01*
X129542697Y-125456360D01*
X129515500Y-125628074D01*
X129184499Y-125628074D01*
X129184499Y-125163199D01*
X129204184Y-125096161D01*
X129220813Y-125075524D01*
X131105520Y-123190819D01*
X131166843Y-123157334D01*
X131193201Y-123154500D01*
X133346799Y-123154500D01*
X133413838Y-123174185D01*
X133459593Y-123226989D01*
X133469537Y-123296147D01*
X133440512Y-123359703D01*
X133434480Y-123366181D01*
X132876330Y-123924330D01*
X132876328Y-123924333D01*
X132829659Y-124005167D01*
X132829659Y-124005168D01*
X132814406Y-124062094D01*
X132805500Y-124095330D01*
X132805500Y-124580029D01*
X132785815Y-124647068D01*
X132737795Y-124690513D01*
X132581120Y-124770343D01*
X132504906Y-124825717D01*
X132440467Y-124872535D01*
X132440465Y-124872537D01*
X132440464Y-124872537D01*
X132317537Y-124995464D01*
X132317537Y-124995465D01*
X132317535Y-124995467D01*
X132297935Y-125022444D01*
X132215347Y-125136115D01*
X132136418Y-125291021D01*
X132082697Y-125456357D01*
X132082697Y-125456360D01*
X132055500Y-125628074D01*
X132055500Y-125801925D01*
X132082697Y-125973639D01*
X132082697Y-125973642D01*
X132136418Y-126138978D01*
X132208304Y-126280061D01*
X132215347Y-126293884D01*
X132317535Y-126434533D01*
X132440467Y-126557465D01*
X132581116Y-126659653D01*
X132736019Y-126738580D01*
X132736021Y-126738581D01*
X132901358Y-126792302D01*
X132901359Y-126792302D01*
X132901362Y-126792303D01*
X133073074Y-126819500D01*
X133073075Y-126819500D01*
X133246925Y-126819500D01*
X133246926Y-126819500D01*
X133418638Y-126792303D01*
X133418641Y-126792302D01*
X133418642Y-126792302D01*
X133583978Y-126738581D01*
X133583978Y-126738580D01*
X133583981Y-126738580D01*
X133738884Y-126659653D01*
X133879533Y-126557465D01*
X134002465Y-126434533D01*
X134104653Y-126293884D01*
X134183580Y-126138981D01*
X134183582Y-126138975D01*
X134185446Y-126134478D01*
X134186891Y-126135076D01*
X134222430Y-126083093D01*
X134286786Y-126055889D01*
X134355633Y-126067796D01*
X134407114Y-126115035D01*
X134418864Y-126140761D01*
X134448904Y-126233217D01*
X134545379Y-126422557D01*
X134670272Y-126594459D01*
X134670276Y-126594464D01*
X134820535Y-126744723D01*
X134820540Y-126744727D01*
X134992442Y-126869620D01*
X135181782Y-126966095D01*
X135383871Y-127031757D01*
X135450000Y-127042231D01*
X135450000Y-126148012D01*
X135507007Y-126180925D01*
X135634174Y-126215000D01*
X135765826Y-126215000D01*
X135892993Y-126180925D01*
X135950000Y-126148012D01*
X135950000Y-127042230D01*
X136016126Y-127031757D01*
X136016129Y-127031757D01*
X136218217Y-126966095D01*
X136407557Y-126869620D01*
X136579459Y-126744727D01*
X136579464Y-126744723D01*
X136729723Y-126594464D01*
X136729727Y-126594459D01*
X136854620Y-126422557D01*
X136951093Y-126233221D01*
X136981134Y-126140762D01*
X137020571Y-126083086D01*
X137084929Y-126055887D01*
X137153776Y-126067801D01*
X137205252Y-126115044D01*
X137214197Y-126134625D01*
X137214554Y-126134478D01*
X137216417Y-126138975D01*
X137216419Y-126138978D01*
X137216420Y-126138981D01*
X137295347Y-126293884D01*
X137397535Y-126434533D01*
X137520467Y-126557465D01*
X137661116Y-126659653D01*
X137816019Y-126738580D01*
X137816021Y-126738581D01*
X137981358Y-126792302D01*
X137981359Y-126792302D01*
X137981362Y-126792303D01*
X138153074Y-126819500D01*
X138153075Y-126819500D01*
X138326925Y-126819500D01*
X138326926Y-126819500D01*
X138498638Y-126792303D01*
X138498641Y-126792302D01*
X138498642Y-126792302D01*
X138663978Y-126738581D01*
X138663978Y-126738580D01*
X138663981Y-126738580D01*
X138818884Y-126659653D01*
X138959533Y-126557465D01*
X139082465Y-126434533D01*
X139184653Y-126293884D01*
X139263580Y-126138981D01*
X139271358Y-126115044D01*
X139317302Y-125973642D01*
X139317302Y-125973641D01*
X139317303Y-125973638D01*
X139344500Y-125801926D01*
X139344500Y-125628074D01*
X139317303Y-125456362D01*
X139317302Y-125456358D01*
X139317302Y-125456357D01*
X139263581Y-125291021D01*
X139196083Y-125158549D01*
X139184653Y-125136116D01*
X139082465Y-124995467D01*
X138959533Y-124872535D01*
X138818884Y-124770347D01*
X138804535Y-124763036D01*
X138663978Y-124691418D01*
X138498641Y-124637697D01*
X138355110Y-124614964D01*
X138326926Y-124610500D01*
X138153074Y-124610500D01*
X138124890Y-124614964D01*
X137981360Y-124637697D01*
X137981357Y-124637697D01*
X137816021Y-124691418D01*
X137661115Y-124770347D01*
X137584906Y-124825717D01*
X137520467Y-124872535D01*
X137520465Y-124872537D01*
X137520464Y-124872537D01*
X137397537Y-124995464D01*
X137397537Y-124995465D01*
X137397535Y-124995467D01*
X137377935Y-125022444D01*
X137295347Y-125136115D01*
X137216417Y-125291024D01*
X137214554Y-125295522D01*
X137213118Y-125294927D01*
X137177529Y-125346939D01*
X137113162Y-125374116D01*
X137044319Y-125362180D01*
X136992858Y-125314919D01*
X136981135Y-125289237D01*
X136951096Y-125196784D01*
X136854620Y-125007442D01*
X136729727Y-124835540D01*
X136729723Y-124835535D01*
X136579464Y-124685276D01*
X136579459Y-124685272D01*
X136407557Y-124560379D01*
X136218215Y-124463903D01*
X136016124Y-124398241D01*
X135950000Y-124387768D01*
X135950000Y-125281988D01*
X135892993Y-125249075D01*
X135765826Y-125215000D01*
X135634174Y-125215000D01*
X135507007Y-125249075D01*
X135450000Y-125281988D01*
X135450000Y-124387768D01*
X135449999Y-124387768D01*
X135383875Y-124398241D01*
X135181784Y-124463903D01*
X134992442Y-124560379D01*
X134820540Y-124685272D01*
X134820535Y-124685276D01*
X134670276Y-124835535D01*
X134670272Y-124835540D01*
X134545379Y-125007442D01*
X134448904Y-125196782D01*
X134418864Y-125289238D01*
X134379427Y-125346913D01*
X134315068Y-125374112D01*
X134246222Y-125362197D01*
X134194746Y-125314953D01*
X134185804Y-125295373D01*
X134185446Y-125295522D01*
X134183582Y-125291024D01*
X134183580Y-125291021D01*
X134183580Y-125291019D01*
X134104653Y-125136116D01*
X134002465Y-124995467D01*
X133879533Y-124872535D01*
X133771759Y-124794232D01*
X133738879Y-124770343D01*
X133582205Y-124690513D01*
X133571142Y-124680064D01*
X133557297Y-124673742D01*
X133546255Y-124656560D01*
X133531409Y-124642539D01*
X133527167Y-124626859D01*
X133519523Y-124614964D01*
X133514500Y-124580029D01*
X133514500Y-124340201D01*
X133534185Y-124273162D01*
X133550819Y-124252520D01*
X133968520Y-123834819D01*
X134029843Y-123801334D01*
X134056201Y-123798500D01*
X138017669Y-123798500D01*
X138017671Y-123798500D01*
X138107832Y-123774341D01*
X138188668Y-123727671D01*
X138750520Y-123165819D01*
X138811843Y-123132334D01*
X138838201Y-123129500D01*
X139418956Y-123129500D01*
X139485995Y-123149185D01*
X139506637Y-123165819D01*
X139559529Y-123218711D01*
X139685971Y-123291712D01*
X139826999Y-123329500D01*
X139827001Y-123329500D01*
X139972999Y-123329500D01*
X139973001Y-123329500D01*
X140114029Y-123291712D01*
X140240471Y-123218711D01*
X140343711Y-123115471D01*
X140416712Y-122989029D01*
X140454500Y-122848001D01*
X140454500Y-122701999D01*
X140450104Y-122685592D01*
X140451767Y-122615742D01*
X140490931Y-122557880D01*
X140555160Y-122530377D01*
X140569879Y-122529500D01*
X147270732Y-122529500D01*
X147300163Y-122538142D01*
X147330144Y-122544660D01*
X147335170Y-122548421D01*
X147337771Y-122549185D01*
X147358402Y-122565807D01*
X147362171Y-122569575D01*
X147395663Y-122630893D01*
X147398500Y-122657267D01*
X147398500Y-124633244D01*
X147378815Y-124700283D01*
X147330795Y-124743728D01*
X147249120Y-124785343D01*
X147173992Y-124839928D01*
X147108467Y-124887535D01*
X147108465Y-124887537D01*
X147108464Y-124887537D01*
X146985537Y-125010464D01*
X146985537Y-125010465D01*
X146985535Y-125010467D01*
X146951581Y-125057201D01*
X146883347Y-125151115D01*
X146804417Y-125306024D01*
X146802554Y-125310522D01*
X146801118Y-125309927D01*
X146765529Y-125361939D01*
X146701162Y-125389116D01*
X146632319Y-125377180D01*
X146580858Y-125329919D01*
X146569135Y-125304237D01*
X146539096Y-125211784D01*
X146442620Y-125022442D01*
X146317727Y-124850540D01*
X146317723Y-124850535D01*
X146167464Y-124700276D01*
X146167459Y-124700272D01*
X145995557Y-124575379D01*
X145806215Y-124478903D01*
X145604124Y-124413241D01*
X145538000Y-124402768D01*
X145538000Y-125296988D01*
X145480993Y-125264075D01*
X145353826Y-125230000D01*
X145222174Y-125230000D01*
X145095007Y-125264075D01*
X145038000Y-125296988D01*
X145038000Y-124402768D01*
X145037999Y-124402768D01*
X144971875Y-124413241D01*
X144769784Y-124478903D01*
X144580442Y-124575379D01*
X144408540Y-124700272D01*
X144408535Y-124700276D01*
X144258276Y-124850535D01*
X144258272Y-124850540D01*
X144133377Y-125022444D01*
X144086983Y-125113497D01*
X144039009Y-125164292D01*
X143971188Y-125181087D01*
X143905053Y-125158549D01*
X143861602Y-125103834D01*
X143852499Y-125057201D01*
X143852499Y-124854936D01*
X143852499Y-124854934D01*
X143837734Y-124780699D01*
X143819068Y-124752765D01*
X143781484Y-124696515D01*
X143713027Y-124650774D01*
X143697301Y-124640266D01*
X143697299Y-124640265D01*
X143697296Y-124640264D01*
X143623069Y-124625500D01*
X141872936Y-124625500D01*
X141798698Y-124640266D01*
X141714515Y-124696515D01*
X141658266Y-124780699D01*
X141658264Y-124780703D01*
X141643500Y-124854928D01*
X141643500Y-126605063D01*
X141658266Y-126679301D01*
X141714515Y-126763484D01*
X141748234Y-126786014D01*
X141798699Y-126819734D01*
X141798702Y-126819734D01*
X141798703Y-126819735D01*
X141823666Y-126824700D01*
X141872933Y-126834500D01*
X143623066Y-126834499D01*
X143697301Y-126819734D01*
X143781484Y-126763484D01*
X143837734Y-126679301D01*
X143852500Y-126605067D01*
X143852499Y-126402796D01*
X143872183Y-126335760D01*
X143924987Y-126290005D01*
X143994145Y-126280061D01*
X144057701Y-126309086D01*
X144086983Y-126346503D01*
X144133377Y-126437555D01*
X144258272Y-126609459D01*
X144258276Y-126609464D01*
X144408535Y-126759723D01*
X144408540Y-126759727D01*
X144580442Y-126884620D01*
X144769782Y-126981095D01*
X144971871Y-127046757D01*
X145038000Y-127057231D01*
X145038000Y-126163012D01*
X145095007Y-126195925D01*
X145222174Y-126230000D01*
X145353826Y-126230000D01*
X145480993Y-126195925D01*
X145538000Y-126163012D01*
X145538000Y-127057230D01*
X145604126Y-127046757D01*
X145604129Y-127046757D01*
X145806217Y-126981095D01*
X145995557Y-126884620D01*
X146167459Y-126759727D01*
X146167464Y-126759723D01*
X146317723Y-126609464D01*
X146317727Y-126609459D01*
X146442620Y-126437557D01*
X146539093Y-126248221D01*
X146569134Y-126155762D01*
X146608571Y-126098086D01*
X146672929Y-126070887D01*
X146741776Y-126082801D01*
X146793252Y-126130044D01*
X146802197Y-126149625D01*
X146802554Y-126149478D01*
X146804417Y-126153975D01*
X146804419Y-126153978D01*
X146804420Y-126153981D01*
X146883347Y-126308884D01*
X146985535Y-126449533D01*
X147108467Y-126572465D01*
X147249116Y-126674653D01*
X147374580Y-126738580D01*
X147404021Y-126753581D01*
X147569358Y-126807302D01*
X147569359Y-126807302D01*
X147569362Y-126807303D01*
X147741074Y-126834500D01*
X147741075Y-126834500D01*
X147914925Y-126834500D01*
X147914926Y-126834500D01*
X148086638Y-126807303D01*
X148086641Y-126807302D01*
X148086642Y-126807302D01*
X148251978Y-126753581D01*
X148251978Y-126753580D01*
X148251981Y-126753580D01*
X148406884Y-126674653D01*
X148547533Y-126572465D01*
X148670465Y-126449533D01*
X148772653Y-126308884D01*
X148851580Y-126153981D01*
X148853043Y-126149478D01*
X148905302Y-125988642D01*
X148905302Y-125988641D01*
X148905303Y-125988638D01*
X148932500Y-125816926D01*
X148932500Y-125643074D01*
X148905303Y-125471362D01*
X148905302Y-125471358D01*
X148905302Y-125471357D01*
X148851581Y-125306021D01*
X148850672Y-125304237D01*
X148772653Y-125151116D01*
X148670465Y-125010467D01*
X148547533Y-124887535D01*
X148412164Y-124789183D01*
X148406879Y-124785343D01*
X148325205Y-124743728D01*
X148274409Y-124695754D01*
X148257500Y-124633244D01*
X148257500Y-122371457D01*
X148257500Y-122371455D01*
X148238011Y-122298721D01*
X148238132Y-122293600D01*
X148235825Y-122289025D01*
X148238010Y-122234538D01*
X148254500Y-122173001D01*
X148254500Y-122061266D01*
X148274185Y-121994227D01*
X148326989Y-121948472D01*
X148396147Y-121938528D01*
X148459703Y-121967553D01*
X148466159Y-121973564D01*
X148543159Y-122050563D01*
X148614650Y-122122054D01*
X148615741Y-122123944D01*
X148617460Y-122124957D01*
X148625307Y-122140513D01*
X148646743Y-122177641D01*
X148683288Y-122314030D01*
X148683289Y-122314031D01*
X148753887Y-122436311D01*
X148770500Y-122498311D01*
X148770500Y-124618545D01*
X148799770Y-124727781D01*
X148799771Y-124727783D01*
X148820125Y-124763036D01*
X148820126Y-124763040D01*
X148820127Y-124763040D01*
X148856313Y-124825717D01*
X148856315Y-124825720D01*
X149288774Y-125258179D01*
X149322259Y-125319502D01*
X149319024Y-125384178D01*
X149290697Y-125471360D01*
X149263500Y-125643074D01*
X149263500Y-125816925D01*
X149290697Y-125988639D01*
X149290697Y-125988642D01*
X149344418Y-126153978D01*
X149423347Y-126308884D01*
X149525535Y-126449533D01*
X149648467Y-126572465D01*
X149789116Y-126674653D01*
X149914580Y-126738580D01*
X149944021Y-126753581D01*
X150109358Y-126807302D01*
X150109359Y-126807302D01*
X150109362Y-126807303D01*
X150281074Y-126834500D01*
X150281075Y-126834500D01*
X150454925Y-126834500D01*
X150454926Y-126834500D01*
X150626638Y-126807303D01*
X150626641Y-126807302D01*
X150626642Y-126807302D01*
X150791978Y-126753581D01*
X150791978Y-126753580D01*
X150791981Y-126753580D01*
X150867673Y-126715013D01*
X152400000Y-126715013D01*
X152400000Y-126965000D01*
X153225000Y-126965000D01*
X153225000Y-126015000D01*
X153100027Y-126015000D01*
X153100012Y-126015001D01*
X152997302Y-126025494D01*
X152830880Y-126080641D01*
X152830875Y-126080643D01*
X152681654Y-126172684D01*
X152557684Y-126296654D01*
X152465643Y-126445875D01*
X152465641Y-126445880D01*
X152410494Y-126612302D01*
X152410493Y-126612309D01*
X152400000Y-126715013D01*
X150867673Y-126715013D01*
X150946884Y-126674653D01*
X151087533Y-126572465D01*
X151210465Y-126449533D01*
X151312653Y-126308884D01*
X151391580Y-126153981D01*
X151393043Y-126149478D01*
X151445302Y-125988642D01*
X151445302Y-125988641D01*
X151445303Y-125988638D01*
X151472500Y-125816926D01*
X151472500Y-125643074D01*
X151445303Y-125471362D01*
X151445302Y-125471358D01*
X151445302Y-125471357D01*
X151391581Y-125306021D01*
X151390672Y-125304237D01*
X151312653Y-125151116D01*
X151210465Y-125010467D01*
X151087533Y-124887535D01*
X150946884Y-124785347D01*
X150915779Y-124769498D01*
X150791978Y-124706418D01*
X150626641Y-124652697D01*
X150497854Y-124632299D01*
X150454926Y-124625500D01*
X150281074Y-124625500D01*
X150232181Y-124633244D01*
X150109360Y-124652697D01*
X150022178Y-124681024D01*
X149952336Y-124683019D01*
X149896179Y-124650774D01*
X149665819Y-124420414D01*
X149632334Y-124359091D01*
X149629500Y-124332733D01*
X149629500Y-122498311D01*
X149646113Y-122436311D01*
X149683557Y-122371455D01*
X149716712Y-122314029D01*
X149754500Y-122173001D01*
X149754500Y-122026999D01*
X149716712Y-121885971D01*
X149669049Y-121803416D01*
X149643713Y-121759532D01*
X149643709Y-121759527D01*
X149540472Y-121656290D01*
X149540467Y-121656286D01*
X149414031Y-121583289D01*
X149414030Y-121583288D01*
X149277640Y-121546743D01*
X149222053Y-121514649D01*
X148763720Y-121056315D01*
X148763719Y-121056314D01*
X148701628Y-121020466D01*
X148665783Y-120999771D01*
X148665782Y-120999770D01*
X148638472Y-120992452D01*
X148556545Y-120970500D01*
X148556542Y-120970500D01*
X133708500Y-120970500D01*
X133699814Y-120967949D01*
X133690853Y-120969238D01*
X133666812Y-120958259D01*
X133641461Y-120950815D01*
X133635533Y-120943974D01*
X133627297Y-120940213D01*
X133613007Y-120917978D01*
X133595706Y-120898011D01*
X133593418Y-120887496D01*
X133589523Y-120881435D01*
X133584500Y-120846500D01*
X133584500Y-120664500D01*
X133604185Y-120597461D01*
X133656989Y-120551706D01*
X133708500Y-120540500D01*
X134145542Y-120540500D01*
X134145545Y-120540500D01*
X134254781Y-120511230D01*
X134298531Y-120485971D01*
X134352719Y-120454686D01*
X135316586Y-119490817D01*
X135377909Y-119457333D01*
X135404267Y-119454499D01*
X136098251Y-119454499D01*
X136098254Y-119454499D01*
X136158342Y-119448040D01*
X136294267Y-119397342D01*
X136410404Y-119310404D01*
X136497342Y-119194267D01*
X136548040Y-119058342D01*
X136550800Y-119032664D01*
X136554499Y-118998271D01*
X136554499Y-118998264D01*
X136554500Y-118998255D01*
X136554499Y-118201746D01*
X136548040Y-118141658D01*
X136533494Y-118102658D01*
X136497344Y-118005738D01*
X136497343Y-118005737D01*
X136497342Y-118005733D01*
X136439642Y-117928654D01*
X136410404Y-117889595D01*
X136350273Y-117844583D01*
X136308401Y-117788650D01*
X136303415Y-117718958D01*
X136336900Y-117657635D01*
X136363504Y-117639007D01*
X136362975Y-117638149D01*
X136518345Y-117542315D01*
X136642315Y-117418345D01*
X136734356Y-117269124D01*
X136734358Y-117269119D01*
X136789505Y-117102697D01*
X136789506Y-117102690D01*
X136799999Y-116999986D01*
X136800000Y-116999973D01*
X136800000Y-116850000D01*
X134400001Y-116850000D01*
X134400001Y-116999986D01*
X134410494Y-117102697D01*
X134465641Y-117269119D01*
X134465643Y-117269124D01*
X134557684Y-117418345D01*
X134681654Y-117542315D01*
X134837025Y-117638149D01*
X134835871Y-117640019D01*
X134880262Y-117679107D01*
X134899413Y-117746300D01*
X134879196Y-117813181D01*
X134849727Y-117844582D01*
X134789596Y-117889594D01*
X134711846Y-117993459D01*
X134702658Y-118005733D01*
X134651960Y-118141658D01*
X134651959Y-118141662D01*
X134645500Y-118201728D01*
X134645500Y-118895732D01*
X134625815Y-118962771D01*
X134609181Y-118983413D01*
X133947414Y-119645181D01*
X133920486Y-119659884D01*
X133894668Y-119676477D01*
X133888467Y-119677368D01*
X133886091Y-119678666D01*
X133859733Y-119681500D01*
X133708499Y-119681500D01*
X133641460Y-119661815D01*
X133595705Y-119609011D01*
X133584499Y-119557500D01*
X133584499Y-119321936D01*
X133584499Y-119321934D01*
X133569734Y-119247699D01*
X133548888Y-119216501D01*
X133513484Y-119163515D01*
X133458833Y-119126999D01*
X133429301Y-119107266D01*
X133429299Y-119107265D01*
X133429296Y-119107264D01*
X133355069Y-119092500D01*
X132654936Y-119092500D01*
X132580698Y-119107266D01*
X132496516Y-119163515D01*
X132473102Y-119198557D01*
X132419489Y-119243361D01*
X132350164Y-119252068D01*
X132287137Y-119221913D01*
X132266898Y-119198557D01*
X132250354Y-119173798D01*
X132243484Y-119163516D01*
X132237508Y-119159523D01*
X132214500Y-119144149D01*
X132159301Y-119107266D01*
X132159299Y-119107265D01*
X132159296Y-119107264D01*
X132085069Y-119092500D01*
X131384936Y-119092500D01*
X131310698Y-119107266D01*
X131226516Y-119163515D01*
X131203102Y-119198557D01*
X131149489Y-119243361D01*
X131080164Y-119252068D01*
X131017137Y-119221913D01*
X130996898Y-119198557D01*
X130980354Y-119173798D01*
X130973484Y-119163516D01*
X130967508Y-119159523D01*
X130944500Y-119144149D01*
X130889301Y-119107266D01*
X130889299Y-119107265D01*
X130889296Y-119107264D01*
X130815069Y-119092500D01*
X130114936Y-119092500D01*
X130040698Y-119107266D01*
X129956514Y-119163516D01*
X129933100Y-119198558D01*
X129908218Y-119219351D01*
X129884229Y-119241179D01*
X129881562Y-119241628D01*
X129879487Y-119243363D01*
X129847302Y-119247404D01*
X129815332Y-119252795D01*
X129812846Y-119251731D01*
X129810162Y-119252069D01*
X129780902Y-119238069D01*
X129751091Y-119225319D01*
X129748680Y-119222652D01*
X129747135Y-119221913D01*
X129727339Y-119199214D01*
X129727188Y-119198992D01*
X129703484Y-119163516D01*
X129702883Y-119163114D01*
X129695840Y-119152718D01*
X129688643Y-119130239D01*
X129677334Y-119109528D01*
X129674968Y-119087525D01*
X129674536Y-119086175D01*
X129674740Y-119085409D01*
X129674500Y-119083170D01*
X129674500Y-118454976D01*
X129694185Y-118387937D01*
X129710814Y-118367299D01*
X130749210Y-117328903D01*
X130749215Y-117328900D01*
X130759418Y-117318696D01*
X130759420Y-117318696D01*
X130848696Y-117229420D01*
X130911823Y-117120080D01*
X130944500Y-116998127D01*
X130944500Y-116200013D01*
X134400000Y-116200013D01*
X134400000Y-116350000D01*
X135350000Y-116350000D01*
X135850000Y-116350000D01*
X136799999Y-116350000D01*
X136799999Y-116200028D01*
X136799998Y-116200013D01*
X136789505Y-116097302D01*
X136734358Y-115930880D01*
X136734356Y-115930875D01*
X136642315Y-115781654D01*
X136518345Y-115657684D01*
X136369124Y-115565643D01*
X136369119Y-115565641D01*
X136202697Y-115510494D01*
X136202690Y-115510493D01*
X136099986Y-115500000D01*
X135850000Y-115500000D01*
X135850000Y-116350000D01*
X135350000Y-116350000D01*
X135350000Y-115500000D01*
X135100029Y-115500000D01*
X135100012Y-115500001D01*
X134997302Y-115510494D01*
X134830880Y-115565641D01*
X134830875Y-115565643D01*
X134681654Y-115657684D01*
X134557684Y-115781654D01*
X134465643Y-115930875D01*
X134465641Y-115930880D01*
X134410494Y-116097302D01*
X134410493Y-116097309D01*
X134400000Y-116200013D01*
X130944500Y-116200013D01*
X130944500Y-115976829D01*
X130964185Y-115909790D01*
X131016989Y-115864035D01*
X131086147Y-115854091D01*
X131142813Y-115877564D01*
X131167909Y-115896352D01*
X131167913Y-115896354D01*
X131302620Y-115946596D01*
X131302627Y-115946598D01*
X131362155Y-115952999D01*
X131362172Y-115953000D01*
X131485000Y-115953000D01*
X131485000Y-113425000D01*
X131362155Y-113425000D01*
X131302627Y-113431401D01*
X131302620Y-113431403D01*
X131167913Y-113481645D01*
X131167906Y-113481649D01*
X131052812Y-113567809D01*
X131001912Y-113635803D01*
X130945978Y-113677673D01*
X130878455Y-113683108D01*
X130815069Y-113670500D01*
X130114936Y-113670500D01*
X130040698Y-113685266D01*
X129956514Y-113741516D01*
X129933100Y-113776558D01*
X129879487Y-113821363D01*
X129810162Y-113830069D01*
X129747135Y-113799913D01*
X129740391Y-113793377D01*
X129732912Y-113785558D01*
X129703484Y-113741516D01*
X129668295Y-113718003D01*
X129658892Y-113708172D01*
X129648835Y-113688740D01*
X129634803Y-113671949D01*
X129631207Y-113654678D01*
X129626778Y-113646120D01*
X129627600Y-113637355D01*
X129624500Y-113622461D01*
X129624500Y-113534266D01*
X129644185Y-113467227D01*
X129660819Y-113446585D01*
X130244623Y-112862781D01*
X130851905Y-112255498D01*
X130913226Y-112222015D01*
X130982918Y-112226999D01*
X131038851Y-112268871D01*
X131063268Y-112334335D01*
X131059359Y-112375273D01*
X131045500Y-112426997D01*
X131045500Y-112426999D01*
X131045500Y-112573001D01*
X131080855Y-112704946D01*
X131083288Y-112714028D01*
X131083289Y-112714031D01*
X131156286Y-112840467D01*
X131156288Y-112840470D01*
X131156289Y-112840471D01*
X131259529Y-112943711D01*
X131385971Y-113016712D01*
X131522360Y-113053257D01*
X131529738Y-113056888D01*
X131534796Y-113057303D01*
X131547943Y-113065848D01*
X131565596Y-113074537D01*
X131572128Y-113079533D01*
X131636281Y-113143686D01*
X131709773Y-113186116D01*
X131728593Y-113196981D01*
X131734215Y-113200228D01*
X131734216Y-113200228D01*
X131734219Y-113200230D01*
X131843455Y-113229500D01*
X131881138Y-113229500D01*
X131948177Y-113249185D01*
X131993932Y-113301989D01*
X132003876Y-113371147D01*
X131985000Y-113412479D01*
X131985000Y-115953000D01*
X132107828Y-115953000D01*
X132107844Y-115952999D01*
X132167372Y-115946598D01*
X132167379Y-115946596D01*
X132302086Y-115896354D01*
X132302093Y-115896350D01*
X132417186Y-115810191D01*
X132468086Y-115742198D01*
X132524020Y-115700327D01*
X132591544Y-115694892D01*
X132633761Y-115703288D01*
X132654933Y-115707500D01*
X133355066Y-115707499D01*
X133429301Y-115692734D01*
X133513484Y-115636484D01*
X133569734Y-115552301D01*
X133584500Y-115478067D01*
X133584500Y-114829566D01*
X139050001Y-114829566D01*
X139056178Y-114897561D01*
X139056181Y-114897572D01*
X139104944Y-115054060D01*
X139104946Y-115054064D01*
X139189743Y-115194337D01*
X139189747Y-115194342D01*
X139305657Y-115310252D01*
X139305662Y-115310256D01*
X139445934Y-115395052D01*
X139602442Y-115443821D01*
X139602440Y-115443821D01*
X139649999Y-115448142D01*
X139650000Y-115448142D01*
X139650000Y-114300000D01*
X139050001Y-114300000D01*
X139050001Y-114829566D01*
X133584500Y-114829566D01*
X133584499Y-113899934D01*
X133569734Y-113825699D01*
X133513484Y-113741516D01*
X133489605Y-113725560D01*
X133444803Y-113671949D01*
X133434500Y-113622461D01*
X133434500Y-113270443D01*
X139050000Y-113270443D01*
X139050000Y-113800000D01*
X139650000Y-113800000D01*
X139650000Y-112651857D01*
X139649999Y-112651857D01*
X139602441Y-112656178D01*
X139445934Y-112704947D01*
X139305662Y-112789743D01*
X139305657Y-112789747D01*
X139189747Y-112905657D01*
X139189743Y-112905662D01*
X139104947Y-113045934D01*
X139056179Y-113202437D01*
X139050000Y-113270443D01*
X133434500Y-113270443D01*
X133434500Y-112651856D01*
X140150000Y-112651856D01*
X140150000Y-115448141D01*
X140197561Y-115443821D01*
X140197570Y-115443819D01*
X140354060Y-115395055D01*
X140354064Y-115395053D01*
X140494337Y-115310256D01*
X140576801Y-115227792D01*
X140638124Y-115194307D01*
X140705437Y-115198432D01*
X140714549Y-115201621D01*
X140714555Y-115201621D01*
X140714558Y-115201622D01*
X140721526Y-115202275D01*
X140745251Y-115204500D01*
X141254748Y-115204499D01*
X141285451Y-115201621D01*
X141414773Y-115156369D01*
X141476366Y-115110910D01*
X141541995Y-115086940D01*
X141610166Y-115102255D01*
X141623633Y-115110910D01*
X141685227Y-115156369D01*
X141692792Y-115159016D01*
X141814541Y-115201619D01*
X141814545Y-115201619D01*
X141814549Y-115201621D01*
X141845251Y-115204500D01*
X142354748Y-115204499D01*
X142385451Y-115201621D01*
X142514773Y-115156369D01*
X142576366Y-115110910D01*
X142641995Y-115086940D01*
X142710166Y-115102255D01*
X142723633Y-115110910D01*
X142785227Y-115156369D01*
X142792792Y-115159016D01*
X142914541Y-115201619D01*
X142914545Y-115201619D01*
X142914549Y-115201621D01*
X142945251Y-115204500D01*
X143454748Y-115204499D01*
X143485451Y-115201621D01*
X143614773Y-115156369D01*
X143676366Y-115110910D01*
X143741995Y-115086940D01*
X143810166Y-115102255D01*
X143823633Y-115110910D01*
X143885227Y-115156369D01*
X143892792Y-115159016D01*
X144014541Y-115201619D01*
X144014545Y-115201619D01*
X144014549Y-115201621D01*
X144045251Y-115204500D01*
X144554748Y-115204499D01*
X144585451Y-115201621D01*
X144714773Y-115156369D01*
X144722866Y-115150395D01*
X144788491Y-115126424D01*
X144856662Y-115141737D01*
X144905732Y-115191476D01*
X144920500Y-115250165D01*
X144920500Y-115788291D01*
X144903888Y-115850289D01*
X144883290Y-115885966D01*
X144883288Y-115885971D01*
X144845500Y-116026999D01*
X144845500Y-116173001D01*
X144864004Y-116242057D01*
X144883288Y-116314028D01*
X144883289Y-116314031D01*
X144956286Y-116440467D01*
X144956288Y-116440470D01*
X144956289Y-116440471D01*
X145059529Y-116543711D01*
X145185971Y-116616712D01*
X145326999Y-116654500D01*
X145327001Y-116654500D01*
X145472999Y-116654500D01*
X145473001Y-116654500D01*
X145614029Y-116616712D01*
X145740471Y-116543711D01*
X145843711Y-116440471D01*
X145916712Y-116314029D01*
X145954500Y-116173001D01*
X145954500Y-116026999D01*
X145916712Y-115885971D01*
X145907809Y-115870550D01*
X145896112Y-115850289D01*
X145879500Y-115788291D01*
X145879500Y-115250165D01*
X145899185Y-115183126D01*
X145951989Y-115137371D01*
X146021147Y-115127427D01*
X146077133Y-115150395D01*
X146085227Y-115156369D01*
X146085228Y-115156369D01*
X146085229Y-115156370D01*
X146214541Y-115201619D01*
X146214545Y-115201619D01*
X146214549Y-115201621D01*
X146245251Y-115204500D01*
X146754748Y-115204499D01*
X146785451Y-115201621D01*
X146914773Y-115156369D01*
X146976366Y-115110910D01*
X147041995Y-115086940D01*
X147110166Y-115102255D01*
X147123633Y-115110910D01*
X147185227Y-115156369D01*
X147192792Y-115159016D01*
X147314541Y-115201619D01*
X147314545Y-115201619D01*
X147314549Y-115201621D01*
X147345251Y-115204500D01*
X147854748Y-115204499D01*
X147885451Y-115201621D01*
X148014773Y-115156369D01*
X148092982Y-115098647D01*
X148158607Y-115074678D01*
X148226778Y-115089993D01*
X148240236Y-115098642D01*
X148322041Y-115159016D01*
X148444249Y-115201779D01*
X148473267Y-115204500D01*
X148926732Y-115204499D01*
X148955751Y-115201779D01*
X149077959Y-115159016D01*
X149182133Y-115082133D01*
X149259016Y-114977959D01*
X149301779Y-114855751D01*
X149304500Y-114826733D01*
X149304499Y-113273268D01*
X149301779Y-113244249D01*
X149259016Y-113122041D01*
X149212379Y-113058850D01*
X149182133Y-113017867D01*
X149182132Y-113017866D01*
X149077960Y-112940984D01*
X149077961Y-112940984D01*
X148955755Y-112898222D01*
X148955746Y-112898220D01*
X148926737Y-112895500D01*
X148473269Y-112895500D01*
X148444253Y-112898220D01*
X148444244Y-112898222D01*
X148322042Y-112940983D01*
X148318346Y-112943711D01*
X148243700Y-112998802D01*
X148240246Y-113001351D01*
X148174617Y-113025321D01*
X148106447Y-113010005D01*
X148092979Y-113001350D01*
X148076366Y-112989089D01*
X148014773Y-112943631D01*
X148014771Y-112943630D01*
X147885458Y-112898380D01*
X147885446Y-112898378D01*
X147854753Y-112895500D01*
X147345257Y-112895500D01*
X147329900Y-112896940D01*
X147314549Y-112898379D01*
X147314546Y-112898379D01*
X147314544Y-112898380D01*
X147185228Y-112943630D01*
X147123633Y-112989089D01*
X147058004Y-113013059D01*
X146989833Y-112997743D01*
X146976367Y-112989089D01*
X146940594Y-112962688D01*
X146914773Y-112943631D01*
X146914771Y-112943630D01*
X146785458Y-112898380D01*
X146785446Y-112898378D01*
X146754753Y-112895500D01*
X146245257Y-112895500D01*
X146229900Y-112896940D01*
X146214549Y-112898379D01*
X146214546Y-112898379D01*
X146214544Y-112898380D01*
X146085228Y-112943630D01*
X146023633Y-112989089D01*
X145958004Y-113013059D01*
X145889833Y-112997743D01*
X145876367Y-112989089D01*
X145840594Y-112962688D01*
X145814773Y-112943631D01*
X145814771Y-112943630D01*
X145685458Y-112898380D01*
X145685446Y-112898378D01*
X145654753Y-112895500D01*
X145145257Y-112895500D01*
X145129900Y-112896940D01*
X145114549Y-112898379D01*
X145114546Y-112898379D01*
X145114544Y-112898380D01*
X144985228Y-112943630D01*
X144923633Y-112989089D01*
X144858004Y-113013059D01*
X144789833Y-112997743D01*
X144776367Y-112989089D01*
X144740594Y-112962688D01*
X144714773Y-112943631D01*
X144714771Y-112943630D01*
X144585458Y-112898380D01*
X144585446Y-112898378D01*
X144554753Y-112895500D01*
X144045257Y-112895500D01*
X144029900Y-112896940D01*
X144014549Y-112898379D01*
X144014546Y-112898379D01*
X144014544Y-112898380D01*
X143885228Y-112943630D01*
X143823633Y-112989089D01*
X143758004Y-113013059D01*
X143689833Y-112997743D01*
X143676367Y-112989089D01*
X143640594Y-112962688D01*
X143614773Y-112943631D01*
X143614771Y-112943630D01*
X143485458Y-112898380D01*
X143485446Y-112898378D01*
X143454753Y-112895500D01*
X142945257Y-112895500D01*
X142929900Y-112896940D01*
X142914549Y-112898379D01*
X142914546Y-112898379D01*
X142914544Y-112898380D01*
X142785228Y-112943630D01*
X142723633Y-112989089D01*
X142699836Y-112997780D01*
X142677741Y-113010175D01*
X142667572Y-113009564D01*
X142658004Y-113013059D01*
X142633285Y-113007505D01*
X142607997Y-113005987D01*
X142594548Y-112998802D01*
X142589833Y-112997743D01*
X142576829Y-112989428D01*
X142576459Y-112989158D01*
X142514773Y-112943631D01*
X142513618Y-112943227D01*
X142505329Y-112937168D01*
X142489323Y-112916288D01*
X142470472Y-112897935D01*
X142467983Y-112888450D01*
X142462821Y-112881716D01*
X142461248Y-112862781D01*
X142454500Y-112837058D01*
X142454500Y-112352200D01*
X142474185Y-112285161D01*
X142490819Y-112264519D01*
X143674519Y-111080819D01*
X143735842Y-111047334D01*
X143762200Y-111044500D01*
X143836999Y-111044500D01*
X143837001Y-111044500D01*
X143978029Y-111006712D01*
X144104471Y-110933711D01*
X144207711Y-110830471D01*
X144280712Y-110704029D01*
X144318500Y-110563001D01*
X144318500Y-110416999D01*
X144280712Y-110275971D01*
X144207711Y-110149529D01*
X144104471Y-110046289D01*
X144104470Y-110046288D01*
X144104467Y-110046286D01*
X143978031Y-109973289D01*
X143978030Y-109973288D01*
X143978029Y-109973288D01*
X143837001Y-109935500D01*
X143690999Y-109935500D01*
X143549971Y-109973288D01*
X143549970Y-109973288D01*
X143422332Y-110046979D01*
X143354432Y-110063450D01*
X143288405Y-110040598D01*
X143252946Y-110001591D01*
X143191713Y-109895532D01*
X143191709Y-109895527D01*
X143088472Y-109792290D01*
X143088467Y-109792286D01*
X142962031Y-109719289D01*
X142962030Y-109719288D01*
X142962029Y-109719288D01*
X142821001Y-109681500D01*
X142674999Y-109681500D01*
X142533971Y-109719288D01*
X142533968Y-109719289D01*
X142407532Y-109792286D01*
X142407527Y-109792290D01*
X142304290Y-109895527D01*
X142304286Y-109895532D01*
X142231289Y-110021968D01*
X142231288Y-110021971D01*
X142193498Y-110163004D01*
X142192600Y-110169829D01*
X142164329Y-110233724D01*
X142157343Y-110241317D01*
X140716330Y-111682330D01*
X140716328Y-111682333D01*
X140669659Y-111763167D01*
X140645500Y-111853330D01*
X140645500Y-112661267D01*
X140625815Y-112728306D01*
X140573011Y-112774061D01*
X140503853Y-112784005D01*
X140457351Y-112767385D01*
X140354062Y-112704946D01*
X140197562Y-112656179D01*
X140150000Y-112651856D01*
X133434500Y-112651856D01*
X133434500Y-110024267D01*
X133454185Y-109957228D01*
X133470819Y-109936586D01*
X134441586Y-108965819D01*
X134502909Y-108932334D01*
X134529267Y-108929500D01*
X154256542Y-108929500D01*
X154256545Y-108929500D01*
X154365781Y-108900230D01*
X154401628Y-108879533D01*
X154463719Y-108843686D01*
X156341586Y-106965819D01*
X156402909Y-106932334D01*
X156429267Y-106929500D01*
X159864733Y-106929500D01*
X159931772Y-106949185D01*
X159952414Y-106965819D01*
X160215181Y-107228585D01*
X160248666Y-107289908D01*
X160251500Y-107316266D01*
X160251500Y-108289500D01*
X160231815Y-108356539D01*
X160179011Y-108402294D01*
X160127500Y-108413500D01*
X159897354Y-108413500D01*
X159845676Y-108421029D01*
X159828448Y-108423539D01*
X159760460Y-108456777D01*
X159691587Y-108468535D01*
X159651540Y-108456777D01*
X159583551Y-108423539D01*
X159573706Y-108422104D01*
X159514646Y-108413500D01*
X159247354Y-108413500D01*
X159178450Y-108423539D01*
X159178448Y-108423539D01*
X159178446Y-108423540D01*
X159072160Y-108475499D01*
X158988499Y-108559160D01*
X158936540Y-108665446D01*
X158936539Y-108665448D01*
X158936539Y-108665450D01*
X158926500Y-108734354D01*
X158926500Y-108734356D01*
X158926500Y-108734359D01*
X158926500Y-109307299D01*
X158906815Y-109374338D01*
X158890181Y-109394980D01*
X153575980Y-114709181D01*
X153514657Y-114742666D01*
X153488299Y-114745500D01*
X150746671Y-114745500D01*
X150653329Y-114745500D01*
X150593221Y-114761606D01*
X150563167Y-114769659D01*
X150482333Y-114816328D01*
X150482330Y-114816330D01*
X147502713Y-117795947D01*
X147441390Y-117829432D01*
X147371698Y-117824448D01*
X147315765Y-117782576D01*
X147307645Y-117770266D01*
X147243713Y-117659532D01*
X147243709Y-117659527D01*
X147140472Y-117556290D01*
X147140467Y-117556286D01*
X147014031Y-117483289D01*
X147014030Y-117483288D01*
X147014029Y-117483288D01*
X146873001Y-117445500D01*
X146726999Y-117445500D01*
X146585971Y-117483288D01*
X146585968Y-117483289D01*
X146459532Y-117556286D01*
X146459527Y-117556290D01*
X146406637Y-117609181D01*
X146345314Y-117642666D01*
X146318956Y-117645500D01*
X142981044Y-117645500D01*
X142914005Y-117625815D01*
X142893363Y-117609181D01*
X142840472Y-117556290D01*
X142840467Y-117556286D01*
X142714031Y-117483289D01*
X142714030Y-117483288D01*
X142714029Y-117483288D01*
X142573001Y-117445500D01*
X142426999Y-117445500D01*
X142285971Y-117483288D01*
X142285968Y-117483289D01*
X142159532Y-117556286D01*
X142159527Y-117556290D01*
X142056290Y-117659527D01*
X142056286Y-117659532D01*
X141983289Y-117785968D01*
X141983288Y-117785971D01*
X141945500Y-117926999D01*
X141945500Y-118073001D01*
X141979998Y-118201748D01*
X141983288Y-118214028D01*
X141983288Y-118214029D01*
X142009541Y-118259501D01*
X142009898Y-118260975D01*
X142010970Y-118262046D01*
X142018104Y-118294803D01*
X142026012Y-118327401D01*
X142025516Y-118328833D01*
X142025839Y-118330315D01*
X142014125Y-118361745D01*
X142003160Y-118393428D01*
X142001968Y-118394364D01*
X142001439Y-118395786D01*
X141974585Y-118415898D01*
X141948238Y-118436618D01*
X141946338Y-118437055D01*
X141945516Y-118437671D01*
X141936920Y-118439222D01*
X141911030Y-118445182D01*
X141906599Y-118445500D01*
X141853329Y-118445500D01*
X141833836Y-118450722D01*
X141822042Y-118451569D01*
X141804065Y-118447663D01*
X141781075Y-118447663D01*
X141773003Y-118445500D01*
X141773001Y-118445500D01*
X141626999Y-118445500D01*
X141485971Y-118483288D01*
X141485968Y-118483289D01*
X141359532Y-118556286D01*
X141359527Y-118556290D01*
X141256290Y-118659527D01*
X141256286Y-118659532D01*
X141183289Y-118785968D01*
X141183288Y-118785971D01*
X141145500Y-118926999D01*
X141145500Y-119073001D01*
X141181731Y-119208216D01*
X141183288Y-119214028D01*
X141183289Y-119214031D01*
X141256286Y-119340467D01*
X141256288Y-119340469D01*
X141256289Y-119340471D01*
X141359529Y-119443711D01*
X141359530Y-119443712D01*
X141359532Y-119443713D01*
X141379678Y-119455344D01*
X141485971Y-119516712D01*
X141626999Y-119554500D01*
X141627001Y-119554500D01*
X141772999Y-119554500D01*
X141773001Y-119554500D01*
X141914029Y-119516712D01*
X142040471Y-119443711D01*
X142143711Y-119340471D01*
X142215285Y-119216499D01*
X142223972Y-119208216D01*
X142228959Y-119197297D01*
X142248790Y-119184551D01*
X142265851Y-119168285D01*
X142279107Y-119165068D01*
X142287737Y-119159523D01*
X142322672Y-119154500D01*
X142402153Y-119154500D01*
X142469192Y-119174185D01*
X142514947Y-119226989D01*
X142524891Y-119296147D01*
X142509541Y-119340499D01*
X142483288Y-119385970D01*
X142483288Y-119385971D01*
X142445500Y-119526999D01*
X142445500Y-119673001D01*
X142478014Y-119794344D01*
X142483288Y-119814028D01*
X142483289Y-119814031D01*
X142556286Y-119940467D01*
X142556288Y-119940470D01*
X142556289Y-119940471D01*
X142659529Y-120043711D01*
X142659530Y-120043712D01*
X142659532Y-120043713D01*
X142674880Y-120052574D01*
X142785971Y-120116712D01*
X142926999Y-120154500D01*
X142927001Y-120154500D01*
X143072999Y-120154500D01*
X143073001Y-120154500D01*
X143214029Y-120116712D01*
X143340471Y-120043711D01*
X143393363Y-119990819D01*
X143454686Y-119957334D01*
X143481044Y-119954500D01*
X147346669Y-119954500D01*
X147346671Y-119954500D01*
X147436832Y-119930341D01*
X147517668Y-119883671D01*
X148233820Y-119167518D01*
X148295142Y-119134034D01*
X148364833Y-119139018D01*
X148420767Y-119180890D01*
X148445184Y-119246354D01*
X148445500Y-119255200D01*
X148445500Y-119273001D01*
X148478818Y-119397344D01*
X148483288Y-119414028D01*
X148483289Y-119414031D01*
X148556286Y-119540467D01*
X148556288Y-119540470D01*
X148556289Y-119540471D01*
X148659529Y-119643711D01*
X148659530Y-119643712D01*
X148659532Y-119643713D01*
X148710259Y-119673000D01*
X148785971Y-119716712D01*
X148926999Y-119754500D01*
X148927001Y-119754500D01*
X149072999Y-119754500D01*
X149073001Y-119754500D01*
X149214029Y-119716712D01*
X149336311Y-119646113D01*
X149398311Y-119629500D01*
X149693720Y-119629500D01*
X149760759Y-119649185D01*
X149796624Y-119687706D01*
X149797344Y-119687168D01*
X149802349Y-119693854D01*
X149802551Y-119694071D01*
X149802657Y-119694266D01*
X149889595Y-119810404D01*
X149947443Y-119853707D01*
X150005733Y-119897342D01*
X150141658Y-119948040D01*
X150201745Y-119954500D01*
X150998254Y-119954499D01*
X151058342Y-119948040D01*
X151194267Y-119897342D01*
X151310404Y-119810404D01*
X151397342Y-119694267D01*
X151448040Y-119558342D01*
X151451410Y-119526999D01*
X151454499Y-119498271D01*
X151454499Y-119498264D01*
X151454500Y-119498255D01*
X151454499Y-118501746D01*
X151448040Y-118441658D01*
X151403346Y-118321832D01*
X151401157Y-118291223D01*
X151396791Y-118260853D01*
X151398688Y-118256697D01*
X151398363Y-118252143D01*
X151413066Y-118225213D01*
X151425816Y-118197297D01*
X151429658Y-118194827D01*
X151431847Y-118190819D01*
X151458780Y-118176111D01*
X151484594Y-118159523D01*
X151490793Y-118158631D01*
X151493170Y-118157334D01*
X151519529Y-118154500D01*
X151680471Y-118154500D01*
X151747510Y-118174185D01*
X151793265Y-118226989D01*
X151803209Y-118296147D01*
X151796653Y-118321830D01*
X151763340Y-118411147D01*
X151751959Y-118441661D01*
X151745500Y-118501728D01*
X151745500Y-119498251D01*
X151745501Y-119498257D01*
X151751960Y-119558344D01*
X151802655Y-119694261D01*
X151802656Y-119694264D01*
X151802658Y-119694267D01*
X151819459Y-119716711D01*
X151889595Y-119810404D01*
X151947443Y-119853707D01*
X152005733Y-119897342D01*
X152089835Y-119928711D01*
X152145767Y-119970580D01*
X152170184Y-120036045D01*
X152170500Y-120044891D01*
X152170500Y-120301688D01*
X152153888Y-120363687D01*
X152083288Y-120485970D01*
X152083288Y-120485971D01*
X152045500Y-120626999D01*
X152045500Y-120773000D01*
X152083288Y-120914028D01*
X152083289Y-120914031D01*
X152156286Y-121040467D01*
X152156288Y-121040470D01*
X152156289Y-121040471D01*
X152259529Y-121143711D01*
X152259530Y-121143712D01*
X152259532Y-121143713D01*
X152311986Y-121173997D01*
X152385971Y-121216712D01*
X152526999Y-121254500D01*
X152527001Y-121254500D01*
X152672999Y-121254500D01*
X152673001Y-121254500D01*
X152814029Y-121216712D01*
X152940471Y-121143711D01*
X153043711Y-121040471D01*
X153116712Y-120914029D01*
X153154500Y-120773001D01*
X153154500Y-120626999D01*
X153116712Y-120485971D01*
X153079911Y-120422230D01*
X153046112Y-120363687D01*
X153029500Y-120301688D01*
X153029500Y-120044891D01*
X153049185Y-119977852D01*
X153101989Y-119932097D01*
X153110141Y-119928719D01*
X153194267Y-119897342D01*
X153310404Y-119810404D01*
X153397342Y-119694267D01*
X153448040Y-119558342D01*
X153451410Y-119526999D01*
X153454499Y-119498271D01*
X153454499Y-119498264D01*
X153454500Y-119498255D01*
X153454499Y-118501746D01*
X153448040Y-118441658D01*
X153447532Y-118440297D01*
X153397344Y-118305738D01*
X153397343Y-118305737D01*
X153397342Y-118305733D01*
X153351356Y-118244302D01*
X153310404Y-118189595D01*
X153213041Y-118116712D01*
X153194267Y-118102658D01*
X153058342Y-118051960D01*
X153058338Y-118051959D01*
X152998263Y-118045500D01*
X152998255Y-118045500D01*
X152996340Y-118045500D01*
X152198426Y-118045501D01*
X152198426Y-118043933D01*
X152136448Y-118029276D01*
X152087941Y-117978988D01*
X152074323Y-117910459D01*
X152090440Y-117859533D01*
X152090441Y-117859532D01*
X152116712Y-117814029D01*
X152154500Y-117673001D01*
X152154500Y-117598201D01*
X152163144Y-117568760D01*
X152169668Y-117538774D01*
X152173422Y-117533758D01*
X152174185Y-117531162D01*
X152190819Y-117510520D01*
X152360520Y-117340819D01*
X152421843Y-117307334D01*
X152448201Y-117304500D01*
X159770799Y-117304500D01*
X159837838Y-117324185D01*
X159883593Y-117376989D01*
X159893537Y-117446147D01*
X159864512Y-117509703D01*
X159858480Y-117516181D01*
X159720330Y-117654330D01*
X159720328Y-117654333D01*
X159673659Y-117735167D01*
X159664254Y-117770266D01*
X159652528Y-117814031D01*
X159647397Y-117833179D01*
X159644114Y-117832299D01*
X159621621Y-117882040D01*
X159562983Y-117920032D01*
X159553168Y-117922003D01*
X159553209Y-117922175D01*
X159545657Y-117923959D01*
X159409738Y-117974655D01*
X159409730Y-117974660D01*
X159293595Y-118061595D01*
X159213636Y-118168411D01*
X159206658Y-118177733D01*
X159155960Y-118313658D01*
X159155959Y-118313662D01*
X159149500Y-118373728D01*
X159149500Y-119173798D01*
X159140855Y-119203235D01*
X159134332Y-119233226D01*
X159130577Y-119238241D01*
X159129815Y-119240837D01*
X159113182Y-119261477D01*
X159113180Y-119261480D01*
X159070179Y-119304480D01*
X159008856Y-119337965D01*
X158939164Y-119332979D01*
X158883231Y-119291107D01*
X158858815Y-119225643D01*
X158858499Y-119216821D01*
X158858499Y-118373746D01*
X158852040Y-118313658D01*
X158842715Y-118288658D01*
X158801344Y-118177738D01*
X158801343Y-118177737D01*
X158801342Y-118177733D01*
X158726594Y-118077880D01*
X158714404Y-118061595D01*
X158637126Y-118003747D01*
X158598267Y-117974658D01*
X158462342Y-117923960D01*
X158462338Y-117923959D01*
X158402263Y-117917500D01*
X157605748Y-117917500D01*
X157605742Y-117917501D01*
X157545655Y-117923960D01*
X157409738Y-117974655D01*
X157409730Y-117974660D01*
X157293595Y-118061595D01*
X157213636Y-118168411D01*
X157206658Y-118177733D01*
X157155960Y-118313658D01*
X157155959Y-118313662D01*
X157149500Y-118373728D01*
X157149500Y-118393500D01*
X157129815Y-118460539D01*
X157077011Y-118506294D01*
X157025500Y-118517500D01*
X154981329Y-118517500D01*
X154921221Y-118533606D01*
X154891167Y-118541659D01*
X154810333Y-118588328D01*
X154810330Y-118588330D01*
X154689480Y-118709181D01*
X154628157Y-118742666D01*
X154601799Y-118745500D01*
X154526999Y-118745500D01*
X154385971Y-118783288D01*
X154385968Y-118783289D01*
X154259532Y-118856286D01*
X154259527Y-118856290D01*
X154156290Y-118959527D01*
X154156286Y-118959532D01*
X154083289Y-119085968D01*
X154083288Y-119085971D01*
X154045500Y-119226999D01*
X154045500Y-119373001D01*
X154079062Y-119498255D01*
X154083288Y-119514028D01*
X154083289Y-119514031D01*
X154156286Y-119640467D01*
X154156288Y-119640470D01*
X154156289Y-119640471D01*
X154259529Y-119743711D01*
X154385971Y-119816712D01*
X154385973Y-119816712D01*
X154392665Y-119819485D01*
X154432894Y-119846365D01*
X154859181Y-120272652D01*
X154892666Y-120333975D01*
X154895500Y-120360333D01*
X154895500Y-122798082D01*
X154875815Y-122865121D01*
X154823011Y-122910876D01*
X154814843Y-122914259D01*
X154811835Y-122915381D01*
X154805734Y-122917657D01*
X154805730Y-122917660D01*
X154689595Y-123004595D01*
X154626038Y-123089500D01*
X154602658Y-123120733D01*
X154551960Y-123256658D01*
X154551959Y-123256662D01*
X154545500Y-123316728D01*
X154545500Y-124053733D01*
X154539261Y-124074978D01*
X154537682Y-124097067D01*
X154529609Y-124107850D01*
X154525815Y-124120772D01*
X154509081Y-124135271D01*
X154495810Y-124153000D01*
X154483189Y-124157707D01*
X154473011Y-124166527D01*
X154451093Y-124169678D01*
X154430346Y-124177417D01*
X154417185Y-124174554D01*
X154403853Y-124176471D01*
X154383709Y-124167271D01*
X154362073Y-124162565D01*
X154344347Y-124149296D01*
X154340297Y-124147446D01*
X154333819Y-124141414D01*
X154290818Y-124098413D01*
X154257333Y-124037090D01*
X154254499Y-124010732D01*
X154254499Y-123316748D01*
X154254499Y-123316745D01*
X154248040Y-123256658D01*
X154241085Y-123238011D01*
X154197344Y-123120738D01*
X154197343Y-123120736D01*
X154197342Y-123120733D01*
X154119698Y-123017011D01*
X154110404Y-123004595D01*
X154015305Y-122933407D01*
X153994267Y-122917658D01*
X153858342Y-122866960D01*
X153858338Y-122866959D01*
X153798263Y-122860500D01*
X153001748Y-122860500D01*
X153001742Y-122860501D01*
X152941655Y-122866960D01*
X152805738Y-122917655D01*
X152805730Y-122917660D01*
X152689595Y-123004595D01*
X152626038Y-123089500D01*
X152602658Y-123120733D01*
X152551960Y-123256658D01*
X152551959Y-123256662D01*
X152545500Y-123316728D01*
X152545500Y-124313251D01*
X152545501Y-124313257D01*
X152551960Y-124373344D01*
X152602655Y-124509261D01*
X152602656Y-124509264D01*
X152602658Y-124509267D01*
X152631747Y-124548126D01*
X152689595Y-124625404D01*
X152731216Y-124656560D01*
X152805733Y-124712342D01*
X152941658Y-124763040D01*
X153001745Y-124769500D01*
X153695732Y-124769499D01*
X153762771Y-124789183D01*
X153783413Y-124805818D01*
X155059181Y-126081586D01*
X155073884Y-126108513D01*
X155090477Y-126134332D01*
X155091368Y-126140532D01*
X155092666Y-126142909D01*
X155095500Y-126169267D01*
X155095500Y-126179432D01*
X155075815Y-126246471D01*
X155023011Y-126292226D01*
X155014836Y-126295613D01*
X154955734Y-126317657D01*
X154955730Y-126317660D01*
X154839595Y-126404595D01*
X154752660Y-126520730D01*
X154752657Y-126520735D01*
X154746808Y-126536416D01*
X154704934Y-126592348D01*
X154639468Y-126616761D01*
X154571196Y-126601906D01*
X154521793Y-126552499D01*
X154512922Y-126532080D01*
X154484359Y-126445882D01*
X154484356Y-126445875D01*
X154392315Y-126296654D01*
X154268345Y-126172684D01*
X154119124Y-126080643D01*
X154119119Y-126080641D01*
X153952697Y-126025494D01*
X153952690Y-126025493D01*
X153849986Y-126015000D01*
X153725000Y-126015000D01*
X153725000Y-128414999D01*
X153849972Y-128414999D01*
X153849986Y-128414998D01*
X153952697Y-128404505D01*
X154119119Y-128349358D01*
X154119124Y-128349356D01*
X154268345Y-128257315D01*
X154392315Y-128133345D01*
X154484356Y-127984124D01*
X154484359Y-127984117D01*
X154512922Y-127897918D01*
X154552694Y-127840473D01*
X154617209Y-127813649D01*
X154685985Y-127825963D01*
X154737186Y-127873506D01*
X154746808Y-127893583D01*
X154752658Y-127909267D01*
X154781747Y-127948126D01*
X154839595Y-128025404D01*
X154897443Y-128068707D01*
X154955733Y-128112342D01*
X155091658Y-128163040D01*
X155151745Y-128169500D01*
X155898254Y-128169499D01*
X155958342Y-128163040D01*
X156094267Y-128112342D01*
X156210404Y-128025404D01*
X156297342Y-127909267D01*
X156348040Y-127773342D01*
X156350800Y-127747664D01*
X156354499Y-127713271D01*
X156354499Y-127713264D01*
X156354500Y-127713255D01*
X156354499Y-126716746D01*
X156348040Y-126656658D01*
X156333159Y-126616761D01*
X156297344Y-126520738D01*
X156297343Y-126520737D01*
X156297342Y-126520733D01*
X156241310Y-126445882D01*
X156210404Y-126404595D01*
X156132800Y-126346503D01*
X156094267Y-126317658D01*
X156094265Y-126317657D01*
X156035164Y-126295613D01*
X155979232Y-126253741D01*
X155954816Y-126188276D01*
X155954500Y-126179432D01*
X155954500Y-125883457D01*
X155954500Y-125883455D01*
X155925230Y-125774219D01*
X155925228Y-125774216D01*
X155925228Y-125774214D01*
X155925227Y-125774213D01*
X155904534Y-125738372D01*
X155904532Y-125738370D01*
X155868686Y-125676281D01*
X155173585Y-124981180D01*
X155140100Y-124919857D01*
X155145084Y-124850165D01*
X155152748Y-124839928D01*
X158020500Y-124839928D01*
X158020500Y-126590063D01*
X158035266Y-126664301D01*
X158091515Y-126748484D01*
X158125234Y-126771014D01*
X158175699Y-126804734D01*
X158175702Y-126804734D01*
X158175703Y-126804735D01*
X158188609Y-126807302D01*
X158249933Y-126819500D01*
X160000066Y-126819499D01*
X160074301Y-126804734D01*
X160158484Y-126748484D01*
X160214734Y-126664301D01*
X160229500Y-126590067D01*
X160229499Y-125628074D01*
X160560500Y-125628074D01*
X160560500Y-125801925D01*
X160587697Y-125973639D01*
X160587697Y-125973642D01*
X160641418Y-126138978D01*
X160713304Y-126280061D01*
X160720347Y-126293884D01*
X160822535Y-126434533D01*
X160945467Y-126557465D01*
X161086116Y-126659653D01*
X161241019Y-126738580D01*
X161241021Y-126738581D01*
X161406358Y-126792302D01*
X161406359Y-126792302D01*
X161406362Y-126792303D01*
X161578074Y-126819500D01*
X161578075Y-126819500D01*
X161751925Y-126819500D01*
X161751926Y-126819500D01*
X161923638Y-126792303D01*
X161923641Y-126792302D01*
X161923642Y-126792302D01*
X162088978Y-126738581D01*
X162088978Y-126738580D01*
X162088981Y-126738580D01*
X162243884Y-126659653D01*
X162384533Y-126557465D01*
X162507465Y-126434533D01*
X162609653Y-126293884D01*
X162688580Y-126138981D01*
X162696358Y-126115044D01*
X162742302Y-125973642D01*
X162742302Y-125973641D01*
X162742303Y-125973638D01*
X162769500Y-125801926D01*
X162769500Y-125628074D01*
X162742303Y-125456362D01*
X162742302Y-125456358D01*
X162742302Y-125456357D01*
X162688581Y-125291021D01*
X162621083Y-125158549D01*
X162609653Y-125136116D01*
X162507465Y-124995467D01*
X162384533Y-124872535D01*
X162243884Y-124770347D01*
X162229535Y-124763036D01*
X162088978Y-124691418D01*
X161923641Y-124637697D01*
X161780110Y-124614964D01*
X161751926Y-124610500D01*
X161578074Y-124610500D01*
X161549890Y-124614964D01*
X161406360Y-124637697D01*
X161406357Y-124637697D01*
X161241021Y-124691418D01*
X161086115Y-124770347D01*
X161009906Y-124825717D01*
X160945467Y-124872535D01*
X160945465Y-124872537D01*
X160945464Y-124872537D01*
X160822537Y-124995464D01*
X160822537Y-124995465D01*
X160822535Y-124995467D01*
X160802935Y-125022444D01*
X160720347Y-125136115D01*
X160641418Y-125291021D01*
X160587697Y-125456357D01*
X160587697Y-125456360D01*
X160560500Y-125628074D01*
X160229499Y-125628074D01*
X160229499Y-124839934D01*
X160214734Y-124765699D01*
X160182635Y-124717660D01*
X160158484Y-124681515D01*
X160106930Y-124647068D01*
X160074301Y-124625266D01*
X160074299Y-124625265D01*
X160074296Y-124625264D01*
X160000069Y-124610500D01*
X158249936Y-124610500D01*
X158175698Y-124625266D01*
X158091515Y-124681515D01*
X158035266Y-124765699D01*
X158035264Y-124765703D01*
X158020500Y-124839928D01*
X155152748Y-124839928D01*
X155186956Y-124794232D01*
X155252420Y-124769815D01*
X155261247Y-124769499D01*
X155798254Y-124769499D01*
X155858342Y-124763040D01*
X155994267Y-124712342D01*
X156110404Y-124625404D01*
X156197342Y-124509267D01*
X156238036Y-124400163D01*
X156279906Y-124344233D01*
X156345370Y-124319816D01*
X156354216Y-124319500D01*
X159969416Y-124319500D01*
X159969419Y-124319500D01*
X160097730Y-124285119D01*
X160139837Y-124260808D01*
X160212770Y-124218701D01*
X162384701Y-122046770D01*
X162435878Y-121958128D01*
X162451119Y-121931730D01*
X162485500Y-121803419D01*
X162485500Y-119350500D01*
X162488050Y-119341814D01*
X162486762Y-119332853D01*
X162497740Y-119308812D01*
X162505185Y-119283461D01*
X162512025Y-119277533D01*
X162515787Y-119269297D01*
X162538021Y-119255007D01*
X162557989Y-119237706D01*
X162568503Y-119235418D01*
X162574565Y-119231523D01*
X162609500Y-119226500D01*
X162829501Y-119226500D01*
X162896540Y-119246185D01*
X162942295Y-119298989D01*
X162953501Y-119350500D01*
X162953501Y-119395257D01*
X162959960Y-119455344D01*
X163010655Y-119591261D01*
X163010656Y-119591264D01*
X163010658Y-119591267D01*
X163012940Y-119594315D01*
X163097595Y-119707404D01*
X163146094Y-119743709D01*
X163213733Y-119794342D01*
X163349658Y-119845040D01*
X163409745Y-119851500D01*
X164006254Y-119851499D01*
X164066342Y-119845040D01*
X164202267Y-119794342D01*
X164318404Y-119707404D01*
X164405342Y-119591267D01*
X164411190Y-119575587D01*
X164453060Y-119519655D01*
X164518525Y-119495238D01*
X164586798Y-119510090D01*
X164636203Y-119559495D01*
X164645077Y-119579918D01*
X164673641Y-119666119D01*
X164673643Y-119666124D01*
X164765684Y-119815345D01*
X164889654Y-119939315D01*
X165038875Y-120031356D01*
X165038880Y-120031358D01*
X165205302Y-120086505D01*
X165205309Y-120086506D01*
X165308019Y-120096999D01*
X165858000Y-120096999D01*
X165907972Y-120096999D01*
X165907986Y-120096998D01*
X166010697Y-120086505D01*
X166177119Y-120031358D01*
X166177124Y-120031356D01*
X166326345Y-119939315D01*
X166450315Y-119815345D01*
X166542356Y-119666124D01*
X166542358Y-119666119D01*
X166597505Y-119499697D01*
X166597506Y-119499690D01*
X166607999Y-119396986D01*
X166608000Y-119396973D01*
X166608000Y-119122000D01*
X165858000Y-119122000D01*
X165858000Y-120096999D01*
X165308019Y-120096999D01*
X165357999Y-120096998D01*
X165358000Y-120096998D01*
X165358000Y-118622000D01*
X165858000Y-118622000D01*
X166607999Y-118622000D01*
X166607999Y-118347028D01*
X166607998Y-118347013D01*
X166597505Y-118244302D01*
X166542358Y-118077880D01*
X166542356Y-118077875D01*
X166450315Y-117928654D01*
X166326345Y-117804684D01*
X166177124Y-117712643D01*
X166177119Y-117712641D01*
X166010697Y-117657494D01*
X166010690Y-117657493D01*
X165907986Y-117647000D01*
X165858000Y-117647000D01*
X165858000Y-118622000D01*
X165358000Y-118622000D01*
X165358000Y-117647000D01*
X165357999Y-117646999D01*
X165308029Y-117647000D01*
X165308011Y-117647001D01*
X165205302Y-117657494D01*
X165038880Y-117712641D01*
X165038875Y-117712643D01*
X164889654Y-117804684D01*
X164765684Y-117928654D01*
X164673643Y-118077875D01*
X164673641Y-118077880D01*
X164645077Y-118164082D01*
X164605304Y-118221527D01*
X164540788Y-118248350D01*
X164472012Y-118236035D01*
X164420813Y-118188492D01*
X164411191Y-118168417D01*
X164405342Y-118152733D01*
X164361707Y-118094443D01*
X164318404Y-118036595D01*
X164235665Y-117974659D01*
X164202267Y-117949658D01*
X164066342Y-117898960D01*
X164066338Y-117898959D01*
X164006263Y-117892500D01*
X163409748Y-117892500D01*
X163409742Y-117892501D01*
X163349655Y-117898960D01*
X163213738Y-117949655D01*
X163213730Y-117949660D01*
X163097595Y-118036595D01*
X163010660Y-118152730D01*
X163010658Y-118152733D01*
X162969886Y-118262046D01*
X162959959Y-118288662D01*
X162953500Y-118348728D01*
X162953500Y-118393500D01*
X162950949Y-118402185D01*
X162952238Y-118411147D01*
X162941259Y-118435187D01*
X162933815Y-118460539D01*
X162926974Y-118466466D01*
X162923213Y-118474703D01*
X162900978Y-118488992D01*
X162881011Y-118506294D01*
X162870496Y-118508581D01*
X162864435Y-118512477D01*
X162829500Y-118517500D01*
X162609500Y-118517500D01*
X162542461Y-118497815D01*
X162496706Y-118445011D01*
X162485500Y-118393500D01*
X162485500Y-116246500D01*
X162505185Y-116179461D01*
X162557989Y-116133706D01*
X162609500Y-116122500D01*
X162764640Y-116122500D01*
X162764646Y-116122500D01*
X162833550Y-116112461D01*
X162901539Y-116079222D01*
X162970412Y-116067463D01*
X163010461Y-116079223D01*
X163078447Y-116112460D01*
X163078448Y-116112460D01*
X163078450Y-116112461D01*
X163147354Y-116122500D01*
X163147360Y-116122500D01*
X163414640Y-116122500D01*
X163414646Y-116122500D01*
X163483550Y-116112461D01*
X163551539Y-116079222D01*
X163620412Y-116067463D01*
X163660461Y-116079223D01*
X163728447Y-116112460D01*
X163728448Y-116112460D01*
X163728450Y-116112461D01*
X163797354Y-116122500D01*
X163797360Y-116122500D01*
X164064640Y-116122500D01*
X164064646Y-116122500D01*
X164133550Y-116112461D01*
X164182012Y-116088769D01*
X164250881Y-116077010D01*
X164315178Y-116104352D01*
X164324151Y-116112489D01*
X164695333Y-116483671D01*
X164776169Y-116530341D01*
X164866330Y-116554500D01*
X164866332Y-116554500D01*
X167646669Y-116554500D01*
X167646671Y-116554500D01*
X167736832Y-116530341D01*
X167817668Y-116483671D01*
X168883671Y-115417668D01*
X168930342Y-115336831D01*
X168954501Y-115246671D01*
X168954501Y-115153329D01*
X168954501Y-115145734D01*
X168954500Y-115145716D01*
X168954500Y-114899970D01*
X168974185Y-114832931D01*
X169022205Y-114789485D01*
X169034217Y-114783364D01*
X169178884Y-114709653D01*
X169319533Y-114607465D01*
X169442465Y-114484533D01*
X169544653Y-114343884D01*
X169623580Y-114188981D01*
X169639982Y-114138500D01*
X169677302Y-114023642D01*
X169677302Y-114023641D01*
X169677303Y-114023638D01*
X169704500Y-113851926D01*
X169704500Y-113678074D01*
X169677303Y-113506362D01*
X169677302Y-113506358D01*
X169677302Y-113506357D01*
X169623581Y-113341021D01*
X169600260Y-113295251D01*
X169544653Y-113186116D01*
X169442465Y-113045467D01*
X169319533Y-112922535D01*
X169178884Y-112820347D01*
X169118828Y-112789747D01*
X169023978Y-112741418D01*
X168858641Y-112687697D01*
X168729854Y-112667299D01*
X168686926Y-112660500D01*
X168513074Y-112660500D01*
X168455836Y-112669565D01*
X168341360Y-112687697D01*
X168341357Y-112687697D01*
X168176021Y-112741418D01*
X168021115Y-112820347D01*
X167993416Y-112840472D01*
X167880467Y-112922535D01*
X167880465Y-112922537D01*
X167880464Y-112922537D01*
X167757537Y-113045464D01*
X167757537Y-113045465D01*
X167757535Y-113045467D01*
X167729294Y-113084337D01*
X167655347Y-113186115D01*
X167576418Y-113341021D01*
X167522697Y-113506357D01*
X167522697Y-113506360D01*
X167495500Y-113678074D01*
X167495500Y-113851925D01*
X167522697Y-114023639D01*
X167522697Y-114023642D01*
X167576418Y-114188978D01*
X167624916Y-114284160D01*
X167655347Y-114343884D01*
X167757535Y-114484533D01*
X167880467Y-114607465D01*
X168021116Y-114709653D01*
X168155109Y-114777925D01*
X168177795Y-114789485D01*
X168188859Y-114799934D01*
X168202703Y-114806257D01*
X168213744Y-114823437D01*
X168228591Y-114837460D01*
X168232832Y-114853139D01*
X168240477Y-114865035D01*
X168245500Y-114899970D01*
X168245500Y-115001799D01*
X168225815Y-115068838D01*
X168209181Y-115089480D01*
X167489480Y-115809181D01*
X167428157Y-115842666D01*
X167401799Y-115845500D01*
X165809500Y-115845500D01*
X165742461Y-115825815D01*
X165696706Y-115773011D01*
X165685500Y-115721500D01*
X165685500Y-114459359D01*
X165685500Y-114459356D01*
X165685500Y-114459354D01*
X165675461Y-114390450D01*
X165661522Y-114361937D01*
X165623500Y-114284160D01*
X165539839Y-114200499D01*
X165433553Y-114148540D01*
X165433551Y-114148539D01*
X165433550Y-114148539D01*
X165364646Y-114138500D01*
X165097354Y-114138500D01*
X165077374Y-114141410D01*
X165008198Y-114131596D01*
X164955309Y-114085939D01*
X164935500Y-114018937D01*
X164935500Y-111448330D01*
X164911340Y-111358165D01*
X164911339Y-111358164D01*
X164909113Y-111354308D01*
X164905323Y-111341535D01*
X164899550Y-111333523D01*
X164894925Y-111306486D01*
X164892676Y-111298905D01*
X164892500Y-111295601D01*
X164892500Y-111178999D01*
X164884745Y-111150058D01*
X164884055Y-111137097D01*
X164889231Y-111115221D01*
X164889767Y-111092742D01*
X164897123Y-111081873D01*
X164900145Y-111069105D01*
X164916328Y-111053498D01*
X164928931Y-111034880D01*
X164940992Y-111029715D01*
X164950439Y-111020606D01*
X164972493Y-111016226D01*
X164993160Y-111007377D01*
X165007879Y-111006500D01*
X167371500Y-111006500D01*
X167438539Y-111026185D01*
X167484294Y-111078989D01*
X167495500Y-111130500D01*
X167495500Y-112100063D01*
X167510266Y-112174301D01*
X167566515Y-112258484D01*
X167582061Y-112268871D01*
X167650699Y-112314734D01*
X167650702Y-112314734D01*
X167650703Y-112314735D01*
X167674488Y-112319466D01*
X167724933Y-112329500D01*
X169475066Y-112329499D01*
X169549301Y-112314734D01*
X169633484Y-112258484D01*
X169689734Y-112174301D01*
X169704500Y-112100067D01*
X169704499Y-110349934D01*
X169689734Y-110275699D01*
X169655865Y-110225011D01*
X169633484Y-110191515D01*
X169580111Y-110155853D01*
X169549301Y-110135266D01*
X169549299Y-110135265D01*
X169549296Y-110135264D01*
X169475069Y-110120500D01*
X167724936Y-110120500D01*
X167650698Y-110135266D01*
X167566514Y-110191516D01*
X167532520Y-110242392D01*
X167478908Y-110287196D01*
X167429419Y-110297500D01*
X165796609Y-110297500D01*
X165729570Y-110277815D01*
X165683815Y-110225011D01*
X165673871Y-110155853D01*
X165674121Y-110154740D01*
X165675459Y-110145553D01*
X165675461Y-110145550D01*
X165685500Y-110076646D01*
X165685500Y-108734354D01*
X165675461Y-108665450D01*
X165673244Y-108660915D01*
X165623500Y-108559160D01*
X165539839Y-108475499D01*
X165433553Y-108423540D01*
X165433551Y-108423539D01*
X165433550Y-108423539D01*
X165364646Y-108413500D01*
X165097354Y-108413500D01*
X165045676Y-108421029D01*
X165028448Y-108423539D01*
X164960460Y-108456777D01*
X164891587Y-108468535D01*
X164851540Y-108456777D01*
X164783551Y-108423539D01*
X164773706Y-108422104D01*
X164714646Y-108413500D01*
X164447354Y-108413500D01*
X164395676Y-108421029D01*
X164378448Y-108423539D01*
X164310460Y-108456777D01*
X164241587Y-108468535D01*
X164201540Y-108456777D01*
X164133551Y-108423539D01*
X164123706Y-108422104D01*
X164064646Y-108413500D01*
X163797354Y-108413500D01*
X163745676Y-108421029D01*
X163728448Y-108423539D01*
X163660460Y-108456777D01*
X163591587Y-108468535D01*
X163551540Y-108456777D01*
X163483551Y-108423539D01*
X163473706Y-108422104D01*
X163414646Y-108413500D01*
X163276416Y-108413500D01*
X163209377Y-108393815D01*
X163178041Y-108364987D01*
X163158926Y-108340077D01*
X163033586Y-108243899D01*
X162887631Y-108183444D01*
X162831000Y-108175987D01*
X162831000Y-108694480D01*
X162828449Y-108703165D01*
X162829738Y-108712127D01*
X162829705Y-108712354D01*
X162826500Y-108734356D01*
X162826500Y-110076646D01*
X162829704Y-110098637D01*
X162828680Y-110105852D01*
X162831000Y-110116515D01*
X162831000Y-110635010D01*
X162841734Y-110633598D01*
X162910769Y-110644364D01*
X162963024Y-110690745D01*
X162981909Y-110758014D01*
X162961428Y-110824814D01*
X162945600Y-110844218D01*
X162878286Y-110911532D01*
X162805289Y-111037968D01*
X162805288Y-111037971D01*
X162767500Y-111178999D01*
X162767500Y-111325001D01*
X162800546Y-111448329D01*
X162805288Y-111466028D01*
X162805289Y-111466031D01*
X162878286Y-111592467D01*
X162878288Y-111592470D01*
X162878289Y-111592471D01*
X162981529Y-111695711D01*
X163107971Y-111768712D01*
X163248999Y-111806500D01*
X163323799Y-111806500D01*
X163353239Y-111815144D01*
X163383226Y-111821668D01*
X163388241Y-111825422D01*
X163390838Y-111826185D01*
X163411480Y-111842819D01*
X163540181Y-111971520D01*
X163573666Y-112032843D01*
X163576500Y-112059201D01*
X163576500Y-114018706D01*
X163556815Y-114085745D01*
X163504011Y-114131500D01*
X163434853Y-114141444D01*
X163414646Y-114138500D01*
X163147354Y-114138500D01*
X163095676Y-114146029D01*
X163078448Y-114148539D01*
X163010460Y-114181777D01*
X162941587Y-114193535D01*
X162901540Y-114181777D01*
X162833551Y-114148539D01*
X162823706Y-114147104D01*
X162764646Y-114138500D01*
X162497354Y-114138500D01*
X162477374Y-114141410D01*
X162408198Y-114131596D01*
X162355309Y-114085939D01*
X162335500Y-114018937D01*
X162335500Y-110763832D01*
X162355185Y-110696793D01*
X162407989Y-110651038D01*
X162413699Y-110650182D01*
X162431000Y-110635010D01*
X162431000Y-110116515D01*
X162432273Y-110098947D01*
X162432262Y-110098868D01*
X162432282Y-110098823D01*
X162432296Y-110098637D01*
X162435500Y-110076646D01*
X162435500Y-108734356D01*
X162432295Y-108712354D01*
X162431000Y-108694480D01*
X162431000Y-108175987D01*
X162374368Y-108183444D01*
X162228413Y-108243899D01*
X162103073Y-108340077D01*
X162083959Y-108364987D01*
X162080881Y-108367234D01*
X162079297Y-108370703D01*
X162052885Y-108387676D01*
X162027531Y-108406190D01*
X162022792Y-108407015D01*
X162020519Y-108408477D01*
X161985584Y-108413500D01*
X161884500Y-108413500D01*
X161817461Y-108393815D01*
X161771706Y-108341011D01*
X161760500Y-108289500D01*
X161760500Y-106902639D01*
X161760500Y-106902637D01*
X161731230Y-106793401D01*
X161702313Y-106743315D01*
X161674686Y-106695463D01*
X160585537Y-105606314D01*
X160523446Y-105570466D01*
X160487601Y-105549771D01*
X160487600Y-105549770D01*
X160455425Y-105541149D01*
X160378363Y-105520500D01*
X155893455Y-105520500D01*
X155816393Y-105541149D01*
X155784218Y-105549770D01*
X155686282Y-105606313D01*
X155686279Y-105606315D01*
X153808414Y-107484181D01*
X153747091Y-107517666D01*
X153720733Y-107520500D01*
X134015637Y-107520500D01*
X133906401Y-107549770D01*
X133906399Y-107549770D01*
X133906399Y-107549771D01*
X133808463Y-107606315D01*
X133808460Y-107606317D01*
X132056317Y-109358458D01*
X132056316Y-109358459D01*
X132047458Y-109373802D01*
X132035353Y-109394770D01*
X131999770Y-109456401D01*
X131970500Y-109565637D01*
X131970500Y-109565639D01*
X131970500Y-109870733D01*
X131950815Y-109937772D01*
X131934181Y-109958414D01*
X129836181Y-112056414D01*
X129774858Y-112089899D01*
X129705166Y-112084915D01*
X129649233Y-112043043D01*
X129624816Y-111977579D01*
X129624500Y-111968733D01*
X129624500Y-110803457D01*
X129624500Y-110803455D01*
X129595230Y-110694219D01*
X129538685Y-110596281D01*
X129458719Y-110516315D01*
X128837931Y-109895527D01*
X128179225Y-109236820D01*
X128145740Y-109175497D01*
X128148975Y-109110821D01*
X128177303Y-109023638D01*
X128204500Y-108851926D01*
X128204500Y-108678074D01*
X128177303Y-108506362D01*
X128177302Y-108506358D01*
X128177302Y-108506357D01*
X128123581Y-108341021D01*
X128044652Y-108186115D01*
X127942465Y-108045467D01*
X127819533Y-107922535D01*
X127678884Y-107820347D01*
X127523978Y-107741418D01*
X127358641Y-107687697D01*
X127229854Y-107667299D01*
X127186926Y-107660500D01*
X127013074Y-107660500D01*
X126955836Y-107669565D01*
X126841360Y-107687697D01*
X126841357Y-107687697D01*
X126676021Y-107741418D01*
X126521115Y-107820347D01*
X126440869Y-107878649D01*
X126380467Y-107922535D01*
X126380465Y-107922537D01*
X126380464Y-107922537D01*
X126257537Y-108045464D01*
X126257537Y-108045465D01*
X126257535Y-108045467D01*
X126213649Y-108105869D01*
X126155347Y-108186115D01*
X126076418Y-108341021D01*
X126022697Y-108506357D01*
X126022697Y-108506360D01*
X125995500Y-108678074D01*
X123150500Y-108678074D01*
X123150500Y-105349928D01*
X125995500Y-105349928D01*
X125995500Y-107100063D01*
X126010266Y-107174301D01*
X126066515Y-107258484D01*
X126100234Y-107281014D01*
X126150699Y-107314734D01*
X126150702Y-107314734D01*
X126150703Y-107314735D01*
X126175666Y-107319700D01*
X126224933Y-107329500D01*
X127975066Y-107329499D01*
X128049301Y-107314734D01*
X128133484Y-107258484D01*
X128189734Y-107174301D01*
X128204500Y-107100067D01*
X128204499Y-105349934D01*
X128189734Y-105275699D01*
X128171068Y-105247765D01*
X128133484Y-105191515D01*
X128083019Y-105157796D01*
X128049301Y-105135266D01*
X128049299Y-105135265D01*
X128049296Y-105135264D01*
X127975069Y-105120500D01*
X126224936Y-105120500D01*
X126150698Y-105135266D01*
X126066515Y-105191515D01*
X126010266Y-105275699D01*
X126010264Y-105275703D01*
X125995500Y-105349928D01*
X123150500Y-105349928D01*
X123150500Y-103773262D01*
X139295500Y-103773262D01*
X139295500Y-105326730D01*
X139298220Y-105355746D01*
X139298222Y-105355755D01*
X139340984Y-105477959D01*
X139340984Y-105477960D01*
X139417866Y-105582132D01*
X139417867Y-105582133D01*
X139522039Y-105659015D01*
X139522038Y-105659015D01*
X139522041Y-105659016D01*
X139644249Y-105701779D01*
X139673267Y-105704500D01*
X140126732Y-105704499D01*
X140155751Y-105701779D01*
X140277959Y-105659016D01*
X140359756Y-105598647D01*
X140425381Y-105574678D01*
X140493551Y-105589993D01*
X140507016Y-105598646D01*
X140585227Y-105656369D01*
X140592792Y-105659016D01*
X140714541Y-105701619D01*
X140714545Y-105701619D01*
X140714549Y-105701621D01*
X140745251Y-105704500D01*
X141254748Y-105704499D01*
X141285451Y-105701621D01*
X141414773Y-105656369D01*
X141476366Y-105610910D01*
X141541995Y-105586940D01*
X141610166Y-105602255D01*
X141623633Y-105610910D01*
X141685227Y-105656369D01*
X141692792Y-105659016D01*
X141814541Y-105701619D01*
X141814545Y-105701619D01*
X141814549Y-105701621D01*
X141845251Y-105704500D01*
X142354748Y-105704499D01*
X142385451Y-105701621D01*
X142385453Y-105701620D01*
X142392965Y-105700916D01*
X142393181Y-105703230D01*
X142451457Y-105707334D01*
X142495932Y-105735882D01*
X142565122Y-105805072D01*
X142710604Y-105893019D01*
X142710603Y-105893019D01*
X142872894Y-105943590D01*
X142872893Y-105943590D01*
X142943408Y-105949998D01*
X142943426Y-105949999D01*
X142949999Y-105949998D01*
X142950000Y-105949998D01*
X142950000Y-103150000D01*
X143450000Y-103150000D01*
X143450000Y-105949999D01*
X143456581Y-105949999D01*
X143527102Y-105943591D01*
X143527107Y-105943590D01*
X143689396Y-105893018D01*
X143834875Y-105805073D01*
X143904065Y-105735883D01*
X143965388Y-105702398D01*
X144006895Y-105702416D01*
X144007036Y-105700917D01*
X144025790Y-105702675D01*
X144045251Y-105704500D01*
X144554748Y-105704499D01*
X144585451Y-105701621D01*
X144714773Y-105656369D01*
X144776366Y-105610910D01*
X144841995Y-105586940D01*
X144910166Y-105602255D01*
X144923633Y-105610910D01*
X144985227Y-105656369D01*
X144992792Y-105659016D01*
X145114541Y-105701619D01*
X145114545Y-105701619D01*
X145114549Y-105701621D01*
X145145251Y-105704500D01*
X145654748Y-105704499D01*
X145685451Y-105701621D01*
X145685453Y-105701620D01*
X145692965Y-105700916D01*
X145693181Y-105703230D01*
X145751457Y-105707334D01*
X145795932Y-105735882D01*
X145865122Y-105805072D01*
X146010604Y-105893019D01*
X146010603Y-105893019D01*
X146172894Y-105943590D01*
X146172893Y-105943590D01*
X146243408Y-105949998D01*
X146243426Y-105949999D01*
X146249999Y-105949998D01*
X146250000Y-105949998D01*
X146250000Y-103150000D01*
X146750000Y-103150000D01*
X146750000Y-105949999D01*
X146756581Y-105949999D01*
X146827102Y-105943591D01*
X146827107Y-105943590D01*
X146989396Y-105893018D01*
X147134875Y-105805073D01*
X147204065Y-105735883D01*
X147265388Y-105702398D01*
X147306895Y-105702416D01*
X147307036Y-105700917D01*
X147325790Y-105702675D01*
X147345251Y-105704500D01*
X147854748Y-105704499D01*
X147885451Y-105701621D01*
X147894559Y-105698433D01*
X147964336Y-105694869D01*
X148023198Y-105727793D01*
X148105657Y-105810252D01*
X148105662Y-105810256D01*
X148245934Y-105895052D01*
X148402442Y-105943821D01*
X148402440Y-105943821D01*
X148449999Y-105948142D01*
X148450000Y-105948142D01*
X148450000Y-105948141D01*
X148950000Y-105948141D01*
X148997561Y-105943821D01*
X148997570Y-105943819D01*
X149154060Y-105895055D01*
X149154064Y-105895053D01*
X149294337Y-105810256D01*
X149294342Y-105810252D01*
X149410252Y-105694342D01*
X149410256Y-105694337D01*
X149495052Y-105554065D01*
X149543820Y-105397562D01*
X149550000Y-105329556D01*
X149550000Y-104800000D01*
X148950000Y-104800000D01*
X148950000Y-105948141D01*
X148450000Y-105948141D01*
X148450000Y-104300000D01*
X148950000Y-104300000D01*
X149549999Y-104300000D01*
X149549999Y-103770433D01*
X149543821Y-103702438D01*
X149543818Y-103702427D01*
X149495055Y-103545939D01*
X149495053Y-103545935D01*
X149410256Y-103405662D01*
X149410252Y-103405657D01*
X149294342Y-103289747D01*
X149294337Y-103289743D01*
X149154065Y-103204947D01*
X148997562Y-103156179D01*
X148950000Y-103151856D01*
X148950000Y-104300000D01*
X148450000Y-104300000D01*
X148450000Y-103151857D01*
X148449999Y-103151857D01*
X148402441Y-103156178D01*
X148240390Y-103206675D01*
X148170530Y-103207825D01*
X148111137Y-103171024D01*
X148081069Y-103107955D01*
X148079500Y-103088289D01*
X148079500Y-102411707D01*
X148096112Y-102349708D01*
X148116712Y-102314029D01*
X148154500Y-102173001D01*
X148154500Y-102026999D01*
X148116712Y-101885971D01*
X148043711Y-101759529D01*
X147940471Y-101656289D01*
X147940470Y-101656288D01*
X147940467Y-101656286D01*
X147814031Y-101583289D01*
X147814030Y-101583288D01*
X147814029Y-101583288D01*
X147673001Y-101545500D01*
X147526999Y-101545500D01*
X147385971Y-101583288D01*
X147385968Y-101583289D01*
X147259532Y-101656286D01*
X147259527Y-101656290D01*
X147156290Y-101759527D01*
X147156286Y-101759532D01*
X147083289Y-101885968D01*
X147083288Y-101885971D01*
X147045500Y-102026999D01*
X147045500Y-102173001D01*
X147083288Y-102314029D01*
X147103887Y-102349708D01*
X147120500Y-102411707D01*
X147120500Y-103079313D01*
X147100815Y-103146352D01*
X147048011Y-103192107D01*
X146978853Y-103202051D01*
X146959611Y-103197699D01*
X146827103Y-103156409D01*
X146756572Y-103150000D01*
X146750000Y-103150000D01*
X146250000Y-103150000D01*
X146249999Y-103149999D01*
X146243436Y-103150000D01*
X146243417Y-103150001D01*
X146172897Y-103156408D01*
X146172892Y-103156409D01*
X146010603Y-103206981D01*
X145865124Y-103294926D01*
X145795933Y-103364117D01*
X145734609Y-103397601D01*
X145693103Y-103397587D01*
X145692963Y-103399083D01*
X145654753Y-103395500D01*
X145145257Y-103395500D01*
X145131639Y-103396777D01*
X145114549Y-103398379D01*
X145114546Y-103398379D01*
X145114544Y-103398380D01*
X144985228Y-103443630D01*
X144923633Y-103489089D01*
X144858004Y-103513059D01*
X144789833Y-103497743D01*
X144776367Y-103489089D01*
X144740594Y-103462688D01*
X144714773Y-103443631D01*
X144714771Y-103443630D01*
X144585458Y-103398380D01*
X144585446Y-103398378D01*
X144554753Y-103395500D01*
X144045254Y-103395500D01*
X144007033Y-103399083D01*
X144006816Y-103396777D01*
X143948492Y-103392646D01*
X143904066Y-103364116D01*
X143834877Y-103294927D01*
X143689395Y-103206980D01*
X143689396Y-103206980D01*
X143527105Y-103156409D01*
X143527106Y-103156409D01*
X143456572Y-103150000D01*
X143450000Y-103150000D01*
X142950000Y-103150000D01*
X142949999Y-103149999D01*
X142943436Y-103150000D01*
X142943417Y-103150001D01*
X142872897Y-103156408D01*
X142872892Y-103156409D01*
X142710603Y-103206981D01*
X142565124Y-103294926D01*
X142495933Y-103364117D01*
X142434609Y-103397601D01*
X142393103Y-103397587D01*
X142392963Y-103399083D01*
X142354753Y-103395500D01*
X141845257Y-103395500D01*
X141831639Y-103396777D01*
X141814549Y-103398379D01*
X141814546Y-103398379D01*
X141814544Y-103398380D01*
X141685228Y-103443630D01*
X141623633Y-103489089D01*
X141558004Y-103513059D01*
X141489833Y-103497743D01*
X141476367Y-103489089D01*
X141440594Y-103462688D01*
X141414773Y-103443631D01*
X141414771Y-103443630D01*
X141285458Y-103398380D01*
X141285446Y-103398378D01*
X141254753Y-103395500D01*
X140745257Y-103395500D01*
X140731639Y-103396777D01*
X140714549Y-103398379D01*
X140714546Y-103398379D01*
X140714544Y-103398380D01*
X140585226Y-103443631D01*
X140585225Y-103443631D01*
X140507019Y-103501350D01*
X140441390Y-103525321D01*
X140373220Y-103510005D01*
X140359759Y-103501354D01*
X140277959Y-103440984D01*
X140220912Y-103421022D01*
X140155755Y-103398222D01*
X140155746Y-103398220D01*
X140126737Y-103395500D01*
X139673269Y-103395500D01*
X139644253Y-103398220D01*
X139644244Y-103398222D01*
X139522040Y-103440984D01*
X139522039Y-103440984D01*
X139417867Y-103517866D01*
X139417866Y-103517867D01*
X139340984Y-103622039D01*
X139298222Y-103744244D01*
X139298220Y-103744253D01*
X139295500Y-103773262D01*
X123150500Y-103773262D01*
X123150500Y-100965164D01*
X123170185Y-100898125D01*
X123222989Y-100852370D01*
X123274551Y-100841164D01*
X172063558Y-100862870D01*
G37*
%TD.AperFunction*%
%TD*%
M02*
