%TF.GenerationSoftware,KiCad,Pcbnew,8.0.1*%
%TF.CreationDate,2025-08-18T13:03:48-05:00*%
%TF.ProjectId,GPS_board_v3,4750535f-626f-4617-9264-5f76332e6b69,rev?*%
%TF.SameCoordinates,Original*%
%TF.FileFunction,Copper,L1,Top*%
%TF.FilePolarity,Positive*%
%FSLAX46Y46*%
G04 Gerber Fmt 4.6, Leading zero omitted, Abs format (unit mm)*
G04 Created by KiCad (PCBNEW 8.0.1) date 2025-08-18 13:03:48*
%MOMM*%
%LPD*%
G01*
G04 APERTURE LIST*
G04 Aperture macros list*
%AMRoundRect*
0 Rectangle with rounded corners*
0 $1 Rounding radius*
0 $2 $3 $4 $5 $6 $7 $8 $9 X,Y pos of 4 corners*
0 Add a 4 corners polygon primitive as box body*
4,1,4,$2,$3,$4,$5,$6,$7,$8,$9,$2,$3,0*
0 Add four circle primitives for the rounded corners*
1,1,$1+$1,$2,$3*
1,1,$1+$1,$4,$5*
1,1,$1+$1,$6,$7*
1,1,$1+$1,$8,$9*
0 Add four rect primitives between the rounded corners*
20,1,$1+$1,$2,$3,$4,$5,0*
20,1,$1+$1,$4,$5,$6,$7,0*
20,1,$1+$1,$6,$7,$8,$9,0*
20,1,$1+$1,$8,$9,$2,$3,0*%
G04 Aperture macros list end*
%TA.AperFunction,SMDPad,CuDef*%
%ADD10R,0.650000X1.528000*%
%TD*%
%TA.AperFunction,ComponentPad*%
%ADD11C,2.000000*%
%TD*%
%TA.AperFunction,ComponentPad*%
%ADD12R,1.700000X1.700000*%
%TD*%
%TA.AperFunction,ComponentPad*%
%ADD13O,1.700000X1.700000*%
%TD*%
%TA.AperFunction,SMDPad,CuDef*%
%ADD14RoundRect,0.175000X0.175000X-0.725000X0.175000X0.725000X-0.175000X0.725000X-0.175000X-0.725000X0*%
%TD*%
%TA.AperFunction,SMDPad,CuDef*%
%ADD15RoundRect,0.200000X0.200000X-0.700000X0.200000X0.700000X-0.200000X0.700000X-0.200000X-0.700000X0*%
%TD*%
%TA.AperFunction,SMDPad,CuDef*%
%ADD16RoundRect,0.100000X0.100000X-0.637500X0.100000X0.637500X-0.100000X0.637500X-0.100000X-0.637500X0*%
%TD*%
%TA.AperFunction,SMDPad,CuDef*%
%ADD17RoundRect,0.250000X-0.350000X-0.450000X0.350000X-0.450000X0.350000X0.450000X-0.350000X0.450000X0*%
%TD*%
%TA.AperFunction,SMDPad,CuDef*%
%ADD18RoundRect,0.250000X0.450000X-0.350000X0.450000X0.350000X-0.450000X0.350000X-0.450000X-0.350000X0*%
%TD*%
%TA.AperFunction,ComponentPad*%
%ADD19R,5.000000X5.000000*%
%TD*%
%TA.AperFunction,SMDPad,CuDef*%
%ADD20R,2.000000X2.000000*%
%TD*%
%TA.AperFunction,ComponentPad*%
%ADD21R,1.000000X2.700000*%
%TD*%
%TA.AperFunction,SMDPad,CuDef*%
%ADD22RoundRect,0.250000X-0.250000X-0.475000X0.250000X-0.475000X0.250000X0.475000X-0.250000X0.475000X0*%
%TD*%
%TA.AperFunction,SMDPad,CuDef*%
%ADD23RoundRect,0.250000X0.250000X0.475000X-0.250000X0.475000X-0.250000X-0.475000X0.250000X-0.475000X0*%
%TD*%
%TA.AperFunction,SMDPad,CuDef*%
%ADD24RoundRect,0.250000X-0.325000X-0.450000X0.325000X-0.450000X0.325000X0.450000X-0.325000X0.450000X0*%
%TD*%
%TA.AperFunction,ViaPad*%
%ADD25C,0.600000*%
%TD*%
%TA.AperFunction,Conductor*%
%ADD26C,0.200000*%
%TD*%
%TA.AperFunction,Conductor*%
%ADD27C,0.350000*%
%TD*%
%TA.AperFunction,Conductor*%
%ADD28C,0.450000*%
%TD*%
%TA.AperFunction,Conductor*%
%ADD29C,0.500000*%
%TD*%
G04 APERTURE END LIST*
D10*
%TO.P,IC2,1,D*%
%TO.N,CAN_TX*%
X133005000Y-114689000D03*
%TO.P,IC2,2,GND*%
%TO.N,GND*%
X131735000Y-114689000D03*
%TO.P,IC2,3,VCC*%
%TO.N,+3V3*%
X130465000Y-114689000D03*
%TO.P,IC2,4,R*%
%TO.N,CAN_RX*%
X129195000Y-114689000D03*
%TO.P,IC2,5,VREF*%
%TO.N,+3V3*%
X129195000Y-120111000D03*
%TO.P,IC2,6,CANL*%
%TO.N,CANL*%
X130465000Y-120111000D03*
%TO.P,IC2,7,CANH*%
%TO.N,CANH*%
X131735000Y-120111000D03*
%TO.P,IC2,8,RS*%
%TO.N,Net-(IC2-RS)*%
X133005000Y-120111000D03*
%TD*%
D11*
%TO.P,REF\u002A\u002A,1*%
%TO.N,STM_UART_TX*%
X167894000Y-110490000D03*
%TD*%
D12*
%TO.P,J4,1,Pin_1*%
%TO.N,STM_RST*%
X128080000Y-125715000D03*
D13*
%TO.P,J4,2,Pin_2*%
%TO.N,+3V3*%
X130620000Y-125715000D03*
%TO.P,J4,3,Pin_3*%
%TO.N,SWCLK*%
X133160000Y-125715000D03*
%TO.P,J4,4,Pin_4*%
%TO.N,GND*%
X135700000Y-125715000D03*
%TO.P,J4,5,Pin_5*%
%TO.N,SWDIO*%
X138240000Y-125715000D03*
%TD*%
D14*
%TO.P,U5,1,GND*%
%TO.N,GND*%
X139900000Y-114050000D03*
D15*
%TO.P,U5,2,TXD*%
%TO.N,STM_UART_RX*%
X141000000Y-114050000D03*
%TO.P,U5,3,RXD*%
%TO.N,STM_UART_TX*%
X142100000Y-114050000D03*
%TO.P,U5,4,TIMEPULSE*%
%TO.N,unconnected-(U5-TIMEPULSE-Pad4)*%
X143200000Y-114050000D03*
%TO.P,U5,5,EXTINT*%
%TO.N,unconnected-(U5-EXTINT-Pad5)*%
X144300000Y-114050000D03*
%TO.P,U5,6,V_BCKP*%
%TO.N,+3V3*%
X145400000Y-114050000D03*
%TO.P,U5,7,VCC_IO*%
X146500000Y-114050000D03*
%TO.P,U5,8,VCC*%
X147600000Y-114050000D03*
D14*
%TO.P,U5,9,~{RESET}*%
%TO.N,unconnected-(U5-~{RESET}-Pad9)*%
X148700000Y-114050000D03*
%TO.P,U5,10,GND*%
%TO.N,GND*%
X148700000Y-104550000D03*
D15*
%TO.P,U5,11,RF_IN*%
%TO.N,Net-(A1-RF_OUT)*%
X147600000Y-104550000D03*
%TO.P,U5,12,GND*%
%TO.N,GND*%
X146500000Y-104550000D03*
%TO.P,U5,13,Reserved*%
%TO.N,unconnected-(U5-Reserved-Pad13)*%
X145400000Y-104550000D03*
%TO.P,U5,14,VCC_RF*%
%TO.N,unconnected-(U5-VCC_RF-Pad14)*%
X144300000Y-104550000D03*
%TO.P,U5,15,V_ANT*%
%TO.N,GND*%
X143200000Y-104550000D03*
%TO.P,U5,16,SDA*%
%TO.N,SDA*%
X142100000Y-104550000D03*
%TO.P,U5,17,SCL*%
%TO.N,SCL*%
X141000000Y-104550000D03*
D14*
%TO.P,U5,18,~{SAFEBOOT}*%
%TO.N,unconnected-(U5-~{SAFEBOOT}-Pad18)*%
X139900000Y-104550000D03*
%TD*%
D12*
%TO.P,J2,1,Pin_1*%
%TO.N,CANH*%
X159125000Y-125715000D03*
D13*
%TO.P,J2,2,Pin_2*%
%TO.N,Net-(J2A-Pin_2)*%
X161665000Y-125715000D03*
%TD*%
D16*
%TO.P,U1,1,PB8*%
%TO.N,GND*%
X159381000Y-115130500D03*
%TO.P,U1,2,PF0*%
%TO.N,unconnected-(U1-PF0-Pad2)*%
X160031000Y-115130500D03*
%TO.P,U1,3,PF1*%
%TO.N,unconnected-(U1-PF1-Pad3)*%
X160681000Y-115130500D03*
%TO.P,U1,4,NRST*%
%TO.N,STM_RST*%
X161331000Y-115130500D03*
%TO.P,U1,5,VDDA*%
%TO.N,+3V3*%
X161981000Y-115130500D03*
%TO.P,U1,6,PA0*%
%TO.N,unconnected-(U1-PA0-Pad6)*%
X162631000Y-115130500D03*
%TO.P,U1,7,PA1*%
%TO.N,unconnected-(U1-PA1-Pad7)*%
X163281000Y-115130500D03*
%TO.P,U1,8,PA2*%
%TO.N,STM_UART_TX*%
X163931000Y-115130500D03*
%TO.P,U1,9,PA3*%
%TO.N,STM_UART_RX*%
X164581000Y-115130500D03*
%TO.P,U1,10,PA4*%
%TO.N,unconnected-(U1-PA4-Pad10)*%
X165231000Y-115130500D03*
%TO.P,U1,11,PA5*%
%TO.N,unconnected-(U1-PA5-Pad11)*%
X165231000Y-109405500D03*
%TO.P,U1,12,PA6*%
%TO.N,unconnected-(U1-PA6-Pad12)*%
X164581000Y-109405500D03*
%TO.P,U1,13,PA7*%
%TO.N,unconnected-(U1-PA7-Pad13)*%
X163931000Y-109405500D03*
%TO.P,U1,14,PB1*%
%TO.N,unconnected-(U1-PB1-Pad14)*%
X163281000Y-109405500D03*
%TO.P,U1,15,VSSA*%
%TO.N,GND*%
X162631000Y-109405500D03*
%TO.P,U1,16,VDD*%
%TO.N,+3V3*%
X161981000Y-109405500D03*
%TO.P,U1,17,PA9/PA11*%
%TO.N,CAN_RX*%
X161331000Y-109405500D03*
%TO.P,U1,18,PA10/PA12*%
%TO.N,CAN_TX*%
X160681000Y-109405500D03*
%TO.P,U1,19,PA13*%
%TO.N,SWDIO*%
X160031000Y-109405500D03*
%TO.P,U1,20,PA14*%
%TO.N,SWCLK*%
X159381000Y-109405500D03*
%TD*%
D17*
%TO.P,R9,1*%
%TO.N,CANL*%
X150600000Y-119000000D03*
%TO.P,R9,2*%
%TO.N,Net-(J2A-Pin_2)*%
X152600000Y-119000000D03*
%TD*%
D18*
%TO.P,R8,1*%
%TO.N,Net-(IC2-RS)*%
X135600000Y-118600000D03*
%TO.P,R8,2*%
%TO.N,GND*%
X135600000Y-116600000D03*
%TD*%
D17*
%TO.P,R1,1*%
%TO.N,+3V3*%
X158004000Y-118872000D03*
%TO.P,R1,2*%
%TO.N,STM_RST*%
X160004000Y-118872000D03*
%TD*%
D19*
%TO.P,A1,1,GND*%
%TO.N,GND*%
X141300000Y-69900000D03*
X141300000Y-76200000D03*
X141300000Y-82500000D03*
X147600000Y-69900000D03*
X147600000Y-76200000D03*
X153900000Y-69900000D03*
X153900000Y-76200000D03*
X153900000Y-82500000D03*
D20*
%TO.P,A1,2,RF_OUT*%
%TO.N,Net-(A1-RF_OUT)*%
X147600000Y-84800000D03*
D21*
X147600000Y-87150000D03*
%TD*%
D17*
%TO.P,R10,1*%
%TO.N,Net-(D1-A)*%
X153400000Y-123815000D03*
%TO.P,R10,2*%
%TO.N,+3V3*%
X155400000Y-123815000D03*
%TD*%
D22*
%TO.P,C2,1*%
%TO.N,+3V3*%
X163708000Y-118872000D03*
%TO.P,C2,2*%
%TO.N,GND*%
X165608000Y-118872000D03*
%TD*%
D11*
%TO.P,REF\u002A\u002A,1*%
%TO.N,CAN_RX*%
X126760000Y-111570000D03*
%TD*%
%TO.P,REF\u002A\u002A,1*%
%TO.N,STM_UART_RX*%
X167894000Y-114554000D03*
%TD*%
D12*
%TO.P,J3,1,Pin_1*%
%TO.N,+3V3*%
X142748000Y-125730000D03*
D13*
%TO.P,J3,2,Pin_2*%
%TO.N,GND*%
X145288000Y-125730000D03*
%TO.P,J3,3,Pin_3*%
%TO.N,CANL*%
X147828000Y-125730000D03*
%TO.P,J3,4,Pin_4*%
%TO.N,CANH*%
X150368000Y-125730000D03*
%TD*%
D11*
%TO.P,REF\u002A\u002A,1*%
%TO.N,CAN_TX*%
X135450000Y-111420000D03*
%TD*%
D23*
%TO.P,C1,1*%
%TO.N,STM_RST*%
X158872000Y-121158000D03*
%TO.P,C1,2*%
%TO.N,GND*%
X156972000Y-121158000D03*
%TD*%
D24*
%TO.P,D1,1,K*%
%TO.N,GND*%
X153475000Y-127215000D03*
%TO.P,D1,2,A*%
%TO.N,Net-(D1-A)*%
X155525000Y-127215000D03*
%TD*%
D25*
%TO.N,STM_RST*%
X146800000Y-118000000D03*
X151600000Y-117600000D03*
X136800000Y-122800000D03*
X142500000Y-118000000D03*
%TO.N,SWDIO*%
X143000000Y-119600000D03*
%TO.N,CANH*%
X149200000Y-122100000D03*
%TO.N,Net-(A1-RF_OUT)*%
X147600000Y-102100000D03*
%TO.N,SWCLK*%
X141700000Y-119000000D03*
X139900000Y-122775000D03*
%TO.N,+3V3*%
X129200000Y-121900000D03*
X145400000Y-116100000D03*
X154600000Y-119300000D03*
%TO.N,CANL*%
X149000000Y-119200000D03*
X147700000Y-122100000D03*
%TO.N,Net-(J2A-Pin_2)*%
X152600000Y-120700000D03*
%TO.N,STM_UART_TX*%
X163322000Y-111252000D03*
X143764000Y-110490000D03*
%TO.N,STM_UART_RX*%
X164338000Y-111252000D03*
X142748000Y-110236000D03*
%TO.N,GND*%
X171600000Y-109500000D03*
X123700000Y-114500000D03*
X123700000Y-109500000D03*
X171600000Y-114500000D03*
X156464000Y-119634000D03*
X123700000Y-104500000D03*
X123700000Y-123000000D03*
X171600000Y-123000000D03*
X123700000Y-118900000D03*
X123700000Y-128000000D03*
X130600000Y-109500000D03*
X171600000Y-104500000D03*
X157734000Y-115316000D03*
X171600000Y-118900000D03*
X130600000Y-104500000D03*
X162814000Y-112776000D03*
X171600000Y-128000000D03*
%TD*%
D26*
%TO.N,STM_RST*%
X152250000Y-116950000D02*
X151600000Y-117600000D01*
X158872000Y-121158000D02*
X158872000Y-120004000D01*
X161331000Y-116545000D02*
X160926000Y-116950000D01*
X128080000Y-125715000D02*
X130995000Y-122800000D01*
X142500000Y-118000000D02*
X146800000Y-118000000D01*
X130995000Y-122800000D02*
X136800000Y-122800000D01*
X161331000Y-115130500D02*
X161331000Y-116545000D01*
X160004000Y-117872000D02*
X160926000Y-116950000D01*
X160004000Y-118872000D02*
X160004000Y-117872000D01*
X160926000Y-116950000D02*
X152250000Y-116950000D01*
X158872000Y-120004000D02*
X160004000Y-118872000D01*
%TO.N,SWDIO*%
X150800000Y-116100000D02*
X154000000Y-116100000D01*
X154000000Y-116100000D02*
X160031000Y-110069000D01*
X147300000Y-119600000D02*
X150800000Y-116100000D01*
X160031000Y-110069000D02*
X160031000Y-109405500D01*
X143000000Y-119600000D02*
X147300000Y-119600000D01*
%TO.N,CAN_TX*%
X135450000Y-111420000D02*
X133825000Y-109795000D01*
D27*
X160094000Y-106500000D02*
X160681000Y-107087000D01*
X134300000Y-108500000D02*
X154200000Y-108500000D01*
X133005000Y-109795000D02*
X134300000Y-108500000D01*
X154200000Y-108500000D02*
X156200000Y-106500000D01*
D26*
X133825000Y-109795000D02*
X133005000Y-109795000D01*
D27*
X133005000Y-114689000D02*
X133005000Y-109795000D01*
X156200000Y-106500000D02*
X160094000Y-106500000D01*
X160681000Y-107087000D02*
X160681000Y-109405500D01*
D26*
%TO.N,CAN_RX*%
X126760000Y-111570000D02*
X128495000Y-113305000D01*
X128495000Y-113305000D02*
X129195000Y-113305000D01*
D27*
X161331000Y-106959182D02*
X161331000Y-109405500D01*
X134072182Y-107950000D02*
X153950000Y-107950000D01*
X129195000Y-114689000D02*
X129195000Y-113305000D01*
X132400000Y-109622182D02*
X134072182Y-107950000D01*
X153950000Y-107950000D02*
X155950000Y-105950000D01*
X155950000Y-105950000D02*
X160321818Y-105950000D01*
X129195000Y-113305000D02*
X132400000Y-110100000D01*
X132400000Y-110100000D02*
X132400000Y-109622182D01*
X160321818Y-105950000D02*
X161331000Y-106959182D01*
%TO.N,CANH*%
X149200000Y-124562000D02*
X150368000Y-125730000D01*
X131735000Y-120550000D02*
X132585000Y-121400000D01*
X148500000Y-121400000D02*
X149200000Y-122100000D01*
X131735000Y-120111000D02*
X131735000Y-120550000D01*
X149200000Y-122100000D02*
X149200000Y-124562000D01*
X132585000Y-121400000D02*
X148500000Y-121400000D01*
D26*
%TO.N,Net-(A1-RF_OUT)*%
X147600000Y-84900000D02*
X147600000Y-87250000D01*
D28*
X147600000Y-104550000D02*
X147600000Y-102100000D01*
D26*
%TO.N,SWCLK*%
X141900000Y-118800000D02*
X147000000Y-118800000D01*
X153686500Y-115100000D02*
X159381000Y-109405500D01*
X133858000Y-123444000D02*
X133160000Y-124142000D01*
X147000000Y-118800000D02*
X150700000Y-115100000D01*
X137971000Y-123444000D02*
X133858000Y-123444000D01*
X138640000Y-122775000D02*
X137971000Y-123444000D01*
X150700000Y-115100000D02*
X153686500Y-115100000D01*
X139900000Y-122775000D02*
X138640000Y-122775000D01*
X133160000Y-124142000D02*
X133160000Y-125715000D01*
X141700000Y-119000000D02*
X141900000Y-118800000D01*
D29*
%TO.N,+3V3*%
X161981000Y-119126000D02*
X161981000Y-115130500D01*
X161981000Y-121737000D02*
X161981000Y-119126000D01*
D28*
X129195000Y-120111000D02*
X129195000Y-118205000D01*
D29*
X155400000Y-120100000D02*
X154600000Y-119300000D01*
D28*
X145400000Y-116100000D02*
X145400000Y-114050000D01*
D26*
X162235000Y-118872000D02*
X161981000Y-119126000D01*
X158004000Y-118872000D02*
X155028000Y-118872000D01*
X161981000Y-109405500D02*
X161981000Y-115130500D01*
D29*
X155400000Y-123815000D02*
X155400000Y-120100000D01*
X155400000Y-123815000D02*
X159903000Y-123815000D01*
D28*
X146500000Y-114050000D02*
X147600000Y-114050000D01*
D26*
X163708000Y-118872000D02*
X162235000Y-118872000D01*
D28*
X129195000Y-118205000D02*
X130465000Y-116935000D01*
X129195000Y-121895000D02*
X129200000Y-121900000D01*
D26*
X155028000Y-118872000D02*
X154600000Y-119300000D01*
D28*
X129195000Y-120111000D02*
X129195000Y-121895000D01*
D29*
X159903000Y-123815000D02*
X161981000Y-121737000D01*
D28*
X145400000Y-114050000D02*
X146500000Y-114050000D01*
X130465000Y-116935000D02*
X130465000Y-114689000D01*
D27*
%TO.N,Net-(D1-A)*%
X155525000Y-125940000D02*
X153400000Y-123815000D01*
X155525000Y-127215000D02*
X155525000Y-125940000D01*
%TO.N,CANL*%
X149000000Y-119200000D02*
X150400000Y-119200000D01*
X147828000Y-122428000D02*
X147828000Y-125730000D01*
X147700000Y-122100000D02*
X131400000Y-122100000D01*
X150400000Y-119200000D02*
X150600000Y-119000000D01*
X131400000Y-122100000D02*
X130465000Y-121165000D01*
X147700000Y-122100000D02*
X147700000Y-122300000D01*
X147700000Y-122300000D02*
X147828000Y-122428000D01*
X130465000Y-121165000D02*
X130465000Y-120111000D01*
%TO.N,Net-(IC2-RS)*%
X133005000Y-120111000D02*
X134089000Y-120111000D01*
X134089000Y-120111000D02*
X135600000Y-118600000D01*
%TO.N,Net-(J2A-Pin_2)*%
X152600000Y-119000000D02*
X152600000Y-120700000D01*
D26*
%TO.N,STM_UART_TX*%
X163931000Y-111861000D02*
X163322000Y-111252000D01*
X142100000Y-114050000D02*
X142100000Y-112154000D01*
X163931000Y-115130500D02*
X163931000Y-111861000D01*
X142100000Y-112154000D02*
X143764000Y-110490000D01*
X163322000Y-111252000D02*
X164084000Y-110490000D01*
X164084000Y-110490000D02*
X167894000Y-110490000D01*
%TO.N,STM_UART_RX*%
X141000000Y-111900000D02*
X141000000Y-114050000D01*
X142664000Y-110236000D02*
X141000000Y-111900000D01*
X166248000Y-116200000D02*
X167894000Y-114554000D01*
X164581000Y-115130500D02*
X164581000Y-111495000D01*
X164581000Y-111495000D02*
X164338000Y-111252000D01*
X164581000Y-115867999D02*
X164913001Y-116200000D01*
X164581000Y-115130500D02*
X164581000Y-115867999D01*
X164913001Y-116200000D02*
X166248000Y-116200000D01*
X142748000Y-110236000D02*
X142664000Y-110236000D01*
%TO.N,GND*%
X159381000Y-115130500D02*
X157919500Y-115130500D01*
X156972000Y-120142000D02*
X156464000Y-119634000D01*
X156972000Y-121158000D02*
X156972000Y-120142000D01*
X157919500Y-115130500D02*
X157734000Y-115316000D01*
X162631000Y-112593000D02*
X162814000Y-112776000D01*
X162631000Y-109405500D02*
X162631000Y-112593000D01*
%TD*%
%TA.AperFunction,Conductor*%
%TO.N,GND*%
G36*
X161395835Y-117084019D02*
G01*
X161451768Y-117125891D01*
X161476184Y-117191356D01*
X161476500Y-117200200D01*
X161476500Y-121476667D01*
X161456815Y-121543706D01*
X161440181Y-121564348D01*
X159730348Y-123274181D01*
X159669025Y-123307666D01*
X159642667Y-123310500D01*
X156354217Y-123310500D01*
X156287178Y-123290815D01*
X156241423Y-123238011D01*
X156238036Y-123229835D01*
X156217279Y-123174185D01*
X156197342Y-123120733D01*
X156119698Y-123017011D01*
X156110404Y-123004595D01*
X156030463Y-122944754D01*
X155994267Y-122917658D01*
X155994265Y-122917657D01*
X155990154Y-122916123D01*
X155985163Y-122914262D01*
X155929231Y-122872390D01*
X155904816Y-122806926D01*
X155904500Y-122798082D01*
X155904500Y-122173301D01*
X155924185Y-122106262D01*
X155976989Y-122060507D01*
X156046147Y-122050563D01*
X156109703Y-122079588D01*
X156125767Y-122096391D01*
X156129684Y-122101345D01*
X156253654Y-122225315D01*
X156402875Y-122317356D01*
X156402880Y-122317358D01*
X156569302Y-122372505D01*
X156569309Y-122372506D01*
X156672019Y-122382999D01*
X156721999Y-122382998D01*
X156722000Y-122382998D01*
X156722000Y-119933000D01*
X156721999Y-119932999D01*
X156672029Y-119933000D01*
X156672011Y-119933001D01*
X156569302Y-119943494D01*
X156402880Y-119998641D01*
X156402875Y-119998643D01*
X156253654Y-120090684D01*
X156129682Y-120214656D01*
X156125763Y-120219613D01*
X156068740Y-120259987D01*
X155998941Y-120263123D01*
X155938526Y-120228025D01*
X155906678Y-120165836D01*
X155904500Y-120142698D01*
X155904500Y-120033583D01*
X155904500Y-120033581D01*
X155870119Y-119905270D01*
X155835345Y-119845040D01*
X155803701Y-119790230D01*
X155451652Y-119438181D01*
X155418167Y-119376858D01*
X155423151Y-119307166D01*
X155465023Y-119251233D01*
X155530487Y-119226816D01*
X155539333Y-119226500D01*
X157025501Y-119226500D01*
X157092540Y-119246185D01*
X157138295Y-119298989D01*
X157149501Y-119350500D01*
X157149501Y-119370257D01*
X157155960Y-119430344D01*
X157206655Y-119566261D01*
X157206656Y-119566264D01*
X157206658Y-119566267D01*
X157216671Y-119579643D01*
X157293595Y-119682404D01*
X157330102Y-119709732D01*
X157371974Y-119765665D01*
X157376960Y-119835357D01*
X157343475Y-119896680D01*
X157282153Y-119930166D01*
X157255793Y-119933000D01*
X157222000Y-119933000D01*
X157222000Y-122382999D01*
X157271972Y-122382999D01*
X157271986Y-122382998D01*
X157374697Y-122372505D01*
X157541119Y-122317358D01*
X157541124Y-122317356D01*
X157690345Y-122225315D01*
X157814315Y-122101345D01*
X157906356Y-121952124D01*
X157906359Y-121952117D01*
X157934922Y-121865918D01*
X157974694Y-121808473D01*
X158039209Y-121781649D01*
X158107985Y-121793963D01*
X158159186Y-121841506D01*
X158168808Y-121861583D01*
X158174658Y-121877267D01*
X158191674Y-121899998D01*
X158261595Y-121993404D01*
X158319443Y-122036707D01*
X158377733Y-122080342D01*
X158513658Y-122131040D01*
X158573745Y-122137500D01*
X159170254Y-122137499D01*
X159230342Y-122131040D01*
X159366267Y-122080342D01*
X159482404Y-121993404D01*
X159569342Y-121877267D01*
X159620040Y-121741342D01*
X159623998Y-121704526D01*
X159626499Y-121681271D01*
X159626499Y-121681264D01*
X159626500Y-121681255D01*
X159626499Y-120634746D01*
X159620040Y-120574658D01*
X159605159Y-120534761D01*
X159569344Y-120438738D01*
X159569343Y-120438737D01*
X159569342Y-120438733D01*
X159510653Y-120360333D01*
X159482404Y-120322595D01*
X159359168Y-120230344D01*
X159359954Y-120229293D01*
X159316975Y-120186310D01*
X159302126Y-120118037D01*
X159326547Y-120052574D01*
X159338118Y-120039220D01*
X159514532Y-119862805D01*
X159575853Y-119829322D01*
X159602424Y-119827219D01*
X159602424Y-119826500D01*
X159605744Y-119826499D01*
X159605745Y-119826500D01*
X160402254Y-119826499D01*
X160462342Y-119820040D01*
X160598267Y-119769342D01*
X160714404Y-119682404D01*
X160801342Y-119566267D01*
X160852040Y-119430342D01*
X160855812Y-119395255D01*
X160858499Y-119370271D01*
X160858499Y-119370264D01*
X160858500Y-119370255D01*
X160858499Y-118373746D01*
X160852040Y-118313658D01*
X160827681Y-118248350D01*
X160801344Y-118177738D01*
X160801343Y-118177737D01*
X160801342Y-118177733D01*
X160714404Y-118061596D01*
X160600972Y-117976683D01*
X160559102Y-117920750D01*
X160554117Y-117851059D01*
X160587598Y-117789739D01*
X161209671Y-117167668D01*
X161209671Y-117167667D01*
X161264820Y-117112518D01*
X161326144Y-117079033D01*
X161395835Y-117084019D01*
G37*
%TD.AperFunction*%
%TA.AperFunction,Conductor*%
G36*
X161060461Y-110354223D02*
G01*
X161128447Y-110387460D01*
X161128448Y-110387460D01*
X161128450Y-110387461D01*
X161197354Y-110397500D01*
X161197360Y-110397500D01*
X161464643Y-110397500D01*
X161464646Y-110397500D01*
X161484623Y-110394589D01*
X161553797Y-110404401D01*
X161606688Y-110450055D01*
X161626500Y-110517057D01*
X161626500Y-114018706D01*
X161606815Y-114085745D01*
X161554011Y-114131500D01*
X161484853Y-114141444D01*
X161464646Y-114138500D01*
X161197354Y-114138500D01*
X161145676Y-114146029D01*
X161128448Y-114148539D01*
X161060460Y-114181777D01*
X160991587Y-114193535D01*
X160951540Y-114181777D01*
X160883551Y-114148539D01*
X160873706Y-114147104D01*
X160814646Y-114138500D01*
X160547354Y-114138500D01*
X160495676Y-114146029D01*
X160478448Y-114148539D01*
X160410460Y-114181777D01*
X160341587Y-114193535D01*
X160301540Y-114181777D01*
X160233551Y-114148539D01*
X160223706Y-114147104D01*
X160164646Y-114138500D01*
X160026416Y-114138500D01*
X159959377Y-114118815D01*
X159928041Y-114089987D01*
X159908926Y-114065077D01*
X159783586Y-113968899D01*
X159637631Y-113908444D01*
X159581000Y-113900987D01*
X159581000Y-114419480D01*
X159579705Y-114437354D01*
X159576500Y-114459356D01*
X159576500Y-115206500D01*
X159556815Y-115273539D01*
X159504011Y-115319294D01*
X159452500Y-115330500D01*
X158681001Y-115330500D01*
X158681001Y-115807324D01*
X158696442Y-115924628D01*
X158696444Y-115924633D01*
X158756899Y-116070585D01*
X158853075Y-116195924D01*
X158978413Y-116292100D01*
X159131877Y-116355666D01*
X159131041Y-116357681D01*
X159180930Y-116388090D01*
X159211459Y-116450936D01*
X159203165Y-116520312D01*
X159158679Y-116574190D01*
X159092128Y-116595465D01*
X159089176Y-116595500D01*
X154305201Y-116595500D01*
X154238162Y-116575815D01*
X154192407Y-116523011D01*
X154182463Y-116453853D01*
X154211488Y-116390297D01*
X154217520Y-116383819D01*
X155670839Y-114930500D01*
X158681000Y-114930500D01*
X159181000Y-114930500D01*
X159181000Y-113900987D01*
X159124368Y-113908444D01*
X158978413Y-113968899D01*
X158853075Y-114065075D01*
X158756899Y-114190413D01*
X158696445Y-114336365D01*
X158696444Y-114336369D01*
X158681000Y-114453669D01*
X158681000Y-114930500D01*
X155670839Y-114930500D01*
X155703778Y-114897561D01*
X160183358Y-110417979D01*
X160225367Y-110392655D01*
X160224896Y-110391692D01*
X160248821Y-110379994D01*
X160301540Y-110354222D01*
X160370411Y-110342463D01*
X160410461Y-110354223D01*
X160478447Y-110387460D01*
X160478448Y-110387460D01*
X160478450Y-110387461D01*
X160547354Y-110397500D01*
X160547360Y-110397500D01*
X160814640Y-110397500D01*
X160814646Y-110397500D01*
X160883550Y-110387461D01*
X160951539Y-110354222D01*
X161020412Y-110342463D01*
X161060461Y-110354223D01*
G37*
%TD.AperFunction*%
%TA.AperFunction,Conductor*%
G36*
X172063558Y-100862870D02*
G01*
X172130586Y-100882584D01*
X172176317Y-100935409D01*
X172187500Y-100986870D01*
X172187500Y-128575500D01*
X172167815Y-128642539D01*
X172115011Y-128688294D01*
X172063500Y-128699500D01*
X123274500Y-128699500D01*
X123207461Y-128679815D01*
X123161706Y-128627011D01*
X123150500Y-128575500D01*
X123150500Y-127465000D01*
X152400001Y-127465000D01*
X152400001Y-127714986D01*
X152410494Y-127817697D01*
X152465641Y-127984119D01*
X152465643Y-127984124D01*
X152557684Y-128133345D01*
X152681654Y-128257315D01*
X152830875Y-128349356D01*
X152830880Y-128349358D01*
X152997302Y-128404505D01*
X152997309Y-128404506D01*
X153100019Y-128414999D01*
X153224999Y-128414999D01*
X153225000Y-128414998D01*
X153225000Y-127465000D01*
X152400001Y-127465000D01*
X123150500Y-127465000D01*
X123150500Y-111570002D01*
X125500708Y-111570002D01*
X125517607Y-111763168D01*
X125519839Y-111788674D01*
X125576653Y-112000703D01*
X125576654Y-112000706D01*
X125576655Y-112000708D01*
X125669419Y-112199642D01*
X125669423Y-112199650D01*
X125795322Y-112379452D01*
X125795327Y-112379458D01*
X125950541Y-112534672D01*
X125950547Y-112534677D01*
X126130349Y-112660576D01*
X126130351Y-112660577D01*
X126130354Y-112660579D01*
X126329297Y-112753347D01*
X126541326Y-112810161D01*
X126697521Y-112823826D01*
X126759998Y-112829292D01*
X126760000Y-112829292D01*
X126760002Y-112829292D01*
X126814668Y-112824509D01*
X126978674Y-112810161D01*
X127190703Y-112753347D01*
X127283399Y-112710121D01*
X127352475Y-112699630D01*
X127416259Y-112728150D01*
X127423484Y-112734823D01*
X128277332Y-113588671D01*
X128277334Y-113588672D01*
X128277338Y-113588675D01*
X128335858Y-113622461D01*
X128358169Y-113635342D01*
X128448329Y-113659501D01*
X128448331Y-113659501D01*
X128513528Y-113659501D01*
X128580567Y-113679186D01*
X128626322Y-113731990D01*
X128636266Y-113801148D01*
X128632202Y-113815957D01*
X128615500Y-113899928D01*
X128615500Y-115478063D01*
X128630266Y-115552301D01*
X128686515Y-115636484D01*
X128718244Y-115657684D01*
X128770699Y-115692734D01*
X128770702Y-115692734D01*
X128770703Y-115692735D01*
X128795666Y-115697700D01*
X128844933Y-115707500D01*
X129545066Y-115707499D01*
X129619301Y-115692734D01*
X129703484Y-115636484D01*
X129726898Y-115601443D01*
X129780510Y-115556638D01*
X129849835Y-115547931D01*
X129912862Y-115578085D01*
X129933102Y-115601443D01*
X129963301Y-115646639D01*
X129959949Y-115648878D01*
X129982656Y-115690425D01*
X129985500Y-115716830D01*
X129985500Y-116685022D01*
X129965815Y-116752061D01*
X129949181Y-116772703D01*
X128811305Y-117910578D01*
X128811303Y-117910580D01*
X128774310Y-117974657D01*
X128774309Y-117974658D01*
X128748178Y-118019917D01*
X128748177Y-118019920D01*
X128726008Y-118102660D01*
X128715613Y-118141454D01*
X128715557Y-118141663D01*
X128715500Y-118141873D01*
X128715500Y-119083170D01*
X128695815Y-119150209D01*
X128693283Y-119153350D01*
X128693301Y-119153362D01*
X128630265Y-119247699D01*
X128630264Y-119247703D01*
X128615500Y-119321928D01*
X128615500Y-120900063D01*
X128630266Y-120974301D01*
X128693301Y-121068639D01*
X128689949Y-121070878D01*
X128712656Y-121112425D01*
X128715500Y-121138830D01*
X128715500Y-121596042D01*
X128706061Y-121643495D01*
X128659772Y-121755245D01*
X128659771Y-121755247D01*
X128640715Y-121899998D01*
X128640715Y-121900001D01*
X128659771Y-122044752D01*
X128659773Y-122044757D01*
X128715642Y-122179638D01*
X128715645Y-122179644D01*
X128804525Y-122295473D01*
X128804526Y-122295474D01*
X128920355Y-122384354D01*
X128920361Y-122384357D01*
X128987801Y-122412291D01*
X129055246Y-122440228D01*
X129127623Y-122449756D01*
X129199999Y-122459285D01*
X129200000Y-122459285D01*
X129200001Y-122459285D01*
X129261944Y-122451130D01*
X129344754Y-122440228D01*
X129479643Y-122384355D01*
X129595474Y-122295474D01*
X129684355Y-122179643D01*
X129740228Y-122044754D01*
X129759285Y-121900000D01*
X129756292Y-121877269D01*
X129740228Y-121755247D01*
X129740228Y-121755246D01*
X129684355Y-121620358D01*
X129683939Y-121619353D01*
X129674500Y-121571900D01*
X129674500Y-121138830D01*
X129694185Y-121071791D01*
X129696716Y-121068650D01*
X129696699Y-121068639D01*
X129726898Y-121023443D01*
X129780510Y-120978638D01*
X129849835Y-120969931D01*
X129912862Y-121000085D01*
X129933102Y-121023443D01*
X129956516Y-121058485D01*
X129980390Y-121074437D01*
X130025196Y-121128049D01*
X130035500Y-121177539D01*
X130035500Y-121221545D01*
X130045613Y-121259285D01*
X130064771Y-121330784D01*
X130072085Y-121343452D01*
X130072089Y-121343457D01*
X130121313Y-121428717D01*
X130121315Y-121428720D01*
X130946124Y-122253529D01*
X130979609Y-122314852D01*
X130974625Y-122384544D01*
X130932753Y-122440477D01*
X130890540Y-122460983D01*
X130869477Y-122466627D01*
X130858168Y-122469658D01*
X130858162Y-122469661D01*
X130777338Y-122516324D01*
X130777330Y-122516330D01*
X128719478Y-124574181D01*
X128658155Y-124607666D01*
X128631797Y-124610500D01*
X127204936Y-124610500D01*
X127130698Y-124625266D01*
X127046515Y-124681515D01*
X126990266Y-124765699D01*
X126990264Y-124765703D01*
X126975500Y-124839928D01*
X126975500Y-126590063D01*
X126990266Y-126664301D01*
X127046515Y-126748484D01*
X127080234Y-126771014D01*
X127130699Y-126804734D01*
X127130702Y-126804734D01*
X127130703Y-126804735D01*
X127155666Y-126809700D01*
X127204933Y-126819500D01*
X128955066Y-126819499D01*
X129029301Y-126804734D01*
X129113484Y-126748484D01*
X129169734Y-126664301D01*
X129184500Y-126590067D01*
X129184499Y-125714999D01*
X129510768Y-125714999D01*
X129529654Y-125918816D01*
X129529654Y-125918818D01*
X129529655Y-125918821D01*
X129576632Y-126083928D01*
X129585673Y-126115704D01*
X129676912Y-126298935D01*
X129800269Y-126462287D01*
X129951537Y-126600185D01*
X129951539Y-126600187D01*
X130125569Y-126707942D01*
X130125575Y-126707945D01*
X130164287Y-126722942D01*
X130316444Y-126781888D01*
X130517653Y-126819500D01*
X130517656Y-126819500D01*
X130722344Y-126819500D01*
X130722347Y-126819500D01*
X130923556Y-126781888D01*
X131114427Y-126707944D01*
X131288462Y-126600186D01*
X131439732Y-126462285D01*
X131563088Y-126298935D01*
X131654328Y-126115701D01*
X131710345Y-125918821D01*
X131729232Y-125715000D01*
X131710345Y-125511179D01*
X131654328Y-125314299D01*
X131563088Y-125131065D01*
X131492371Y-125037420D01*
X131439730Y-124967712D01*
X131288462Y-124829814D01*
X131288460Y-124829812D01*
X131114430Y-124722057D01*
X131114424Y-124722054D01*
X130943806Y-124655957D01*
X130923556Y-124648112D01*
X130722347Y-124610500D01*
X130517653Y-124610500D01*
X130316444Y-124648112D01*
X130316441Y-124648112D01*
X130316441Y-124648113D01*
X130125575Y-124722054D01*
X130125569Y-124722057D01*
X129951539Y-124829812D01*
X129951537Y-124829814D01*
X129800269Y-124967712D01*
X129676912Y-125131064D01*
X129585673Y-125314295D01*
X129529654Y-125511183D01*
X129510768Y-125714999D01*
X129184499Y-125714999D01*
X129184499Y-125163199D01*
X129204184Y-125096161D01*
X129220813Y-125075524D01*
X131105520Y-123190819D01*
X131166843Y-123157334D01*
X131193201Y-123154500D01*
X133346799Y-123154500D01*
X133413838Y-123174185D01*
X133459593Y-123226989D01*
X133469537Y-123296147D01*
X133440512Y-123359703D01*
X133434480Y-123366181D01*
X132876330Y-123924330D01*
X132876328Y-123924333D01*
X132829659Y-124005167D01*
X132829659Y-124005168D01*
X132814406Y-124062094D01*
X132805500Y-124095330D01*
X132805500Y-124582905D01*
X132785815Y-124649944D01*
X132733011Y-124695699D01*
X132726296Y-124698531D01*
X132665569Y-124722057D01*
X132491536Y-124829815D01*
X132340269Y-124967712D01*
X132216912Y-125131064D01*
X132125673Y-125314295D01*
X132069654Y-125511183D01*
X132050768Y-125714999D01*
X132069654Y-125918816D01*
X132069654Y-125918818D01*
X132069655Y-125918821D01*
X132116632Y-126083928D01*
X132125673Y-126115704D01*
X132216912Y-126298935D01*
X132340269Y-126462287D01*
X132491537Y-126600185D01*
X132491539Y-126600187D01*
X132665569Y-126707942D01*
X132665575Y-126707945D01*
X132704287Y-126722942D01*
X132856444Y-126781888D01*
X133057653Y-126819500D01*
X133057656Y-126819500D01*
X133262344Y-126819500D01*
X133262347Y-126819500D01*
X133463556Y-126781888D01*
X133654427Y-126707944D01*
X133828462Y-126600186D01*
X133979732Y-126462285D01*
X134103088Y-126298935D01*
X134188380Y-126127645D01*
X134235883Y-126076408D01*
X134303545Y-126058987D01*
X134369886Y-126080912D01*
X134413841Y-126135224D01*
X134419155Y-126150823D01*
X134426567Y-126178485D01*
X134426570Y-126178492D01*
X134526399Y-126392578D01*
X134661894Y-126586082D01*
X134828917Y-126753105D01*
X135022421Y-126888600D01*
X135236507Y-126988429D01*
X135236516Y-126988433D01*
X135450000Y-127045634D01*
X135450000Y-126148012D01*
X135507007Y-126180925D01*
X135634174Y-126215000D01*
X135765826Y-126215000D01*
X135892993Y-126180925D01*
X135950000Y-126148012D01*
X135950000Y-127045633D01*
X136163483Y-126988433D01*
X136163492Y-126988429D01*
X136377578Y-126888600D01*
X136571082Y-126753105D01*
X136738105Y-126586082D01*
X136873600Y-126392578D01*
X136973429Y-126178492D01*
X136973435Y-126178478D01*
X136980844Y-126150826D01*
X137017207Y-126091165D01*
X137080054Y-126060634D01*
X137149429Y-126068928D01*
X137203308Y-126113412D01*
X137211619Y-126127645D01*
X137296912Y-126298935D01*
X137420269Y-126462287D01*
X137571537Y-126600185D01*
X137571539Y-126600187D01*
X137745569Y-126707942D01*
X137745575Y-126707945D01*
X137784287Y-126722942D01*
X137936444Y-126781888D01*
X138137653Y-126819500D01*
X138137656Y-126819500D01*
X138342344Y-126819500D01*
X138342347Y-126819500D01*
X138543556Y-126781888D01*
X138734427Y-126707944D01*
X138908462Y-126600186D01*
X139059732Y-126462285D01*
X139183088Y-126298935D01*
X139274328Y-126115701D01*
X139330345Y-125918821D01*
X139349232Y-125715000D01*
X139330345Y-125511179D01*
X139274328Y-125314299D01*
X139183088Y-125131065D01*
X139112371Y-125037420D01*
X139059730Y-124967712D01*
X138908462Y-124829814D01*
X138908460Y-124829812D01*
X138734430Y-124722057D01*
X138734424Y-124722054D01*
X138563806Y-124655957D01*
X138543556Y-124648112D01*
X138342347Y-124610500D01*
X138137653Y-124610500D01*
X137936444Y-124648112D01*
X137936441Y-124648112D01*
X137936441Y-124648113D01*
X137745575Y-124722054D01*
X137745569Y-124722057D01*
X137571539Y-124829812D01*
X137571537Y-124829814D01*
X137420269Y-124967712D01*
X137296912Y-125131064D01*
X137211619Y-125302354D01*
X137164116Y-125353591D01*
X137096453Y-125371012D01*
X137030112Y-125349086D01*
X136986158Y-125294775D01*
X136980844Y-125279174D01*
X136973434Y-125251518D01*
X136973429Y-125251507D01*
X136873600Y-125037422D01*
X136873599Y-125037420D01*
X136738113Y-124843926D01*
X136738108Y-124843920D01*
X136571082Y-124676894D01*
X136377578Y-124541399D01*
X136163492Y-124441570D01*
X136163486Y-124441567D01*
X135950000Y-124384364D01*
X135950000Y-125281988D01*
X135892993Y-125249075D01*
X135765826Y-125215000D01*
X135634174Y-125215000D01*
X135507007Y-125249075D01*
X135450000Y-125281988D01*
X135450000Y-124384364D01*
X135449999Y-124384364D01*
X135236513Y-124441567D01*
X135236507Y-124441570D01*
X135022422Y-124541399D01*
X135022420Y-124541400D01*
X134828926Y-124676886D01*
X134828920Y-124676891D01*
X134661891Y-124843920D01*
X134661886Y-124843926D01*
X134526400Y-125037420D01*
X134526399Y-125037422D01*
X134426570Y-125251507D01*
X134426564Y-125251522D01*
X134419154Y-125279177D01*
X134382788Y-125338837D01*
X134319941Y-125369365D01*
X134250566Y-125361070D01*
X134196688Y-125316583D01*
X134188380Y-125302354D01*
X134169319Y-125264075D01*
X134103088Y-125131065D01*
X134032371Y-125037420D01*
X133979730Y-124967712D01*
X133828463Y-124829815D01*
X133828462Y-124829814D01*
X133749137Y-124780698D01*
X133654430Y-124722057D01*
X133593704Y-124698531D01*
X133538303Y-124655957D01*
X133514714Y-124590190D01*
X133514500Y-124582905D01*
X133514500Y-124340201D01*
X133534185Y-124273162D01*
X133550819Y-124252520D01*
X133968520Y-123834819D01*
X134029843Y-123801334D01*
X134056201Y-123798500D01*
X138017669Y-123798500D01*
X138017671Y-123798500D01*
X138107832Y-123774341D01*
X138188668Y-123727671D01*
X138750520Y-123165819D01*
X138811843Y-123132334D01*
X138838201Y-123129500D01*
X139412189Y-123129500D01*
X139479228Y-123149185D01*
X139499866Y-123165815D01*
X139504523Y-123170472D01*
X139620355Y-123259354D01*
X139620361Y-123259357D01*
X139656150Y-123274181D01*
X139755246Y-123315228D01*
X139827623Y-123324756D01*
X139899999Y-123334285D01*
X139900000Y-123334285D01*
X139900001Y-123334285D01*
X139948251Y-123327932D01*
X140044754Y-123315228D01*
X140179643Y-123259355D01*
X140295474Y-123170474D01*
X140384355Y-123054643D01*
X140440228Y-122919754D01*
X140459285Y-122775000D01*
X140445420Y-122669684D01*
X140456186Y-122600650D01*
X140502565Y-122548394D01*
X140568359Y-122529500D01*
X147270732Y-122529500D01*
X147337771Y-122549185D01*
X147358402Y-122565807D01*
X147362171Y-122569575D01*
X147395663Y-122630893D01*
X147398500Y-122657267D01*
X147398500Y-124627948D01*
X147378815Y-124694987D01*
X147337312Y-124732205D01*
X147338447Y-124734038D01*
X147159539Y-124844812D01*
X147159537Y-124844814D01*
X147008269Y-124982712D01*
X146884912Y-125146064D01*
X146799619Y-125317354D01*
X146752116Y-125368591D01*
X146684453Y-125386012D01*
X146618112Y-125364086D01*
X146574158Y-125309775D01*
X146568844Y-125294174D01*
X146561434Y-125266518D01*
X146561429Y-125266507D01*
X146461600Y-125052422D01*
X146461599Y-125052420D01*
X146326113Y-124858926D01*
X146326108Y-124858920D01*
X146159082Y-124691894D01*
X145965578Y-124556399D01*
X145751492Y-124456570D01*
X145751486Y-124456567D01*
X145538000Y-124399364D01*
X145538000Y-125296988D01*
X145480993Y-125264075D01*
X145353826Y-125230000D01*
X145222174Y-125230000D01*
X145095007Y-125264075D01*
X145038000Y-125296988D01*
X145038000Y-124399364D01*
X145037999Y-124399364D01*
X144824513Y-124456567D01*
X144824507Y-124456570D01*
X144610422Y-124556399D01*
X144610420Y-124556400D01*
X144416926Y-124691886D01*
X144416920Y-124691891D01*
X144249891Y-124858920D01*
X144249886Y-124858926D01*
X144114401Y-125052419D01*
X144088881Y-125107147D01*
X144042708Y-125159586D01*
X143975514Y-125178737D01*
X143908633Y-125158521D01*
X143863299Y-125105355D01*
X143852499Y-125054741D01*
X143852499Y-124854936D01*
X143852499Y-124854934D01*
X143837734Y-124780699D01*
X143802375Y-124727781D01*
X143781484Y-124696515D01*
X143712786Y-124650613D01*
X143697301Y-124640266D01*
X143697299Y-124640265D01*
X143697296Y-124640264D01*
X143623069Y-124625500D01*
X141872936Y-124625500D01*
X141798698Y-124640266D01*
X141714515Y-124696515D01*
X141658266Y-124780699D01*
X141658264Y-124780703D01*
X141643500Y-124854928D01*
X141643500Y-126605063D01*
X141658266Y-126679301D01*
X141714515Y-126763484D01*
X141742056Y-126781886D01*
X141798699Y-126819734D01*
X141798702Y-126819734D01*
X141798703Y-126819735D01*
X141823666Y-126824700D01*
X141872933Y-126834500D01*
X143623066Y-126834499D01*
X143697301Y-126819734D01*
X143781484Y-126763484D01*
X143837734Y-126679301D01*
X143852500Y-126605067D01*
X143852499Y-126405256D01*
X143872183Y-126338220D01*
X143924987Y-126292465D01*
X143994145Y-126282521D01*
X144057701Y-126311546D01*
X144088881Y-126352853D01*
X144114401Y-126407580D01*
X144249894Y-126601082D01*
X144416917Y-126768105D01*
X144610421Y-126903600D01*
X144824507Y-127003429D01*
X144824516Y-127003433D01*
X145038000Y-127060634D01*
X145038000Y-126163012D01*
X145095007Y-126195925D01*
X145222174Y-126230000D01*
X145353826Y-126230000D01*
X145480993Y-126195925D01*
X145538000Y-126163012D01*
X145538000Y-127060633D01*
X145751483Y-127003433D01*
X145751492Y-127003429D01*
X145833904Y-126965000D01*
X152400000Y-126965000D01*
X153225000Y-126965000D01*
X153225000Y-126015000D01*
X153100027Y-126015000D01*
X153100012Y-126015001D01*
X152997302Y-126025494D01*
X152830880Y-126080641D01*
X152830875Y-126080643D01*
X152681654Y-126172684D01*
X152557684Y-126296654D01*
X152465643Y-126445875D01*
X152465641Y-126445880D01*
X152410494Y-126612302D01*
X152410493Y-126612309D01*
X152400000Y-126715013D01*
X152400000Y-126965000D01*
X145833904Y-126965000D01*
X145965578Y-126903600D01*
X146159082Y-126768105D01*
X146326105Y-126601082D01*
X146461600Y-126407578D01*
X146561429Y-126193492D01*
X146561435Y-126193478D01*
X146568844Y-126165826D01*
X146605207Y-126106165D01*
X146668054Y-126075634D01*
X146737429Y-126083928D01*
X146791308Y-126128412D01*
X146799619Y-126142645D01*
X146884912Y-126313935D01*
X147008269Y-126477287D01*
X147159537Y-126615185D01*
X147159539Y-126615187D01*
X147333569Y-126722942D01*
X147333575Y-126722945D01*
X147374010Y-126738609D01*
X147524444Y-126796888D01*
X147725653Y-126834500D01*
X147725656Y-126834500D01*
X147930344Y-126834500D01*
X147930347Y-126834500D01*
X148131556Y-126796888D01*
X148322427Y-126722944D01*
X148496462Y-126615186D01*
X148647732Y-126477285D01*
X148771088Y-126313935D01*
X148862328Y-126130701D01*
X148918345Y-125933821D01*
X148937232Y-125730000D01*
X148918345Y-125526179D01*
X148862328Y-125329299D01*
X148771088Y-125146065D01*
X148647732Y-124982715D01*
X148647730Y-124982712D01*
X148496462Y-124844814D01*
X148496460Y-124844812D01*
X148317553Y-124734038D01*
X148318779Y-124732057D01*
X148274963Y-124691398D01*
X148257500Y-124627948D01*
X148257500Y-122371457D01*
X148257500Y-122371455D01*
X148240488Y-122307966D01*
X148240489Y-122252986D01*
X148239167Y-122252812D01*
X148259285Y-122100001D01*
X148259285Y-122099999D01*
X148256431Y-122078321D01*
X148267197Y-122009286D01*
X148313576Y-121957030D01*
X148380845Y-121938145D01*
X148447646Y-121958626D01*
X148467047Y-121974452D01*
X148486000Y-121993404D01*
X148618246Y-122125650D01*
X148651731Y-122186973D01*
X148653504Y-122197145D01*
X148659772Y-122244752D01*
X148659773Y-122244757D01*
X148715642Y-122379638D01*
X148715644Y-122379641D01*
X148715645Y-122379643D01*
X148718220Y-122382999D01*
X148744874Y-122417734D01*
X148770070Y-122482903D01*
X148770500Y-122493222D01*
X148770500Y-124618545D01*
X148799770Y-124727781D01*
X148799771Y-124727782D01*
X148805123Y-124737054D01*
X148805125Y-124737056D01*
X148856313Y-124825717D01*
X148856315Y-124825720D01*
X149287953Y-125257358D01*
X149321438Y-125318681D01*
X149319539Y-125378973D01*
X149277654Y-125526183D01*
X149258768Y-125729999D01*
X149258768Y-125730000D01*
X149277654Y-125933816D01*
X149277654Y-125933818D01*
X149277655Y-125933821D01*
X149332803Y-126127646D01*
X149333673Y-126130704D01*
X149424912Y-126313935D01*
X149548269Y-126477287D01*
X149699537Y-126615185D01*
X149699539Y-126615187D01*
X149873569Y-126722942D01*
X149873575Y-126722945D01*
X149914010Y-126738609D01*
X150064444Y-126796888D01*
X150265653Y-126834500D01*
X150265656Y-126834500D01*
X150470344Y-126834500D01*
X150470347Y-126834500D01*
X150671556Y-126796888D01*
X150862427Y-126722944D01*
X151036462Y-126615186D01*
X151187732Y-126477285D01*
X151311088Y-126313935D01*
X151402328Y-126130701D01*
X151458345Y-125933821D01*
X151477232Y-125730000D01*
X151458345Y-125526179D01*
X151402328Y-125329299D01*
X151311088Y-125146065D01*
X151187732Y-124982715D01*
X151187730Y-124982712D01*
X151036462Y-124844814D01*
X151036460Y-124844812D01*
X150862427Y-124737056D01*
X150862424Y-124737054D01*
X150683778Y-124667847D01*
X150671556Y-124663112D01*
X150470347Y-124625500D01*
X150265653Y-124625500D01*
X150064444Y-124663112D01*
X150064439Y-124663113D01*
X150027394Y-124677464D01*
X149957771Y-124683324D01*
X149896031Y-124650613D01*
X149894922Y-124649517D01*
X149665819Y-124420414D01*
X149632334Y-124359091D01*
X149629500Y-124332733D01*
X149629500Y-122493222D01*
X149649185Y-122426183D01*
X149655126Y-122417734D01*
X149684355Y-122379643D01*
X149740228Y-122244754D01*
X149759285Y-122100000D01*
X149740228Y-121955246D01*
X149684355Y-121820358D01*
X149595474Y-121704526D01*
X149479643Y-121615645D01*
X149479640Y-121615644D01*
X149479638Y-121615642D01*
X149344757Y-121559773D01*
X149344755Y-121559772D01*
X149344754Y-121559772D01*
X149306899Y-121554788D01*
X149297145Y-121553504D01*
X149233248Y-121525237D01*
X149225650Y-121518246D01*
X148763720Y-121056315D01*
X148763719Y-121056314D01*
X148701628Y-121020466D01*
X148665783Y-120999771D01*
X148665782Y-120999770D01*
X148638472Y-120992452D01*
X148556545Y-120970500D01*
X148556542Y-120970500D01*
X133708500Y-120970500D01*
X133641461Y-120950815D01*
X133595706Y-120898011D01*
X133584500Y-120846500D01*
X133584500Y-120664500D01*
X133604185Y-120597461D01*
X133656989Y-120551706D01*
X133708500Y-120540500D01*
X134145542Y-120540500D01*
X134145545Y-120540500D01*
X134254781Y-120511230D01*
X134290628Y-120490533D01*
X134352719Y-120454686D01*
X135316586Y-119490817D01*
X135377909Y-119457333D01*
X135404267Y-119454499D01*
X136098251Y-119454499D01*
X136098254Y-119454499D01*
X136158342Y-119448040D01*
X136294267Y-119397342D01*
X136410404Y-119310404D01*
X136497342Y-119194267D01*
X136548040Y-119058342D01*
X136550800Y-119032664D01*
X136554499Y-118998271D01*
X136554499Y-118998264D01*
X136554500Y-118998255D01*
X136554499Y-118201746D01*
X136548040Y-118141658D01*
X136533494Y-118102658D01*
X136497344Y-118005738D01*
X136497343Y-118005737D01*
X136497342Y-118005733D01*
X136439642Y-117928654D01*
X136410404Y-117889595D01*
X136350273Y-117844583D01*
X136308401Y-117788650D01*
X136303415Y-117718958D01*
X136336900Y-117657635D01*
X136363504Y-117639007D01*
X136362975Y-117638149D01*
X136518345Y-117542315D01*
X136642315Y-117418345D01*
X136734356Y-117269124D01*
X136734358Y-117269119D01*
X136789505Y-117102697D01*
X136789506Y-117102690D01*
X136799999Y-116999986D01*
X136800000Y-116999973D01*
X136800000Y-116850000D01*
X134400001Y-116850000D01*
X134400001Y-116999986D01*
X134410494Y-117102697D01*
X134465641Y-117269119D01*
X134465643Y-117269124D01*
X134557684Y-117418345D01*
X134681654Y-117542315D01*
X134837025Y-117638149D01*
X134835871Y-117640019D01*
X134880262Y-117679107D01*
X134899413Y-117746300D01*
X134879196Y-117813181D01*
X134849727Y-117844582D01*
X134789596Y-117889594D01*
X134706949Y-118000001D01*
X134702658Y-118005733D01*
X134651960Y-118141658D01*
X134651959Y-118141662D01*
X134645500Y-118201728D01*
X134645500Y-118895732D01*
X134625815Y-118962771D01*
X134609181Y-118983413D01*
X133947414Y-119645181D01*
X133886091Y-119678666D01*
X133859733Y-119681500D01*
X133708499Y-119681500D01*
X133641460Y-119661815D01*
X133595705Y-119609011D01*
X133584499Y-119557500D01*
X133584499Y-119321936D01*
X133584499Y-119321934D01*
X133569734Y-119247699D01*
X133549086Y-119216798D01*
X133513484Y-119163515D01*
X133463019Y-119129796D01*
X133429301Y-119107266D01*
X133429299Y-119107265D01*
X133429296Y-119107264D01*
X133355069Y-119092500D01*
X132654936Y-119092500D01*
X132580698Y-119107266D01*
X132496516Y-119163515D01*
X132473102Y-119198557D01*
X132419489Y-119243361D01*
X132350164Y-119252068D01*
X132287137Y-119221913D01*
X132266898Y-119198557D01*
X132243483Y-119163515D01*
X132197494Y-119132786D01*
X132159301Y-119107266D01*
X132159299Y-119107265D01*
X132159296Y-119107264D01*
X132085069Y-119092500D01*
X131384936Y-119092500D01*
X131310698Y-119107266D01*
X131226516Y-119163515D01*
X131203102Y-119198557D01*
X131149489Y-119243361D01*
X131080164Y-119252068D01*
X131017137Y-119221913D01*
X130996898Y-119198557D01*
X130973483Y-119163515D01*
X130927494Y-119132786D01*
X130889301Y-119107266D01*
X130889299Y-119107265D01*
X130889296Y-119107264D01*
X130815069Y-119092500D01*
X130114936Y-119092500D01*
X130040698Y-119107266D01*
X129956514Y-119163516D01*
X129933100Y-119198558D01*
X129879487Y-119243363D01*
X129810162Y-119252069D01*
X129747135Y-119221913D01*
X129726901Y-119198562D01*
X129703484Y-119163516D01*
X129703482Y-119163515D01*
X129696698Y-119153361D01*
X129700046Y-119151123D01*
X129677334Y-119109528D01*
X129674500Y-119083170D01*
X129674500Y-118454976D01*
X129694185Y-118387937D01*
X129710814Y-118367299D01*
X130749210Y-117328903D01*
X130749215Y-117328900D01*
X130759418Y-117318696D01*
X130759420Y-117318696D01*
X130848696Y-117229420D01*
X130911823Y-117120080D01*
X130916483Y-117102690D01*
X130920733Y-117086830D01*
X130929431Y-117054362D01*
X130944500Y-116998128D01*
X130944500Y-116871872D01*
X130944500Y-116350000D01*
X134400000Y-116350000D01*
X135350000Y-116350000D01*
X135350000Y-115500000D01*
X135850000Y-115500000D01*
X135850000Y-116350000D01*
X136799999Y-116350000D01*
X136799999Y-116200028D01*
X136799998Y-116200013D01*
X136789505Y-116097302D01*
X136734358Y-115930880D01*
X136734356Y-115930875D01*
X136642315Y-115781654D01*
X136518345Y-115657684D01*
X136369124Y-115565643D01*
X136369119Y-115565641D01*
X136202697Y-115510494D01*
X136202690Y-115510493D01*
X136099986Y-115500000D01*
X135850000Y-115500000D01*
X135350000Y-115500000D01*
X135100029Y-115500000D01*
X135100012Y-115500001D01*
X134997302Y-115510494D01*
X134830880Y-115565641D01*
X134830875Y-115565643D01*
X134681654Y-115657684D01*
X134557684Y-115781654D01*
X134465643Y-115930875D01*
X134465641Y-115930880D01*
X134410494Y-116097302D01*
X134410493Y-116097309D01*
X134400000Y-116200013D01*
X134400000Y-116350000D01*
X130944500Y-116350000D01*
X130944500Y-115976829D01*
X130964185Y-115909790D01*
X131016989Y-115864035D01*
X131086147Y-115854091D01*
X131142813Y-115877564D01*
X131167909Y-115896352D01*
X131167913Y-115896354D01*
X131302620Y-115946596D01*
X131302627Y-115946598D01*
X131362155Y-115952999D01*
X131362172Y-115953000D01*
X131485000Y-115953000D01*
X131485000Y-113425000D01*
X131362155Y-113425000D01*
X131302627Y-113431401D01*
X131302620Y-113431403D01*
X131167913Y-113481645D01*
X131167906Y-113481649D01*
X131052812Y-113567809D01*
X131001912Y-113635803D01*
X130945978Y-113677673D01*
X130878455Y-113683108D01*
X130815069Y-113670500D01*
X130114936Y-113670500D01*
X130040698Y-113685266D01*
X129956514Y-113741516D01*
X129933100Y-113776558D01*
X129879487Y-113821363D01*
X129810162Y-113830069D01*
X129747135Y-113799913D01*
X129726901Y-113776562D01*
X129703484Y-113741516D01*
X129679605Y-113725560D01*
X129634803Y-113671949D01*
X129624500Y-113622461D01*
X129624500Y-113534266D01*
X129644185Y-113467227D01*
X129660819Y-113446585D01*
X132363819Y-110743585D01*
X132425142Y-110710100D01*
X132494834Y-110715084D01*
X132550767Y-110756956D01*
X132575184Y-110822420D01*
X132575500Y-110831266D01*
X132575500Y-113438600D01*
X132555815Y-113505639D01*
X132503011Y-113551394D01*
X132433853Y-113561338D01*
X132377189Y-113537867D01*
X132302088Y-113481646D01*
X132302086Y-113481645D01*
X132167379Y-113431403D01*
X132167372Y-113431401D01*
X132107844Y-113425000D01*
X131985000Y-113425000D01*
X131985000Y-115953000D01*
X132107828Y-115953000D01*
X132107844Y-115952999D01*
X132167372Y-115946598D01*
X132167379Y-115946596D01*
X132302086Y-115896354D01*
X132302093Y-115896350D01*
X132417186Y-115810191D01*
X132468086Y-115742198D01*
X132524020Y-115700327D01*
X132591544Y-115694892D01*
X132633761Y-115703288D01*
X132654933Y-115707500D01*
X133355066Y-115707499D01*
X133429301Y-115692734D01*
X133513484Y-115636484D01*
X133569734Y-115552301D01*
X133584500Y-115478067D01*
X133584499Y-114300000D01*
X139050001Y-114300000D01*
X139050001Y-114829566D01*
X139056178Y-114897561D01*
X139056181Y-114897572D01*
X139104944Y-115054060D01*
X139104946Y-115054064D01*
X139189743Y-115194337D01*
X139189747Y-115194342D01*
X139305657Y-115310252D01*
X139305662Y-115310256D01*
X139445934Y-115395052D01*
X139602442Y-115443821D01*
X139602440Y-115443821D01*
X139649999Y-115448142D01*
X139650000Y-115448142D01*
X139650000Y-115448141D01*
X140150000Y-115448141D01*
X140197561Y-115443821D01*
X140197570Y-115443819D01*
X140354060Y-115395055D01*
X140354064Y-115395053D01*
X140494337Y-115310256D01*
X140576801Y-115227792D01*
X140638124Y-115194307D01*
X140705437Y-115198432D01*
X140714549Y-115201621D01*
X140714555Y-115201621D01*
X140714558Y-115201622D01*
X140721526Y-115202275D01*
X140745251Y-115204500D01*
X141254748Y-115204499D01*
X141285451Y-115201621D01*
X141414773Y-115156369D01*
X141476366Y-115110910D01*
X141541995Y-115086940D01*
X141610166Y-115102255D01*
X141623633Y-115110910D01*
X141685227Y-115156369D01*
X141692792Y-115159016D01*
X141814541Y-115201619D01*
X141814545Y-115201619D01*
X141814549Y-115201621D01*
X141845251Y-115204500D01*
X142354748Y-115204499D01*
X142385451Y-115201621D01*
X142514773Y-115156369D01*
X142576366Y-115110910D01*
X142641995Y-115086940D01*
X142710166Y-115102255D01*
X142723633Y-115110910D01*
X142785227Y-115156369D01*
X142792792Y-115159016D01*
X142914541Y-115201619D01*
X142914545Y-115201619D01*
X142914549Y-115201621D01*
X142945251Y-115204500D01*
X143454748Y-115204499D01*
X143485451Y-115201621D01*
X143614773Y-115156369D01*
X143676366Y-115110910D01*
X143741995Y-115086940D01*
X143810166Y-115102255D01*
X143823633Y-115110910D01*
X143885227Y-115156369D01*
X143892792Y-115159016D01*
X144014541Y-115201619D01*
X144014545Y-115201619D01*
X144014549Y-115201621D01*
X144045251Y-115204500D01*
X144554748Y-115204499D01*
X144585451Y-115201621D01*
X144714773Y-115156369D01*
X144722866Y-115150395D01*
X144788491Y-115126424D01*
X144856662Y-115141737D01*
X144905732Y-115191476D01*
X144920500Y-115250165D01*
X144920500Y-115783972D01*
X144911061Y-115831425D01*
X144859772Y-115955245D01*
X144859771Y-115955247D01*
X144840715Y-116099998D01*
X144840715Y-116100001D01*
X144859771Y-116244752D01*
X144859773Y-116244757D01*
X144915642Y-116379638D01*
X144915645Y-116379644D01*
X145004525Y-116495473D01*
X145004526Y-116495474D01*
X145120355Y-116584354D01*
X145120361Y-116584357D01*
X145147263Y-116595500D01*
X145255246Y-116640228D01*
X145327623Y-116649756D01*
X145399999Y-116659285D01*
X145400000Y-116659285D01*
X145400001Y-116659285D01*
X145448251Y-116652932D01*
X145544754Y-116640228D01*
X145679643Y-116584355D01*
X145795474Y-116495474D01*
X145884355Y-116379643D01*
X145940228Y-116244754D01*
X145954848Y-116133706D01*
X145959285Y-116100001D01*
X145959285Y-116099998D01*
X145940228Y-115955247D01*
X145940228Y-115955246D01*
X145888938Y-115831424D01*
X145879500Y-115783972D01*
X145879500Y-115250165D01*
X145899185Y-115183126D01*
X145951989Y-115137371D01*
X146021147Y-115127427D01*
X146077133Y-115150395D01*
X146085227Y-115156369D01*
X146085228Y-115156369D01*
X146085229Y-115156370D01*
X146214541Y-115201619D01*
X146214545Y-115201619D01*
X146214549Y-115201621D01*
X146245251Y-115204500D01*
X146754748Y-115204499D01*
X146785451Y-115201621D01*
X146914773Y-115156369D01*
X146976366Y-115110910D01*
X147041995Y-115086940D01*
X147110166Y-115102255D01*
X147123633Y-115110910D01*
X147185227Y-115156369D01*
X147192792Y-115159016D01*
X147314541Y-115201619D01*
X147314545Y-115201619D01*
X147314549Y-115201621D01*
X147345251Y-115204500D01*
X147854748Y-115204499D01*
X147885451Y-115201621D01*
X148014773Y-115156369D01*
X148092982Y-115098647D01*
X148158607Y-115074678D01*
X148226778Y-115089993D01*
X148240236Y-115098642D01*
X148322041Y-115159016D01*
X148444249Y-115201779D01*
X148473267Y-115204500D01*
X148926732Y-115204499D01*
X148955751Y-115201779D01*
X149077959Y-115159016D01*
X149182133Y-115082133D01*
X149259016Y-114977959D01*
X149301779Y-114855751D01*
X149304500Y-114826733D01*
X149304499Y-113273268D01*
X149301779Y-113244249D01*
X149259016Y-113122041D01*
X149212379Y-113058850D01*
X149182133Y-113017867D01*
X149182132Y-113017866D01*
X149077960Y-112940984D01*
X149077961Y-112940984D01*
X148955755Y-112898222D01*
X148955746Y-112898220D01*
X148926737Y-112895500D01*
X148473269Y-112895500D01*
X148444253Y-112898220D01*
X148444244Y-112898222D01*
X148322042Y-112940983D01*
X148318454Y-112943631D01*
X148245135Y-112997743D01*
X148240246Y-113001351D01*
X148174617Y-113025321D01*
X148106447Y-113010005D01*
X148092979Y-113001350D01*
X148020240Y-112947666D01*
X148014773Y-112943631D01*
X148014771Y-112943630D01*
X147885458Y-112898380D01*
X147885446Y-112898378D01*
X147854753Y-112895500D01*
X147345257Y-112895500D01*
X147329900Y-112896940D01*
X147314549Y-112898379D01*
X147314546Y-112898379D01*
X147314544Y-112898380D01*
X147185228Y-112943630D01*
X147123633Y-112989089D01*
X147058004Y-113013059D01*
X146989833Y-112997743D01*
X146976367Y-112989089D01*
X146920240Y-112947666D01*
X146914773Y-112943631D01*
X146914771Y-112943630D01*
X146785458Y-112898380D01*
X146785446Y-112898378D01*
X146754753Y-112895500D01*
X146245257Y-112895500D01*
X146229900Y-112896940D01*
X146214549Y-112898379D01*
X146214546Y-112898379D01*
X146214544Y-112898380D01*
X146085228Y-112943630D01*
X146023633Y-112989089D01*
X145958004Y-113013059D01*
X145889833Y-112997743D01*
X145876367Y-112989089D01*
X145820240Y-112947666D01*
X145814773Y-112943631D01*
X145814771Y-112943630D01*
X145685458Y-112898380D01*
X145685446Y-112898378D01*
X145654753Y-112895500D01*
X145145257Y-112895500D01*
X145129900Y-112896940D01*
X145114549Y-112898379D01*
X145114546Y-112898379D01*
X145114544Y-112898380D01*
X144985228Y-112943630D01*
X144923633Y-112989089D01*
X144858004Y-113013059D01*
X144789833Y-112997743D01*
X144776367Y-112989089D01*
X144720240Y-112947666D01*
X144714773Y-112943631D01*
X144714771Y-112943630D01*
X144585458Y-112898380D01*
X144585446Y-112898378D01*
X144554753Y-112895500D01*
X144045257Y-112895500D01*
X144029900Y-112896940D01*
X144014549Y-112898379D01*
X144014546Y-112898379D01*
X144014544Y-112898380D01*
X143885228Y-112943630D01*
X143823633Y-112989089D01*
X143758004Y-113013059D01*
X143689833Y-112997743D01*
X143676367Y-112989089D01*
X143620240Y-112947666D01*
X143614773Y-112943631D01*
X143614771Y-112943630D01*
X143485458Y-112898380D01*
X143485446Y-112898378D01*
X143454753Y-112895500D01*
X142945257Y-112895500D01*
X142929900Y-112896940D01*
X142914549Y-112898379D01*
X142914546Y-112898379D01*
X142914544Y-112898380D01*
X142785228Y-112943630D01*
X142723633Y-112989089D01*
X142658004Y-113013059D01*
X142589833Y-112997743D01*
X142576367Y-112989089D01*
X142520240Y-112947666D01*
X142514773Y-112943631D01*
X142514771Y-112943630D01*
X142507297Y-112938114D01*
X142509154Y-112935596D01*
X142470472Y-112897935D01*
X142454500Y-112837058D01*
X142454500Y-112352199D01*
X142474185Y-112285160D01*
X142490814Y-112264523D01*
X143669733Y-111085603D01*
X143731056Y-111052119D01*
X143757414Y-111049285D01*
X143764001Y-111049285D01*
X143815211Y-111042543D01*
X143908754Y-111030228D01*
X144043643Y-110974355D01*
X144159474Y-110885474D01*
X144248355Y-110769643D01*
X144304228Y-110634754D01*
X144323285Y-110490000D01*
X144304228Y-110345246D01*
X144248355Y-110210358D01*
X144159474Y-110094526D01*
X144043643Y-110005645D01*
X144043640Y-110005644D01*
X144043638Y-110005642D01*
X143908757Y-109949773D01*
X143908752Y-109949771D01*
X143764001Y-109930715D01*
X143763999Y-109930715D01*
X143619247Y-109949771D01*
X143619245Y-109949772D01*
X143484360Y-110005643D01*
X143484357Y-110005645D01*
X143436830Y-110042114D01*
X143371661Y-110067308D01*
X143303216Y-110053269D01*
X143253226Y-110004455D01*
X143246786Y-109991197D01*
X143232355Y-109956358D01*
X143143474Y-109840526D01*
X143027643Y-109751645D01*
X143027640Y-109751644D01*
X143027638Y-109751642D01*
X142892757Y-109695773D01*
X142892752Y-109695771D01*
X142748001Y-109676715D01*
X142747999Y-109676715D01*
X142603247Y-109695771D01*
X142603245Y-109695772D01*
X142468361Y-109751643D01*
X142468358Y-109751644D01*
X142468358Y-109751645D01*
X142352526Y-109840526D01*
X142268700Y-109949771D01*
X142263643Y-109956361D01*
X142207772Y-110091244D01*
X142207772Y-110091245D01*
X142198158Y-110164265D01*
X142169890Y-110228161D01*
X142162900Y-110235759D01*
X140764891Y-111633769D01*
X140716330Y-111682330D01*
X140716328Y-111682333D01*
X140669659Y-111763167D01*
X140662824Y-111788675D01*
X140646203Y-111850708D01*
X140645500Y-111853330D01*
X140645500Y-112661267D01*
X140625815Y-112728306D01*
X140573011Y-112774061D01*
X140503853Y-112784005D01*
X140457351Y-112767385D01*
X140354062Y-112704946D01*
X140197562Y-112656179D01*
X140150000Y-112651856D01*
X140150000Y-115448141D01*
X139650000Y-115448141D01*
X139650000Y-114300000D01*
X139050001Y-114300000D01*
X133584499Y-114300000D01*
X133584499Y-113899934D01*
X133569734Y-113825699D01*
X133552562Y-113800000D01*
X139050000Y-113800000D01*
X139650000Y-113800000D01*
X139650000Y-112651857D01*
X139649999Y-112651857D01*
X139602441Y-112656178D01*
X139445934Y-112704947D01*
X139305662Y-112789743D01*
X139305657Y-112789747D01*
X139189747Y-112905657D01*
X139189743Y-112905662D01*
X139104947Y-113045934D01*
X139056179Y-113202437D01*
X139050000Y-113270443D01*
X139050000Y-113800000D01*
X133552562Y-113800000D01*
X133513484Y-113741516D01*
X133489605Y-113725560D01*
X133444803Y-113671949D01*
X133434500Y-113622461D01*
X133434500Y-110273500D01*
X133454185Y-110206461D01*
X133506989Y-110160706D01*
X133558500Y-110149500D01*
X133626799Y-110149500D01*
X133693838Y-110169185D01*
X133714480Y-110185819D01*
X134285176Y-110756515D01*
X134318661Y-110817838D01*
X134313677Y-110887530D01*
X134309880Y-110896594D01*
X134266653Y-110989297D01*
X134252386Y-111042543D01*
X134209839Y-111201324D01*
X134209838Y-111201331D01*
X134190708Y-111419997D01*
X134190708Y-111420002D01*
X134209838Y-111638668D01*
X134209839Y-111638675D01*
X134212197Y-111647474D01*
X134266653Y-111850703D01*
X134266654Y-111850706D01*
X134266655Y-111850708D01*
X134359419Y-112049642D01*
X134359423Y-112049650D01*
X134485322Y-112229452D01*
X134485327Y-112229458D01*
X134640541Y-112384672D01*
X134640547Y-112384677D01*
X134820349Y-112510576D01*
X134820351Y-112510577D01*
X134820354Y-112510579D01*
X135019297Y-112603347D01*
X135231326Y-112660161D01*
X135387521Y-112673826D01*
X135449998Y-112679292D01*
X135450000Y-112679292D01*
X135450002Y-112679292D01*
X135504668Y-112674509D01*
X135668674Y-112660161D01*
X135880703Y-112603347D01*
X136079646Y-112510579D01*
X136259457Y-112384674D01*
X136414674Y-112229457D01*
X136540579Y-112049646D01*
X136633347Y-111850703D01*
X136690161Y-111638674D01*
X136706258Y-111454677D01*
X136709292Y-111420002D01*
X136709292Y-111419997D01*
X136690161Y-111201331D01*
X136690161Y-111201326D01*
X136633347Y-110989297D01*
X136540579Y-110790354D01*
X136540577Y-110790351D01*
X136540576Y-110790349D01*
X136414677Y-110610547D01*
X136414672Y-110610541D01*
X136259458Y-110455327D01*
X136259452Y-110455322D01*
X136079650Y-110329423D01*
X136079642Y-110329419D01*
X135880708Y-110236655D01*
X135880706Y-110236654D01*
X135880703Y-110236653D01*
X135729885Y-110196240D01*
X135668675Y-110179839D01*
X135668668Y-110179838D01*
X135450002Y-110160708D01*
X135449998Y-110160708D01*
X135231331Y-110179838D01*
X135231324Y-110179839D01*
X135133708Y-110205996D01*
X135019297Y-110236653D01*
X134926599Y-110279878D01*
X134857522Y-110290369D01*
X134793738Y-110261849D01*
X134786515Y-110255176D01*
X134057052Y-109525713D01*
X134023567Y-109464390D01*
X134028551Y-109394698D01*
X134057049Y-109350354D01*
X134441586Y-108965819D01*
X134502909Y-108932334D01*
X134529267Y-108929500D01*
X154256542Y-108929500D01*
X154256545Y-108929500D01*
X154365781Y-108900230D01*
X154401628Y-108879533D01*
X154463719Y-108843686D01*
X156341586Y-106965819D01*
X156402909Y-106932334D01*
X156429267Y-106929500D01*
X159864733Y-106929500D01*
X159931772Y-106949185D01*
X159952414Y-106965819D01*
X160215181Y-107228585D01*
X160248666Y-107289908D01*
X160251500Y-107316266D01*
X160251500Y-108289500D01*
X160231815Y-108356539D01*
X160179011Y-108402294D01*
X160127500Y-108413500D01*
X159897354Y-108413500D01*
X159845676Y-108421029D01*
X159828448Y-108423539D01*
X159760460Y-108456777D01*
X159691587Y-108468535D01*
X159651540Y-108456777D01*
X159583551Y-108423539D01*
X159573706Y-108422104D01*
X159514646Y-108413500D01*
X159247354Y-108413500D01*
X159178450Y-108423539D01*
X159178448Y-108423539D01*
X159178446Y-108423540D01*
X159072160Y-108475499D01*
X158988499Y-108559160D01*
X158936540Y-108665446D01*
X158936539Y-108665448D01*
X158936539Y-108665450D01*
X158926500Y-108734354D01*
X158926500Y-108734356D01*
X158926500Y-108734359D01*
X158926500Y-109307299D01*
X158906815Y-109374338D01*
X158890181Y-109394980D01*
X153575980Y-114709181D01*
X153514657Y-114742666D01*
X153488299Y-114745500D01*
X150746671Y-114745500D01*
X150653329Y-114745500D01*
X150593221Y-114761606D01*
X150563167Y-114769659D01*
X150482333Y-114816328D01*
X150482330Y-114816330D01*
X147501674Y-117796985D01*
X147440351Y-117830470D01*
X147370659Y-117825486D01*
X147314726Y-117783614D01*
X147299432Y-117756756D01*
X147284357Y-117720362D01*
X147284357Y-117720361D01*
X147284355Y-117720358D01*
X147195474Y-117604526D01*
X147079643Y-117515645D01*
X147079640Y-117515644D01*
X147079638Y-117515642D01*
X146944757Y-117459773D01*
X146944752Y-117459771D01*
X146800001Y-117440715D01*
X146799999Y-117440715D01*
X146655247Y-117459771D01*
X146655245Y-117459772D01*
X146520361Y-117515643D01*
X146520358Y-117515644D01*
X146520358Y-117515645D01*
X146404526Y-117604526D01*
X146404524Y-117604527D01*
X146404519Y-117604532D01*
X146399866Y-117609185D01*
X146338541Y-117642667D01*
X146312189Y-117645500D01*
X142987811Y-117645500D01*
X142920772Y-117625815D01*
X142900130Y-117609181D01*
X142895479Y-117604530D01*
X142889577Y-117600001D01*
X142779643Y-117515645D01*
X142779640Y-117515644D01*
X142779638Y-117515642D01*
X142644757Y-117459773D01*
X142644752Y-117459771D01*
X142500001Y-117440715D01*
X142499999Y-117440715D01*
X142355247Y-117459771D01*
X142355245Y-117459772D01*
X142220361Y-117515643D01*
X142220358Y-117515644D01*
X142220358Y-117515645D01*
X142104526Y-117604526D01*
X142016720Y-117718958D01*
X142015643Y-117720361D01*
X141959772Y-117855245D01*
X141959771Y-117855247D01*
X141940715Y-117999998D01*
X141940715Y-118000001D01*
X141959771Y-118144752D01*
X141959772Y-118144754D01*
X142013327Y-118274047D01*
X142020796Y-118343517D01*
X141989521Y-118405996D01*
X141929432Y-118441648D01*
X141898766Y-118445500D01*
X141853329Y-118445500D01*
X141838609Y-118449444D01*
X141790334Y-118452607D01*
X141700001Y-118440715D01*
X141699999Y-118440715D01*
X141555247Y-118459771D01*
X141555245Y-118459772D01*
X141420361Y-118515643D01*
X141420358Y-118515644D01*
X141420358Y-118515645D01*
X141304526Y-118604526D01*
X141219262Y-118715645D01*
X141215643Y-118720361D01*
X141159772Y-118855245D01*
X141159771Y-118855247D01*
X141140715Y-118999998D01*
X141140715Y-119000001D01*
X141159771Y-119144752D01*
X141159773Y-119144757D01*
X141215642Y-119279638D01*
X141215645Y-119279644D01*
X141304525Y-119395473D01*
X141304526Y-119395474D01*
X141420355Y-119484354D01*
X141420361Y-119484357D01*
X141482487Y-119510090D01*
X141555246Y-119540228D01*
X141627623Y-119549756D01*
X141699999Y-119559285D01*
X141700000Y-119559285D01*
X141700001Y-119559285D01*
X141748251Y-119552932D01*
X141844754Y-119540228D01*
X141979643Y-119484355D01*
X142095474Y-119395474D01*
X142184355Y-119279643D01*
X142204484Y-119231048D01*
X142248324Y-119176644D01*
X142314618Y-119154579D01*
X142319045Y-119154500D01*
X142398766Y-119154500D01*
X142465805Y-119174185D01*
X142511560Y-119226989D01*
X142521504Y-119296147D01*
X142513327Y-119325953D01*
X142459772Y-119455245D01*
X142459771Y-119455247D01*
X142440715Y-119599998D01*
X142440715Y-119600001D01*
X142459771Y-119744752D01*
X142459773Y-119744757D01*
X142515642Y-119879638D01*
X142515645Y-119879644D01*
X142604525Y-119995473D01*
X142604526Y-119995474D01*
X142720355Y-120084354D01*
X142720361Y-120084357D01*
X142787801Y-120112291D01*
X142855246Y-120140228D01*
X142874008Y-120142698D01*
X142999999Y-120159285D01*
X143000000Y-120159285D01*
X143000001Y-120159285D01*
X143064154Y-120150839D01*
X143144754Y-120140228D01*
X143279643Y-120084355D01*
X143395474Y-119995474D01*
X143395476Y-119995472D01*
X143400134Y-119990815D01*
X143461459Y-119957333D01*
X143487811Y-119954500D01*
X147346669Y-119954500D01*
X147346671Y-119954500D01*
X147436832Y-119930341D01*
X147517668Y-119883671D01*
X148235068Y-119166270D01*
X148296390Y-119132786D01*
X148366081Y-119137770D01*
X148422015Y-119179642D01*
X148445687Y-119237767D01*
X148459771Y-119344752D01*
X148459773Y-119344757D01*
X148515642Y-119479638D01*
X148515645Y-119479644D01*
X148604525Y-119595473D01*
X148604526Y-119595474D01*
X148720355Y-119684354D01*
X148720361Y-119684357D01*
X148776002Y-119707404D01*
X148855246Y-119740228D01*
X148927623Y-119749756D01*
X148999999Y-119759285D01*
X149000000Y-119759285D01*
X149000001Y-119759285D01*
X149048251Y-119752932D01*
X149144754Y-119740228D01*
X149279643Y-119684355D01*
X149309018Y-119661815D01*
X149317738Y-119655124D01*
X149382907Y-119629930D01*
X149393224Y-119629500D01*
X149693720Y-119629500D01*
X149760759Y-119649185D01*
X149796624Y-119687706D01*
X149797344Y-119687168D01*
X149802349Y-119693854D01*
X149802551Y-119694071D01*
X149802657Y-119694266D01*
X149889595Y-119810404D01*
X149947443Y-119853707D01*
X150005733Y-119897342D01*
X150141658Y-119948040D01*
X150201745Y-119954500D01*
X150998254Y-119954499D01*
X151058342Y-119948040D01*
X151194267Y-119897342D01*
X151310404Y-119810404D01*
X151397342Y-119694267D01*
X151448040Y-119558342D01*
X151450800Y-119532664D01*
X151454499Y-119498271D01*
X151454499Y-119498264D01*
X151454500Y-119498255D01*
X151454499Y-118501746D01*
X151448040Y-118441658D01*
X151401487Y-118316848D01*
X151396503Y-118247158D01*
X151429987Y-118185835D01*
X151491310Y-118152349D01*
X151533849Y-118150576D01*
X151600000Y-118159285D01*
X151666147Y-118150576D01*
X151735179Y-118161341D01*
X151787435Y-118207720D01*
X151806321Y-118274989D01*
X151798512Y-118316848D01*
X151751959Y-118441659D01*
X151751959Y-118441661D01*
X151745500Y-118501728D01*
X151745500Y-119498251D01*
X151745501Y-119498257D01*
X151751960Y-119558344D01*
X151802655Y-119694261D01*
X151802656Y-119694264D01*
X151802658Y-119694267D01*
X151803561Y-119695473D01*
X151889595Y-119810404D01*
X151947443Y-119853707D01*
X152005733Y-119897342D01*
X152089835Y-119928711D01*
X152145767Y-119970580D01*
X152170184Y-120036045D01*
X152170500Y-120044891D01*
X152170500Y-120306776D01*
X152150815Y-120373815D01*
X152144877Y-120382261D01*
X152115644Y-120420358D01*
X152059772Y-120555245D01*
X152059771Y-120555247D01*
X152040715Y-120699998D01*
X152040715Y-120700001D01*
X152059771Y-120844752D01*
X152059773Y-120844757D01*
X152115642Y-120979638D01*
X152115645Y-120979644D01*
X152204525Y-121095473D01*
X152204526Y-121095474D01*
X152320355Y-121184354D01*
X152320361Y-121184357D01*
X152387801Y-121212291D01*
X152455246Y-121240228D01*
X152527623Y-121249756D01*
X152599999Y-121259285D01*
X152600000Y-121259285D01*
X152600001Y-121259285D01*
X152648251Y-121252932D01*
X152744754Y-121240228D01*
X152879643Y-121184355D01*
X152995474Y-121095474D01*
X153084355Y-120979643D01*
X153140228Y-120844754D01*
X153159285Y-120700000D01*
X153154611Y-120664500D01*
X153140228Y-120555247D01*
X153140228Y-120555246D01*
X153084355Y-120420358D01*
X153055123Y-120382261D01*
X153029930Y-120317092D01*
X153029500Y-120306776D01*
X153029500Y-120044891D01*
X153049185Y-119977852D01*
X153101989Y-119932097D01*
X153110141Y-119928719D01*
X153194267Y-119897342D01*
X153310404Y-119810404D01*
X153397342Y-119694267D01*
X153448040Y-119558342D01*
X153450800Y-119532664D01*
X153454499Y-119498271D01*
X153454499Y-119498264D01*
X153454500Y-119498255D01*
X153454499Y-118501746D01*
X153448040Y-118441658D01*
X153422710Y-118373746D01*
X153397344Y-118305738D01*
X153397343Y-118305737D01*
X153397342Y-118305733D01*
X153351356Y-118244302D01*
X153310404Y-118189595D01*
X153233126Y-118131747D01*
X153194267Y-118102658D01*
X153058342Y-118051960D01*
X153058338Y-118051959D01*
X152998271Y-118045500D01*
X152201233Y-118045500D01*
X152134194Y-118025815D01*
X152088439Y-117973011D01*
X152078495Y-117903853D01*
X152086670Y-117874053D01*
X152140228Y-117744754D01*
X152158689Y-117604526D01*
X152159285Y-117600001D01*
X152159285Y-117593415D01*
X152178970Y-117526376D01*
X152195599Y-117505739D01*
X152360521Y-117340816D01*
X152421843Y-117307334D01*
X152448201Y-117304500D01*
X159770799Y-117304500D01*
X159837838Y-117324185D01*
X159883593Y-117376989D01*
X159893537Y-117446147D01*
X159864512Y-117509703D01*
X159858480Y-117516181D01*
X159720330Y-117654330D01*
X159720328Y-117654333D01*
X159673659Y-117735167D01*
X159647397Y-117833179D01*
X159644114Y-117832299D01*
X159621621Y-117882040D01*
X159562983Y-117920032D01*
X159553168Y-117922003D01*
X159553209Y-117922175D01*
X159545657Y-117923959D01*
X159409738Y-117974655D01*
X159409730Y-117974660D01*
X159293595Y-118061595D01*
X159213636Y-118168411D01*
X159206658Y-118177733D01*
X159155960Y-118313658D01*
X159155959Y-118313662D01*
X159149500Y-118373728D01*
X159149500Y-119173798D01*
X159129815Y-119240837D01*
X159113180Y-119261480D01*
X159070179Y-119304480D01*
X159008856Y-119337965D01*
X158939164Y-119332979D01*
X158883231Y-119291107D01*
X158858815Y-119225643D01*
X158858499Y-119216821D01*
X158858499Y-118373746D01*
X158852040Y-118313658D01*
X158827681Y-118248350D01*
X158801344Y-118177738D01*
X158801343Y-118177737D01*
X158801342Y-118177733D01*
X158726594Y-118077880D01*
X158714404Y-118061595D01*
X158600973Y-117976684D01*
X158598267Y-117974658D01*
X158462342Y-117923960D01*
X158462338Y-117923959D01*
X158402263Y-117917500D01*
X157605748Y-117917500D01*
X157605742Y-117917501D01*
X157545655Y-117923960D01*
X157409738Y-117974655D01*
X157409730Y-117974660D01*
X157293595Y-118061595D01*
X157213636Y-118168411D01*
X157206658Y-118177733D01*
X157155960Y-118313658D01*
X157155959Y-118313662D01*
X157149500Y-118373728D01*
X157149500Y-118393500D01*
X157129815Y-118460539D01*
X157077011Y-118506294D01*
X157025500Y-118517500D01*
X154981329Y-118517500D01*
X154921221Y-118533606D01*
X154891167Y-118541659D01*
X154810333Y-118588328D01*
X154810330Y-118588330D01*
X154694265Y-118704396D01*
X154632942Y-118737881D01*
X154606584Y-118740715D01*
X154599999Y-118740715D01*
X154455247Y-118759771D01*
X154455245Y-118759772D01*
X154320361Y-118815643D01*
X154320358Y-118815644D01*
X154320358Y-118815645D01*
X154204526Y-118904526D01*
X154131266Y-119000001D01*
X154115643Y-119020361D01*
X154059772Y-119155245D01*
X154059771Y-119155247D01*
X154040715Y-119299998D01*
X154040715Y-119300001D01*
X154059771Y-119444752D01*
X154059773Y-119444757D01*
X154115642Y-119579638D01*
X154115645Y-119579644D01*
X154204525Y-119695473D01*
X154204526Y-119695474D01*
X154320355Y-119784354D01*
X154320361Y-119784357D01*
X154383824Y-119810644D01*
X154424053Y-119837524D01*
X154859181Y-120272652D01*
X154892666Y-120333975D01*
X154895500Y-120360333D01*
X154895500Y-122798082D01*
X154875815Y-122865121D01*
X154823011Y-122910876D01*
X154814843Y-122914259D01*
X154811835Y-122915381D01*
X154805734Y-122917657D01*
X154805730Y-122917660D01*
X154689595Y-123004595D01*
X154626038Y-123089500D01*
X154602658Y-123120733D01*
X154551960Y-123256658D01*
X154551959Y-123256662D01*
X154545500Y-123316728D01*
X154545500Y-124053733D01*
X154525815Y-124120772D01*
X154473011Y-124166527D01*
X154403853Y-124176471D01*
X154340297Y-124147446D01*
X154333819Y-124141414D01*
X154290818Y-124098413D01*
X154257333Y-124037090D01*
X154254499Y-124010732D01*
X154254499Y-123316748D01*
X154254499Y-123316745D01*
X154248040Y-123256658D01*
X154241085Y-123238011D01*
X154197344Y-123120738D01*
X154197343Y-123120736D01*
X154197342Y-123120733D01*
X154119698Y-123017011D01*
X154110404Y-123004595D01*
X154030463Y-122944754D01*
X153994267Y-122917658D01*
X153858342Y-122866960D01*
X153858338Y-122866959D01*
X153798263Y-122860500D01*
X153001748Y-122860500D01*
X153001742Y-122860501D01*
X152941655Y-122866960D01*
X152805738Y-122917655D01*
X152805730Y-122917660D01*
X152689595Y-123004595D01*
X152626038Y-123089500D01*
X152602658Y-123120733D01*
X152551960Y-123256658D01*
X152551959Y-123256662D01*
X152545500Y-123316728D01*
X152545500Y-124313251D01*
X152545501Y-124313257D01*
X152551960Y-124373344D01*
X152602655Y-124509261D01*
X152602656Y-124509264D01*
X152602658Y-124509267D01*
X152626712Y-124541400D01*
X152689595Y-124625404D01*
X152739970Y-124663113D01*
X152805733Y-124712342D01*
X152941658Y-124763040D01*
X153001745Y-124769500D01*
X153695732Y-124769499D01*
X153762771Y-124789183D01*
X153783413Y-124805818D01*
X155059181Y-126081586D01*
X155092666Y-126142909D01*
X155095500Y-126169267D01*
X155095500Y-126179432D01*
X155075815Y-126246471D01*
X155023011Y-126292226D01*
X155014836Y-126295613D01*
X154955734Y-126317657D01*
X154955730Y-126317660D01*
X154839595Y-126404595D01*
X154752660Y-126520730D01*
X154752657Y-126520735D01*
X154746808Y-126536416D01*
X154704934Y-126592348D01*
X154639468Y-126616761D01*
X154571196Y-126601906D01*
X154521793Y-126552499D01*
X154512922Y-126532080D01*
X154484359Y-126445882D01*
X154484356Y-126445875D01*
X154392315Y-126296654D01*
X154268345Y-126172684D01*
X154119124Y-126080643D01*
X154119119Y-126080641D01*
X153952697Y-126025494D01*
X153952690Y-126025493D01*
X153849986Y-126015000D01*
X153725000Y-126015000D01*
X153725000Y-128414999D01*
X153849972Y-128414999D01*
X153849986Y-128414998D01*
X153952697Y-128404505D01*
X154119119Y-128349358D01*
X154119124Y-128349356D01*
X154268345Y-128257315D01*
X154392315Y-128133345D01*
X154484356Y-127984124D01*
X154484359Y-127984117D01*
X154512922Y-127897918D01*
X154552694Y-127840473D01*
X154617209Y-127813649D01*
X154685985Y-127825963D01*
X154737186Y-127873506D01*
X154746808Y-127893583D01*
X154752658Y-127909267D01*
X154781747Y-127948126D01*
X154839595Y-128025404D01*
X154897443Y-128068707D01*
X154955733Y-128112342D01*
X155091658Y-128163040D01*
X155151745Y-128169500D01*
X155898254Y-128169499D01*
X155958342Y-128163040D01*
X156094267Y-128112342D01*
X156210404Y-128025404D01*
X156297342Y-127909267D01*
X156348040Y-127773342D01*
X156350800Y-127747664D01*
X156354499Y-127713271D01*
X156354499Y-127713264D01*
X156354500Y-127713255D01*
X156354499Y-126716746D01*
X156348040Y-126656658D01*
X156332571Y-126615185D01*
X156323201Y-126590063D01*
X158020500Y-126590063D01*
X158035266Y-126664301D01*
X158091515Y-126748484D01*
X158125234Y-126771014D01*
X158175699Y-126804734D01*
X158175702Y-126804734D01*
X158175703Y-126804735D01*
X158200666Y-126809700D01*
X158249933Y-126819500D01*
X160000066Y-126819499D01*
X160074301Y-126804734D01*
X160158484Y-126748484D01*
X160214734Y-126664301D01*
X160229500Y-126590067D01*
X160229499Y-125714999D01*
X160555768Y-125714999D01*
X160574654Y-125918816D01*
X160574654Y-125918818D01*
X160574655Y-125918821D01*
X160621632Y-126083928D01*
X160630673Y-126115704D01*
X160721912Y-126298935D01*
X160845269Y-126462287D01*
X160996537Y-126600185D01*
X160996539Y-126600187D01*
X161170569Y-126707942D01*
X161170575Y-126707945D01*
X161209287Y-126722942D01*
X161361444Y-126781888D01*
X161562653Y-126819500D01*
X161562656Y-126819500D01*
X161767344Y-126819500D01*
X161767347Y-126819500D01*
X161968556Y-126781888D01*
X162159427Y-126707944D01*
X162333462Y-126600186D01*
X162484732Y-126462285D01*
X162608088Y-126298935D01*
X162699328Y-126115701D01*
X162755345Y-125918821D01*
X162774232Y-125715000D01*
X162755345Y-125511179D01*
X162699328Y-125314299D01*
X162608088Y-125131065D01*
X162537371Y-125037420D01*
X162484730Y-124967712D01*
X162333462Y-124829814D01*
X162333460Y-124829812D01*
X162159430Y-124722057D01*
X162159424Y-124722054D01*
X161988806Y-124655957D01*
X161968556Y-124648112D01*
X161767347Y-124610500D01*
X161562653Y-124610500D01*
X161361444Y-124648112D01*
X161361441Y-124648112D01*
X161361441Y-124648113D01*
X161170575Y-124722054D01*
X161170569Y-124722057D01*
X160996539Y-124829812D01*
X160996537Y-124829814D01*
X160845269Y-124967712D01*
X160721912Y-125131064D01*
X160630673Y-125314295D01*
X160574654Y-125511183D01*
X160555768Y-125714999D01*
X160229499Y-125714999D01*
X160229499Y-124839934D01*
X160214734Y-124765699D01*
X160179082Y-124712342D01*
X160158484Y-124681515D01*
X160108019Y-124647796D01*
X160074301Y-124625266D01*
X160074299Y-124625265D01*
X160074296Y-124625264D01*
X160000069Y-124610500D01*
X158249936Y-124610500D01*
X158175698Y-124625266D01*
X158091515Y-124681515D01*
X158035266Y-124765699D01*
X158035264Y-124765703D01*
X158020500Y-124839928D01*
X158020500Y-126590063D01*
X156323201Y-126590063D01*
X156297344Y-126520738D01*
X156297343Y-126520737D01*
X156297342Y-126520733D01*
X156241310Y-126445882D01*
X156210404Y-126404595D01*
X156121735Y-126338220D01*
X156094267Y-126317658D01*
X156094265Y-126317657D01*
X156035164Y-126295613D01*
X155979232Y-126253741D01*
X155954816Y-126188276D01*
X155954500Y-126179432D01*
X155954500Y-125883457D01*
X155954500Y-125883455D01*
X155925230Y-125774219D01*
X155891040Y-125715000D01*
X155868686Y-125676281D01*
X155173585Y-124981180D01*
X155140100Y-124919857D01*
X155145084Y-124850165D01*
X155186956Y-124794232D01*
X155252420Y-124769815D01*
X155261247Y-124769499D01*
X155798254Y-124769499D01*
X155858342Y-124763040D01*
X155994267Y-124712342D01*
X156110404Y-124625404D01*
X156197342Y-124509267D01*
X156238036Y-124400163D01*
X156279906Y-124344233D01*
X156345370Y-124319816D01*
X156354216Y-124319500D01*
X159969416Y-124319500D01*
X159969419Y-124319500D01*
X160097730Y-124285119D01*
X160139837Y-124260808D01*
X160212770Y-124218701D01*
X162384701Y-122046770D01*
X162435878Y-121958128D01*
X162451119Y-121931730D01*
X162485500Y-121803419D01*
X162485500Y-119350500D01*
X162505185Y-119283461D01*
X162557989Y-119237706D01*
X162609500Y-119226500D01*
X162829501Y-119226500D01*
X162896540Y-119246185D01*
X162942295Y-119298989D01*
X162953501Y-119350500D01*
X162953501Y-119395257D01*
X162959960Y-119455344D01*
X163010655Y-119591261D01*
X163010656Y-119591264D01*
X163010658Y-119591267D01*
X163017196Y-119600001D01*
X163097595Y-119707404D01*
X163141444Y-119740228D01*
X163213733Y-119794342D01*
X163349658Y-119845040D01*
X163409745Y-119851500D01*
X164006254Y-119851499D01*
X164066342Y-119845040D01*
X164202267Y-119794342D01*
X164318404Y-119707404D01*
X164405342Y-119591267D01*
X164411190Y-119575587D01*
X164453060Y-119519655D01*
X164518525Y-119495238D01*
X164586798Y-119510090D01*
X164636203Y-119559495D01*
X164645077Y-119579918D01*
X164673641Y-119666119D01*
X164673643Y-119666124D01*
X164765684Y-119815345D01*
X164889654Y-119939315D01*
X165038875Y-120031356D01*
X165038880Y-120031358D01*
X165205302Y-120086505D01*
X165205309Y-120086506D01*
X165308019Y-120096999D01*
X165357999Y-120096998D01*
X165358000Y-120096998D01*
X165358000Y-119122000D01*
X165858000Y-119122000D01*
X165858000Y-120096999D01*
X165907972Y-120096999D01*
X165907986Y-120096998D01*
X166010697Y-120086505D01*
X166177119Y-120031358D01*
X166177124Y-120031356D01*
X166326345Y-119939315D01*
X166450315Y-119815345D01*
X166542356Y-119666124D01*
X166542358Y-119666119D01*
X166597505Y-119499697D01*
X166597506Y-119499690D01*
X166607999Y-119396986D01*
X166608000Y-119396973D01*
X166608000Y-119122000D01*
X165858000Y-119122000D01*
X165358000Y-119122000D01*
X165358000Y-117647000D01*
X165858000Y-117647000D01*
X165858000Y-118622000D01*
X166607999Y-118622000D01*
X166607999Y-118347028D01*
X166607998Y-118347013D01*
X166597505Y-118244302D01*
X166542358Y-118077880D01*
X166542356Y-118077875D01*
X166450315Y-117928654D01*
X166326345Y-117804684D01*
X166177124Y-117712643D01*
X166177119Y-117712641D01*
X166010697Y-117657494D01*
X166010690Y-117657493D01*
X165907986Y-117647000D01*
X165858000Y-117647000D01*
X165358000Y-117647000D01*
X165357999Y-117646999D01*
X165308029Y-117647000D01*
X165308011Y-117647001D01*
X165205302Y-117657494D01*
X165038880Y-117712641D01*
X165038875Y-117712643D01*
X164889654Y-117804684D01*
X164765684Y-117928654D01*
X164673643Y-118077875D01*
X164673641Y-118077880D01*
X164645077Y-118164082D01*
X164605304Y-118221527D01*
X164540788Y-118248350D01*
X164472012Y-118236035D01*
X164420813Y-118188492D01*
X164411191Y-118168417D01*
X164405342Y-118152733D01*
X164361707Y-118094443D01*
X164318404Y-118036595D01*
X164235665Y-117974659D01*
X164202267Y-117949658D01*
X164066342Y-117898960D01*
X164066338Y-117898959D01*
X164006263Y-117892500D01*
X163409748Y-117892500D01*
X163409742Y-117892501D01*
X163349655Y-117898960D01*
X163213738Y-117949655D01*
X163213730Y-117949660D01*
X163097595Y-118036595D01*
X163010945Y-118152349D01*
X163010658Y-118152733D01*
X162959960Y-118288658D01*
X162959959Y-118288662D01*
X162953500Y-118348728D01*
X162953500Y-118393500D01*
X162933815Y-118460539D01*
X162881011Y-118506294D01*
X162829500Y-118517500D01*
X162609500Y-118517500D01*
X162542461Y-118497815D01*
X162496706Y-118445011D01*
X162485500Y-118393500D01*
X162485500Y-116246500D01*
X162505185Y-116179461D01*
X162557989Y-116133706D01*
X162609500Y-116122500D01*
X162764640Y-116122500D01*
X162764646Y-116122500D01*
X162833550Y-116112461D01*
X162901539Y-116079222D01*
X162970412Y-116067463D01*
X163010461Y-116079223D01*
X163078447Y-116112460D01*
X163078448Y-116112460D01*
X163078450Y-116112461D01*
X163147354Y-116122500D01*
X163147360Y-116122500D01*
X163414640Y-116122500D01*
X163414646Y-116122500D01*
X163483550Y-116112461D01*
X163551539Y-116079222D01*
X163620412Y-116067463D01*
X163660461Y-116079223D01*
X163728447Y-116112460D01*
X163728448Y-116112460D01*
X163728450Y-116112461D01*
X163797354Y-116122500D01*
X163797360Y-116122500D01*
X164064640Y-116122500D01*
X164064646Y-116122500D01*
X164133550Y-116112461D01*
X164182012Y-116088769D01*
X164250881Y-116077010D01*
X164315178Y-116104352D01*
X164324151Y-116112489D01*
X164629330Y-116417668D01*
X164695333Y-116483671D01*
X164776169Y-116530341D01*
X164866330Y-116554500D01*
X164866332Y-116554500D01*
X166294669Y-116554500D01*
X166294671Y-116554500D01*
X166384832Y-116530341D01*
X166465668Y-116483671D01*
X167230516Y-115718821D01*
X167291837Y-115685338D01*
X167361528Y-115690322D01*
X167370599Y-115694122D01*
X167443592Y-115728158D01*
X167463297Y-115737347D01*
X167675326Y-115794161D01*
X167825784Y-115807324D01*
X167893998Y-115813292D01*
X167894000Y-115813292D01*
X167894002Y-115813292D01*
X167962216Y-115807324D01*
X168112674Y-115794161D01*
X168324703Y-115737347D01*
X168523646Y-115644579D01*
X168703457Y-115518674D01*
X168858674Y-115363457D01*
X168984579Y-115183646D01*
X169077347Y-114984703D01*
X169134161Y-114772674D01*
X169153292Y-114554000D01*
X169134161Y-114335326D01*
X169077347Y-114123297D01*
X168984579Y-113924354D01*
X168984577Y-113924351D01*
X168984576Y-113924349D01*
X168858677Y-113744547D01*
X168858672Y-113744541D01*
X168703458Y-113589327D01*
X168703452Y-113589322D01*
X168523650Y-113463423D01*
X168523642Y-113463419D01*
X168324708Y-113370655D01*
X168324706Y-113370654D01*
X168324703Y-113370653D01*
X168173885Y-113330240D01*
X168112675Y-113313839D01*
X168112668Y-113313838D01*
X167894002Y-113294708D01*
X167893998Y-113294708D01*
X167675331Y-113313838D01*
X167675324Y-113313839D01*
X167552902Y-113346642D01*
X167463297Y-113370653D01*
X167463295Y-113370653D01*
X167463291Y-113370655D01*
X167264357Y-113463419D01*
X167264349Y-113463423D01*
X167084547Y-113589322D01*
X167084541Y-113589327D01*
X166929327Y-113744541D01*
X166929322Y-113744547D01*
X166803423Y-113924349D01*
X166803419Y-113924357D01*
X166710655Y-114123291D01*
X166710653Y-114123295D01*
X166710653Y-114123297D01*
X166689966Y-114200499D01*
X166653839Y-114335324D01*
X166653838Y-114335331D01*
X166634708Y-114553997D01*
X166634708Y-114554002D01*
X166653838Y-114772668D01*
X166653839Y-114772675D01*
X166665537Y-114816330D01*
X166710653Y-114984703D01*
X166742996Y-115054064D01*
X166753877Y-115077397D01*
X166764369Y-115146475D01*
X166735849Y-115210259D01*
X166729176Y-115217483D01*
X166137480Y-115809181D01*
X166076157Y-115842666D01*
X166049799Y-115845500D01*
X165809500Y-115845500D01*
X165742461Y-115825815D01*
X165696706Y-115773011D01*
X165685500Y-115721500D01*
X165685500Y-114459359D01*
X165685500Y-114459356D01*
X165685500Y-114459354D01*
X165675461Y-114390450D01*
X165673244Y-114385915D01*
X165623500Y-114284160D01*
X165539839Y-114200499D01*
X165433553Y-114148540D01*
X165433551Y-114148539D01*
X165433550Y-114148539D01*
X165364646Y-114138500D01*
X165097354Y-114138500D01*
X165077374Y-114141410D01*
X165008198Y-114131596D01*
X164955309Y-114085939D01*
X164935500Y-114018937D01*
X164935500Y-111448330D01*
X164935500Y-111448329D01*
X164911341Y-111358168D01*
X164909558Y-111355079D01*
X164908846Y-111352147D01*
X164908230Y-111350658D01*
X164908462Y-111350561D01*
X164893087Y-111287179D01*
X164894005Y-111276909D01*
X164897285Y-111252000D01*
X164878228Y-111107246D01*
X164840413Y-111015953D01*
X164832944Y-110946483D01*
X164864219Y-110884004D01*
X164924308Y-110848352D01*
X164954974Y-110844500D01*
X166596122Y-110844500D01*
X166663161Y-110864185D01*
X166708504Y-110916095D01*
X166803421Y-111119646D01*
X166803423Y-111119650D01*
X166929322Y-111299452D01*
X166929327Y-111299458D01*
X167084541Y-111454672D01*
X167084547Y-111454677D01*
X167264349Y-111580576D01*
X167264351Y-111580577D01*
X167264354Y-111580579D01*
X167463297Y-111673347D01*
X167675326Y-111730161D01*
X167831521Y-111743826D01*
X167893998Y-111749292D01*
X167894000Y-111749292D01*
X167894002Y-111749292D01*
X167948668Y-111744509D01*
X168112674Y-111730161D01*
X168324703Y-111673347D01*
X168523646Y-111580579D01*
X168703457Y-111454674D01*
X168858674Y-111299457D01*
X168984579Y-111119646D01*
X169077347Y-110920703D01*
X169134161Y-110708674D01*
X169153292Y-110490000D01*
X169152366Y-110479421D01*
X169145803Y-110404401D01*
X169134161Y-110271326D01*
X169077347Y-110059297D01*
X168984579Y-109860354D01*
X168984577Y-109860351D01*
X168984576Y-109860349D01*
X168858677Y-109680547D01*
X168858672Y-109680541D01*
X168703458Y-109525327D01*
X168703452Y-109525322D01*
X168523650Y-109399423D01*
X168523642Y-109399419D01*
X168324708Y-109306655D01*
X168324706Y-109306654D01*
X168324703Y-109306653D01*
X168173885Y-109266240D01*
X168112675Y-109249839D01*
X168112668Y-109249838D01*
X167894002Y-109230708D01*
X167893998Y-109230708D01*
X167675331Y-109249838D01*
X167675324Y-109249839D01*
X167552902Y-109282642D01*
X167463297Y-109306653D01*
X167463295Y-109306653D01*
X167463291Y-109306655D01*
X167264357Y-109399419D01*
X167264349Y-109399423D01*
X167084547Y-109525322D01*
X167084541Y-109525327D01*
X166929327Y-109680541D01*
X166929322Y-109680547D01*
X166803423Y-109860349D01*
X166803421Y-109860353D01*
X166708504Y-110063905D01*
X166662332Y-110116344D01*
X166596122Y-110135500D01*
X165809500Y-110135500D01*
X165742461Y-110115815D01*
X165696706Y-110063011D01*
X165685500Y-110011500D01*
X165685500Y-108734359D01*
X165685500Y-108734356D01*
X165685500Y-108734354D01*
X165675461Y-108665450D01*
X165673244Y-108660915D01*
X165623500Y-108559160D01*
X165539839Y-108475499D01*
X165433553Y-108423540D01*
X165433551Y-108423539D01*
X165433550Y-108423539D01*
X165364646Y-108413500D01*
X165097354Y-108413500D01*
X165045676Y-108421029D01*
X165028448Y-108423539D01*
X164960460Y-108456777D01*
X164891587Y-108468535D01*
X164851540Y-108456777D01*
X164783551Y-108423539D01*
X164773706Y-108422104D01*
X164714646Y-108413500D01*
X164447354Y-108413500D01*
X164395676Y-108421029D01*
X164378448Y-108423539D01*
X164310460Y-108456777D01*
X164241587Y-108468535D01*
X164201540Y-108456777D01*
X164133551Y-108423539D01*
X164123706Y-108422104D01*
X164064646Y-108413500D01*
X163797354Y-108413500D01*
X163745676Y-108421029D01*
X163728448Y-108423539D01*
X163660460Y-108456777D01*
X163591587Y-108468535D01*
X163551540Y-108456777D01*
X163483551Y-108423539D01*
X163473706Y-108422104D01*
X163414646Y-108413500D01*
X163276416Y-108413500D01*
X163209377Y-108393815D01*
X163178041Y-108364987D01*
X163158926Y-108340077D01*
X163033586Y-108243899D01*
X162887631Y-108183444D01*
X162831000Y-108175987D01*
X162831000Y-108694480D01*
X162829705Y-108712354D01*
X162826500Y-108734356D01*
X162826500Y-110076646D01*
X162829704Y-110098637D01*
X162831000Y-110116515D01*
X162831000Y-110635010D01*
X162835968Y-110634357D01*
X162905003Y-110645123D01*
X162957258Y-110691503D01*
X162976143Y-110758773D01*
X162955662Y-110825573D01*
X162932232Y-110850738D01*
X162932273Y-110850779D01*
X162931153Y-110851898D01*
X162927647Y-110855665D01*
X162926529Y-110856522D01*
X162926526Y-110856526D01*
X162862207Y-110940349D01*
X162837643Y-110972361D01*
X162781772Y-111107245D01*
X162781771Y-111107247D01*
X162762715Y-111251998D01*
X162762715Y-111252001D01*
X162781771Y-111396752D01*
X162781773Y-111396757D01*
X162837642Y-111531638D01*
X162837645Y-111531644D01*
X162926525Y-111647473D01*
X162926526Y-111647474D01*
X163042355Y-111736354D01*
X163042361Y-111736357D01*
X163107087Y-111763167D01*
X163177246Y-111792228D01*
X163249623Y-111801756D01*
X163321999Y-111811285D01*
X163328584Y-111811285D01*
X163395623Y-111830970D01*
X163416265Y-111847604D01*
X163540181Y-111971520D01*
X163573666Y-112032843D01*
X163576500Y-112059201D01*
X163576500Y-114018706D01*
X163556815Y-114085745D01*
X163504011Y-114131500D01*
X163434853Y-114141444D01*
X163414646Y-114138500D01*
X163147354Y-114138500D01*
X163095676Y-114146029D01*
X163078448Y-114148539D01*
X163010460Y-114181777D01*
X162941587Y-114193535D01*
X162901540Y-114181777D01*
X162833551Y-114148539D01*
X162823706Y-114147104D01*
X162764646Y-114138500D01*
X162497354Y-114138500D01*
X162477374Y-114141410D01*
X162408198Y-114131596D01*
X162355309Y-114085939D01*
X162335500Y-114018937D01*
X162335500Y-110763832D01*
X162355185Y-110696793D01*
X162407989Y-110651038D01*
X162413699Y-110650182D01*
X162431000Y-110635010D01*
X162431000Y-110116515D01*
X162432296Y-110098637D01*
X162435500Y-110076646D01*
X162435500Y-108734356D01*
X162432295Y-108712354D01*
X162431000Y-108694480D01*
X162431000Y-108175987D01*
X162374368Y-108183444D01*
X162228413Y-108243899D01*
X162103073Y-108340077D01*
X162083959Y-108364987D01*
X162027531Y-108406190D01*
X161985584Y-108413500D01*
X161884500Y-108413500D01*
X161817461Y-108393815D01*
X161771706Y-108341011D01*
X161760500Y-108289500D01*
X161760500Y-106902639D01*
X161760500Y-106902637D01*
X161731230Y-106793401D01*
X161702313Y-106743315D01*
X161674686Y-106695463D01*
X160585537Y-105606314D01*
X160523446Y-105570466D01*
X160487601Y-105549771D01*
X160487600Y-105549770D01*
X160455425Y-105541149D01*
X160378363Y-105520500D01*
X155893455Y-105520500D01*
X155816393Y-105541149D01*
X155784218Y-105549770D01*
X155686282Y-105606313D01*
X155686279Y-105606315D01*
X153808414Y-107484181D01*
X153747091Y-107517666D01*
X153720733Y-107520500D01*
X134015637Y-107520500D01*
X133906401Y-107549770D01*
X133906399Y-107549770D01*
X133906399Y-107549771D01*
X133808463Y-107606315D01*
X133808460Y-107606317D01*
X132056316Y-109358460D01*
X132056314Y-109358463D01*
X132020466Y-109420553D01*
X132020465Y-109420555D01*
X132020464Y-109420554D01*
X131999771Y-109456396D01*
X131999770Y-109456401D01*
X131970500Y-109565637D01*
X131970500Y-109565639D01*
X131970500Y-109870733D01*
X131950815Y-109937772D01*
X131934181Y-109958414D01*
X128978414Y-112914181D01*
X128917091Y-112947666D01*
X128890733Y-112950500D01*
X128693201Y-112950500D01*
X128626162Y-112930815D01*
X128605520Y-112914181D01*
X127924823Y-112233484D01*
X127891338Y-112172161D01*
X127896322Y-112102469D01*
X127900122Y-112093398D01*
X127943347Y-112000703D01*
X128000161Y-111788674D01*
X128015239Y-111616328D01*
X128019292Y-111570002D01*
X128019292Y-111569997D01*
X128009203Y-111454677D01*
X128000161Y-111351326D01*
X127943347Y-111139297D01*
X127850579Y-110940354D01*
X127850577Y-110940351D01*
X127850576Y-110940349D01*
X127724677Y-110760547D01*
X127724672Y-110760541D01*
X127569458Y-110605327D01*
X127569452Y-110605322D01*
X127389650Y-110479423D01*
X127389642Y-110479419D01*
X127190708Y-110386655D01*
X127190706Y-110386654D01*
X127190703Y-110386653D01*
X127025787Y-110342463D01*
X126978675Y-110329839D01*
X126978668Y-110329838D01*
X126760002Y-110310708D01*
X126759998Y-110310708D01*
X126541331Y-110329838D01*
X126541324Y-110329839D01*
X126450325Y-110354223D01*
X126329297Y-110386653D01*
X126329295Y-110386653D01*
X126329291Y-110386655D01*
X126130357Y-110479419D01*
X126130349Y-110479423D01*
X125950547Y-110605322D01*
X125950541Y-110605327D01*
X125795327Y-110760541D01*
X125795322Y-110760547D01*
X125669423Y-110940349D01*
X125669419Y-110940357D01*
X125576655Y-111139291D01*
X125519839Y-111351324D01*
X125519838Y-111351331D01*
X125500708Y-111569997D01*
X125500708Y-111570002D01*
X123150500Y-111570002D01*
X123150500Y-105326730D01*
X139295500Y-105326730D01*
X139298220Y-105355746D01*
X139298222Y-105355755D01*
X139340984Y-105477959D01*
X139340984Y-105477960D01*
X139417866Y-105582132D01*
X139417867Y-105582133D01*
X139522039Y-105659015D01*
X139522038Y-105659015D01*
X139522041Y-105659016D01*
X139644249Y-105701779D01*
X139673267Y-105704500D01*
X140126732Y-105704499D01*
X140155751Y-105701779D01*
X140277959Y-105659016D01*
X140359756Y-105598647D01*
X140425381Y-105574678D01*
X140493551Y-105589993D01*
X140507016Y-105598646D01*
X140585227Y-105656369D01*
X140592792Y-105659016D01*
X140714541Y-105701619D01*
X140714545Y-105701619D01*
X140714549Y-105701621D01*
X140745251Y-105704500D01*
X141254748Y-105704499D01*
X141285451Y-105701621D01*
X141414773Y-105656369D01*
X141476366Y-105610910D01*
X141541995Y-105586940D01*
X141610166Y-105602255D01*
X141623633Y-105610910D01*
X141685227Y-105656369D01*
X141692792Y-105659016D01*
X141814541Y-105701619D01*
X141814545Y-105701619D01*
X141814549Y-105701621D01*
X141845251Y-105704500D01*
X142354748Y-105704499D01*
X142385451Y-105701621D01*
X142385453Y-105701620D01*
X142392965Y-105700916D01*
X142393181Y-105703230D01*
X142451457Y-105707334D01*
X142495932Y-105735882D01*
X142565122Y-105805072D01*
X142710604Y-105893019D01*
X142710603Y-105893019D01*
X142872894Y-105943590D01*
X142872893Y-105943590D01*
X142943408Y-105949998D01*
X142943426Y-105949999D01*
X143450000Y-105949999D01*
X143456581Y-105949999D01*
X143527102Y-105943591D01*
X143527107Y-105943590D01*
X143689396Y-105893018D01*
X143834875Y-105805073D01*
X143904065Y-105735883D01*
X143965388Y-105702398D01*
X144006895Y-105702416D01*
X144007036Y-105700917D01*
X144025790Y-105702675D01*
X144045251Y-105704500D01*
X144554748Y-105704499D01*
X144585451Y-105701621D01*
X144714773Y-105656369D01*
X144776366Y-105610910D01*
X144841995Y-105586940D01*
X144910166Y-105602255D01*
X144923633Y-105610910D01*
X144985227Y-105656369D01*
X144992792Y-105659016D01*
X145114541Y-105701619D01*
X145114545Y-105701619D01*
X145114549Y-105701621D01*
X145145251Y-105704500D01*
X145654748Y-105704499D01*
X145685451Y-105701621D01*
X145685453Y-105701620D01*
X145692965Y-105700916D01*
X145693181Y-105703230D01*
X145751457Y-105707334D01*
X145795932Y-105735882D01*
X145865122Y-105805072D01*
X146010604Y-105893019D01*
X146010603Y-105893019D01*
X146172894Y-105943590D01*
X146172893Y-105943590D01*
X146243408Y-105949998D01*
X146243426Y-105949999D01*
X146750000Y-105949999D01*
X146756581Y-105949999D01*
X146827102Y-105943591D01*
X146827107Y-105943590D01*
X146989396Y-105893018D01*
X147134875Y-105805073D01*
X147204065Y-105735883D01*
X147265388Y-105702398D01*
X147306895Y-105702416D01*
X147307036Y-105700917D01*
X147325790Y-105702675D01*
X147345251Y-105704500D01*
X147854748Y-105704499D01*
X147885451Y-105701621D01*
X147894559Y-105698433D01*
X147964336Y-105694869D01*
X148023198Y-105727793D01*
X148105657Y-105810252D01*
X148105662Y-105810256D01*
X148245934Y-105895052D01*
X148402442Y-105943821D01*
X148402440Y-105943821D01*
X148449999Y-105948142D01*
X148450000Y-105948142D01*
X148450000Y-104800000D01*
X148950000Y-104800000D01*
X148950000Y-105948141D01*
X148997561Y-105943821D01*
X148997570Y-105943819D01*
X149154060Y-105895055D01*
X149154064Y-105895053D01*
X149294337Y-105810256D01*
X149294342Y-105810252D01*
X149410252Y-105694342D01*
X149410256Y-105694337D01*
X149495052Y-105554065D01*
X149543820Y-105397562D01*
X149550000Y-105329556D01*
X149550000Y-104800000D01*
X148950000Y-104800000D01*
X148450000Y-104800000D01*
X148450000Y-103151857D01*
X148449999Y-103151857D01*
X148402441Y-103156178D01*
X148240390Y-103206675D01*
X148170530Y-103207825D01*
X148111137Y-103171024D01*
X148101999Y-103151856D01*
X148950000Y-103151856D01*
X148950000Y-104300000D01*
X149549999Y-104300000D01*
X149549999Y-103770433D01*
X149543821Y-103702438D01*
X149543818Y-103702427D01*
X149495055Y-103545939D01*
X149495053Y-103545935D01*
X149410256Y-103405662D01*
X149410252Y-103405657D01*
X149294342Y-103289747D01*
X149294337Y-103289743D01*
X149154065Y-103204947D01*
X148997562Y-103156179D01*
X148950000Y-103151856D01*
X148101999Y-103151856D01*
X148081069Y-103107955D01*
X148079500Y-103088289D01*
X148079500Y-102416029D01*
X148088939Y-102368576D01*
X148140228Y-102244754D01*
X148159285Y-102100000D01*
X148140228Y-101955246D01*
X148084355Y-101820358D01*
X147995474Y-101704526D01*
X147879643Y-101615645D01*
X147879640Y-101615644D01*
X147879638Y-101615642D01*
X147744757Y-101559773D01*
X147744752Y-101559771D01*
X147600001Y-101540715D01*
X147599999Y-101540715D01*
X147455247Y-101559771D01*
X147455245Y-101559772D01*
X147320361Y-101615643D01*
X147204526Y-101704526D01*
X147115643Y-101820361D01*
X147059772Y-101955245D01*
X147059771Y-101955247D01*
X147040715Y-102099998D01*
X147040715Y-102100001D01*
X147059771Y-102244752D01*
X147059772Y-102244754D01*
X147111061Y-102368576D01*
X147120500Y-102416029D01*
X147120500Y-103079313D01*
X147100815Y-103146352D01*
X147048011Y-103192107D01*
X146978853Y-103202051D01*
X146959611Y-103197699D01*
X146827103Y-103156409D01*
X146756572Y-103150000D01*
X146750000Y-103150000D01*
X146750000Y-105949999D01*
X146243426Y-105949999D01*
X146249999Y-105949998D01*
X146250000Y-105949998D01*
X146250000Y-103150000D01*
X146249999Y-103149999D01*
X146243436Y-103150000D01*
X146243417Y-103150001D01*
X146172897Y-103156408D01*
X146172892Y-103156409D01*
X146010603Y-103206981D01*
X145865124Y-103294926D01*
X145795933Y-103364117D01*
X145734609Y-103397601D01*
X145693103Y-103397587D01*
X145692963Y-103399083D01*
X145654753Y-103395500D01*
X145145257Y-103395500D01*
X145131639Y-103396777D01*
X145114549Y-103398379D01*
X145114546Y-103398379D01*
X145114544Y-103398380D01*
X144985228Y-103443630D01*
X144923633Y-103489089D01*
X144858004Y-103513059D01*
X144789833Y-103497743D01*
X144776367Y-103489089D01*
X144740594Y-103462688D01*
X144714773Y-103443631D01*
X144714771Y-103443630D01*
X144585458Y-103398380D01*
X144585446Y-103398378D01*
X144554753Y-103395500D01*
X144045254Y-103395500D01*
X144007033Y-103399083D01*
X144006816Y-103396777D01*
X143948492Y-103392646D01*
X143904066Y-103364116D01*
X143834877Y-103294927D01*
X143689395Y-103206980D01*
X143689396Y-103206980D01*
X143527105Y-103156409D01*
X143527106Y-103156409D01*
X143456572Y-103150000D01*
X143450000Y-103150000D01*
X143450000Y-105949999D01*
X142943426Y-105949999D01*
X142949999Y-105949998D01*
X142950000Y-105949998D01*
X142950000Y-103150000D01*
X142949999Y-103149999D01*
X142943436Y-103150000D01*
X142943417Y-103150001D01*
X142872897Y-103156408D01*
X142872892Y-103156409D01*
X142710603Y-103206981D01*
X142565124Y-103294926D01*
X142495933Y-103364117D01*
X142434609Y-103397601D01*
X142393103Y-103397587D01*
X142392963Y-103399083D01*
X142354753Y-103395500D01*
X141845257Y-103395500D01*
X141831639Y-103396777D01*
X141814549Y-103398379D01*
X141814546Y-103398379D01*
X141814544Y-103398380D01*
X141685228Y-103443630D01*
X141623633Y-103489089D01*
X141558004Y-103513059D01*
X141489833Y-103497743D01*
X141476367Y-103489089D01*
X141440594Y-103462688D01*
X141414773Y-103443631D01*
X141414771Y-103443630D01*
X141285458Y-103398380D01*
X141285446Y-103398378D01*
X141254753Y-103395500D01*
X140745257Y-103395500D01*
X140731639Y-103396777D01*
X140714549Y-103398379D01*
X140714546Y-103398379D01*
X140714544Y-103398380D01*
X140585226Y-103443631D01*
X140585225Y-103443631D01*
X140507019Y-103501350D01*
X140441390Y-103525321D01*
X140373220Y-103510005D01*
X140359759Y-103501354D01*
X140277959Y-103440984D01*
X140220912Y-103421022D01*
X140155755Y-103398222D01*
X140155746Y-103398220D01*
X140126737Y-103395500D01*
X139673269Y-103395500D01*
X139644253Y-103398220D01*
X139644244Y-103398222D01*
X139522040Y-103440984D01*
X139522039Y-103440984D01*
X139417867Y-103517866D01*
X139417866Y-103517867D01*
X139340984Y-103622039D01*
X139298222Y-103744244D01*
X139298220Y-103744253D01*
X139295500Y-103773262D01*
X139295500Y-105326730D01*
X123150500Y-105326730D01*
X123150500Y-100965164D01*
X123170185Y-100898125D01*
X123222989Y-100852370D01*
X123274551Y-100841164D01*
X172063558Y-100862870D01*
G37*
%TD.AperFunction*%
%TD*%
M02*
