%TF.GenerationSoftware,KiCad,Pcbnew,10.0.3*%
%TF.CreationDate,2026-06-23T15:30:29-05:00*%
%TF.ProjectId,GPS_board_v3,4750535f-626f-4617-9264-5f76332e6b69,rev?*%
%TF.SameCoordinates,Original*%
%TF.FileFunction,Copper,L2,Bot*%
%TF.FilePolarity,Positive*%
%FSLAX46Y46*%
G04 Gerber Fmt 4.6, Leading zero omitted, Abs format (unit mm)*
G04 Created by KiCad (PCBNEW 10.0.3) date 2026-06-23 15:30:29*
%MOMM*%
%LPD*%
G01*
G04 APERTURE LIST*
%TA.AperFunction,ComponentPad*%
%ADD10R,1.700000X1.700000*%
%TD*%
%TA.AperFunction,ComponentPad*%
%ADD11O,1.700000X1.700000*%
%TD*%
%TA.AperFunction,ComponentPad*%
%ADD12C,1.700000*%
%TD*%
%TA.AperFunction,ComponentPad*%
%ADD13R,5.000000X5.000000*%
%TD*%
%TA.AperFunction,ComponentPad*%
%ADD14R,1.000000X2.700000*%
%TD*%
%TA.AperFunction,ViaPad*%
%ADD15C,0.600000*%
%TD*%
%TA.AperFunction,Conductor*%
%ADD16C,0.200000*%
%TD*%
%TA.AperFunction,Conductor*%
%ADD17C,0.350000*%
%TD*%
%TA.AperFunction,Conductor*%
%ADD18C,1.800000*%
%TD*%
%TA.AperFunction,Conductor*%
%ADD19C,0.450000*%
%TD*%
%TA.AperFunction,Conductor*%
%ADD20C,0.500000*%
%TD*%
G04 APERTURE END LIST*
D10*
%TO.P,J4,1,Pin_1_1*%
%TO.N,STM_RST*%
X128080000Y-125715000D03*
D11*
%TO.P,J4,2,Pin_2_2*%
%TO.N,+3V3*%
X130620000Y-125715000D03*
%TO.P,J4,3,Pin_3_3*%
%TO.N,SWCLK*%
X133160000Y-125715000D03*
%TO.P,J4,4,Pin_4_4*%
%TO.N,GND*%
X135700000Y-125715000D03*
%TO.P,J4,5,Pin_5_5*%
%TO.N,SWDIO*%
X138240000Y-125715000D03*
%TD*%
D10*
%TO.P,J2,1,Pin_1_1*%
%TO.N,CANH*%
X159125000Y-125715000D03*
D11*
%TO.P,J2,2,Pin_2_2*%
%TO.N,Net-(J2A-Pin_2)*%
X161665000Y-125715000D03*
%TD*%
D10*
%TO.P,J5,1,Pin_1_1*%
%TO.N,CAN_TX*%
X127100000Y-106225000D03*
D12*
%TO.P,J5,2,Pin_2_2*%
%TO.N,CAN_RX*%
X127100000Y-108765000D03*
%TD*%
D13*
%TO.P,A1,1,GND_1*%
%TO.N,GND*%
X141300000Y-69900000D03*
X141300000Y-76200000D03*
X141300000Y-82500000D03*
X147600000Y-69900000D03*
X147600000Y-76200000D03*
X153900000Y-69900000D03*
X153900000Y-76200000D03*
X153900000Y-82500000D03*
D14*
%TO.P,A1,2,RF_OUT_2*%
%TO.N,Net-(A1-RF_OUT)*%
X147600000Y-87150000D03*
%TD*%
D10*
%TO.P,J3,1,Pin_1_1*%
%TO.N,+3V3*%
X142748000Y-125730000D03*
D11*
%TO.P,J3,2,Pin_2_2*%
%TO.N,GND*%
X145288000Y-125730000D03*
%TO.P,J3,3,Pin_3_3*%
%TO.N,CANL*%
X147828000Y-125730000D03*
%TO.P,J3,4,Pin_4_4*%
%TO.N,CANH*%
X150368000Y-125730000D03*
%TD*%
D10*
%TO.P,J1,1,Pin_1_1*%
%TO.N,STM_UART_TX*%
X168600000Y-111225000D03*
D12*
%TO.P,J1,2,Pin_2_2*%
%TO.N,STM_UART_RX*%
X168600000Y-113765000D03*
%TD*%
D15*
%TO.N,STM_RST*%
X146800000Y-118000000D03*
X151600000Y-117600000D03*
X136800000Y-122800000D03*
X142500000Y-118000000D03*
%TO.N,SWDIO*%
X143000000Y-119600000D03*
%TO.N,CAN_TX*%
X131600000Y-112500000D03*
%TO.N,CANH*%
X149200000Y-122100000D03*
%TO.N,Net-(A1-RF_OUT)*%
X147600000Y-102100000D03*
%TO.N,SWCLK*%
X141700000Y-119000000D03*
X139900000Y-122775000D03*
%TO.N,+3V3*%
X129200000Y-121900000D03*
X145400000Y-116100000D03*
X154600000Y-119300000D03*
%TO.N,CANL*%
X149000000Y-119200000D03*
X147700000Y-122100000D03*
%TO.N,Net-(J2A-Pin_2)*%
X152600000Y-120700000D03*
%TO.N,STM_UART_TX*%
X163322000Y-111252000D03*
X143764000Y-110490000D03*
%TO.N,STM_UART_RX*%
X164338000Y-111252000D03*
X142748000Y-110236000D03*
%TO.N,GND*%
X171600000Y-109500000D03*
X123700000Y-114500000D03*
X123700000Y-109500000D03*
X171600000Y-114500000D03*
X156464000Y-119634000D03*
X123700000Y-104500000D03*
X123700000Y-123000000D03*
X171600000Y-123000000D03*
X123700000Y-118900000D03*
X123700000Y-128000000D03*
X130600000Y-109500000D03*
X171600000Y-104500000D03*
X157734000Y-115316000D03*
X171600000Y-118900000D03*
X130600000Y-104500000D03*
X162814000Y-112776000D03*
X171600000Y-128000000D03*
%TD*%
%TO.N,STM_RST*%
D16*
X146800000Y-118000000D02*
X151200000Y-118000000D01*
X136800000Y-122800000D02*
X141600000Y-118000000D01*
X141600000Y-118000000D02*
X142500000Y-118000000D01*
X151200000Y-118000000D02*
X151600000Y-117600000D01*
%TO.N,SWDIO*%
X139785000Y-125715000D02*
X143000000Y-122500000D01*
X143000000Y-122500000D02*
X143000000Y-119600000D01*
X138240000Y-125715000D02*
X139785000Y-125715000D01*
%TO.N,CAN_TX*%
D17*
X129600000Y-110000000D02*
X129600000Y-107600000D01*
X129600000Y-107600000D02*
X128225000Y-106225000D01*
X131600000Y-112500000D02*
X131600000Y-112000000D01*
X131600000Y-112000000D02*
X129600000Y-110000000D01*
X128225000Y-106225000D02*
X127100000Y-106225000D01*
%TO.N,CANH*%
X150000000Y-122100000D02*
X153615000Y-125715000D01*
X149200000Y-122100000D02*
X150000000Y-122100000D01*
X153615000Y-125715000D02*
X159125000Y-125715000D01*
%TO.N,Net-(A1-RF_OUT)*%
D18*
X147600000Y-102100000D02*
X147600000Y-87150000D01*
%TO.N,SWCLK*%
D16*
X141100000Y-121575000D02*
X139900000Y-122775000D01*
X141100000Y-121575000D02*
X141100000Y-119600000D01*
X141100000Y-119600000D02*
X141700000Y-119000000D01*
%TO.N,+3V3*%
D19*
X135000000Y-116100000D02*
X145400000Y-116100000D01*
X129200000Y-123000000D02*
X129200000Y-121900000D01*
D20*
X154600000Y-119300000D02*
X151400000Y-116100000D01*
D19*
X144700000Y-116800000D02*
X144700000Y-122508000D01*
X129200000Y-121900000D02*
X135000000Y-116100000D01*
D20*
X151400000Y-116100000D02*
X145400000Y-116100000D01*
D19*
X142748000Y-124460000D02*
X142748000Y-125730000D01*
X145400000Y-116100000D02*
X144700000Y-116800000D01*
X130620000Y-125715000D02*
X130620000Y-124420000D01*
X142748000Y-124460000D02*
X144700000Y-122508000D01*
X130620000Y-124420000D02*
X129200000Y-123000000D01*
%TO.N,CANL*%
D17*
X147700000Y-122100000D02*
X147700000Y-120500000D01*
X147700000Y-120500000D02*
X149000000Y-119200000D01*
%TO.N,Net-(J2A-Pin_2)*%
X152960000Y-122000000D02*
X159300000Y-122000000D01*
X159300000Y-122000000D02*
X161665000Y-124365000D01*
X152600000Y-120700000D02*
X152600000Y-121640000D01*
X161665000Y-124365000D02*
X161665000Y-125715000D01*
X152600000Y-121640000D02*
X152960000Y-122000000D01*
%TO.N,STM_UART_TX*%
D16*
X162560000Y-110490000D02*
X163322000Y-111252000D01*
X143764000Y-110490000D02*
X162560000Y-110490000D01*
%TO.N,STM_UART_RX*%
X143256000Y-109728000D02*
X162814000Y-109728000D01*
X143256000Y-109728000D02*
X142748000Y-110236000D01*
X164338000Y-111252000D02*
X162814000Y-109728000D01*
%TD*%
%TA.AperFunction,Conductor*%
%TO.N,GND*%
G36*
X143917539Y-116845185D02*
G01*
X143963294Y-116897989D01*
X143974500Y-116949500D01*
X143974500Y-119237453D01*
X143954815Y-119304492D01*
X143902011Y-119350247D01*
X143832853Y-119360191D01*
X143769297Y-119331166D01*
X143735939Y-119284906D01*
X143709395Y-119220823D01*
X143709390Y-119220814D01*
X143621789Y-119089711D01*
X143621786Y-119089707D01*
X143510292Y-118978213D01*
X143510288Y-118978210D01*
X143379185Y-118890609D01*
X143379172Y-118890602D01*
X143233501Y-118830264D01*
X143233491Y-118830261D01*
X143100965Y-118803900D01*
X143039054Y-118771515D01*
X143004480Y-118710799D01*
X143008220Y-118641030D01*
X143037474Y-118594603D01*
X143121789Y-118510289D01*
X143209394Y-118379179D01*
X143269737Y-118233497D01*
X143300500Y-118078842D01*
X143300500Y-117921158D01*
X143300500Y-117921155D01*
X143300499Y-117921153D01*
X143269738Y-117766510D01*
X143269737Y-117766503D01*
X143213728Y-117631284D01*
X143209397Y-117620827D01*
X143209390Y-117620814D01*
X143121789Y-117489711D01*
X143121786Y-117489707D01*
X143010292Y-117378213D01*
X143010288Y-117378210D01*
X142879185Y-117290609D01*
X142879172Y-117290602D01*
X142733501Y-117230264D01*
X142733489Y-117230261D01*
X142578845Y-117199500D01*
X142578842Y-117199500D01*
X142421158Y-117199500D01*
X142421155Y-117199500D01*
X142266510Y-117230261D01*
X142266498Y-117230264D01*
X142120827Y-117290602D01*
X142120814Y-117290609D01*
X141989125Y-117378602D01*
X141922447Y-117399480D01*
X141920234Y-117399500D01*
X141520943Y-117399500D01*
X141368214Y-117440423D01*
X141368211Y-117440424D01*
X141363874Y-117442929D01*
X141363869Y-117442932D01*
X141231287Y-117519477D01*
X141231282Y-117519481D01*
X136785339Y-121965425D01*
X136724016Y-121998910D01*
X136721850Y-121999361D01*
X136566508Y-122030261D01*
X136566498Y-122030264D01*
X136420827Y-122090602D01*
X136420814Y-122090609D01*
X136289711Y-122178210D01*
X136289707Y-122178213D01*
X136178213Y-122289707D01*
X136178210Y-122289711D01*
X136090609Y-122420814D01*
X136090602Y-122420827D01*
X136030264Y-122566498D01*
X136030261Y-122566510D01*
X135999500Y-122721153D01*
X135999500Y-122878846D01*
X136030261Y-123033489D01*
X136030264Y-123033501D01*
X136090602Y-123179172D01*
X136090609Y-123179185D01*
X136178210Y-123310288D01*
X136178213Y-123310292D01*
X136289707Y-123421786D01*
X136289711Y-123421789D01*
X136420814Y-123509390D01*
X136420827Y-123509397D01*
X136566498Y-123569735D01*
X136566503Y-123569737D01*
X136721153Y-123600499D01*
X136721156Y-123600500D01*
X136721158Y-123600500D01*
X136878844Y-123600500D01*
X136878845Y-123600499D01*
X137033497Y-123569737D01*
X137179179Y-123509394D01*
X137310289Y-123421789D01*
X137421789Y-123310289D01*
X137509394Y-123179179D01*
X137569737Y-123033497D01*
X137596192Y-122900499D01*
X137600638Y-122878150D01*
X137633023Y-122816239D01*
X137634518Y-122814716D01*
X140287819Y-120161416D01*
X140349142Y-120127931D01*
X140418834Y-120132915D01*
X140474767Y-120174787D01*
X140499184Y-120240251D01*
X140499500Y-120249097D01*
X140499500Y-121274903D01*
X140479815Y-121341942D01*
X140463181Y-121362584D01*
X139885339Y-121940425D01*
X139824016Y-121973910D01*
X139821850Y-121974361D01*
X139666508Y-122005261D01*
X139666498Y-122005264D01*
X139520827Y-122065602D01*
X139520814Y-122065609D01*
X139389711Y-122153210D01*
X139389707Y-122153213D01*
X139278213Y-122264707D01*
X139278210Y-122264711D01*
X139190609Y-122395814D01*
X139190602Y-122395827D01*
X139130264Y-122541498D01*
X139130261Y-122541510D01*
X139099500Y-122696153D01*
X139099500Y-122853846D01*
X139130261Y-123008489D01*
X139130264Y-123008501D01*
X139190602Y-123154172D01*
X139190609Y-123154185D01*
X139278210Y-123285288D01*
X139278213Y-123285292D01*
X139389707Y-123396786D01*
X139389711Y-123396789D01*
X139520814Y-123484390D01*
X139520827Y-123484397D01*
X139666498Y-123544735D01*
X139666503Y-123544737D01*
X139792176Y-123569735D01*
X139821153Y-123575499D01*
X139821156Y-123575500D01*
X139821158Y-123575500D01*
X139978844Y-123575500D01*
X139978845Y-123575499D01*
X140133497Y-123544737D01*
X140279179Y-123484394D01*
X140410289Y-123396789D01*
X140521789Y-123285289D01*
X140609394Y-123154179D01*
X140669737Y-123008497D01*
X140691219Y-122900499D01*
X140700638Y-122853150D01*
X140733023Y-122791239D01*
X140734521Y-122789713D01*
X141458506Y-122065727D01*
X141458511Y-122065724D01*
X141468714Y-122055520D01*
X141468716Y-122055520D01*
X141580520Y-121943716D01*
X141642749Y-121835931D01*
X141659577Y-121806785D01*
X141700500Y-121654058D01*
X141700500Y-121495943D01*
X141700500Y-119917847D01*
X141720185Y-119850808D01*
X141772989Y-119805053D01*
X141800309Y-119796230D01*
X141816291Y-119793050D01*
X141933497Y-119769737D01*
X142056365Y-119718843D01*
X142125831Y-119711375D01*
X142188311Y-119742650D01*
X142223963Y-119802739D01*
X142225432Y-119809213D01*
X142230261Y-119833491D01*
X142230264Y-119833501D01*
X142290602Y-119979172D01*
X142290609Y-119979185D01*
X142378602Y-120110874D01*
X142399480Y-120177551D01*
X142399500Y-120179765D01*
X142399500Y-122199902D01*
X142379815Y-122266941D01*
X142363181Y-122287583D01*
X139599622Y-125051142D01*
X139538299Y-125084627D01*
X139468607Y-125079643D01*
X139412674Y-125037771D01*
X139401455Y-125019753D01*
X139395050Y-125007181D01*
X139270109Y-124835213D01*
X139119786Y-124684890D01*
X138947820Y-124559951D01*
X138758414Y-124463444D01*
X138758413Y-124463443D01*
X138758412Y-124463443D01*
X138556243Y-124397754D01*
X138556241Y-124397753D01*
X138556240Y-124397753D01*
X138394957Y-124372208D01*
X138346287Y-124364500D01*
X138133713Y-124364500D01*
X138085042Y-124372208D01*
X137923760Y-124397753D01*
X137721585Y-124463444D01*
X137532179Y-124559951D01*
X137360213Y-124684890D01*
X137209890Y-124835213D01*
X137084949Y-125007182D01*
X137080202Y-125016499D01*
X137032227Y-125067293D01*
X136964405Y-125084087D01*
X136898271Y-125061548D01*
X136859234Y-125016495D01*
X136854622Y-125007444D01*
X136729727Y-124835540D01*
X136729723Y-124835535D01*
X136579464Y-124685276D01*
X136579459Y-124685272D01*
X136407557Y-124560379D01*
X136218215Y-124463903D01*
X136016124Y-124398241D01*
X135950000Y-124387768D01*
X135950000Y-125281988D01*
X135892993Y-125249075D01*
X135765826Y-125215000D01*
X135634174Y-125215000D01*
X135507007Y-125249075D01*
X135450000Y-125281988D01*
X135450000Y-124387768D01*
X135449999Y-124387768D01*
X135383875Y-124398241D01*
X135181784Y-124463903D01*
X134992442Y-124560379D01*
X134820540Y-124685272D01*
X134820535Y-124685276D01*
X134670276Y-124835535D01*
X134670272Y-124835540D01*
X134545378Y-125007443D01*
X134540762Y-125016502D01*
X134492784Y-125067295D01*
X134424963Y-125084087D01*
X134358829Y-125061546D01*
X134319794Y-125016493D01*
X134315051Y-125007184D01*
X134315049Y-125007181D01*
X134315048Y-125007179D01*
X134190109Y-124835213D01*
X134039786Y-124684890D01*
X133867820Y-124559951D01*
X133678414Y-124463444D01*
X133678413Y-124463443D01*
X133678412Y-124463443D01*
X133476243Y-124397754D01*
X133476241Y-124397753D01*
X133476240Y-124397753D01*
X133314957Y-124372208D01*
X133266287Y-124364500D01*
X133053713Y-124364500D01*
X133005042Y-124372208D01*
X132843760Y-124397753D01*
X132641585Y-124463444D01*
X132452179Y-124559951D01*
X132280213Y-124684890D01*
X132129890Y-124835213D01*
X132004949Y-125007182D01*
X132000484Y-125015946D01*
X131952509Y-125066742D01*
X131884688Y-125083536D01*
X131818553Y-125060998D01*
X131779516Y-125015946D01*
X131775050Y-125007182D01*
X131650109Y-124835213D01*
X131499790Y-124684894D01*
X131499785Y-124684890D01*
X131396615Y-124609933D01*
X131353949Y-124554604D01*
X131345500Y-124509615D01*
X131345500Y-124348542D01*
X131317620Y-124208385D01*
X131317619Y-124208384D01*
X131317619Y-124208380D01*
X131262929Y-124076347D01*
X131242004Y-124045031D01*
X131183532Y-123957520D01*
X131183530Y-123957518D01*
X131183528Y-123957515D01*
X129961819Y-122735806D01*
X129928334Y-122674483D01*
X129925500Y-122648125D01*
X129925500Y-122264959D01*
X129927126Y-122256783D01*
X129926210Y-122251707D01*
X129934938Y-122217509D01*
X129944191Y-122195169D01*
X129971069Y-122154941D01*
X135264193Y-116861819D01*
X135325516Y-116828334D01*
X135351874Y-116825500D01*
X143850500Y-116825500D01*
X143917539Y-116845185D01*
G37*
%TD.AperFunction*%
%TA.AperFunction,Conductor*%
G36*
X172130539Y-52212185D02*
G01*
X172176294Y-52264989D01*
X172187500Y-52316500D01*
X172187500Y-128575500D01*
X172167815Y-128642539D01*
X172115011Y-128688294D01*
X172063500Y-128699500D01*
X123274500Y-128699500D01*
X123207461Y-128679815D01*
X123161706Y-128627011D01*
X123150500Y-128575500D01*
X123150500Y-124817135D01*
X126729500Y-124817135D01*
X126729500Y-126612870D01*
X126729501Y-126612876D01*
X126735908Y-126672483D01*
X126786202Y-126807328D01*
X126786206Y-126807335D01*
X126872452Y-126922544D01*
X126872455Y-126922547D01*
X126987664Y-127008793D01*
X126987671Y-127008797D01*
X127122517Y-127059091D01*
X127122516Y-127059091D01*
X127129444Y-127059835D01*
X127182127Y-127065500D01*
X128977872Y-127065499D01*
X129037483Y-127059091D01*
X129172331Y-127008796D01*
X129287546Y-126922546D01*
X129373796Y-126807331D01*
X129422810Y-126675916D01*
X129464681Y-126619984D01*
X129530145Y-126595566D01*
X129598418Y-126610417D01*
X129626673Y-126631569D01*
X129740213Y-126745109D01*
X129912179Y-126870048D01*
X129912181Y-126870049D01*
X129912184Y-126870051D01*
X130101588Y-126966557D01*
X130303757Y-127032246D01*
X130513713Y-127065500D01*
X130513714Y-127065500D01*
X130726286Y-127065500D01*
X130726287Y-127065500D01*
X130936243Y-127032246D01*
X131138412Y-126966557D01*
X131327816Y-126870051D01*
X131393492Y-126822335D01*
X131499786Y-126745109D01*
X131499788Y-126745106D01*
X131499792Y-126745104D01*
X131650104Y-126594792D01*
X131650106Y-126594788D01*
X131650109Y-126594786D01*
X131775048Y-126422820D01*
X131775047Y-126422820D01*
X131775051Y-126422816D01*
X131779514Y-126414054D01*
X131827488Y-126363259D01*
X131895308Y-126346463D01*
X131961444Y-126368999D01*
X132000486Y-126414056D01*
X132004951Y-126422820D01*
X132129890Y-126594786D01*
X132280213Y-126745109D01*
X132452179Y-126870048D01*
X132452181Y-126870049D01*
X132452184Y-126870051D01*
X132641588Y-126966557D01*
X132843757Y-127032246D01*
X133053713Y-127065500D01*
X133053714Y-127065500D01*
X133266286Y-127065500D01*
X133266287Y-127065500D01*
X133476243Y-127032246D01*
X133678412Y-126966557D01*
X133867816Y-126870051D01*
X133933492Y-126822335D01*
X134039786Y-126745109D01*
X134039788Y-126745106D01*
X134039792Y-126745104D01*
X134190104Y-126594792D01*
X134190106Y-126594788D01*
X134190109Y-126594786D01*
X134304152Y-126437817D01*
X134315051Y-126422816D01*
X134319793Y-126413508D01*
X134367763Y-126362711D01*
X134435583Y-126345911D01*
X134501719Y-126368445D01*
X134540763Y-126413500D01*
X134545377Y-126422555D01*
X134670272Y-126594459D01*
X134670276Y-126594464D01*
X134820535Y-126744723D01*
X134820540Y-126744727D01*
X134992442Y-126869620D01*
X135181782Y-126966095D01*
X135383871Y-127031757D01*
X135450000Y-127042231D01*
X135450000Y-126148012D01*
X135507007Y-126180925D01*
X135634174Y-126215000D01*
X135765826Y-126215000D01*
X135892993Y-126180925D01*
X135950000Y-126148012D01*
X135950000Y-127042230D01*
X136016126Y-127031757D01*
X136016129Y-127031757D01*
X136218217Y-126966095D01*
X136407557Y-126869620D01*
X136579459Y-126744727D01*
X136579464Y-126744723D01*
X136729723Y-126594464D01*
X136729727Y-126594459D01*
X136854620Y-126422558D01*
X136859232Y-126413507D01*
X136907205Y-126362709D01*
X136975025Y-126345912D01*
X137041161Y-126368447D01*
X137080204Y-126413504D01*
X137084949Y-126422817D01*
X137209890Y-126594786D01*
X137360213Y-126745109D01*
X137532179Y-126870048D01*
X137532181Y-126870049D01*
X137532184Y-126870051D01*
X137721588Y-126966557D01*
X137923757Y-127032246D01*
X138133713Y-127065500D01*
X138133714Y-127065500D01*
X138346286Y-127065500D01*
X138346287Y-127065500D01*
X138556243Y-127032246D01*
X138758412Y-126966557D01*
X138947816Y-126870051D01*
X139013492Y-126822335D01*
X139119786Y-126745109D01*
X139119788Y-126745106D01*
X139119792Y-126745104D01*
X139270104Y-126594792D01*
X139270106Y-126594788D01*
X139270109Y-126594786D01*
X139328661Y-126514193D01*
X139395051Y-126422816D01*
X139395349Y-126422230D01*
X139415235Y-126383205D01*
X139425683Y-126372142D01*
X139432006Y-126358297D01*
X139449187Y-126347255D01*
X139463209Y-126332409D01*
X139478888Y-126328167D01*
X139490784Y-126320523D01*
X139525719Y-126315500D01*
X139698331Y-126315500D01*
X139698347Y-126315501D01*
X139705943Y-126315501D01*
X139864054Y-126315501D01*
X139864057Y-126315501D01*
X140016785Y-126274577D01*
X140077202Y-126239695D01*
X140153716Y-126195520D01*
X140265520Y-126083716D01*
X140265520Y-126083714D01*
X140275724Y-126073511D01*
X140275727Y-126073506D01*
X141185820Y-125163414D01*
X141247142Y-125129930D01*
X141316834Y-125134914D01*
X141372767Y-125176786D01*
X141397184Y-125242250D01*
X141397500Y-125251096D01*
X141397500Y-126627870D01*
X141397501Y-126627876D01*
X141403908Y-126687483D01*
X141454202Y-126822328D01*
X141454206Y-126822335D01*
X141540452Y-126937544D01*
X141540455Y-126937547D01*
X141655664Y-127023793D01*
X141655671Y-127023797D01*
X141790517Y-127074091D01*
X141790516Y-127074091D01*
X141797444Y-127074835D01*
X141850127Y-127080500D01*
X143645872Y-127080499D01*
X143705483Y-127074091D01*
X143840331Y-127023796D01*
X143955546Y-126937546D01*
X144041796Y-126822331D01*
X144091002Y-126690401D01*
X144132872Y-126634468D01*
X144198337Y-126610050D01*
X144266610Y-126624901D01*
X144294865Y-126646053D01*
X144408535Y-126759723D01*
X144408540Y-126759727D01*
X144580442Y-126884620D01*
X144769782Y-126981095D01*
X144971871Y-127046757D01*
X145038000Y-127057231D01*
X145038000Y-126163012D01*
X145095007Y-126195925D01*
X145222174Y-126230000D01*
X145353826Y-126230000D01*
X145480993Y-126195925D01*
X145538000Y-126163012D01*
X145538000Y-127057230D01*
X145604126Y-127046757D01*
X145604129Y-127046757D01*
X145806217Y-126981095D01*
X145995557Y-126884620D01*
X146167459Y-126759727D01*
X146167464Y-126759723D01*
X146317723Y-126609464D01*
X146317727Y-126609459D01*
X146442620Y-126437558D01*
X146447232Y-126428507D01*
X146495205Y-126377709D01*
X146563025Y-126360912D01*
X146629161Y-126383447D01*
X146668204Y-126428504D01*
X146672949Y-126437817D01*
X146797890Y-126609786D01*
X146948213Y-126760109D01*
X147120179Y-126885048D01*
X147120181Y-126885049D01*
X147120184Y-126885051D01*
X147309588Y-126981557D01*
X147511757Y-127047246D01*
X147721713Y-127080500D01*
X147721714Y-127080500D01*
X147934286Y-127080500D01*
X147934287Y-127080500D01*
X148144243Y-127047246D01*
X148346412Y-126981557D01*
X148535816Y-126885051D01*
X148622138Y-126822335D01*
X148707786Y-126760109D01*
X148707788Y-126760106D01*
X148707792Y-126760104D01*
X148858104Y-126609792D01*
X148858106Y-126609788D01*
X148858109Y-126609786D01*
X148983048Y-126437820D01*
X148983050Y-126437817D01*
X148983051Y-126437816D01*
X148987514Y-126429054D01*
X149035488Y-126378259D01*
X149103308Y-126361463D01*
X149169444Y-126383999D01*
X149208486Y-126429056D01*
X149212951Y-126437820D01*
X149337890Y-126609786D01*
X149488213Y-126760109D01*
X149660179Y-126885048D01*
X149660181Y-126885049D01*
X149660184Y-126885051D01*
X149849588Y-126981557D01*
X150051757Y-127047246D01*
X150261713Y-127080500D01*
X150261714Y-127080500D01*
X150474286Y-127080500D01*
X150474287Y-127080500D01*
X150684243Y-127047246D01*
X150886412Y-126981557D01*
X151075816Y-126885051D01*
X151162138Y-126822335D01*
X151247786Y-126760109D01*
X151247788Y-126760106D01*
X151247792Y-126760104D01*
X151398104Y-126609792D01*
X151398106Y-126609788D01*
X151398109Y-126609786D01*
X151523048Y-126437820D01*
X151523050Y-126437817D01*
X151523051Y-126437816D01*
X151619557Y-126248412D01*
X151685246Y-126046243D01*
X151718500Y-125836287D01*
X151718500Y-125623713D01*
X151685246Y-125413757D01*
X151619557Y-125211588D01*
X151523051Y-125022184D01*
X151523049Y-125022181D01*
X151523048Y-125022179D01*
X151398109Y-124850213D01*
X151247786Y-124699890D01*
X151075820Y-124574951D01*
X150886414Y-124478444D01*
X150886413Y-124478443D01*
X150886412Y-124478443D01*
X150684243Y-124412754D01*
X150684241Y-124412753D01*
X150684240Y-124412753D01*
X150522957Y-124387208D01*
X150474287Y-124379500D01*
X150261713Y-124379500D01*
X150213042Y-124387208D01*
X150051760Y-124412753D01*
X149849585Y-124478444D01*
X149660179Y-124574951D01*
X149488213Y-124699890D01*
X149337890Y-124850213D01*
X149212949Y-125022182D01*
X149208484Y-125030946D01*
X149160509Y-125081742D01*
X149092688Y-125098536D01*
X149026553Y-125075998D01*
X148987516Y-125030946D01*
X148983050Y-125022182D01*
X148858109Y-124850213D01*
X148707786Y-124699890D01*
X148535820Y-124574951D01*
X148346414Y-124478444D01*
X148346413Y-124478443D01*
X148346412Y-124478443D01*
X148144243Y-124412754D01*
X148144241Y-124412753D01*
X148144240Y-124412753D01*
X147982957Y-124387208D01*
X147934287Y-124379500D01*
X147721713Y-124379500D01*
X147673042Y-124387208D01*
X147511760Y-124412753D01*
X147309585Y-124478444D01*
X147120179Y-124574951D01*
X146948213Y-124699890D01*
X146797890Y-124850213D01*
X146672949Y-125022182D01*
X146668202Y-125031499D01*
X146620227Y-125082293D01*
X146552405Y-125099087D01*
X146486271Y-125076548D01*
X146447234Y-125031495D01*
X146442622Y-125022444D01*
X146317727Y-124850540D01*
X146317723Y-124850535D01*
X146167464Y-124700276D01*
X146167459Y-124700272D01*
X145995557Y-124575379D01*
X145806215Y-124478903D01*
X145604124Y-124413241D01*
X145538000Y-124402768D01*
X145538000Y-125296988D01*
X145480993Y-125264075D01*
X145353826Y-125230000D01*
X145222174Y-125230000D01*
X145095007Y-125264075D01*
X145038000Y-125296988D01*
X145038000Y-124402768D01*
X145037999Y-124402768D01*
X144971875Y-124413241D01*
X144769784Y-124478903D01*
X144580442Y-124575379D01*
X144408541Y-124700271D01*
X144294865Y-124813947D01*
X144233542Y-124847431D01*
X144163850Y-124842447D01*
X144107917Y-124800575D01*
X144091002Y-124769598D01*
X144041797Y-124637671D01*
X144041793Y-124637664D01*
X143955547Y-124522455D01*
X143955546Y-124522454D01*
X143935510Y-124507455D01*
X143930570Y-124503757D01*
X143888699Y-124447825D01*
X143883715Y-124378133D01*
X143917198Y-124316812D01*
X145263532Y-122970480D01*
X145342929Y-122851653D01*
X145397619Y-122719620D01*
X145406395Y-122675500D01*
X145406597Y-122674483D01*
X145425500Y-122579457D01*
X145425500Y-117151873D01*
X145445185Y-117084834D01*
X145461815Y-117064196D01*
X145639192Y-116886818D01*
X145700515Y-116853334D01*
X145726873Y-116850500D01*
X150918059Y-116850500D01*
X150985098Y-116870185D01*
X151030853Y-116922989D01*
X151040797Y-116992147D01*
X151011772Y-117055703D01*
X151005740Y-117062181D01*
X150978213Y-117089707D01*
X150978210Y-117089711D01*
X150890609Y-117220814D01*
X150890602Y-117220827D01*
X150848302Y-117322952D01*
X150804462Y-117377356D01*
X150738167Y-117399421D01*
X150733741Y-117399500D01*
X147379766Y-117399500D01*
X147312727Y-117379815D01*
X147310875Y-117378602D01*
X147179185Y-117290609D01*
X147179172Y-117290602D01*
X147033501Y-117230264D01*
X147033489Y-117230261D01*
X146878845Y-117199500D01*
X146878842Y-117199500D01*
X146721158Y-117199500D01*
X146721155Y-117199500D01*
X146566510Y-117230261D01*
X146566498Y-117230264D01*
X146420827Y-117290602D01*
X146420814Y-117290609D01*
X146289711Y-117378210D01*
X146289707Y-117378213D01*
X146178213Y-117489707D01*
X146178210Y-117489711D01*
X146090609Y-117620814D01*
X146090602Y-117620827D01*
X146030264Y-117766498D01*
X146030261Y-117766510D01*
X145999500Y-117921153D01*
X145999500Y-118078846D01*
X146030261Y-118233489D01*
X146030264Y-118233501D01*
X146090602Y-118379172D01*
X146090609Y-118379185D01*
X146178210Y-118510288D01*
X146178213Y-118510292D01*
X146289707Y-118621786D01*
X146289711Y-118621789D01*
X146420814Y-118709390D01*
X146420827Y-118709397D01*
X146499894Y-118742147D01*
X146566503Y-118769737D01*
X146685424Y-118793392D01*
X146721153Y-118800499D01*
X146721156Y-118800500D01*
X146721158Y-118800500D01*
X146878844Y-118800500D01*
X146878845Y-118800499D01*
X147033497Y-118769737D01*
X147179179Y-118709394D01*
X147281493Y-118641030D01*
X147310875Y-118621398D01*
X147377553Y-118600520D01*
X147379766Y-118600500D01*
X148205832Y-118600500D01*
X148272871Y-118620185D01*
X148318626Y-118672989D01*
X148328570Y-118742147D01*
X148308933Y-118793392D01*
X148290610Y-118820812D01*
X148290602Y-118820827D01*
X148230263Y-118966500D01*
X148230262Y-118966503D01*
X148225698Y-118989449D01*
X148193311Y-119051359D01*
X148191762Y-119052935D01*
X147175307Y-120069390D01*
X147175304Y-120069394D01*
X147101383Y-120180024D01*
X147101378Y-120180034D01*
X147050459Y-120302963D01*
X147050459Y-120302964D01*
X147032774Y-120391873D01*
X147032774Y-120391875D01*
X147024500Y-120433467D01*
X147024500Y-121632479D01*
X147004815Y-121699518D01*
X147003602Y-121701370D01*
X146990609Y-121720814D01*
X146990602Y-121720827D01*
X146930264Y-121866498D01*
X146930261Y-121866510D01*
X146899500Y-122021153D01*
X146899500Y-122178846D01*
X146930261Y-122333489D01*
X146930264Y-122333501D01*
X146990602Y-122479172D01*
X146990609Y-122479185D01*
X147078210Y-122610288D01*
X147078213Y-122610292D01*
X147189707Y-122721786D01*
X147189711Y-122721789D01*
X147320814Y-122809390D01*
X147320827Y-122809397D01*
X147428138Y-122853846D01*
X147466503Y-122869737D01*
X147621153Y-122900499D01*
X147621156Y-122900500D01*
X147621158Y-122900500D01*
X147778844Y-122900500D01*
X147778845Y-122900499D01*
X147933497Y-122869737D01*
X148066466Y-122814660D01*
X148079172Y-122809397D01*
X148079172Y-122809396D01*
X148079179Y-122809394D01*
X148210289Y-122721789D01*
X148321789Y-122610289D01*
X148340440Y-122582376D01*
X148346898Y-122572712D01*
X148400510Y-122527906D01*
X148469835Y-122519199D01*
X148532862Y-122549353D01*
X148553102Y-122572712D01*
X148578207Y-122610284D01*
X148578213Y-122610292D01*
X148689707Y-122721786D01*
X148689711Y-122721789D01*
X148820814Y-122809390D01*
X148820827Y-122809397D01*
X148928138Y-122853846D01*
X148966503Y-122869737D01*
X149121153Y-122900499D01*
X149121156Y-122900500D01*
X149121158Y-122900500D01*
X149278844Y-122900500D01*
X149278845Y-122900499D01*
X149433497Y-122869737D01*
X149566466Y-122814660D01*
X149579172Y-122809397D01*
X149579172Y-122809396D01*
X149579179Y-122809394D01*
X149587928Y-122803547D01*
X149598628Y-122796399D01*
X149616674Y-122790747D01*
X149632585Y-122780523D01*
X149663542Y-122776071D01*
X149665305Y-122775520D01*
X149667520Y-122775500D01*
X149668837Y-122775500D01*
X149735876Y-122795185D01*
X149756518Y-122811819D01*
X153090305Y-126145606D01*
X153140217Y-126195518D01*
X153184394Y-126239695D01*
X153184398Y-126239698D01*
X153295020Y-126313613D01*
X153295023Y-126313614D01*
X153295031Y-126313620D01*
X153295037Y-126313622D01*
X153295038Y-126313623D01*
X153413548Y-126362711D01*
X153417964Y-126364540D01*
X153417968Y-126364540D01*
X153417969Y-126364541D01*
X153548466Y-126390500D01*
X153548469Y-126390500D01*
X157650501Y-126390500D01*
X157717540Y-126410185D01*
X157763295Y-126462989D01*
X157774501Y-126514500D01*
X157774501Y-126612876D01*
X157780908Y-126672483D01*
X157831202Y-126807328D01*
X157831206Y-126807335D01*
X157917452Y-126922544D01*
X157917455Y-126922547D01*
X158032664Y-127008793D01*
X158032671Y-127008797D01*
X158167517Y-127059091D01*
X158167516Y-127059091D01*
X158174444Y-127059835D01*
X158227127Y-127065500D01*
X160022872Y-127065499D01*
X160082483Y-127059091D01*
X160217331Y-127008796D01*
X160332546Y-126922546D01*
X160418796Y-126807331D01*
X160467810Y-126675916D01*
X160509681Y-126619984D01*
X160575145Y-126595566D01*
X160643418Y-126610417D01*
X160671673Y-126631569D01*
X160785213Y-126745109D01*
X160957179Y-126870048D01*
X160957181Y-126870049D01*
X160957184Y-126870051D01*
X161146588Y-126966557D01*
X161348757Y-127032246D01*
X161558713Y-127065500D01*
X161558714Y-127065500D01*
X161771286Y-127065500D01*
X161771287Y-127065500D01*
X161981243Y-127032246D01*
X162183412Y-126966557D01*
X162372816Y-126870051D01*
X162438492Y-126822335D01*
X162544786Y-126745109D01*
X162544788Y-126745106D01*
X162544792Y-126745104D01*
X162695104Y-126594792D01*
X162695106Y-126594788D01*
X162695109Y-126594786D01*
X162820048Y-126422820D01*
X162820047Y-126422820D01*
X162820051Y-126422816D01*
X162916557Y-126233412D01*
X162982246Y-126031243D01*
X163015500Y-125821287D01*
X163015500Y-125608713D01*
X162982246Y-125398757D01*
X162916557Y-125196588D01*
X162820051Y-125007184D01*
X162820049Y-125007181D01*
X162820048Y-125007179D01*
X162695109Y-124835213D01*
X162544790Y-124684894D01*
X162544785Y-124684890D01*
X162391615Y-124573606D01*
X162348949Y-124518276D01*
X162340500Y-124473288D01*
X162340500Y-124298466D01*
X162314541Y-124167969D01*
X162314540Y-124167968D01*
X162314540Y-124167964D01*
X162263620Y-124045031D01*
X162205147Y-123957520D01*
X162189698Y-123934398D01*
X162189697Y-123934397D01*
X162189695Y-123934394D01*
X162095606Y-123840305D01*
X160929784Y-122674483D01*
X159730609Y-121475307D01*
X159730605Y-121475304D01*
X159619975Y-121401383D01*
X159619965Y-121401378D01*
X159497036Y-121350459D01*
X159497028Y-121350457D01*
X159366535Y-121324500D01*
X159366531Y-121324500D01*
X153399500Y-121324500D01*
X153390814Y-121321949D01*
X153381853Y-121323238D01*
X153357812Y-121312259D01*
X153332461Y-121304815D01*
X153326533Y-121297974D01*
X153318297Y-121294213D01*
X153304007Y-121271978D01*
X153286706Y-121252011D01*
X153284418Y-121241496D01*
X153280523Y-121235435D01*
X153275500Y-121200500D01*
X153275500Y-121167519D01*
X153295185Y-121100480D01*
X153296398Y-121098628D01*
X153309394Y-121079179D01*
X153369737Y-120933497D01*
X153400500Y-120778842D01*
X153400500Y-120621158D01*
X153400500Y-120621155D01*
X153400499Y-120621153D01*
X153369738Y-120466510D01*
X153369737Y-120466503D01*
X153356053Y-120433467D01*
X153309397Y-120320827D01*
X153309390Y-120320814D01*
X153221789Y-120189711D01*
X153221786Y-120189707D01*
X153110292Y-120078213D01*
X153110288Y-120078210D01*
X152979185Y-119990609D01*
X152979172Y-119990602D01*
X152833501Y-119930264D01*
X152833489Y-119930261D01*
X152678845Y-119899500D01*
X152678842Y-119899500D01*
X152521158Y-119899500D01*
X152521155Y-119899500D01*
X152366510Y-119930261D01*
X152366498Y-119930264D01*
X152220827Y-119990602D01*
X152220814Y-119990609D01*
X152089711Y-120078210D01*
X152089707Y-120078213D01*
X151978213Y-120189707D01*
X151978210Y-120189711D01*
X151890609Y-120320814D01*
X151890602Y-120320827D01*
X151830264Y-120466498D01*
X151830261Y-120466510D01*
X151799500Y-120621153D01*
X151799500Y-120778846D01*
X151830261Y-120933489D01*
X151830264Y-120933501D01*
X151890603Y-121079174D01*
X151890604Y-121079175D01*
X151890606Y-121079179D01*
X151903602Y-121098628D01*
X151924480Y-121165305D01*
X151924500Y-121167519D01*
X151924500Y-121706535D01*
X151950457Y-121837028D01*
X151950459Y-121837036D01*
X152001378Y-121959965D01*
X152001383Y-121959975D01*
X152075304Y-122070605D01*
X152075307Y-122070609D01*
X152529390Y-122524692D01*
X152529394Y-122524695D01*
X152640024Y-122598616D01*
X152640028Y-122598618D01*
X152640031Y-122598620D01*
X152762964Y-122649541D01*
X152888356Y-122674483D01*
X152893464Y-122675499D01*
X152893468Y-122675500D01*
X152893469Y-122675500D01*
X153026531Y-122675500D01*
X158968837Y-122675500D01*
X159035876Y-122695185D01*
X159056518Y-122711819D01*
X160824093Y-124479394D01*
X160829310Y-124488948D01*
X160837830Y-124495728D01*
X160845761Y-124519076D01*
X160857578Y-124540717D01*
X160856801Y-124551576D01*
X160860303Y-124561885D01*
X160854353Y-124585811D01*
X160852594Y-124610409D01*
X160845625Y-124620907D01*
X160843442Y-124629689D01*
X160829793Y-124644760D01*
X160821466Y-124657307D01*
X160815699Y-124662742D01*
X160785208Y-124684896D01*
X160670387Y-124799716D01*
X160669046Y-124800981D01*
X160639469Y-124816015D01*
X160610350Y-124831915D01*
X160608455Y-124831779D01*
X160606761Y-124832641D01*
X160573741Y-124829296D01*
X160540658Y-124826931D01*
X160539137Y-124825792D01*
X160537247Y-124825601D01*
X160511281Y-124804939D01*
X160484725Y-124785059D01*
X160483516Y-124782846D01*
X160482574Y-124782096D01*
X160481696Y-124779512D01*
X160467810Y-124754082D01*
X160418797Y-124622671D01*
X160418793Y-124622664D01*
X160332547Y-124507455D01*
X160332544Y-124507452D01*
X160217335Y-124421206D01*
X160217328Y-124421202D01*
X160082482Y-124370908D01*
X160082483Y-124370908D01*
X160022883Y-124364501D01*
X160022881Y-124364500D01*
X160022873Y-124364500D01*
X160022864Y-124364500D01*
X158227129Y-124364500D01*
X158227123Y-124364501D01*
X158167516Y-124370908D01*
X158032671Y-124421202D01*
X158032664Y-124421206D01*
X157917455Y-124507452D01*
X157917452Y-124507455D01*
X157831206Y-124622664D01*
X157831202Y-124622671D01*
X157780908Y-124757517D01*
X157774501Y-124817116D01*
X157774500Y-124817135D01*
X157774500Y-124915500D01*
X157754815Y-124982539D01*
X157702011Y-125028294D01*
X157650500Y-125039500D01*
X153946163Y-125039500D01*
X153879124Y-125019815D01*
X153858482Y-125003181D01*
X150430609Y-121575307D01*
X150430605Y-121575304D01*
X150319975Y-121501383D01*
X150319965Y-121501378D01*
X150197036Y-121450459D01*
X150197028Y-121450457D01*
X150066535Y-121424500D01*
X150066531Y-121424500D01*
X149667520Y-121424500D01*
X149600481Y-121404815D01*
X149598628Y-121403601D01*
X149579186Y-121390610D01*
X149579172Y-121390602D01*
X149433501Y-121330264D01*
X149433489Y-121330261D01*
X149278845Y-121299500D01*
X149278842Y-121299500D01*
X149121158Y-121299500D01*
X149121155Y-121299500D01*
X148966510Y-121330261D01*
X148966498Y-121330264D01*
X148820827Y-121390602D01*
X148820814Y-121390609D01*
X148689711Y-121478210D01*
X148689707Y-121478213D01*
X148587181Y-121580740D01*
X148525858Y-121614225D01*
X148456166Y-121609241D01*
X148400233Y-121567369D01*
X148375816Y-121501905D01*
X148375500Y-121493059D01*
X148375500Y-120831162D01*
X148395185Y-120764123D01*
X148411815Y-120743485D01*
X149147064Y-120008235D01*
X149208385Y-119974752D01*
X149210490Y-119974313D01*
X149233497Y-119969737D01*
X149357834Y-119918235D01*
X149379172Y-119909397D01*
X149379172Y-119909396D01*
X149379179Y-119909394D01*
X149510289Y-119821789D01*
X149621789Y-119710289D01*
X149709394Y-119579179D01*
X149769737Y-119433497D01*
X149800500Y-119278842D01*
X149800500Y-119121158D01*
X149800500Y-119121155D01*
X149800499Y-119121153D01*
X149789627Y-119066498D01*
X149769737Y-118966503D01*
X149738298Y-118890602D01*
X149709397Y-118820827D01*
X149709389Y-118820812D01*
X149691067Y-118793392D01*
X149670188Y-118726715D01*
X149688672Y-118659334D01*
X149740650Y-118612644D01*
X149794168Y-118600500D01*
X151113331Y-118600500D01*
X151113347Y-118600501D01*
X151120943Y-118600501D01*
X151279054Y-118600501D01*
X151279057Y-118600501D01*
X151431785Y-118559577D01*
X151482558Y-118530263D01*
X151568716Y-118480520D01*
X151621430Y-118427805D01*
X151629143Y-118422165D01*
X151653378Y-118413431D01*
X151675984Y-118401088D01*
X151678152Y-118400637D01*
X151678841Y-118400500D01*
X151678842Y-118400500D01*
X151833497Y-118369737D01*
X151979179Y-118309394D01*
X152110289Y-118221789D01*
X152110292Y-118221786D01*
X152197675Y-118134404D01*
X152258998Y-118100919D01*
X152328690Y-118105903D01*
X152373037Y-118134404D01*
X153853926Y-119615293D01*
X153880805Y-119655519D01*
X153890603Y-119679172D01*
X153890606Y-119679178D01*
X153890609Y-119679185D01*
X153978210Y-119810288D01*
X153978213Y-119810292D01*
X154089707Y-119921786D01*
X154089711Y-119921789D01*
X154220814Y-120009390D01*
X154220827Y-120009397D01*
X154365665Y-120069390D01*
X154366503Y-120069737D01*
X154521153Y-120100499D01*
X154521156Y-120100500D01*
X154521158Y-120100500D01*
X154678844Y-120100500D01*
X154678845Y-120100499D01*
X154833497Y-120069737D01*
X154979179Y-120009394D01*
X155110289Y-119921789D01*
X155221789Y-119810289D01*
X155309394Y-119679179D01*
X155369737Y-119533497D01*
X155400500Y-119378842D01*
X155400500Y-119221158D01*
X155400500Y-119221155D01*
X155400499Y-119221153D01*
X155400432Y-119220814D01*
X155369737Y-119066503D01*
X155353100Y-119026338D01*
X155309397Y-118920827D01*
X155309390Y-118920814D01*
X155221789Y-118789711D01*
X155221786Y-118789707D01*
X155110292Y-118678213D01*
X155110288Y-118678210D01*
X154979185Y-118590609D01*
X154979180Y-118590607D01*
X154979179Y-118590606D01*
X154955519Y-118580805D01*
X154915293Y-118553926D01*
X151878421Y-115517052D01*
X151878420Y-115517051D01*
X151788652Y-115457071D01*
X151755495Y-115434916D01*
X151755493Y-115434915D01*
X151755490Y-115434913D01*
X151618917Y-115378343D01*
X151618907Y-115378340D01*
X151473920Y-115349500D01*
X151473918Y-115349500D01*
X145704604Y-115349500D01*
X145657155Y-115340062D01*
X145633497Y-115330263D01*
X145633493Y-115330262D01*
X145633488Y-115330260D01*
X145478845Y-115299500D01*
X145478842Y-115299500D01*
X145321158Y-115299500D01*
X145321155Y-115299500D01*
X145166510Y-115330261D01*
X145166498Y-115330264D01*
X145082492Y-115365061D01*
X145035040Y-115374500D01*
X134928543Y-115374500D01*
X134788385Y-115402379D01*
X134788379Y-115402381D01*
X134656344Y-115457071D01*
X134537522Y-115536465D01*
X134537515Y-115536471D01*
X128945059Y-121128927D01*
X128904832Y-121155807D01*
X128820820Y-121190606D01*
X128820814Y-121190609D01*
X128689711Y-121278210D01*
X128689707Y-121278213D01*
X128578213Y-121389707D01*
X128578210Y-121389711D01*
X128490609Y-121520814D01*
X128490602Y-121520827D01*
X128430264Y-121666498D01*
X128430261Y-121666510D01*
X128399500Y-121821153D01*
X128399500Y-121978846D01*
X128430261Y-122133489D01*
X128430264Y-122133501D01*
X128465061Y-122217508D01*
X128474500Y-122264960D01*
X128474500Y-123071457D01*
X128493847Y-123168716D01*
X128502381Y-123211620D01*
X128557070Y-123343651D01*
X128636469Y-123462482D01*
X129711864Y-124537877D01*
X129745349Y-124599200D01*
X129740365Y-124668892D01*
X129711864Y-124713239D01*
X129626673Y-124798430D01*
X129565350Y-124831915D01*
X129495658Y-124826931D01*
X129439725Y-124785059D01*
X129422810Y-124754082D01*
X129373797Y-124622671D01*
X129373793Y-124622664D01*
X129287547Y-124507455D01*
X129287544Y-124507452D01*
X129172335Y-124421206D01*
X129172328Y-124421202D01*
X129037482Y-124370908D01*
X129037483Y-124370908D01*
X128977883Y-124364501D01*
X128977881Y-124364500D01*
X128977873Y-124364500D01*
X128977864Y-124364500D01*
X127182129Y-124364500D01*
X127182123Y-124364501D01*
X127122516Y-124370908D01*
X126987671Y-124421202D01*
X126987664Y-124421206D01*
X126872455Y-124507452D01*
X126872452Y-124507455D01*
X126786206Y-124622664D01*
X126786202Y-124622671D01*
X126735908Y-124757517D01*
X126729501Y-124817116D01*
X126729500Y-124817135D01*
X123150500Y-124817135D01*
X123150500Y-105327135D01*
X125749500Y-105327135D01*
X125749500Y-107122870D01*
X125749501Y-107122876D01*
X125755908Y-107182483D01*
X125806202Y-107317328D01*
X125806206Y-107317335D01*
X125892452Y-107432544D01*
X125892455Y-107432547D01*
X126007662Y-107518792D01*
X126007671Y-107518797D01*
X126139082Y-107567810D01*
X126195016Y-107609681D01*
X126219433Y-107675145D01*
X126204582Y-107743418D01*
X126183431Y-107771673D01*
X126069889Y-107885215D01*
X125944951Y-108057179D01*
X125848444Y-108246585D01*
X125782753Y-108448760D01*
X125749500Y-108658713D01*
X125749500Y-108871287D01*
X125782754Y-109081243D01*
X125836768Y-109247481D01*
X125848444Y-109283414D01*
X125944951Y-109472820D01*
X126069890Y-109644786D01*
X126220213Y-109795109D01*
X126392179Y-109920048D01*
X126392181Y-109920049D01*
X126392184Y-109920051D01*
X126581588Y-110016557D01*
X126783757Y-110082246D01*
X126993713Y-110115500D01*
X126993714Y-110115500D01*
X127206286Y-110115500D01*
X127206287Y-110115500D01*
X127416243Y-110082246D01*
X127618412Y-110016557D01*
X127807816Y-109920051D01*
X127894837Y-109856827D01*
X127979786Y-109795109D01*
X127979788Y-109795106D01*
X127979792Y-109795104D01*
X128130104Y-109644792D01*
X128130106Y-109644788D01*
X128130109Y-109644786D01*
X128255048Y-109472820D01*
X128255047Y-109472820D01*
X128255051Y-109472816D01*
X128351557Y-109283412D01*
X128417246Y-109081243D01*
X128450500Y-108871287D01*
X128450500Y-108658713D01*
X128417246Y-108448757D01*
X128351557Y-108246588D01*
X128255051Y-108057184D01*
X128255049Y-108057181D01*
X128255048Y-108057179D01*
X128130109Y-107885213D01*
X128016569Y-107771673D01*
X127983084Y-107710350D01*
X127988068Y-107640658D01*
X128029940Y-107584725D01*
X128060915Y-107567810D01*
X128192331Y-107518796D01*
X128307546Y-107432546D01*
X128307546Y-107432545D01*
X128314646Y-107427231D01*
X128316096Y-107429168D01*
X128366002Y-107401899D01*
X128435695Y-107406864D01*
X128480076Y-107435377D01*
X128888181Y-107843482D01*
X128921666Y-107904805D01*
X128924500Y-107931163D01*
X128924500Y-110066535D01*
X128950457Y-110197028D01*
X128950459Y-110197036D01*
X129001378Y-110319965D01*
X129001383Y-110319975D01*
X129075304Y-110430605D01*
X129075307Y-110430609D01*
X130796824Y-112152125D01*
X130830309Y-112213448D01*
X130830760Y-112263997D01*
X130799500Y-112421153D01*
X130799500Y-112578846D01*
X130830261Y-112733489D01*
X130830264Y-112733501D01*
X130890602Y-112879172D01*
X130890609Y-112879185D01*
X130978210Y-113010288D01*
X130978213Y-113010292D01*
X131089707Y-113121786D01*
X131089711Y-113121789D01*
X131220814Y-113209390D01*
X131220827Y-113209397D01*
X131366498Y-113269735D01*
X131366503Y-113269737D01*
X131521153Y-113300499D01*
X131521156Y-113300500D01*
X131521158Y-113300500D01*
X131678844Y-113300500D01*
X131678845Y-113300499D01*
X131833497Y-113269737D01*
X131979179Y-113209394D01*
X132110289Y-113121789D01*
X132221789Y-113010289D01*
X132309394Y-112879179D01*
X132369737Y-112733497D01*
X132400500Y-112578842D01*
X132400500Y-112421158D01*
X132400500Y-112421155D01*
X132400499Y-112421153D01*
X132369738Y-112266510D01*
X132369737Y-112266503D01*
X132347761Y-112213448D01*
X132309397Y-112120827D01*
X132309390Y-112120814D01*
X132296398Y-112101370D01*
X132275520Y-112034692D01*
X132275500Y-112032479D01*
X132275500Y-111933466D01*
X132249541Y-111802969D01*
X132249540Y-111802968D01*
X132249540Y-111802964D01*
X132198620Y-111680031D01*
X132165982Y-111631185D01*
X132124698Y-111569398D01*
X132124697Y-111569397D01*
X132124695Y-111569394D01*
X132030606Y-111475305D01*
X130712454Y-110157153D01*
X141947500Y-110157153D01*
X141947500Y-110314846D01*
X141978261Y-110469489D01*
X141978264Y-110469501D01*
X142038602Y-110615172D01*
X142038609Y-110615185D01*
X142126210Y-110746288D01*
X142126213Y-110746292D01*
X142237707Y-110857786D01*
X142237711Y-110857789D01*
X142368814Y-110945390D01*
X142368827Y-110945397D01*
X142455523Y-110981307D01*
X142514503Y-111005737D01*
X142669153Y-111036499D01*
X142669156Y-111036500D01*
X142669158Y-111036500D01*
X142826844Y-111036500D01*
X142826845Y-111036499D01*
X142981497Y-111005737D01*
X143022444Y-110988775D01*
X143091912Y-110981307D01*
X143154391Y-111012581D01*
X143157577Y-111015656D01*
X143253707Y-111111786D01*
X143253711Y-111111789D01*
X143384814Y-111199390D01*
X143384827Y-111199397D01*
X143530498Y-111259735D01*
X143530503Y-111259737D01*
X143685153Y-111290499D01*
X143685156Y-111290500D01*
X143685158Y-111290500D01*
X143842844Y-111290500D01*
X143842845Y-111290499D01*
X143997497Y-111259737D01*
X144143179Y-111199394D01*
X144182444Y-111173158D01*
X144274875Y-111111398D01*
X144341553Y-111090520D01*
X144343766Y-111090500D01*
X162259903Y-111090500D01*
X162289343Y-111099144D01*
X162319330Y-111105668D01*
X162324345Y-111109422D01*
X162326942Y-111110185D01*
X162347584Y-111126819D01*
X162487425Y-111266660D01*
X162520910Y-111327983D01*
X162521361Y-111330149D01*
X162552261Y-111485491D01*
X162552264Y-111485501D01*
X162612602Y-111631172D01*
X162612609Y-111631185D01*
X162700210Y-111762288D01*
X162700213Y-111762292D01*
X162811707Y-111873786D01*
X162811711Y-111873789D01*
X162942814Y-111961390D01*
X162942827Y-111961397D01*
X163088498Y-112021735D01*
X163088503Y-112021737D01*
X163243153Y-112052499D01*
X163243156Y-112052500D01*
X163243158Y-112052500D01*
X163400844Y-112052500D01*
X163400845Y-112052499D01*
X163555497Y-112021737D01*
X163701179Y-111961394D01*
X163761109Y-111921349D01*
X163827786Y-111900472D01*
X163895166Y-111918956D01*
X163898874Y-111921338D01*
X163958821Y-111961394D01*
X163958823Y-111961395D01*
X163958827Y-111961397D01*
X164104498Y-112021735D01*
X164104503Y-112021737D01*
X164259153Y-112052499D01*
X164259156Y-112052500D01*
X164259158Y-112052500D01*
X164416844Y-112052500D01*
X164416845Y-112052499D01*
X164571497Y-112021737D01*
X164717179Y-111961394D01*
X164848289Y-111873789D01*
X164959789Y-111762289D01*
X165047394Y-111631179D01*
X165107737Y-111485497D01*
X165138500Y-111330842D01*
X165138500Y-111173158D01*
X165138500Y-111173155D01*
X165138499Y-111173153D01*
X165107737Y-111018503D01*
X165077456Y-110945397D01*
X165047397Y-110872827D01*
X165047390Y-110872814D01*
X164959789Y-110741711D01*
X164959786Y-110741707D01*
X164848292Y-110630213D01*
X164848288Y-110630210D01*
X164717185Y-110542609D01*
X164717172Y-110542602D01*
X164571501Y-110482264D01*
X164571491Y-110482261D01*
X164416149Y-110451361D01*
X164399392Y-110442595D01*
X164380914Y-110438576D01*
X164355877Y-110419833D01*
X164354238Y-110418976D01*
X164352660Y-110417425D01*
X164262370Y-110327135D01*
X167249500Y-110327135D01*
X167249500Y-112122870D01*
X167249501Y-112122876D01*
X167255908Y-112182483D01*
X167306202Y-112317328D01*
X167306206Y-112317335D01*
X167392452Y-112432544D01*
X167392455Y-112432547D01*
X167507664Y-112518793D01*
X167507671Y-112518797D01*
X167639082Y-112567810D01*
X167695016Y-112609681D01*
X167719433Y-112675145D01*
X167704582Y-112743418D01*
X167683431Y-112771673D01*
X167569889Y-112885215D01*
X167444951Y-113057179D01*
X167348444Y-113246585D01*
X167282753Y-113448760D01*
X167249500Y-113658713D01*
X167249500Y-113871286D01*
X167282753Y-114081239D01*
X167348444Y-114283414D01*
X167444951Y-114472820D01*
X167569890Y-114644786D01*
X167720213Y-114795109D01*
X167892179Y-114920048D01*
X167892181Y-114920049D01*
X167892184Y-114920051D01*
X168081588Y-115016557D01*
X168283757Y-115082246D01*
X168493713Y-115115500D01*
X168493714Y-115115500D01*
X168706286Y-115115500D01*
X168706287Y-115115500D01*
X168916243Y-115082246D01*
X169118412Y-115016557D01*
X169307816Y-114920051D01*
X169329789Y-114904086D01*
X169479786Y-114795109D01*
X169479788Y-114795106D01*
X169479792Y-114795104D01*
X169630104Y-114644792D01*
X169630106Y-114644788D01*
X169630109Y-114644786D01*
X169755048Y-114472820D01*
X169755047Y-114472820D01*
X169755051Y-114472816D01*
X169851557Y-114283412D01*
X169917246Y-114081243D01*
X169950500Y-113871287D01*
X169950500Y-113658713D01*
X169917246Y-113448757D01*
X169851557Y-113246588D01*
X169755051Y-113057184D01*
X169755049Y-113057181D01*
X169755048Y-113057179D01*
X169630109Y-112885213D01*
X169516569Y-112771673D01*
X169483084Y-112710350D01*
X169488068Y-112640658D01*
X169529940Y-112584725D01*
X169560915Y-112567810D01*
X169692331Y-112518796D01*
X169807546Y-112432546D01*
X169893796Y-112317331D01*
X169944091Y-112182483D01*
X169950500Y-112122873D01*
X169950499Y-110327128D01*
X169944091Y-110267517D01*
X169917803Y-110197036D01*
X169893797Y-110132671D01*
X169893793Y-110132664D01*
X169807547Y-110017455D01*
X169807544Y-110017452D01*
X169692335Y-109931206D01*
X169692328Y-109931202D01*
X169557482Y-109880908D01*
X169557483Y-109880908D01*
X169497883Y-109874501D01*
X169497881Y-109874500D01*
X169497873Y-109874500D01*
X169497864Y-109874500D01*
X167702129Y-109874500D01*
X167702123Y-109874501D01*
X167642516Y-109880908D01*
X167507671Y-109931202D01*
X167507664Y-109931206D01*
X167392455Y-110017452D01*
X167392452Y-110017455D01*
X167306206Y-110132664D01*
X167306202Y-110132671D01*
X167255908Y-110267517D01*
X167250269Y-110319975D01*
X167249501Y-110327123D01*
X167249500Y-110327135D01*
X164262370Y-110327135D01*
X163301590Y-109366355D01*
X163301588Y-109366352D01*
X163182717Y-109247481D01*
X163182716Y-109247480D01*
X163095904Y-109197360D01*
X163095904Y-109197359D01*
X163095900Y-109197358D01*
X163045785Y-109168423D01*
X162893057Y-109127499D01*
X162734943Y-109127499D01*
X162727347Y-109127499D01*
X162727331Y-109127500D01*
X143176940Y-109127500D01*
X143136019Y-109138464D01*
X143136019Y-109138465D01*
X143098751Y-109148451D01*
X143024214Y-109168423D01*
X143024209Y-109168426D01*
X142887290Y-109247475D01*
X142887282Y-109247481D01*
X142775480Y-109359284D01*
X142775479Y-109359285D01*
X142733336Y-109401427D01*
X142672013Y-109434912D01*
X142672010Y-109434911D01*
X142669848Y-109435362D01*
X142514508Y-109466261D01*
X142514498Y-109466264D01*
X142368827Y-109526602D01*
X142368814Y-109526609D01*
X142237711Y-109614210D01*
X142237707Y-109614213D01*
X142126213Y-109725707D01*
X142126210Y-109725711D01*
X142038609Y-109856814D01*
X142038602Y-109856827D01*
X141978264Y-110002498D01*
X141978261Y-110002510D01*
X141947500Y-110157153D01*
X130712454Y-110157153D01*
X130311819Y-109756518D01*
X130278334Y-109695195D01*
X130275500Y-109668837D01*
X130275500Y-107533464D01*
X130272583Y-107518806D01*
X130272582Y-107518805D01*
X130272581Y-107518796D01*
X130249541Y-107402964D01*
X130200944Y-107285643D01*
X130199300Y-107281048D01*
X130124698Y-107169398D01*
X130124697Y-107169397D01*
X130124695Y-107169394D01*
X130030606Y-107075305D01*
X128655609Y-105700307D01*
X128655605Y-105700304D01*
X128544975Y-105626383D01*
X128544971Y-105626381D01*
X128527040Y-105618953D01*
X128472639Y-105575109D01*
X128450578Y-105508813D01*
X128450499Y-105504394D01*
X128450499Y-105327129D01*
X128450498Y-105327123D01*
X128450497Y-105327116D01*
X128444091Y-105267517D01*
X128393796Y-105132669D01*
X128393795Y-105132668D01*
X128393793Y-105132664D01*
X128307547Y-105017455D01*
X128307544Y-105017452D01*
X128192335Y-104931206D01*
X128192328Y-104931202D01*
X128057482Y-104880908D01*
X128057483Y-104880908D01*
X127997883Y-104874501D01*
X127997881Y-104874500D01*
X127997873Y-104874500D01*
X127997864Y-104874500D01*
X126202129Y-104874500D01*
X126202123Y-104874501D01*
X126142516Y-104880908D01*
X126007671Y-104931202D01*
X126007664Y-104931206D01*
X125892455Y-105017452D01*
X125892452Y-105017455D01*
X125806206Y-105132664D01*
X125806202Y-105132671D01*
X125755908Y-105267517D01*
X125749501Y-105327116D01*
X125749501Y-105327123D01*
X125749500Y-105327135D01*
X123150500Y-105327135D01*
X123150500Y-85484722D01*
X138668829Y-85484722D01*
X138692623Y-85493597D01*
X138692627Y-85493598D01*
X138752155Y-85499999D01*
X138752172Y-85500000D01*
X143847828Y-85500000D01*
X143847844Y-85499999D01*
X143907372Y-85493598D01*
X143907379Y-85493596D01*
X144042086Y-85443354D01*
X144042089Y-85443352D01*
X144101688Y-85398736D01*
X144167152Y-85374318D01*
X144235425Y-85389169D01*
X144284831Y-85438573D01*
X144300000Y-85498002D01*
X144300000Y-89700000D01*
X145876000Y-89700000D01*
X145943039Y-89719685D01*
X145988794Y-89772489D01*
X146000000Y-89824000D01*
X146000000Y-105900000D01*
X149300000Y-105900000D01*
X149300000Y-89824000D01*
X149319685Y-89756961D01*
X149372489Y-89711206D01*
X149424000Y-89700000D01*
X150900000Y-89700000D01*
X150900000Y-85498002D01*
X150919685Y-85430963D01*
X150972489Y-85385208D01*
X151041647Y-85375264D01*
X151098312Y-85398736D01*
X151157910Y-85443352D01*
X151157913Y-85443354D01*
X151292620Y-85493596D01*
X151292627Y-85493598D01*
X151352155Y-85499999D01*
X151352172Y-85500000D01*
X156447828Y-85500000D01*
X156447844Y-85499999D01*
X156507375Y-85493598D01*
X156531170Y-85484723D01*
X156531170Y-85484722D01*
X153896447Y-82850000D01*
X153946078Y-82850000D01*
X154035095Y-82826148D01*
X154114905Y-82780070D01*
X154180070Y-82714905D01*
X154226148Y-82635095D01*
X154250000Y-82546078D01*
X154250000Y-82499999D01*
X154253553Y-82499999D01*
X154253553Y-82500000D01*
X156884722Y-85131170D01*
X156884723Y-85131170D01*
X156893598Y-85107375D01*
X156899999Y-85047844D01*
X156900000Y-85047827D01*
X156900000Y-79952172D01*
X156899999Y-79952155D01*
X156893598Y-79892627D01*
X156893597Y-79892623D01*
X156884722Y-79868829D01*
X154253553Y-82499999D01*
X154250000Y-82499999D01*
X154250000Y-82453922D01*
X154226148Y-82364905D01*
X154180070Y-82285095D01*
X154114905Y-82219930D01*
X154035095Y-82173852D01*
X153946078Y-82150000D01*
X153853922Y-82150000D01*
X153764905Y-82173852D01*
X153685095Y-82219930D01*
X153619930Y-82285095D01*
X153573852Y-82364905D01*
X153550000Y-82453922D01*
X153550000Y-82503553D01*
X153546447Y-82500000D01*
X150915277Y-79868829D01*
X150915274Y-79868829D01*
X150906404Y-79892615D01*
X150906401Y-79892625D01*
X150900000Y-79952157D01*
X150900000Y-81576000D01*
X150880315Y-81643039D01*
X150827511Y-81688794D01*
X150776000Y-81700000D01*
X144424000Y-81700000D01*
X144356961Y-81680315D01*
X144311206Y-81627511D01*
X144300000Y-81576000D01*
X144300000Y-79952172D01*
X144299999Y-79952155D01*
X144293598Y-79892627D01*
X144293597Y-79892623D01*
X144284722Y-79868829D01*
X141653553Y-82500000D01*
X141650000Y-82503552D01*
X141650000Y-82453922D01*
X141626148Y-82364905D01*
X141580070Y-82285095D01*
X141514905Y-82219930D01*
X141435095Y-82173852D01*
X141346078Y-82150000D01*
X141253922Y-82150000D01*
X141164905Y-82173852D01*
X141085095Y-82219930D01*
X141019930Y-82285095D01*
X140973852Y-82364905D01*
X140950000Y-82453922D01*
X140950000Y-82546078D01*
X140973852Y-82635095D01*
X141019930Y-82714905D01*
X141085095Y-82780070D01*
X141164905Y-82826148D01*
X141253922Y-82850000D01*
X141303553Y-82850000D01*
X138668829Y-85484722D01*
X123150500Y-85484722D01*
X123150500Y-79952157D01*
X138300000Y-79952157D01*
X138300000Y-85047844D01*
X138306401Y-85107373D01*
X138315276Y-85131170D01*
X140946447Y-82500000D01*
X140946447Y-82499999D01*
X138315277Y-79868829D01*
X138315274Y-79868829D01*
X138306404Y-79892615D01*
X138306401Y-79892625D01*
X138300000Y-79952157D01*
X123150500Y-79952157D01*
X123150500Y-79515274D01*
X138668829Y-79515274D01*
X138668829Y-79515277D01*
X141300000Y-82146447D01*
X141300001Y-82146447D01*
X143931170Y-79515276D01*
X143931165Y-79515274D01*
X151268829Y-79515274D01*
X151268829Y-79515277D01*
X153900000Y-82146447D01*
X153900001Y-82146447D01*
X156531170Y-79515276D01*
X156507373Y-79506401D01*
X156447844Y-79500000D01*
X151352157Y-79500000D01*
X151292625Y-79506401D01*
X151292615Y-79506404D01*
X151268829Y-79515274D01*
X143931165Y-79515274D01*
X143907373Y-79506401D01*
X143847844Y-79500000D01*
X138752157Y-79500000D01*
X138692625Y-79506401D01*
X138692615Y-79506404D01*
X138668829Y-79515274D01*
X123150500Y-79515274D01*
X123150500Y-79184722D01*
X138668829Y-79184722D01*
X138692623Y-79193597D01*
X138692627Y-79193598D01*
X138752155Y-79199999D01*
X138752172Y-79200000D01*
X143847828Y-79200000D01*
X143847844Y-79199999D01*
X143907375Y-79193598D01*
X143931170Y-79184723D01*
X143931170Y-79184722D01*
X144968829Y-79184722D01*
X144992623Y-79193597D01*
X144992627Y-79193598D01*
X145052155Y-79199999D01*
X145052172Y-79200000D01*
X150147828Y-79200000D01*
X150147844Y-79199999D01*
X150207375Y-79193598D01*
X150231170Y-79184723D01*
X150231170Y-79184722D01*
X151268829Y-79184722D01*
X151292623Y-79193597D01*
X151292627Y-79193598D01*
X151352155Y-79199999D01*
X151352172Y-79200000D01*
X156447828Y-79200000D01*
X156447844Y-79199999D01*
X156507375Y-79193598D01*
X156531170Y-79184723D01*
X156531170Y-79184722D01*
X153900000Y-76553553D01*
X151268829Y-79184722D01*
X150231170Y-79184722D01*
X147600000Y-76553553D01*
X144968829Y-79184722D01*
X143931170Y-79184722D01*
X141300000Y-76553553D01*
X138668829Y-79184722D01*
X123150500Y-79184722D01*
X123150500Y-73652157D01*
X138300000Y-73652157D01*
X138300000Y-78747844D01*
X138306401Y-78807373D01*
X138315276Y-78831170D01*
X140946447Y-76200000D01*
X140946447Y-76199999D01*
X140900370Y-76153922D01*
X140950000Y-76153922D01*
X140950000Y-76246078D01*
X140973852Y-76335095D01*
X141019930Y-76414905D01*
X141085095Y-76480070D01*
X141164905Y-76526148D01*
X141253922Y-76550000D01*
X141346078Y-76550000D01*
X141435095Y-76526148D01*
X141514905Y-76480070D01*
X141580070Y-76414905D01*
X141626148Y-76335095D01*
X141650000Y-76246078D01*
X141650000Y-76199999D01*
X141653553Y-76199999D01*
X141653553Y-76200000D01*
X144284722Y-78831170D01*
X144284723Y-78831170D01*
X144293598Y-78807375D01*
X144299999Y-78747844D01*
X144300000Y-78747827D01*
X144300000Y-73652172D01*
X144299999Y-73652157D01*
X144600000Y-73652157D01*
X144600000Y-78747844D01*
X144606401Y-78807373D01*
X144615276Y-78831170D01*
X147246447Y-76200000D01*
X147246447Y-76199999D01*
X147200370Y-76153922D01*
X147250000Y-76153922D01*
X147250000Y-76246078D01*
X147273852Y-76335095D01*
X147319930Y-76414905D01*
X147385095Y-76480070D01*
X147464905Y-76526148D01*
X147553922Y-76550000D01*
X147646078Y-76550000D01*
X147735095Y-76526148D01*
X147814905Y-76480070D01*
X147880070Y-76414905D01*
X147926148Y-76335095D01*
X147950000Y-76246078D01*
X147950000Y-76199999D01*
X147953553Y-76199999D01*
X147953553Y-76200000D01*
X150584722Y-78831170D01*
X150584723Y-78831170D01*
X150593598Y-78807375D01*
X150599999Y-78747844D01*
X150600000Y-78747827D01*
X150600000Y-73652172D01*
X150599999Y-73652157D01*
X150900000Y-73652157D01*
X150900000Y-78747844D01*
X150906401Y-78807373D01*
X150915276Y-78831170D01*
X153546447Y-76200000D01*
X153546447Y-76199999D01*
X153500370Y-76153922D01*
X153550000Y-76153922D01*
X153550000Y-76246078D01*
X153573852Y-76335095D01*
X153619930Y-76414905D01*
X153685095Y-76480070D01*
X153764905Y-76526148D01*
X153853922Y-76550000D01*
X153946078Y-76550000D01*
X154035095Y-76526148D01*
X154114905Y-76480070D01*
X154180070Y-76414905D01*
X154226148Y-76335095D01*
X154250000Y-76246078D01*
X154250000Y-76199999D01*
X154253553Y-76199999D01*
X154253553Y-76200000D01*
X156884722Y-78831170D01*
X156884723Y-78831170D01*
X156893598Y-78807375D01*
X156899999Y-78747844D01*
X156900000Y-78747827D01*
X156900000Y-73652172D01*
X156899999Y-73652155D01*
X156893598Y-73592627D01*
X156893597Y-73592623D01*
X156884722Y-73568829D01*
X154253553Y-76199999D01*
X154250000Y-76199999D01*
X154250000Y-76153922D01*
X154226148Y-76064905D01*
X154180070Y-75985095D01*
X154114905Y-75919930D01*
X154035095Y-75873852D01*
X153946078Y-75850000D01*
X153853922Y-75850000D01*
X153764905Y-75873852D01*
X153685095Y-75919930D01*
X153619930Y-75985095D01*
X153573852Y-76064905D01*
X153550000Y-76153922D01*
X153500370Y-76153922D01*
X150915277Y-73568829D01*
X150915274Y-73568829D01*
X150906404Y-73592615D01*
X150906401Y-73592625D01*
X150900000Y-73652157D01*
X150599999Y-73652157D01*
X150599999Y-73652155D01*
X150593598Y-73592627D01*
X150593597Y-73592623D01*
X150584722Y-73568829D01*
X147953553Y-76199999D01*
X147950000Y-76199999D01*
X147950000Y-76153922D01*
X147926148Y-76064905D01*
X147880070Y-75985095D01*
X147814905Y-75919930D01*
X147735095Y-75873852D01*
X147646078Y-75850000D01*
X147553922Y-75850000D01*
X147464905Y-75873852D01*
X147385095Y-75919930D01*
X147319930Y-75985095D01*
X147273852Y-76064905D01*
X147250000Y-76153922D01*
X147200370Y-76153922D01*
X144615277Y-73568829D01*
X144615274Y-73568829D01*
X144606404Y-73592615D01*
X144606401Y-73592625D01*
X144600000Y-73652157D01*
X144299999Y-73652157D01*
X144299999Y-73652155D01*
X144293598Y-73592627D01*
X144293597Y-73592623D01*
X144284722Y-73568829D01*
X141653553Y-76199999D01*
X141650000Y-76199999D01*
X141650000Y-76153922D01*
X141626148Y-76064905D01*
X141580070Y-75985095D01*
X141514905Y-75919930D01*
X141435095Y-75873852D01*
X141346078Y-75850000D01*
X141253922Y-75850000D01*
X141164905Y-75873852D01*
X141085095Y-75919930D01*
X141019930Y-75985095D01*
X140973852Y-76064905D01*
X140950000Y-76153922D01*
X140900370Y-76153922D01*
X138315277Y-73568829D01*
X138315274Y-73568829D01*
X138306404Y-73592615D01*
X138306401Y-73592625D01*
X138300000Y-73652157D01*
X123150500Y-73652157D01*
X123150500Y-73215274D01*
X138668829Y-73215274D01*
X138668829Y-73215277D01*
X141300000Y-75846447D01*
X141300001Y-75846447D01*
X143931170Y-73215276D01*
X143931165Y-73215274D01*
X144968829Y-73215274D01*
X144968829Y-73215277D01*
X147600000Y-75846447D01*
X147600001Y-75846447D01*
X150231170Y-73215276D01*
X150231165Y-73215274D01*
X151268829Y-73215274D01*
X151268829Y-73215277D01*
X153900000Y-75846447D01*
X153900001Y-75846447D01*
X156531170Y-73215276D01*
X156507373Y-73206401D01*
X156447844Y-73200000D01*
X151352157Y-73200000D01*
X151292625Y-73206401D01*
X151292615Y-73206404D01*
X151268829Y-73215274D01*
X150231165Y-73215274D01*
X150207373Y-73206401D01*
X150147844Y-73200000D01*
X145052157Y-73200000D01*
X144992625Y-73206401D01*
X144992615Y-73206404D01*
X144968829Y-73215274D01*
X143931165Y-73215274D01*
X143907373Y-73206401D01*
X143847844Y-73200000D01*
X138752157Y-73200000D01*
X138692625Y-73206401D01*
X138692615Y-73206404D01*
X138668829Y-73215274D01*
X123150500Y-73215274D01*
X123150500Y-72884722D01*
X138668829Y-72884722D01*
X138692623Y-72893597D01*
X138692627Y-72893598D01*
X138752155Y-72899999D01*
X138752172Y-72900000D01*
X143847828Y-72900000D01*
X143847844Y-72899999D01*
X143907375Y-72893598D01*
X143931170Y-72884723D01*
X143931170Y-72884722D01*
X144968829Y-72884722D01*
X144992623Y-72893597D01*
X144992627Y-72893598D01*
X145052155Y-72899999D01*
X145052172Y-72900000D01*
X150147828Y-72900000D01*
X150147844Y-72899999D01*
X150207375Y-72893598D01*
X150231170Y-72884723D01*
X150231170Y-72884722D01*
X151268829Y-72884722D01*
X151292623Y-72893597D01*
X151292627Y-72893598D01*
X151352155Y-72899999D01*
X151352172Y-72900000D01*
X156447828Y-72900000D01*
X156447844Y-72899999D01*
X156507375Y-72893598D01*
X156531170Y-72884723D01*
X156531170Y-72884722D01*
X153900000Y-70253553D01*
X151268829Y-72884722D01*
X150231170Y-72884722D01*
X147600000Y-70253553D01*
X144968829Y-72884722D01*
X143931170Y-72884722D01*
X141300000Y-70253553D01*
X138668829Y-72884722D01*
X123150500Y-72884722D01*
X123150500Y-67352157D01*
X138300000Y-67352157D01*
X138300000Y-72447844D01*
X138306401Y-72507373D01*
X138315276Y-72531170D01*
X140946447Y-69900000D01*
X140946447Y-69899999D01*
X140900370Y-69853922D01*
X140950000Y-69853922D01*
X140950000Y-69946078D01*
X140973852Y-70035095D01*
X141019930Y-70114905D01*
X141085095Y-70180070D01*
X141164905Y-70226148D01*
X141253922Y-70250000D01*
X141346078Y-70250000D01*
X141435095Y-70226148D01*
X141514905Y-70180070D01*
X141580070Y-70114905D01*
X141626148Y-70035095D01*
X141650000Y-69946078D01*
X141650000Y-69899999D01*
X141653553Y-69899999D01*
X141653553Y-69900000D01*
X144284722Y-72531170D01*
X144284723Y-72531170D01*
X144293598Y-72507375D01*
X144299999Y-72447844D01*
X144300000Y-72447827D01*
X144300000Y-67352172D01*
X144299999Y-67352157D01*
X144600000Y-67352157D01*
X144600000Y-72447844D01*
X144606401Y-72507373D01*
X144615276Y-72531170D01*
X147246447Y-69900000D01*
X147246447Y-69899999D01*
X147200370Y-69853922D01*
X147250000Y-69853922D01*
X147250000Y-69946078D01*
X147273852Y-70035095D01*
X147319930Y-70114905D01*
X147385095Y-70180070D01*
X147464905Y-70226148D01*
X147553922Y-70250000D01*
X147646078Y-70250000D01*
X147735095Y-70226148D01*
X147814905Y-70180070D01*
X147880070Y-70114905D01*
X147926148Y-70035095D01*
X147950000Y-69946078D01*
X147950000Y-69899999D01*
X147953553Y-69899999D01*
X147953553Y-69900000D01*
X150584722Y-72531170D01*
X150584723Y-72531170D01*
X150593598Y-72507375D01*
X150599999Y-72447844D01*
X150600000Y-72447827D01*
X150600000Y-67352172D01*
X150599999Y-67352157D01*
X150900000Y-67352157D01*
X150900000Y-72447844D01*
X150906401Y-72507373D01*
X150915276Y-72531170D01*
X153546447Y-69900000D01*
X153546447Y-69899999D01*
X153500370Y-69853922D01*
X153550000Y-69853922D01*
X153550000Y-69946078D01*
X153573852Y-70035095D01*
X153619930Y-70114905D01*
X153685095Y-70180070D01*
X153764905Y-70226148D01*
X153853922Y-70250000D01*
X153946078Y-70250000D01*
X154035095Y-70226148D01*
X154114905Y-70180070D01*
X154180070Y-70114905D01*
X154226148Y-70035095D01*
X154250000Y-69946078D01*
X154250000Y-69899999D01*
X154253553Y-69899999D01*
X154253553Y-69900000D01*
X156884722Y-72531170D01*
X156884723Y-72531170D01*
X156893598Y-72507375D01*
X156899999Y-72447844D01*
X156900000Y-72447827D01*
X156900000Y-67352172D01*
X156899999Y-67352155D01*
X156893598Y-67292627D01*
X156893597Y-67292623D01*
X156884722Y-67268829D01*
X154253553Y-69899999D01*
X154250000Y-69899999D01*
X154250000Y-69853922D01*
X154226148Y-69764905D01*
X154180070Y-69685095D01*
X154114905Y-69619930D01*
X154035095Y-69573852D01*
X153946078Y-69550000D01*
X153853922Y-69550000D01*
X153764905Y-69573852D01*
X153685095Y-69619930D01*
X153619930Y-69685095D01*
X153573852Y-69764905D01*
X153550000Y-69853922D01*
X153500370Y-69853922D01*
X150915277Y-67268829D01*
X150915274Y-67268829D01*
X150906404Y-67292615D01*
X150906401Y-67292625D01*
X150900000Y-67352157D01*
X150599999Y-67352157D01*
X150599999Y-67352155D01*
X150593598Y-67292627D01*
X150593597Y-67292623D01*
X150584722Y-67268829D01*
X147953553Y-69899999D01*
X147950000Y-69899999D01*
X147950000Y-69853922D01*
X147926148Y-69764905D01*
X147880070Y-69685095D01*
X147814905Y-69619930D01*
X147735095Y-69573852D01*
X147646078Y-69550000D01*
X147553922Y-69550000D01*
X147464905Y-69573852D01*
X147385095Y-69619930D01*
X147319930Y-69685095D01*
X147273852Y-69764905D01*
X147250000Y-69853922D01*
X147200370Y-69853922D01*
X144615277Y-67268829D01*
X144615274Y-67268829D01*
X144606404Y-67292615D01*
X144606401Y-67292625D01*
X144600000Y-67352157D01*
X144299999Y-67352157D01*
X144299999Y-67352155D01*
X144293598Y-67292627D01*
X144293597Y-67292623D01*
X144284722Y-67268829D01*
X141653553Y-69899999D01*
X141650000Y-69899999D01*
X141650000Y-69853922D01*
X141626148Y-69764905D01*
X141580070Y-69685095D01*
X141514905Y-69619930D01*
X141435095Y-69573852D01*
X141346078Y-69550000D01*
X141253922Y-69550000D01*
X141164905Y-69573852D01*
X141085095Y-69619930D01*
X141019930Y-69685095D01*
X140973852Y-69764905D01*
X140950000Y-69853922D01*
X140900370Y-69853922D01*
X138315277Y-67268829D01*
X138315274Y-67268829D01*
X138306404Y-67292615D01*
X138306401Y-67292625D01*
X138300000Y-67352157D01*
X123150500Y-67352157D01*
X123150500Y-66915274D01*
X138668829Y-66915274D01*
X138668829Y-66915277D01*
X141300000Y-69546447D01*
X141300001Y-69546447D01*
X143931170Y-66915276D01*
X143931165Y-66915274D01*
X144968829Y-66915274D01*
X144968829Y-66915277D01*
X147600000Y-69546447D01*
X147600001Y-69546447D01*
X150231170Y-66915276D01*
X150231165Y-66915274D01*
X151268829Y-66915274D01*
X151268829Y-66915277D01*
X153900000Y-69546447D01*
X153900001Y-69546447D01*
X156531170Y-66915276D01*
X156507373Y-66906401D01*
X156447844Y-66900000D01*
X151352157Y-66900000D01*
X151292625Y-66906401D01*
X151292615Y-66906404D01*
X151268829Y-66915274D01*
X150231165Y-66915274D01*
X150207373Y-66906401D01*
X150147844Y-66900000D01*
X145052157Y-66900000D01*
X144992625Y-66906401D01*
X144992615Y-66906404D01*
X144968829Y-66915274D01*
X143931165Y-66915274D01*
X143907373Y-66906401D01*
X143847844Y-66900000D01*
X138752157Y-66900000D01*
X138692625Y-66906401D01*
X138692615Y-66906404D01*
X138668829Y-66915274D01*
X123150500Y-66915274D01*
X123150500Y-52316500D01*
X123170185Y-52249461D01*
X123222989Y-52203706D01*
X123274500Y-52192500D01*
X172063500Y-52192500D01*
X172130539Y-52212185D01*
G37*
%TD.AperFunction*%
%TD*%
M02*
