%TF.GenerationSoftware,KiCad,Pcbnew,8.0.1*%
%TF.CreationDate,2025-08-18T13:03:48-05:00*%
%TF.ProjectId,GPS_board_v3,4750535f-626f-4617-9264-5f76332e6b69,rev?*%
%TF.SameCoordinates,Original*%
%TF.FileFunction,Paste,Top*%
%TF.FilePolarity,Positive*%
%FSLAX46Y46*%
G04 Gerber Fmt 4.6, Leading zero omitted, Abs format (unit mm)*
G04 Created by KiCad (PCBNEW 8.0.1) date 2025-08-18 13:03:48*
%MOMM*%
%LPD*%
G01*
G04 APERTURE LIST*
G04 Aperture macros list*
%AMRoundRect*
0 Rectangle with rounded corners*
0 $1 Rounding radius*
0 $2 $3 $4 $5 $6 $7 $8 $9 X,Y pos of 4 corners*
0 Add a 4 corners polygon primitive as box body*
4,1,4,$2,$3,$4,$5,$6,$7,$8,$9,$2,$3,0*
0 Add four circle primitives for the rounded corners*
1,1,$1+$1,$2,$3*
1,1,$1+$1,$4,$5*
1,1,$1+$1,$6,$7*
1,1,$1+$1,$8,$9*
0 Add four rect primitives between the rounded corners*
20,1,$1+$1,$2,$3,$4,$5,0*
20,1,$1+$1,$4,$5,$6,$7,0*
20,1,$1+$1,$6,$7,$8,$9,0*
20,1,$1+$1,$8,$9,$2,$3,0*%
G04 Aperture macros list end*
%ADD10R,0.650000X1.528000*%
%ADD11RoundRect,0.175000X0.175000X-0.725000X0.175000X0.725000X-0.175000X0.725000X-0.175000X-0.725000X0*%
%ADD12RoundRect,0.200000X0.200000X-0.700000X0.200000X0.700000X-0.200000X0.700000X-0.200000X-0.700000X0*%
%ADD13RoundRect,0.100000X0.100000X-0.637500X0.100000X0.637500X-0.100000X0.637500X-0.100000X-0.637500X0*%
%ADD14RoundRect,0.250000X-0.350000X-0.450000X0.350000X-0.450000X0.350000X0.450000X-0.350000X0.450000X0*%
%ADD15RoundRect,0.250000X0.450000X-0.350000X0.450000X0.350000X-0.450000X0.350000X-0.450000X-0.350000X0*%
%ADD16R,2.000000X2.000000*%
%ADD17RoundRect,0.250000X-0.250000X-0.475000X0.250000X-0.475000X0.250000X0.475000X-0.250000X0.475000X0*%
%ADD18RoundRect,0.250000X0.250000X0.475000X-0.250000X0.475000X-0.250000X-0.475000X0.250000X-0.475000X0*%
%ADD19RoundRect,0.250000X-0.325000X-0.450000X0.325000X-0.450000X0.325000X0.450000X-0.325000X0.450000X0*%
G04 APERTURE END LIST*
D10*
%TO.C,IC2*%
X133005000Y-114689000D03*
X131735000Y-114689000D03*
X130465000Y-114689000D03*
X129195000Y-114689000D03*
X129195000Y-120111000D03*
X130465000Y-120111000D03*
X131735000Y-120111000D03*
X133005000Y-120111000D03*
%TD*%
D11*
%TO.C,U5*%
X139900000Y-114050000D03*
D12*
X141000000Y-114050000D03*
X142100000Y-114050000D03*
X143200000Y-114050000D03*
X144300000Y-114050000D03*
X145400000Y-114050000D03*
X146500000Y-114050000D03*
X147600000Y-114050000D03*
D11*
X148700000Y-114050000D03*
X148700000Y-104550000D03*
D12*
X147600000Y-104550000D03*
X146500000Y-104550000D03*
X145400000Y-104550000D03*
X144300000Y-104550000D03*
X143200000Y-104550000D03*
X142100000Y-104550000D03*
X141000000Y-104550000D03*
D11*
X139900000Y-104550000D03*
%TD*%
D13*
%TO.C,U1*%
X159381000Y-115130500D03*
X160031000Y-115130500D03*
X160681000Y-115130500D03*
X161331000Y-115130500D03*
X161981000Y-115130500D03*
X162631000Y-115130500D03*
X163281000Y-115130500D03*
X163931000Y-115130500D03*
X164581000Y-115130500D03*
X165231000Y-115130500D03*
X165231000Y-109405500D03*
X164581000Y-109405500D03*
X163931000Y-109405500D03*
X163281000Y-109405500D03*
X162631000Y-109405500D03*
X161981000Y-109405500D03*
X161331000Y-109405500D03*
X160681000Y-109405500D03*
X160031000Y-109405500D03*
X159381000Y-109405500D03*
%TD*%
D14*
%TO.C,R9*%
X150600000Y-119000000D03*
X152600000Y-119000000D03*
%TD*%
D15*
%TO.C,R8*%
X135600000Y-118600000D03*
X135600000Y-116600000D03*
%TD*%
D14*
%TO.C,R1*%
X158004000Y-118872000D03*
X160004000Y-118872000D03*
%TD*%
D16*
%TO.C,A1*%
X147600000Y-84800000D03*
%TD*%
D14*
%TO.C,R10*%
X153400000Y-123815000D03*
X155400000Y-123815000D03*
%TD*%
D17*
%TO.C,C2*%
X163708000Y-118872000D03*
X165608000Y-118872000D03*
%TD*%
D18*
%TO.C,C1*%
X158872000Y-121158000D03*
X156972000Y-121158000D03*
%TD*%
D19*
%TO.C,D1*%
X153475000Y-127215000D03*
X155525000Y-127215000D03*
%TD*%
M02*
